<?xml version="1.0" encoding="UTF-8" standalone="no"?>
<!DOCTYPE svg PUBLIC "-//W3C//DTD SVG 1.1//EN"
 "http://www.w3.org/Graphics/SVG/1.1/DTD/svg11.dtd">
<!-- Generated by graphviz version 14.1.4 (20260321.0153)
 -->
<!-- Title: broken&#45;mutex Pages: 1 -->
<svg width="406pt" height="215pt"
 viewBox="0.00 0.00 406.00 215.00" xmlns="http://www.w3.org/2000/svg" xmlns:xlink="http://www.w3.org/1999/xlink">
<g id="graph0" class="graph" transform="scale(1 1) rotate(0) translate(4 211.25)">
<title>broken&#45;mutex</title>
<polygon fill="white" stroke="none" points="-4,4 -4,-211.25 402.4,-211.25 402.4,4 -4,4"/>
<text xml:space="preserve" text-anchor="middle" x="199.2" y="-189.95" font-family="Helvetica,sans-Serif" font-size="14.00">broken&#45;mutex</text>
<text xml:space="preserve" text-anchor="middle" x="199.2" y="-174.2" font-family="Helvetica,sans-Serif" font-size="14.00">reachable 2/4 states</text>
<text xml:space="preserve" text-anchor="middle" x="199.2" y="-158.45" font-family="Helvetica,sans-Serif" font-size="14.00">2 visible transitions</text>
<text xml:space="preserve" text-anchor="middle" x="199.2" y="-142.7" font-family="Helvetica,sans-Serif" font-size="14.00">0 deadlocks</text>
<text xml:space="preserve" text-anchor="middle" x="199.2" y="-126.95" font-family="Helvetica,sans-Serif" font-size="14.00">1 invariant&#45;bad states</text>
<text xml:space="preserve" text-anchor="middle" x="199.2" y="-111.2" font-family="Helvetica,sans-Serif" font-size="14.00">actions: both&#45;enter</text>
<text xml:space="preserve" text-anchor="middle" x="199.2" y="-95.45" font-family="Helvetica,sans-Serif" font-size="14.00">properties: none</text>
<!-- __start__ -->
<g id="node1" class="node">
<title>__start__</title>
<ellipse fill="#2a9d8f" stroke="#2a9d8f" cx="7.2" cy="-27.62" rx="7.2" ry="7.2"/>
</g>
<!-- n_5b5b227031222c2269646c65225d2c5b227032222c2269646c65225d5d -->
<g id="node2" class="node">
<title>n_5b5b227031222c2269646c65225d2c5b227032222c2269646c65225d5d</title>
<g id="a_node2"><a xlink:title="[[&quot;p1&quot;,&quot;idle&quot;],[&quot;p2&quot;,&quot;idle&quot;]]">
<path fill="#d8f3dc" stroke="#2d6a4f" stroke-width="2" d="M117.65,-55.25C117.65,-55.25 63.4,-55.25 63.4,-55.25 57.4,-55.25 51.4,-49.25 51.4,-43.25 51.4,-43.25 51.4,-12 51.4,-12 51.4,-6 57.4,0 63.4,0 63.4,0 117.65,0 117.65,0 123.65,0 129.65,-6 129.65,-12 129.65,-12 129.65,-43.25 129.65,-43.25 129.65,-49.25 123.65,-55.25 117.65,-55.25"/>
<text xml:space="preserve" text-anchor="middle" x="90.52" y="-37.95" font-family="Helvetica,sans-Serif" font-size="14.00">p1 = &quot;idle&quot;</text>
<text xml:space="preserve" text-anchor="middle" x="90.52" y="-22.2" font-family="Helvetica,sans-Serif" font-size="14.00">p2 = &quot;idle&quot;</text>
<text xml:space="preserve" text-anchor="middle" x="90.52" y="-6.45" font-family="Helvetica,sans-Serif" font-size="14.00">init</text>
</a>
</g>
</g>
<!-- __start__&#45;&gt;n_5b5b227031222c2269646c65225d2c5b227032222c2269646c65225d5d -->
<g id="edge1" class="edge">
<title>__start__&#45;&gt;n_5b5b227031222c2269646c65225d2c5b227032222c2269646c65225d5d</title>
<path fill="none" stroke="#2a9d8f" stroke-width="2" d="M14.86,-27.62C20.33,-27.62 28.66,-27.62 37.79,-27.62"/>
<polygon fill="#2a9d8f" stroke="#2a9d8f" stroke-width="2" points="37.52,-31.13 47.52,-27.63 37.52,-24.13 37.52,-31.13"/>
</g>
<!-- n_5b5b227031222c226373225d2c5b227032222c226373225d5d -->
<g id="node3" class="node">
<title>n_5b5b227031222c226373225d2c5b227032222c226373225d5d</title>
<g id="a_node3"><a xlink:title="[[&quot;p1&quot;,&quot;cs&quot;],[&quot;p2&quot;,&quot;cs&quot;]]">
<path fill="#ffe3e3" stroke="#c92a2a" stroke-width="2" d="M386.4,-55.25C386.4,-55.25 239.15,-55.25 239.15,-55.25 233.15,-55.25 227.15,-49.25 227.15,-43.25 227.15,-43.25 227.15,-12 227.15,-12 227.15,-6 233.15,0 239.15,0 239.15,0 386.4,0 386.4,0 392.4,0 398.4,-6 398.4,-12 398.4,-12 398.4,-43.25 398.4,-43.25 398.4,-49.25 392.4,-55.25 386.4,-55.25"/>
<text xml:space="preserve" text-anchor="middle" x="312.77" y="-37.95" font-family="Helvetica,sans-Serif" font-size="14.00">p1 = &quot;cs&quot;</text>
<text xml:space="preserve" text-anchor="middle" x="312.77" y="-22.2" font-family="Helvetica,sans-Serif" font-size="14.00">p2 = &quot;cs&quot;</text>
<text xml:space="preserve" text-anchor="middle" x="312.77" y="-6.45" font-family="Helvetica,sans-Serif" font-size="14.00">violates: mutual&#45;exclusion</text>
</a>
</g>
</g>
<!-- n_5b5b227031222c2269646c65225d2c5b227032222c2269646c65225d5d&#45;&gt;n_5b5b227031222c226373225d2c5b227032222c226373225d5d -->
<g id="edge2" class="edge">
<title>n_5b5b227031222c2269646c65225d2c5b227032222c2269646c65225d5d&#45;&gt;n_5b5b227031222c226373225d2c5b227032222c226373225d5d</title>
<path fill="none" stroke="#6d597a" d="M130.65,-27.62C154.21,-27.62 185.34,-27.62 215.14,-27.62"/>
<polygon fill="#6d597a" stroke="#6d597a" points="214.96,-31.13 224.96,-27.63 214.96,-24.13 214.96,-31.13"/>
<text xml:space="preserve" text-anchor="middle" x="178.4" y="-30.07" font-family="Helvetica,sans-Serif" font-size="14.00">both&#45;enter</text>
</g>
<!-- n_5b5b227031222c226373225d2c5b227032222c226373225d5d&#45;&gt;n_5b5b227031222c226373225d2c5b227032222c226373225d5d -->
<g id="edge3" class="edge">
<title>n_5b5b227031222c226373225d2c5b227032222c226373225d5d&#45;&gt;n_5b5b227031222c226373225d2c5b227032222c226373225d5d</title>
<path fill="none" stroke="#6d597a" d="M287.58,-56.14C287.58,-65.65 295.98,-73.25 312.77,-73.25 322.49,-73.25 329.39,-70.71 333.49,-66.73"/>
<polygon fill="#6d597a" stroke="#6d597a" points="336.7,-68.11 337.38,-57.53 330.26,-65.38 336.7,-68.11"/>
<text xml:space="preserve" text-anchor="middle" x="312.77" y="-75.7" font-family="Helvetica,sans-Serif" font-size="14.00">both&#45;enter</text>
</g>
</g>
</svg>
