<?xml version="1.0" encoding="UTF-8" standalone="no"?>
<!DOCTYPE svg PUBLIC "-//W3C//DTD SVG 1.1//EN"
 "http://www.w3.org/Graphics/SVG/1.1/DTD/svg11.dtd">
<!-- Generated by graphviz version 14.1.4 (20260321.0153)
 -->
<!-- Title: light&#45;switch Pages: 1 -->
<svg width="302pt" height="168pt"
 viewBox="0.00 0.00 302.00 168.00" xmlns="http://www.w3.org/2000/svg" xmlns:xlink="http://www.w3.org/1999/xlink">
<g id="graph0" class="graph" transform="scale(1 1) rotate(0) translate(4 164.08)">
<title>light&#45;switch</title>
<polygon fill="white" stroke="none" points="-4,4 -4,-164.08 298.15,-164.08 298.15,4 -4,4"/>
<text xml:space="preserve" text-anchor="middle" x="147.07" y="-142.78" font-family="Helvetica,sans-Serif" font-size="14.00">light&#45;switch</text>
<text xml:space="preserve" text-anchor="middle" x="147.07" y="-127.03" font-family="Helvetica,sans-Serif" font-size="14.00">reachable 2/2 states</text>
<text xml:space="preserve" text-anchor="middle" x="147.07" y="-111.28" font-family="Helvetica,sans-Serif" font-size="14.00">2 visible transitions</text>
<text xml:space="preserve" text-anchor="middle" x="147.07" y="-95.53" font-family="Helvetica,sans-Serif" font-size="14.00">0 deadlocks</text>
<text xml:space="preserve" text-anchor="middle" x="147.07" y="-79.78" font-family="Helvetica,sans-Serif" font-size="14.00">0 invariant&#45;bad states</text>
<text xml:space="preserve" text-anchor="middle" x="147.07" y="-64.03" font-family="Helvetica,sans-Serif" font-size="14.00">actions: turn&#45;on, turn&#45;off</text>
<text xml:space="preserve" text-anchor="middle" x="147.07" y="-48.28" font-family="Helvetica,sans-Serif" font-size="14.00">properties: eventually&#45;on=true</text>
<!-- __start__ -->
<g id="node1" class="node">
<title>__start__</title>
<ellipse fill="#2a9d8f" stroke="#2a9d8f" cx="7.2" cy="-22.08" rx="7.2" ry="7.2"/>
</g>
<!-- n_5b5b226c69676874222c226f6666225d5d -->
<g id="node2" class="node">
<title>n_5b5b226c69676874222c226f6666225d5d</title>
<g id="a_node2"><a xlink:title="[[&quot;light&quot;,&quot;off&quot;]]">
<path fill="#d8f3dc" stroke="#2d6a4f" stroke-width="2" d="M121.4,-41.83C121.4,-41.83 63.4,-41.83 63.4,-41.83 57.4,-41.83 51.4,-35.83 51.4,-29.83 51.4,-29.83 51.4,-14.33 51.4,-14.33 51.4,-8.33 57.4,-2.33 63.4,-2.33 63.4,-2.33 121.4,-2.33 121.4,-2.33 127.4,-2.33 133.4,-8.33 133.4,-14.33 133.4,-14.33 133.4,-29.83 133.4,-29.83 133.4,-35.83 127.4,-41.83 121.4,-41.83"/>
<text xml:space="preserve" text-anchor="middle" x="92.4" y="-24.53" font-family="Helvetica,sans-Serif" font-size="14.00">light = &quot;off&quot;</text>
<text xml:space="preserve" text-anchor="middle" x="92.4" y="-8.78" font-family="Helvetica,sans-Serif" font-size="14.00">init</text>
</a>
</g>
</g>
<!-- __start__&#45;&gt;n_5b5b226c69676874222c226f6666225d5d -->
<g id="edge1" class="edge">
<title>__start__&#45;&gt;n_5b5b226c69676874222c226f6666225d5d</title>
<path fill="none" stroke="#2a9d8f" stroke-width="2" d="M14.73,-22.08C20.15,-22.08 28.44,-22.08 37.6,-22.08"/>
<polygon fill="#2a9d8f" stroke="#2a9d8f" stroke-width="2" points="37.41,-25.58 47.41,-22.08 37.41,-18.58 37.41,-25.58"/>
</g>
<!-- n_5b5b226c69676874222c226f6e225d5d -->
<g id="node3" class="node">
<title>n_5b5b226c69676874222c226f6e225d5d</title>
<g id="a_node3"><a xlink:title="[[&quot;light&quot;,&quot;on&quot;]]">
<path fill="#f8f9fb" stroke="#355070" d="M282.15,-40.08C282.15,-40.08 224.15,-40.08 224.15,-40.08 218.15,-40.08 212.15,-34.08 212.15,-28.08 212.15,-28.08 212.15,-16.08 212.15,-16.08 212.15,-10.08 218.15,-4.08 224.15,-4.08 224.15,-4.08 282.15,-4.08 282.15,-4.08 288.15,-4.08 294.15,-10.08 294.15,-16.08 294.15,-16.08 294.15,-28.08 294.15,-28.08 294.15,-34.08 288.15,-40.08 282.15,-40.08"/>
<text xml:space="preserve" text-anchor="middle" x="253.15" y="-16.65" font-family="Helvetica,sans-Serif" font-size="14.00">light = &quot;on&quot;</text>
</a>
</g>
</g>
<!-- n_5b5b226c69676874222c226f6666225d5d&#45;&gt;n_5b5b226c69676874222c226f6e225d5d -->
<g id="edge2" class="edge">
<title>n_5b5b226c69676874222c226f6666225d5d&#45;&gt;n_5b5b226c69676874222c226f6e225d5d</title>
<path fill="none" stroke="#6d597a" d="M134.28,-22.08C154.45,-22.08 179,-22.08 200.45,-22.08"/>
<polygon fill="#6d597a" stroke="#6d597a" points="200.17,-25.58 210.17,-22.08 200.17,-18.58 200.17,-25.58"/>
<text xml:space="preserve" text-anchor="middle" x="172.77" y="-24.53" font-family="Helvetica,sans-Serif" font-size="14.00">turn&#45;on</text>
</g>
<!-- n_5b5b226c69676874222c226f6e225d5d&#45;&gt;n_5b5b226c69676874222c226f6666225d5d -->
<g id="edge3" class="edge">
<title>n_5b5b226c69676874222c226f6e225d5d&#45;&gt;n_5b5b226c69676874222c226f6666225d5d</title>
<path fill="none" stroke="#6d597a" d="M211.71,-6.44C205.89,-4.74 199.92,-3.28 194.15,-2.33 175.41,0.78 170.14,0.78 151.4,-2.33 149.36,-2.67 147.3,-3.06 145.23,-3.52"/>
<polygon fill="#6d597a" stroke="#6d597a" points="144.45,-0.1 135.63,-5.97 146.18,-6.88 144.45,-0.1"/>
<text xml:space="preserve" text-anchor="middle" x="172.77" y="-4.78" font-family="Helvetica,sans-Serif" font-size="14.00">turn&#45;off</text>
</g>
</g>
</svg>
