<?xml version="1.0" encoding="UTF-8" standalone="no"?>
<!DOCTYPE svg PUBLIC "-//W3C//DTD SVG 1.1//EN"
 "http://www.w3.org/Graphics/SVG/1.1/DTD/svg11.dtd">
<!-- Generated by graphviz version 14.1.4 (20260321.0153)
 -->
<!-- Title: mutex&#45;2proc Pages: 1 -->
<svg width="357pt" height="257pt"
 viewBox="0.00 0.00 357.00 257.00" xmlns="http://www.w3.org/2000/svg" xmlns:xlink="http://www.w3.org/1999/xlink">
<g id="graph0" class="graph" transform="scale(1 1) rotate(0) translate(4 252.5)">
<title>mutex&#45;2proc</title>
<polygon fill="white" stroke="none" points="-4,4 -4,-252.5 353,-252.5 353,4 -4,4"/>
<text xml:space="preserve" text-anchor="middle" x="174.5" y="-231.2" font-family="Helvetica,sans-Serif" font-size="14.00">mutex&#45;2proc</text>
<text xml:space="preserve" text-anchor="middle" x="174.5" y="-215.45" font-family="Helvetica,sans-Serif" font-size="14.00">reachable 3/12 states</text>
<text xml:space="preserve" text-anchor="middle" x="174.5" y="-199.7" font-family="Helvetica,sans-Serif" font-size="14.00">4 visible transitions</text>
<text xml:space="preserve" text-anchor="middle" x="174.5" y="-183.95" font-family="Helvetica,sans-Serif" font-size="14.00">0 deadlocks</text>
<text xml:space="preserve" text-anchor="middle" x="174.5" y="-168.2" font-family="Helvetica,sans-Serif" font-size="14.00">0 invariant&#45;bad states</text>
<text xml:space="preserve" text-anchor="middle" x="174.5" y="-152.45" font-family="Helvetica,sans-Serif" font-size="14.00">actions: p1&#45;enter, p1&#45;exit, p2&#45;enter, p2&#45;exit</text>
<text xml:space="preserve" text-anchor="middle" x="174.5" y="-136.7" font-family="Helvetica,sans-Serif" font-size="14.00">properties: p1&#45;can&#45;reach&#45;cs=true, p2&#45;can&#45;reach&#45;cs=true</text>
<!-- __start__ -->
<g id="node1" class="node">
<title>__start__</title>
<ellipse fill="#2a9d8f" stroke="#2a9d8f" cx="27.5" cy="-64.62" rx="7.2" ry="7.2"/>
</g>
<!-- n_5b5b227031222c2269646c65225d2c5b227032222c2269646c65225d2c5b226c6f636b222c2266726565225d5d -->
<g id="node2" class="node">
<title>n_5b5b227031222c2269646c65225d2c5b227032222c2269646c65225d2c5b226c6f636b222c2266726565225d5d</title>
<g id="a_node2"><a xlink:title="[[&quot;p1&quot;,&quot;idle&quot;],[&quot;p2&quot;,&quot;idle&quot;],[&quot;lock&quot;,&quot;free&quot;]]">
<path fill="#d8f3dc" stroke="#2d6a4f" stroke-width="2" d="M149.2,-100.12C149.2,-100.12 83.7,-100.12 83.7,-100.12 77.7,-100.12 71.7,-94.12 71.7,-88.12 71.7,-88.12 71.7,-41.12 71.7,-41.12 71.7,-35.12 77.7,-29.12 83.7,-29.12 83.7,-29.12 149.2,-29.12 149.2,-29.12 155.2,-29.12 161.2,-35.12 161.2,-41.12 161.2,-41.12 161.2,-88.12 161.2,-88.12 161.2,-94.12 155.2,-100.12 149.2,-100.12"/>
<text xml:space="preserve" text-anchor="middle" x="116.45" y="-82.83" font-family="Helvetica,sans-Serif" font-size="14.00">p1 = &quot;idle&quot;</text>
<text xml:space="preserve" text-anchor="middle" x="116.45" y="-67.08" font-family="Helvetica,sans-Serif" font-size="14.00">p2 = &quot;idle&quot;</text>
<text xml:space="preserve" text-anchor="middle" x="116.45" y="-51.33" font-family="Helvetica,sans-Serif" font-size="14.00">lock = &quot;free&quot;</text>
<text xml:space="preserve" text-anchor="middle" x="116.45" y="-35.58" font-family="Helvetica,sans-Serif" font-size="14.00">init</text>
</a>
</g>
</g>
<!-- __start__&#45;&gt;n_5b5b227031222c2269646c65225d2c5b227032222c2269646c65225d2c5b226c6f636b222c2266726565225d5d -->
<g id="edge1" class="edge">
<title>__start__&#45;&gt;n_5b5b227031222c2269646c65225d2c5b227032222c2269646c65225d2c5b226c6f636b222c2266726565225d5d</title>
<path fill="none" stroke="#2a9d8f" stroke-width="2" d="M35.04,-64.62C40.47,-64.62 48.78,-64.62 58.04,-64.62"/>
<polygon fill="#2a9d8f" stroke="#2a9d8f" stroke-width="2" points="58.03,-68.13 68.03,-64.63 58.03,-61.13 58.03,-68.13"/>
</g>
<!-- n_5b5b227031222c2269646c65225d2c5b227032222c226373225d2c5b226c6f636b222c227032225d5d -->
<g id="node3" class="node">
<title>n_5b5b227031222c2269646c65225d2c5b227032222c226373225d2c5b226c6f636b222c227032225d5d</title>
<g id="a_node3"><a xlink:title="[[&quot;p1&quot;,&quot;idle&quot;],[&quot;p2&quot;,&quot;cs&quot;],[&quot;lock&quot;,&quot;p2&quot;]]">
<path fill="#f8f9fb" stroke="#355070" d="M316.7,-130.25C316.7,-130.25 259.45,-130.25 259.45,-130.25 253.45,-130.25 247.45,-124.25 247.45,-118.25 247.45,-118.25 247.45,-87 247.45,-87 247.45,-81 253.45,-75 259.45,-75 259.45,-75 316.7,-75 316.7,-75 322.7,-75 328.7,-81 328.7,-87 328.7,-87 328.7,-118.25 328.7,-118.25 328.7,-124.25 322.7,-130.25 316.7,-130.25"/>
<text xml:space="preserve" text-anchor="middle" x="288.07" y="-112.95" font-family="Helvetica,sans-Serif" font-size="14.00">p1 = &quot;idle&quot;</text>
<text xml:space="preserve" text-anchor="middle" x="288.07" y="-97.2" font-family="Helvetica,sans-Serif" font-size="14.00">p2 = &quot;cs&quot;</text>
<text xml:space="preserve" text-anchor="middle" x="288.07" y="-81.45" font-family="Helvetica,sans-Serif" font-size="14.00">lock = &quot;p2&quot;</text>
</a>
</g>
</g>
<!-- n_5b5b227031222c2269646c65225d2c5b227032222c2269646c65225d2c5b226c6f636b222c2266726565225d5d&#45;&gt;n_5b5b227031222c2269646c65225d2c5b227032222c226373225d2c5b226c6f636b222c227032225d5d -->
<g id="edge2" class="edge">
<title>n_5b5b227031222c2269646c65225d2c5b227032222c2269646c65225d2c5b226c6f636b222c2266726565225d5d&#45;&gt;n_5b5b227031222c2269646c65225d2c5b227032222c226373225d2c5b226c6f636b222c227032225d5d</title>
<path fill="none" stroke="#6d597a" d="M162.07,-94.99C167.65,-97.68 173.43,-100 179.2,-101.62 197.25,-106.71 217.69,-107.97 235.88,-107.62"/>
<polygon fill="#6d597a" stroke="#6d597a" points="235.8,-111.12 245.66,-107.25 235.53,-104.13 235.8,-111.12"/>
<text xml:space="preserve" text-anchor="middle" x="204.32" y="-110.12" font-family="Helvetica,sans-Serif" font-size="14.00">p2&#45;enter</text>
</g>
<!-- n_5b5b227031222c226373225d2c5b227032222c2269646c65225d2c5b226c6f636b222c227031225d5d -->
<g id="node4" class="node">
<title>n_5b5b227031222c226373225d2c5b227032222c2269646c65225d2c5b226c6f636b222c227031225d5d</title>
<g id="a_node4"><a xlink:title="[[&quot;p1&quot;,&quot;cs&quot;],[&quot;p2&quot;,&quot;idle&quot;],[&quot;lock&quot;,&quot;p1&quot;]]">
<path fill="#f8f9fb" stroke="#355070" d="M316.7,-55.25C316.7,-55.25 259.45,-55.25 259.45,-55.25 253.45,-55.25 247.45,-49.25 247.45,-43.25 247.45,-43.25 247.45,-12 247.45,-12 247.45,-6 253.45,0 259.45,0 259.45,0 316.7,0 316.7,0 322.7,0 328.7,-6 328.7,-12 328.7,-12 328.7,-43.25 328.7,-43.25 328.7,-49.25 322.7,-55.25 316.7,-55.25"/>
<text xml:space="preserve" text-anchor="middle" x="288.07" y="-37.95" font-family="Helvetica,sans-Serif" font-size="14.00">p1 = &quot;cs&quot;</text>
<text xml:space="preserve" text-anchor="middle" x="288.07" y="-22.2" font-family="Helvetica,sans-Serif" font-size="14.00">p2 = &quot;idle&quot;</text>
<text xml:space="preserve" text-anchor="middle" x="288.07" y="-6.45" font-family="Helvetica,sans-Serif" font-size="14.00">lock = &quot;p1&quot;</text>
</a>
</g>
</g>
<!-- n_5b5b227031222c2269646c65225d2c5b227032222c2269646c65225d2c5b226c6f636b222c2266726565225d5d&#45;&gt;n_5b5b227031222c226373225d2c5b227032222c2269646c65225d2c5b226c6f636b222c227031225d5d -->
<g id="edge3" class="edge">
<title>n_5b5b227031222c2269646c65225d2c5b227032222c2269646c65225d2c5b226c6f636b222c2266726565225d5d&#45;&gt;n_5b5b227031222c226373225d2c5b227032222c2269646c65225d2c5b226c6f636b222c227031225d5d</title>
<path fill="none" stroke="#6d597a" d="M162.16,-51.18C167.87,-49.64 173.66,-48.16 179.2,-46.88 197.6,-42.6 217.97,-38.74 235.99,-35.63"/>
<polygon fill="#6d597a" stroke="#6d597a" points="236.4,-39.11 245.68,-33.99 235.23,-32.21 236.4,-39.11"/>
<text xml:space="preserve" text-anchor="middle" x="204.32" y="-49.33" font-family="Helvetica,sans-Serif" font-size="14.00">p1&#45;enter</text>
</g>
<!-- n_5b5b227031222c2269646c65225d2c5b227032222c226373225d2c5b226c6f636b222c227032225d5d&#45;&gt;n_5b5b227031222c2269646c65225d2c5b227032222c2269646c65225d2c5b226c6f636b222c2266726565225d5d -->
<g id="edge4" class="edge">
<title>n_5b5b227031222c2269646c65225d2c5b227032222c226373225d2c5b226c6f636b222c227032225d5d&#45;&gt;n_5b5b227031222c2269646c65225d2c5b227032222c2269646c65225d2c5b226c6f636b222c2266726565225d5d</title>
<path fill="none" stroke="#6d597a" d="M247.08,-87.11C241.22,-85.16 235.22,-83.34 229.45,-81.88 211.38,-77.28 191.34,-73.72 173.26,-71.06"/>
<polygon fill="#6d597a" stroke="#6d597a" points="173.89,-67.61 163.5,-69.69 172.91,-74.55 173.89,-67.61"/>
<text xml:space="preserve" text-anchor="middle" x="204.32" y="-84.33" font-family="Helvetica,sans-Serif" font-size="14.00">p2&#45;exit</text>
</g>
<!-- n_5b5b227031222c226373225d2c5b227032222c2269646c65225d2c5b226c6f636b222c227031225d5d&#45;&gt;n_5b5b227031222c2269646c65225d2c5b227032222c2269646c65225d2c5b226c6f636b222c2266726565225d5d -->
<g id="edge5" class="edge">
<title>n_5b5b227031222c226373225d2c5b227032222c2269646c65225d2c5b226c6f636b222c227031225d5d&#45;&gt;n_5b5b227031222c2269646c65225d2c5b227032222c2269646c65225d2c5b226c6f636b222c2266726565225d5d</title>
<path fill="none" stroke="#6d597a" d="M246.95,-15.72C226.24,-11.53 200.84,-9.48 179.2,-16.88 174.99,-18.31 170.85,-20.17 166.82,-22.3"/>
<polygon fill="#6d597a" stroke="#6d597a" points="165.16,-19.22 158.38,-27.36 168.76,-25.22 165.16,-19.22"/>
<text xml:space="preserve" text-anchor="middle" x="204.32" y="-19.32" font-family="Helvetica,sans-Serif" font-size="14.00">p1&#45;exit</text>
</g>
</g>
</svg>
