<?xml version="1.0" encoding="UTF-8" standalone="no"?>
<!DOCTYPE svg PUBLIC "-//W3C//DTD SVG 1.1//EN"
 "http://www.w3.org/Graphics/SVG/1.1/DTD/svg11.dtd">
<!-- Generated by graphviz version 14.0.2 (20251019.1705)
 -->
<!-- Title: cas&#45;2proc&#45;race Pages: 1 -->
<svg width="515pt" height="793pt"
 viewBox="0.00 0.00 515.00 793.00" xmlns="http://www.w3.org/2000/svg" xmlns:xlink="http://www.w3.org/1999/xlink">
<g id="graph0" class="graph" transform="scale(1 1) rotate(0) translate(4 789.05)">
<title>cas&#45;2proc&#45;race</title>
<polygon fill="white" stroke="none" points="-4,4 -4,-789.05 511.25,-789.05 511.25,4 -4,4"/>
<text xml:space="preserve" text-anchor="middle" x="253.62" y="-767.75" font-family="Helvetica,sans-Serif" font-size="14.00">cas&#45;2proc&#45;race</text>
<text xml:space="preserve" text-anchor="middle" x="253.62" y="-752" font-family="Helvetica,sans-Serif" font-size="14.00">reachable 10/48 states</text>
<text xml:space="preserve" text-anchor="middle" x="253.62" y="-736.25" font-family="Helvetica,sans-Serif" font-size="14.00">12 visible transitions</text>
<text xml:space="preserve" text-anchor="middle" x="253.62" y="-720.5" font-family="Helvetica,sans-Serif" font-size="14.00">2 deadlocks</text>
<text xml:space="preserve" text-anchor="middle" x="253.62" y="-704.75" font-family="Helvetica,sans-Serif" font-size="14.00">0 invariant&#45;bad states</text>
<text xml:space="preserve" text-anchor="middle" x="253.62" y="-689" font-family="Helvetica,sans-Serif" font-size="14.00">actions: p1&#45;start, p1&#45;cas&#45;success, p1&#45;cas&#45;fail, p2&#45;start, p2&#45;cas&#45;success, p2&#45;cas&#45;fail</text>
<text xml:space="preserve" text-anchor="middle" x="253.62" y="-673.25" font-family="Helvetica,sans-Serif" font-size="14.00">properties: p1&#45;can&#45;win=true, p2&#45;can&#45;win=true, p1&#45;can&#45;lose=true, p2&#45;can&#45;lose=true</text>
<!-- __start__ -->
<g id="node1" class="node">
<title>__start__</title>
<ellipse fill="#2a9d8f" stroke="#2a9d8f" cx="264.12" cy="-659.6" rx="7.2" ry="7.2"/>
</g>
<!-- n_5b5b2270317063222c226130225d2c5b2270327063222c226130225d2c5b226d656d222c305d5d -->
<g id="node2" class="node">
<title>n_5b5b2270317063222c226130225d2c5b2270327063222c226130225d2c5b226d656d222c305d5d</title>
<g id="a_node2"><a xlink:title="[[&quot;p1pc&quot;,&quot;a0&quot;],[&quot;p2pc&quot;,&quot;a0&quot;],[&quot;mem&quot;,0]]">
<path fill="#d8f3dc" stroke="#2d6a4f" stroke-width="2" d="M292.83,-607.4C292.83,-607.4 235.41,-607.4 235.41,-607.4 229.41,-607.4 223.41,-601.4 223.41,-595.4 223.41,-595.4 223.41,-534.62 223.41,-534.62 223.41,-528.62 229.41,-522.62 235.41,-522.62 235.41,-522.62 292.83,-522.62 292.83,-522.62 298.83,-522.62 304.83,-528.62 304.83,-534.62 304.83,-534.62 304.83,-595.4 304.83,-595.4 304.83,-601.4 298.83,-607.4 292.83,-607.4"/>
<text xml:space="preserve" text-anchor="middle" x="264.12" y="-588.31" font-family="Helvetica,sans-Serif" font-size="11.00">s0</text>
<text xml:space="preserve" text-anchor="middle" x="264.12" y="-574.81" font-family="Helvetica,sans-Serif" font-size="11.00">p1pc = &quot;a0&quot;</text>
<text xml:space="preserve" text-anchor="middle" x="264.12" y="-561.31" font-family="Helvetica,sans-Serif" font-size="11.00">p2pc = &quot;a0&quot;</text>
<text xml:space="preserve" text-anchor="middle" x="264.12" y="-547.81" font-family="Helvetica,sans-Serif" font-size="11.00">mem = 0</text>
<text xml:space="preserve" text-anchor="middle" x="264.12" y="-534.31" font-family="Helvetica,sans-Serif" font-size="11.00">init</text>
</a>
</g>
</g>
<!-- __start__&#45;&gt;n_5b5b2270317063222c226130225d2c5b2270327063222c226130225d2c5b226d656d222c305d5d -->
<g id="edge1" class="edge">
<title>__start__&#45;&gt;n_5b5b2270317063222c226130225d2c5b2270327063222c226130225d2c5b226d656d222c305d5d</title>
<path fill="none" stroke="#2a9d8f" stroke-width="2" d="M264.12,-651.94C264.12,-644.98 264.12,-633.33 264.12,-620.82"/>
<polygon fill="#2a9d8f" stroke="#2a9d8f" stroke-width="2" points="267.63,-621.2 264.13,-611.2 260.63,-621.2 267.63,-621.2"/>
</g>
<!-- n_5b5b2270317063222c226130225d2c5b2270327063222c22747279225d2c5b226d656d222c305d5d -->
<g id="node3" class="node">
<title>n_5b5b2270317063222c226130225d2c5b2270327063222c22747279225d2c5b226d656d222c305d5d</title>
<g id="a_node3"><a xlink:title="[[&quot;p1pc&quot;,&quot;a0&quot;],[&quot;p2pc&quot;,&quot;try&quot;],[&quot;mem&quot;,0]]">
<path fill="#f8f9fb" stroke="#355070" d="M241.84,-466.62C241.84,-466.62 184.42,-466.62 184.42,-466.62 178.42,-466.62 172.42,-460.62 172.42,-454.62 172.42,-454.62 172.42,-407.34 172.42,-407.34 172.42,-401.34 178.42,-395.34 184.42,-395.34 184.42,-395.34 241.84,-395.34 241.84,-395.34 247.84,-395.34 253.84,-401.34 253.84,-407.34 253.84,-407.34 253.84,-454.62 253.84,-454.62 253.84,-460.62 247.84,-466.62 241.84,-466.62"/>
<text xml:space="preserve" text-anchor="middle" x="213.13" y="-447.53" font-family="Helvetica,sans-Serif" font-size="11.00">s1</text>
<text xml:space="preserve" text-anchor="middle" x="213.13" y="-434.03" font-family="Helvetica,sans-Serif" font-size="11.00">p1pc = &quot;a0&quot;</text>
<text xml:space="preserve" text-anchor="middle" x="213.13" y="-420.53" font-family="Helvetica,sans-Serif" font-size="11.00">p2pc = &quot;try&quot;</text>
<text xml:space="preserve" text-anchor="middle" x="213.13" y="-407.03" font-family="Helvetica,sans-Serif" font-size="11.00">mem = 0</text>
</a>
</g>
</g>
<!-- n_5b5b2270317063222c226130225d2c5b2270327063222c226130225d2c5b226d656d222c305d5d&#45;&gt;n_5b5b2270317063222c226130225d2c5b2270327063222c22747279225d2c5b226d656d222c305d5d -->
<g id="edge2" class="edge">
<title>n_5b5b2270317063222c226130225d2c5b2270327063222c226130225d2c5b226d656d222c305d5d&#45;&gt;n_5b5b2270317063222c226130225d2c5b2270327063222c22747279225d2c5b226d656d222c305d5d</title>
<path fill="none" stroke="#6d597a" d="M247.85,-521.87C242.41,-507.8 236.33,-492.05 230.79,-477.72"/>
<polygon fill="#6d597a" stroke="#6d597a" points="234.1,-476.57 227.23,-468.5 227.57,-479.09 234.1,-476.57"/>
<text xml:space="preserve" text-anchor="middle" x="255.13" y="-491.12" font-family="Helvetica,sans-Serif" font-size="10.00">p2&#45;start</text>
</g>
<!-- n_5b5b2270317063222c22747279225d2c5b2270327063222c226130225d2c5b226d656d222c305d5d -->
<g id="node5" class="node">
<title>n_5b5b2270317063222c22747279225d2c5b2270327063222c226130225d2c5b226d656d222c305d5d</title>
<g id="a_node5"><a xlink:title="[[&quot;p1pc&quot;,&quot;try&quot;],[&quot;p2pc&quot;,&quot;a0&quot;],[&quot;mem&quot;,0]]">
<path fill="#f8f9fb" stroke="#355070" d="M344.83,-466.62C344.83,-466.62 287.42,-466.62 287.42,-466.62 281.42,-466.62 275.42,-460.62 275.42,-454.62 275.42,-454.62 275.42,-407.34 275.42,-407.34 275.42,-401.34 281.42,-395.34 287.42,-395.34 287.42,-395.34 344.83,-395.34 344.83,-395.34 350.83,-395.34 356.83,-401.34 356.83,-407.34 356.83,-407.34 356.83,-454.62 356.83,-454.62 356.83,-460.62 350.83,-466.62 344.83,-466.62"/>
<text xml:space="preserve" text-anchor="middle" x="316.12" y="-447.53" font-family="Helvetica,sans-Serif" font-size="11.00">s3</text>
<text xml:space="preserve" text-anchor="middle" x="316.12" y="-434.03" font-family="Helvetica,sans-Serif" font-size="11.00">p1pc = &quot;try&quot;</text>
<text xml:space="preserve" text-anchor="middle" x="316.12" y="-420.53" font-family="Helvetica,sans-Serif" font-size="11.00">p2pc = &quot;a0&quot;</text>
<text xml:space="preserve" text-anchor="middle" x="316.12" y="-407.03" font-family="Helvetica,sans-Serif" font-size="11.00">mem = 0</text>
</a>
</g>
</g>
<!-- n_5b5b2270317063222c226130225d2c5b2270327063222c226130225d2c5b226d656d222c305d5d&#45;&gt;n_5b5b2270317063222c22747279225d2c5b2270327063222c226130225d2c5b226d656d222c305d5d -->
<g id="edge3" class="edge">
<title>n_5b5b2270317063222c226130225d2c5b2270327063222c226130225d2c5b226d656d222c305d5d&#45;&gt;n_5b5b2270317063222c22747279225d2c5b2270327063222c226130225d2c5b226d656d222c305d5d</title>
<path fill="none" stroke="#6d597a" d="M280.72,-521.87C286.26,-507.8 292.46,-492.05 298.11,-477.72"/>
<polygon fill="#6d597a" stroke="#6d597a" points="301.34,-479.08 301.74,-468.49 294.82,-476.52 301.34,-479.08"/>
<text xml:space="preserve" text-anchor="middle" x="309.74" y="-491.12" font-family="Helvetica,sans-Serif" font-size="10.00">p1&#45;start</text>
</g>
<!-- n_5b5b2270317063222c226130225d2c5b2270327063222c22776f6e225d2c5b226d656d222c325d5d -->
<g id="node4" class="node">
<title>n_5b5b2270317063222c226130225d2c5b2270327063222c22776f6e225d2c5b226d656d222c325d5d</title>
<g id="a_node4"><a xlink:title="[[&quot;p1pc&quot;,&quot;a0&quot;],[&quot;p2pc&quot;,&quot;won&quot;],[&quot;mem&quot;,2]]">
<path fill="#f8f9fb" stroke="#355070" d="M171.96,-339.34C171.96,-339.34 106.29,-339.34 106.29,-339.34 100.29,-339.34 94.29,-333.34 94.29,-327.34 94.29,-327.34 94.29,-280.06 94.29,-280.06 94.29,-274.06 100.29,-268.06 106.29,-268.06 106.29,-268.06 171.96,-268.06 171.96,-268.06 177.96,-268.06 183.96,-274.06 183.96,-280.06 183.96,-280.06 183.96,-327.34 183.96,-327.34 183.96,-333.34 177.96,-339.34 171.96,-339.34"/>
<text xml:space="preserve" text-anchor="middle" x="139.13" y="-320.25" font-family="Helvetica,sans-Serif" font-size="11.00">s2</text>
<text xml:space="preserve" text-anchor="middle" x="139.13" y="-306.75" font-family="Helvetica,sans-Serif" font-size="11.00">p1pc = &quot;a0&quot;</text>
<text xml:space="preserve" text-anchor="middle" x="139.13" y="-293.25" font-family="Helvetica,sans-Serif" font-size="11.00">p2pc = &quot;won&quot;</text>
<text xml:space="preserve" text-anchor="middle" x="139.13" y="-279.75" font-family="Helvetica,sans-Serif" font-size="11.00">mem = 2</text>
</a>
</g>
</g>
<!-- n_5b5b2270317063222c226130225d2c5b2270327063222c22747279225d2c5b226d656d222c305d5d&#45;&gt;n_5b5b2270317063222c226130225d2c5b2270327063222c22776f6e225d2c5b226d656d222c325d5d -->
<g id="edge4" class="edge">
<title>n_5b5b2270317063222c226130225d2c5b2270327063222c22747279225d2c5b226d656d222c305d5d&#45;&gt;n_5b5b2270317063222c226130225d2c5b2270327063222c22776f6e225d2c5b226d656d222c325d5d</title>
<path fill="none" stroke="#6d597a" d="M172.99,-394.85C167.02,-388.18 161.44,-380.91 157.13,-373.34 153.14,-366.36 150.02,-358.47 147.58,-350.6"/>
<polygon fill="#6d597a" stroke="#6d597a" points="150.98,-349.76 144.97,-341.04 144.23,-351.61 150.98,-349.76"/>
<text xml:space="preserve" text-anchor="middle" x="191.63" y="-363.84" font-family="Helvetica,sans-Serif" font-size="10.00">p2&#45;cas&#45;success</text>
</g>
<!-- n_5b5b2270317063222c22747279225d2c5b2270327063222c22747279225d2c5b226d656d222c305d5d -->
<g id="node6" class="node">
<title>n_5b5b2270317063222c22747279225d2c5b2270327063222c22747279225d2c5b226d656d222c305d5d</title>
<g id="a_node6"><a xlink:title="[[&quot;p1pc&quot;,&quot;try&quot;],[&quot;p2pc&quot;,&quot;try&quot;],[&quot;mem&quot;,0]]">
<path fill="#f8f9fb" stroke="#355070" d="M284.83,-339.34C284.83,-339.34 227.41,-339.34 227.41,-339.34 221.41,-339.34 215.41,-333.34 215.41,-327.34 215.41,-327.34 215.41,-280.06 215.41,-280.06 215.41,-274.06 221.41,-268.06 227.41,-268.06 227.41,-268.06 284.83,-268.06 284.83,-268.06 290.83,-268.06 296.83,-274.06 296.83,-280.06 296.83,-280.06 296.83,-327.34 296.83,-327.34 296.83,-333.34 290.83,-339.34 284.83,-339.34"/>
<text xml:space="preserve" text-anchor="middle" x="256.12" y="-320.25" font-family="Helvetica,sans-Serif" font-size="11.00">s4</text>
<text xml:space="preserve" text-anchor="middle" x="256.12" y="-306.75" font-family="Helvetica,sans-Serif" font-size="11.00">p1pc = &quot;try&quot;</text>
<text xml:space="preserve" text-anchor="middle" x="256.12" y="-293.25" font-family="Helvetica,sans-Serif" font-size="11.00">p2pc = &quot;try&quot;</text>
<text xml:space="preserve" text-anchor="middle" x="256.12" y="-279.75" font-family="Helvetica,sans-Serif" font-size="11.00">mem = 0</text>
</a>
</g>
</g>
<!-- n_5b5b2270317063222c226130225d2c5b2270327063222c22747279225d2c5b226d656d222c305d5d&#45;&gt;n_5b5b2270317063222c22747279225d2c5b2270327063222c22747279225d2c5b226d656d222c305d5d -->
<g id="edge5" class="edge">
<title>n_5b5b2270317063222c226130225d2c5b2270327063222c22747279225d2c5b226d656d222c305d5d&#45;&gt;n_5b5b2270317063222c22747279225d2c5b2270327063222c22747279225d2c5b226d656d222c305d5d</title>
<path fill="none" stroke="#6d597a" d="M224.02,-394.96C227.47,-384.15 231.37,-372.22 235.13,-361.34 236.38,-357.71 237.7,-353.96 239.05,-350.2"/>
<polygon fill="#6d597a" stroke="#6d597a" points="242.24,-351.68 242.37,-341.08 235.66,-349.29 242.24,-351.68"/>
<text xml:space="preserve" text-anchor="middle" x="251.63" y="-363.84" font-family="Helvetica,sans-Serif" font-size="10.00">p1&#45;start</text>
</g>
<!-- n_5b5b2270317063222c22747279225d2c5b2270327063222c22776f6e225d2c5b226d656d222c325d5d -->
<g id="node7" class="node">
<title>n_5b5b2270317063222c22747279225d2c5b2270327063222c22776f6e225d2c5b226d656d222c325d5d</title>
<g id="a_node7"><a xlink:title="[[&quot;p1pc&quot;,&quot;try&quot;],[&quot;p2pc&quot;,&quot;won&quot;],[&quot;mem&quot;,2]]">
<path fill="#f8f9fb" stroke="#355070" d="M194.96,-212.06C194.96,-212.06 129.29,-212.06 129.29,-212.06 123.29,-212.06 117.29,-206.06 117.29,-200.06 117.29,-200.06 117.29,-152.78 117.29,-152.78 117.29,-146.78 123.29,-140.78 129.29,-140.78 129.29,-140.78 194.96,-140.78 194.96,-140.78 200.96,-140.78 206.96,-146.78 206.96,-152.78 206.96,-152.78 206.96,-200.06 206.96,-200.06 206.96,-206.06 200.96,-212.06 194.96,-212.06"/>
<text xml:space="preserve" text-anchor="middle" x="162.13" y="-192.97" font-family="Helvetica,sans-Serif" font-size="11.00">s5</text>
<text xml:space="preserve" text-anchor="middle" x="162.13" y="-179.47" font-family="Helvetica,sans-Serif" font-size="11.00">p1pc = &quot;try&quot;</text>
<text xml:space="preserve" text-anchor="middle" x="162.13" y="-165.97" font-family="Helvetica,sans-Serif" font-size="11.00">p2pc = &quot;won&quot;</text>
<text xml:space="preserve" text-anchor="middle" x="162.13" y="-152.47" font-family="Helvetica,sans-Serif" font-size="11.00">mem = 2</text>
</a>
</g>
</g>
<!-- n_5b5b2270317063222c226130225d2c5b2270327063222c22776f6e225d2c5b226d656d222c325d5d&#45;&gt;n_5b5b2270317063222c22747279225d2c5b2270327063222c22776f6e225d2c5b226d656d222c325d5d -->
<g id="edge8" class="edge">
<title>n_5b5b2270317063222c226130225d2c5b2270327063222c22776f6e225d2c5b226d656d222c325d5d&#45;&gt;n_5b5b2270317063222c22747279225d2c5b2270327063222c22776f6e225d2c5b226d656d222c325d5d</title>
<path fill="none" stroke="#6d597a" d="M122.23,-267.91C119,-257 117.59,-244.96 121.13,-234.06 122.42,-230.07 124.11,-226.13 126.06,-222.29"/>
<polygon fill="#6d597a" stroke="#6d597a" points="129.04,-224.14 131.02,-213.73 122.98,-220.64 129.04,-224.14"/>
<text xml:space="preserve" text-anchor="middle" x="137.63" y="-236.56" font-family="Helvetica,sans-Serif" font-size="10.00">p1&#45;start</text>
</g>
<!-- n_5b5b2270317063222c22747279225d2c5b2270327063222c226130225d2c5b226d656d222c305d5d&#45;&gt;n_5b5b2270317063222c22747279225d2c5b2270327063222c22747279225d2c5b226d656d222c305d5d -->
<g id="edge6" class="edge">
<title>n_5b5b2270317063222c22747279225d2c5b2270327063222c226130225d2c5b226d656d222c305d5d&#45;&gt;n_5b5b2270317063222c22747279225d2c5b2270327063222c22747279225d2c5b226d656d222c305d5d</title>
<path fill="none" stroke="#6d597a" d="M299.41,-395.08C292.65,-380.96 284.76,-364.49 277.58,-349.5"/>
<polygon fill="#6d597a" stroke="#6d597a" points="280.88,-348.28 273.4,-340.78 274.57,-351.31 280.88,-348.28"/>
<text xml:space="preserve" text-anchor="middle" x="304.42" y="-363.84" font-family="Helvetica,sans-Serif" font-size="10.00">p2&#45;start</text>
</g>
<!-- n_5b5b2270317063222c22776f6e225d2c5b2270327063222c226130225d2c5b226d656d222c315d5d -->
<g id="node8" class="node">
<title>n_5b5b2270317063222c22776f6e225d2c5b2270327063222c226130225d2c5b226d656d222c315d5d</title>
<g id="a_node8"><a xlink:title="[[&quot;p1pc&quot;,&quot;won&quot;],[&quot;p2pc&quot;,&quot;a0&quot;],[&quot;mem&quot;,1]]">
<path fill="#f8f9fb" stroke="#355070" d="M400.96,-339.34C400.96,-339.34 335.29,-339.34 335.29,-339.34 329.29,-339.34 323.29,-333.34 323.29,-327.34 323.29,-327.34 323.29,-280.06 323.29,-280.06 323.29,-274.06 329.29,-268.06 335.29,-268.06 335.29,-268.06 400.96,-268.06 400.96,-268.06 406.96,-268.06 412.96,-274.06 412.96,-280.06 412.96,-280.06 412.96,-327.34 412.96,-327.34 412.96,-333.34 406.96,-339.34 400.96,-339.34"/>
<text xml:space="preserve" text-anchor="middle" x="368.12" y="-320.25" font-family="Helvetica,sans-Serif" font-size="11.00">s6</text>
<text xml:space="preserve" text-anchor="middle" x="368.12" y="-306.75" font-family="Helvetica,sans-Serif" font-size="11.00">p1pc = &quot;won&quot;</text>
<text xml:space="preserve" text-anchor="middle" x="368.12" y="-293.25" font-family="Helvetica,sans-Serif" font-size="11.00">p2pc = &quot;a0&quot;</text>
<text xml:space="preserve" text-anchor="middle" x="368.12" y="-279.75" font-family="Helvetica,sans-Serif" font-size="11.00">mem = 1</text>
</a>
</g>
</g>
<!-- n_5b5b2270317063222c22747279225d2c5b2270327063222c226130225d2c5b226d656d222c305d5d&#45;&gt;n_5b5b2270317063222c22776f6e225d2c5b2270327063222c226130225d2c5b226d656d222c315d5d -->
<g id="edge7" class="edge">
<title>n_5b5b2270317063222c22747279225d2c5b2270327063222c226130225d2c5b226d656d222c305d5d&#45;&gt;n_5b5b2270317063222c22776f6e225d2c5b2270327063222c226130225d2c5b226d656d222c315d5d</title>
<path fill="none" stroke="#6d597a" d="M330.61,-395.08C336.41,-381.1 343.18,-364.81 349.35,-349.93"/>
<polygon fill="#6d597a" stroke="#6d597a" points="352.54,-351.39 353.14,-340.81 346.07,-348.7 352.54,-351.39"/>
<text xml:space="preserve" text-anchor="middle" x="378.18" y="-363.84" font-family="Helvetica,sans-Serif" font-size="10.00">p1&#45;cas&#45;success</text>
</g>
<!-- n_5b5b2270317063222c22747279225d2c5b2270327063222c22747279225d2c5b226d656d222c305d5d&#45;&gt;n_5b5b2270317063222c22747279225d2c5b2270327063222c22776f6e225d2c5b226d656d222c325d5d -->
<g id="edge9" class="edge">
<title>n_5b5b2270317063222c22747279225d2c5b2270327063222c22747279225d2c5b226d656d222c305d5d&#45;&gt;n_5b5b2270317063222c22747279225d2c5b2270327063222c22776f6e225d2c5b226d656d222c325d5d</title>
<path fill="none" stroke="#6d597a" d="M217.64,-267.6C211.09,-260.78 204.63,-253.44 199.13,-246.06 193.65,-238.73 188.49,-230.5 183.86,-222.34"/>
<polygon fill="#6d597a" stroke="#6d597a" points="187.08,-220.92 179.21,-213.82 180.93,-224.27 187.08,-220.92"/>
<text xml:space="preserve" text-anchor="middle" x="233.63" y="-236.56" font-family="Helvetica,sans-Serif" font-size="10.00">p2&#45;cas&#45;success</text>
</g>
<!-- n_5b5b2270317063222c22776f6e225d2c5b2270327063222c22747279225d2c5b226d656d222c315d5d -->
<g id="node9" class="node">
<title>n_5b5b2270317063222c22776f6e225d2c5b2270327063222c22747279225d2c5b226d656d222c315d5d</title>
<g id="a_node9"><a xlink:title="[[&quot;p1pc&quot;,&quot;won&quot;],[&quot;p2pc&quot;,&quot;try&quot;],[&quot;mem&quot;,1]]">
<path fill="#f8f9fb" stroke="#355070" d="M328.96,-212.06C328.96,-212.06 263.29,-212.06 263.29,-212.06 257.29,-212.06 251.29,-206.06 251.29,-200.06 251.29,-200.06 251.29,-152.78 251.29,-152.78 251.29,-146.78 257.29,-140.78 263.29,-140.78 263.29,-140.78 328.96,-140.78 328.96,-140.78 334.96,-140.78 340.96,-146.78 340.96,-152.78 340.96,-152.78 340.96,-200.06 340.96,-200.06 340.96,-206.06 334.96,-212.06 328.96,-212.06"/>
<text xml:space="preserve" text-anchor="middle" x="296.12" y="-192.97" font-family="Helvetica,sans-Serif" font-size="11.00">s7</text>
<text xml:space="preserve" text-anchor="middle" x="296.12" y="-179.47" font-family="Helvetica,sans-Serif" font-size="11.00">p1pc = &quot;won&quot;</text>
<text xml:space="preserve" text-anchor="middle" x="296.12" y="-165.97" font-family="Helvetica,sans-Serif" font-size="11.00">p2pc = &quot;try&quot;</text>
<text xml:space="preserve" text-anchor="middle" x="296.12" y="-152.47" font-family="Helvetica,sans-Serif" font-size="11.00">mem = 1</text>
</a>
</g>
</g>
<!-- n_5b5b2270317063222c22747279225d2c5b2270327063222c22747279225d2c5b226d656d222c305d5d&#45;&gt;n_5b5b2270317063222c22776f6e225d2c5b2270327063222c22747279225d2c5b226d656d222c315d5d -->
<g id="edge10" class="edge">
<title>n_5b5b2270317063222c22747279225d2c5b2270327063222c22747279225d2c5b226d656d222c305d5d&#45;&gt;n_5b5b2270317063222c22776f6e225d2c5b2270327063222c22747279225d2c5b226d656d222c315d5d</title>
<path fill="none" stroke="#6d597a" d="M266.63,-267.72C269.93,-256.91 273.62,-244.98 277.12,-234.06 278.25,-230.55 279.43,-226.93 280.62,-223.29"/>
<polygon fill="#6d597a" stroke="#6d597a" points="283.92,-224.45 283.75,-213.86 277.28,-222.25 283.92,-224.45"/>
<text xml:space="preserve" text-anchor="middle" x="311.62" y="-236.56" font-family="Helvetica,sans-Serif" font-size="10.00">p1&#45;cas&#45;success</text>
</g>
<!-- n_5b5b2270317063222c226c6f7374225d2c5b2270327063222c22776f6e225d2c5b226d656d222c325d5d -->
<g id="node11" class="node">
<title>n_5b5b2270317063222c226c6f7374225d2c5b2270327063222c22776f6e225d2c5b226d656d222c325d5d</title>
<g id="a_node11"><a xlink:title="[[&quot;p1pc&quot;,&quot;lost&quot;],[&quot;p2pc&quot;,&quot;won&quot;],[&quot;mem&quot;,2]]">
<path fill="#fff3bf" stroke="#e67700" stroke-width="2" d="M194.96,-84.78C194.96,-84.78 129.29,-84.78 129.29,-84.78 123.29,-84.78 117.29,-78.78 117.29,-72.78 117.29,-72.78 117.29,-12 117.29,-12 117.29,-6 123.29,0 129.29,0 129.29,0 194.96,0 194.96,0 200.96,0 206.96,-6 206.96,-12 206.96,-12 206.96,-72.78 206.96,-72.78 206.96,-78.78 200.96,-84.78 194.96,-84.78"/>
<text xml:space="preserve" text-anchor="middle" x="162.13" y="-65.69" font-family="Helvetica,sans-Serif" font-size="11.00">s9</text>
<text xml:space="preserve" text-anchor="middle" x="162.13" y="-52.19" font-family="Helvetica,sans-Serif" font-size="11.00">p1pc = &quot;lost&quot;</text>
<text xml:space="preserve" text-anchor="middle" x="162.13" y="-38.69" font-family="Helvetica,sans-Serif" font-size="11.00">p2pc = &quot;won&quot;</text>
<text xml:space="preserve" text-anchor="middle" x="162.13" y="-25.19" font-family="Helvetica,sans-Serif" font-size="11.00">mem = 2</text>
<text xml:space="preserve" text-anchor="middle" x="162.13" y="-11.69" font-family="Helvetica,sans-Serif" font-size="11.00">deadlock</text>
</a>
</g>
</g>
<!-- n_5b5b2270317063222c22747279225d2c5b2270327063222c22776f6e225d2c5b226d656d222c325d5d&#45;&gt;n_5b5b2270317063222c226c6f7374225d2c5b2270327063222c22776f6e225d2c5b226d656d222c325d5d -->
<g id="edge12" class="edge">
<title>n_5b5b2270317063222c22747279225d2c5b2270327063222c22776f6e225d2c5b226d656d222c325d5d&#45;&gt;n_5b5b2270317063222c226c6f7374225d2c5b2270327063222c22776f6e225d2c5b226d656d222c325d5d</title>
<path fill="none" stroke="#6d597a" d="M162.13,-140.39C162.13,-127.12 162.13,-111.7 162.13,-97.12"/>
<polygon fill="#6d597a" stroke="#6d597a" points="165.63,-97.16 162.13,-87.16 158.63,-97.16 165.63,-97.16"/>
<text xml:space="preserve" text-anchor="middle" x="184.63" y="-109.28" font-family="Helvetica,sans-Serif" font-size="10.00">p1&#45;cas&#45;fail</text>
</g>
<!-- n_5b5b2270317063222c22776f6e225d2c5b2270327063222c226130225d2c5b226d656d222c315d5d&#45;&gt;n_5b5b2270317063222c22776f6e225d2c5b2270327063222c22747279225d2c5b226d656d222c315d5d -->
<g id="edge11" class="edge">
<title>n_5b5b2270317063222c22776f6e225d2c5b2270327063222c226130225d2c5b226d656d222c315d5d&#45;&gt;n_5b5b2270317063222c22776f6e225d2c5b2270327063222c22747279225d2c5b226d656d222c315d5d</title>
<path fill="none" stroke="#6d597a" d="M360.57,-267.63C357.35,-256.47 352.96,-244.36 347.12,-234.06 344.68,-229.73 341.85,-225.46 338.8,-221.31"/>
<polygon fill="#6d597a" stroke="#6d597a" points="341.72,-219.35 332.79,-213.65 336.21,-223.68 341.72,-219.35"/>
<text xml:space="preserve" text-anchor="middle" x="368.84" y="-236.56" font-family="Helvetica,sans-Serif" font-size="10.00">p2&#45;start</text>
</g>
<!-- n_5b5b2270317063222c22776f6e225d2c5b2270327063222c226c6f7374225d2c5b226d656d222c315d5d -->
<g id="node10" class="node">
<title>n_5b5b2270317063222c22776f6e225d2c5b2270327063222c226c6f7374225d2c5b226d656d222c315d5d</title>
<g id="a_node10"><a xlink:title="[[&quot;p1pc&quot;,&quot;won&quot;],[&quot;p2pc&quot;,&quot;lost&quot;],[&quot;mem&quot;,1]]">
<path fill="#fff3bf" stroke="#e67700" stroke-width="2" d="M328.96,-84.78C328.96,-84.78 263.29,-84.78 263.29,-84.78 257.29,-84.78 251.29,-78.78 251.29,-72.78 251.29,-72.78 251.29,-12 251.29,-12 251.29,-6 257.29,0 263.29,0 263.29,0 328.96,0 328.96,0 334.96,0 340.96,-6 340.96,-12 340.96,-12 340.96,-72.78 340.96,-72.78 340.96,-78.78 334.96,-84.78 328.96,-84.78"/>
<text xml:space="preserve" text-anchor="middle" x="296.12" y="-65.69" font-family="Helvetica,sans-Serif" font-size="11.00">s8</text>
<text xml:space="preserve" text-anchor="middle" x="296.12" y="-52.19" font-family="Helvetica,sans-Serif" font-size="11.00">p1pc = &quot;won&quot;</text>
<text xml:space="preserve" text-anchor="middle" x="296.12" y="-38.69" font-family="Helvetica,sans-Serif" font-size="11.00">p2pc = &quot;lost&quot;</text>
<text xml:space="preserve" text-anchor="middle" x="296.12" y="-25.19" font-family="Helvetica,sans-Serif" font-size="11.00">mem = 1</text>
<text xml:space="preserve" text-anchor="middle" x="296.12" y="-11.69" font-family="Helvetica,sans-Serif" font-size="11.00">deadlock</text>
</a>
</g>
</g>
<!-- n_5b5b2270317063222c22776f6e225d2c5b2270327063222c22747279225d2c5b226d656d222c315d5d&#45;&gt;n_5b5b2270317063222c22776f6e225d2c5b2270327063222c226c6f7374225d2c5b226d656d222c315d5d -->
<g id="edge13" class="edge">
<title>n_5b5b2270317063222c22776f6e225d2c5b2270327063222c22747279225d2c5b226d656d222c315d5d&#45;&gt;n_5b5b2270317063222c22776f6e225d2c5b2270327063222c226c6f7374225d2c5b226d656d222c315d5d</title>
<path fill="none" stroke="#6d597a" d="M296.12,-140.39C296.12,-127.12 296.12,-111.7 296.12,-97.12"/>
<polygon fill="#6d597a" stroke="#6d597a" points="299.63,-97.16 296.13,-87.16 292.63,-97.16 299.63,-97.16"/>
<text xml:space="preserve" text-anchor="middle" x="318.62" y="-109.28" font-family="Helvetica,sans-Serif" font-size="10.00">p2&#45;cas&#45;fail</text>
</g>
</g>
</svg>
