<?xml version="1.0" encoding="UTF-8" standalone="no"?>
<!DOCTYPE svg PUBLIC "-//W3C//DTD SVG 1.1//EN"
 "http://www.w3.org/Graphics/SVG/1.1/DTD/svg11.dtd">
<!-- Generated by graphviz version 14.0.2 (20251019.1705)
 -->
<!-- Title: G Pages: 1 -->
<svg width="220pt" height="260pt"
 viewBox="0.00 0.00 220.00 260.00" xmlns="http://www.w3.org/2000/svg" xmlns:xlink="http://www.w3.org/1999/xlink">
<g id="graph0" class="graph" transform="scale(1 1) rotate(0) translate(4 256)">
<title>G</title>
<polygon fill="white" stroke="none" points="-4,4 -4,-256 216,-256 216,4 -4,4"/>
<!-- nx1 -->
<g id="node1" class="node">
<title>nx1</title>
<path fill="#e6f2ff" stroke="#4a6fa5" d="M74,-36C74,-36 44,-36 44,-36 38,-36 32,-30 32,-24 32,-24 32,-12 32,-12 32,-6 38,0 44,0 44,0 74,0 74,0 80,0 86,-6 86,-12 86,-12 86,-24 86,-24 86,-30 80,-36 74,-36"/>
<text xml:space="preserve" text-anchor="middle" x="59" y="-14.5" font-family="Helvetica,sans-Serif" font-size="10.00">nx1</text>
</g>
<!-- nx10 -->
<g id="node2" class="node">
<title>nx10</title>
<path fill="#e6f2ff" stroke="#4a6fa5" d="M121,-252C121,-252 91,-252 91,-252 85,-252 79,-246 79,-240 79,-240 79,-228 79,-228 79,-222 85,-216 91,-216 91,-216 121,-216 121,-216 127,-216 133,-222 133,-228 133,-228 133,-240 133,-240 133,-246 127,-252 121,-252"/>
<text xml:space="preserve" text-anchor="middle" x="106" y="-230.5" font-family="Helvetica,sans-Serif" font-size="10.00">nx10</text>
</g>
<!-- nx5 -->
<g id="node6" class="node">
<title>nx5</title>
<path fill="#e6f2ff" stroke="#4a6fa5" d="M121,-180C121,-180 91,-180 91,-180 85,-180 79,-174 79,-168 79,-168 79,-156 79,-156 79,-150 85,-144 91,-144 91,-144 121,-144 121,-144 127,-144 133,-150 133,-156 133,-156 133,-168 133,-168 133,-174 127,-180 121,-180"/>
<text xml:space="preserve" text-anchor="middle" x="106" y="-158.5" font-family="Helvetica,sans-Serif" font-size="10.00">nx5</text>
</g>
<!-- nx10&#45;&gt;nx5 -->
<g id="edge8" class="edge">
<title>nx10&#45;&gt;nx5</title>
<path fill="none" stroke="#4a6fa5" stroke-width="1.2" d="M106,-215.7C106,-207.9 106,-198.51 106,-189.83"/>
<polygon fill="#4a6fa5" stroke="#4a6fa5" stroke-width="1.2" points="108.8,-189.92 106,-181.92 103.2,-189.92 108.8,-189.92"/>
</g>
<!-- nx2 -->
<g id="node3" class="node">
<title>nx2</title>
<path fill="#e6f2ff" stroke="#4a6fa5" d="M169,-36C169,-36 139,-36 139,-36 133,-36 127,-30 127,-24 127,-24 127,-12 127,-12 127,-6 133,0 139,0 139,0 169,0 169,0 175,0 181,-6 181,-12 181,-12 181,-24 181,-24 181,-30 175,-36 169,-36"/>
<text xml:space="preserve" text-anchor="middle" x="154" y="-14.5" font-family="Helvetica,sans-Serif" font-size="10.00">nx2</text>
</g>
<!-- nx2&#45;&gt;nx2 -->
<g id="edge1" class="edge">
<title>nx2&#45;&gt;nx2</title>
<path fill="none" stroke="#4a6fa5" stroke-width="1.2" d="M181.29,-31.17C194.41,-32.8 206,-28.41 206,-18 206,-10.28 199.62,-5.87 190.96,-4.77"/>
<polygon fill="#4a6fa5" stroke="#4a6fa5" stroke-width="1.2" points="191.09,-1.97 183.1,-4.82 191.12,-7.57 191.09,-1.97"/>
</g>
<!-- nx2&#45;&gt;nx5 -->
<g id="edge10" class="edge">
<title>nx2&#45;&gt;nx5</title>
<path fill="none" stroke="#4a6fa5" stroke-width="1.2" d="M155.2,-36.36C155.85,-54.78 155.1,-84.41 146,-108 142.06,-118.21 135.54,-128.14 128.9,-136.59"/>
<polygon fill="#4a6fa5" stroke="#4a6fa5" stroke-width="1.2" points="126.95,-134.55 123.99,-142.5 131.26,-138.13 126.95,-134.55"/>
</g>
<!-- nx3 -->
<g id="node4" class="node">
<title>nx3</title>
<path fill="#e6f2ff" stroke="#4a6fa5" d="M42,-180C42,-180 12,-180 12,-180 6,-180 0,-174 0,-168 0,-168 0,-156 0,-156 0,-150 6,-144 12,-144 12,-144 42,-144 42,-144 48,-144 54,-150 54,-156 54,-156 54,-168 54,-168 54,-174 48,-180 42,-180"/>
<text xml:space="preserve" text-anchor="middle" x="27" y="-158.5" font-family="Helvetica,sans-Serif" font-size="10.00">nx3</text>
</g>
<!-- nx4 -->
<g id="node5" class="node">
<title>nx4</title>
<path fill="#e6f2ff" stroke="#4a6fa5" d="M42,-108C42,-108 12,-108 12,-108 6,-108 0,-102 0,-96 0,-96 0,-84 0,-84 0,-78 6,-72 12,-72 12,-72 42,-72 42,-72 48,-72 54,-78 54,-84 54,-84 54,-96 54,-96 54,-102 48,-108 42,-108"/>
<text xml:space="preserve" text-anchor="middle" x="27" y="-86.5" font-family="Helvetica,sans-Serif" font-size="10.00">nx4</text>
</g>
<!-- nx3&#45;&gt;nx4 -->
<g id="edge6" class="edge">
<title>nx3&#45;&gt;nx4</title>
<path fill="none" stroke="#4a6fa5" stroke-width="1.2" d="M27,-143.7C27,-135.9 27,-126.51 27,-117.83"/>
<polygon fill="#4a6fa5" stroke="#4a6fa5" stroke-width="1.2" points="29.8,-117.92 27,-109.92 24.2,-117.92 29.8,-117.92"/>
</g>
<!-- nx4&#45;&gt;nx1 -->
<g id="edge4" class="edge">
<title>nx4&#45;&gt;nx1</title>
<path fill="none" stroke="#4a6fa5" stroke-width="1.2" d="M34.91,-71.7C38.59,-63.64 43.05,-53.89 47.12,-44.98"/>
<polygon fill="#4a6fa5" stroke="#4a6fa5" stroke-width="1.2" points="49.65,-46.2 50.43,-37.76 44.55,-43.87 49.65,-46.2"/>
</g>
<!-- nx5&#45;&gt;nx4 -->
<g id="edge7" class="edge">
<title>nx5&#45;&gt;nx4</title>
<path fill="none" stroke="#4a6fa5" stroke-width="1.2" d="M86.47,-143.7C76.6,-134.95 64.46,-124.19 53.73,-114.69"/>
<polygon fill="#4a6fa5" stroke="#4a6fa5" stroke-width="1.2" points="55.78,-112.76 47.94,-109.55 52.07,-116.95 55.78,-112.76"/>
</g>
<!-- nx8 -->
<g id="node8" class="node">
<title>nx8</title>
<path fill="#e6f2ff" stroke="#4a6fa5" d="M121,-108C121,-108 91,-108 91,-108 85,-108 79,-102 79,-96 79,-96 79,-84 79,-84 79,-78 85,-72 91,-72 91,-72 121,-72 121,-72 127,-72 133,-78 133,-84 133,-84 133,-96 133,-96 133,-102 127,-108 121,-108"/>
<text xml:space="preserve" text-anchor="middle" x="106" y="-86.5" font-family="Helvetica,sans-Serif" font-size="10.00">nx8</text>
</g>
<!-- nx5&#45;&gt;nx8 -->
<g id="edge2" class="edge">
<title>nx5&#45;&gt;nx8</title>
<path fill="none" stroke="#4a6fa5" stroke-width="1.2" d="M106,-143.7C106,-135.9 106,-126.51 106,-117.83"/>
<polygon fill="#4a6fa5" stroke="#4a6fa5" stroke-width="1.2" points="108.8,-117.92 106,-109.92 103.2,-117.92 108.8,-117.92"/>
</g>
<!-- nx7 -->
<g id="node7" class="node">
<title>nx7</title>
<path fill="#e6f2ff" stroke="#4a6fa5" d="M200,-252C200,-252 170,-252 170,-252 164,-252 158,-246 158,-240 158,-240 158,-228 158,-228 158,-222 164,-216 170,-216 170,-216 200,-216 200,-216 206,-216 212,-222 212,-228 212,-228 212,-240 212,-240 212,-246 206,-252 200,-252"/>
<text xml:space="preserve" text-anchor="middle" x="185" y="-230.5" font-family="Helvetica,sans-Serif" font-size="10.00">nx7</text>
</g>
<!-- nx9 -->
<g id="node9" class="node">
<title>nx9</title>
<path fill="#e6f2ff" stroke="#4a6fa5" d="M200,-180C200,-180 170,-180 170,-180 164,-180 158,-174 158,-168 158,-168 158,-156 158,-156 158,-150 164,-144 170,-144 170,-144 200,-144 200,-144 206,-144 212,-150 212,-156 212,-156 212,-168 212,-168 212,-174 206,-180 200,-180"/>
<text xml:space="preserve" text-anchor="middle" x="185" y="-158.5" font-family="Helvetica,sans-Serif" font-size="10.00">nx9</text>
</g>
<!-- nx7&#45;&gt;nx9 -->
<g id="edge9" class="edge">
<title>nx7&#45;&gt;nx9</title>
<path fill="none" stroke="#4a6fa5" stroke-width="1.2" d="M185,-215.7C185,-207.9 185,-198.51 185,-189.83"/>
<polygon fill="#4a6fa5" stroke="#4a6fa5" stroke-width="1.2" points="187.8,-189.92 185,-181.92 182.2,-189.92 187.8,-189.92"/>
</g>
<!-- nx8&#45;&gt;nx1 -->
<g id="edge3" class="edge">
<title>nx8&#45;&gt;nx1</title>
<path fill="none" stroke="#4a6fa5" stroke-width="1.2" d="M94.38,-71.7C88.8,-63.39 82.01,-53.28 75.88,-44.14"/>
<polygon fill="#4a6fa5" stroke="#4a6fa5" stroke-width="1.2" points="78.28,-42.69 71.5,-37.61 73.63,-45.81 78.28,-42.69"/>
</g>
<!-- nx8&#45;&gt;nx2 -->
<g id="edge5" class="edge">
<title>nx8&#45;&gt;nx2</title>
<path fill="none" stroke="#4a6fa5" stroke-width="1.2" d="M117.87,-71.7C123.56,-63.39 130.5,-53.28 136.76,-44.14"/>
<polygon fill="#4a6fa5" stroke="#4a6fa5" stroke-width="1.2" points="139.03,-45.78 141.24,-37.6 134.41,-42.62 139.03,-45.78"/>
</g>
</g>
</svg>
