<?xml version="1.0" encoding="UTF-8" standalone="no"?>
<!DOCTYPE svg PUBLIC "-//W3C//DTD SVG 1.1//EN"
 "http://www.w3.org/Graphics/SVG/1.1/DTD/svg11.dtd">
<!-- Generated by graphviz version 14.0.2 (20251019.1705)
 -->
<!-- Title: G Pages: 1 -->
<svg width="183pt" height="260pt"
 viewBox="0.00 0.00 183.00 260.00" xmlns="http://www.w3.org/2000/svg" xmlns:xlink="http://www.w3.org/1999/xlink">
<g id="graph0" class="graph" transform="scale(1 1) rotate(0) translate(4 256)">
<title>G</title>
<polygon fill="white" stroke="none" points="-4,4 -4,-256 179,-256 179,4 -4,4"/>
<!-- nx1 -->
<g id="node1" class="node">
<title>nx1</title>
<path fill="#e6f2ff" stroke="#4a6fa5" d="M151,-36C151,-36 121,-36 121,-36 115,-36 109,-30 109,-24 109,-24 109,-12 109,-12 109,-6 115,0 121,0 121,0 151,0 151,0 157,0 163,-6 163,-12 163,-12 163,-24 163,-24 163,-30 157,-36 151,-36"/>
<text xml:space="preserve" text-anchor="middle" x="136" y="-14.5" font-family="Helvetica,sans-Serif" font-size="10.00">nx1</text>
</g>
<!-- nx10 -->
<g id="node2" class="node">
<title>nx10</title>
<path fill="#e6f2ff" stroke="#4a6fa5" d="M84,-252C84,-252 54,-252 54,-252 48,-252 42,-246 42,-240 42,-240 42,-228 42,-228 42,-222 48,-216 54,-216 54,-216 84,-216 84,-216 90,-216 96,-222 96,-228 96,-228 96,-240 96,-240 96,-246 90,-252 84,-252"/>
<text xml:space="preserve" text-anchor="middle" x="69" y="-230.5" font-family="Helvetica,sans-Serif" font-size="10.00">nx10</text>
</g>
<!-- nx5 -->
<g id="node5" class="node">
<title>nx5</title>
<path fill="#e6f2ff" stroke="#4a6fa5" d="M84,-180C84,-180 54,-180 54,-180 48,-180 42,-174 42,-168 42,-168 42,-156 42,-156 42,-150 48,-144 54,-144 54,-144 84,-144 84,-144 90,-144 96,-150 96,-156 96,-156 96,-168 96,-168 96,-174 90,-180 84,-180"/>
<text xml:space="preserve" text-anchor="middle" x="69" y="-158.5" font-family="Helvetica,sans-Serif" font-size="10.00">nx5</text>
</g>
<!-- nx10&#45;&gt;nx5 -->
<g id="edge7" class="edge">
<title>nx10&#45;&gt;nx5</title>
<path fill="none" stroke="#4a6fa5" stroke-width="1.2" d="M69,-215.7C69,-207.9 69,-198.51 69,-189.83"/>
<polygon fill="#4a6fa5" stroke="#4a6fa5" stroke-width="1.2" points="71.8,-189.92 69,-181.92 66.2,-189.92 71.8,-189.92"/>
</g>
<!-- nx2 -->
<g id="node3" class="node">
<title>nx2</title>
<path fill="#e6f2ff" stroke="#4a6fa5" d="M42,-36C42,-36 12,-36 12,-36 6,-36 0,-30 0,-24 0,-24 0,-12 0,-12 0,-6 6,0 12,0 12,0 42,0 42,0 48,0 54,-6 54,-12 54,-12 54,-24 54,-24 54,-30 48,-36 42,-36"/>
<text xml:space="preserve" text-anchor="middle" x="27" y="-14.5" font-family="Helvetica,sans-Serif" font-size="10.00">nx2</text>
</g>
<!-- nx2&#45;&gt;nx2 -->
<g id="edge1" class="edge">
<title>nx2&#45;&gt;nx2</title>
<path fill="none" stroke="#4a6fa5" stroke-width="1.2" d="M54.29,-31.17C67.41,-32.8 79,-28.41 79,-18 79,-10.28 72.62,-5.87 63.96,-4.77"/>
<polygon fill="#4a6fa5" stroke="#4a6fa5" stroke-width="1.2" points="64.09,-1.97 56.1,-4.82 64.12,-7.57 64.09,-1.97"/>
</g>
<!-- nx2&#45;&gt;nx5 -->
<g id="edge8" class="edge">
<title>nx2&#45;&gt;nx5</title>
<path fill="none" stroke="#4a6fa5" stroke-width="1.2" d="M24.33,-36.28C22.18,-54.63 20.73,-84.2 29,-108 32.5,-118.07 38.69,-127.78 45.17,-136.07"/>
<polygon fill="#4a6fa5" stroke="#4a6fa5" stroke-width="1.2" points="42.96,-137.8 50.23,-142.16 47.27,-134.22 42.96,-137.8"/>
</g>
<!-- nx4 -->
<g id="node4" class="node">
<title>nx4</title>
<path fill="#e6f2ff" stroke="#4a6fa5" d="M163,-108C163,-108 133,-108 133,-108 127,-108 121,-102 121,-96 121,-96 121,-84 121,-84 121,-78 127,-72 133,-72 133,-72 163,-72 163,-72 169,-72 175,-78 175,-84 175,-84 175,-96 175,-96 175,-102 169,-108 163,-108"/>
<text xml:space="preserve" text-anchor="middle" x="148" y="-86.5" font-family="Helvetica,sans-Serif" font-size="10.00">nx4</text>
</g>
<!-- nx4&#45;&gt;nx1 -->
<g id="edge4" class="edge">
<title>nx4&#45;&gt;nx1</title>
<path fill="none" stroke="#4a6fa5" stroke-width="1.2" d="M145.03,-71.7C143.68,-63.81 142.05,-54.3 140.55,-45.55"/>
<polygon fill="#4a6fa5" stroke="#4a6fa5" stroke-width="1.2" points="143.35,-45.31 139.24,-37.89 137.83,-46.25 143.35,-45.31"/>
</g>
<!-- nx5&#45;&gt;nx4 -->
<g id="edge6" class="edge">
<title>nx5&#45;&gt;nx4</title>
<path fill="none" stroke="#4a6fa5" stroke-width="1.2" d="M88.53,-143.7C98.4,-134.95 110.54,-124.19 121.27,-114.69"/>
<polygon fill="#4a6fa5" stroke="#4a6fa5" stroke-width="1.2" points="122.93,-116.95 127.06,-109.55 119.22,-112.76 122.93,-116.95"/>
</g>
<!-- nx8 -->
<g id="node6" class="node">
<title>nx8</title>
<path fill="#e6f2ff" stroke="#4a6fa5" d="M84,-108C84,-108 54,-108 54,-108 48,-108 42,-102 42,-96 42,-96 42,-84 42,-84 42,-78 48,-72 54,-72 54,-72 84,-72 84,-72 90,-72 96,-78 96,-84 96,-84 96,-96 96,-96 96,-102 90,-108 84,-108"/>
<text xml:space="preserve" text-anchor="middle" x="69" y="-86.5" font-family="Helvetica,sans-Serif" font-size="10.00">nx8</text>
</g>
<!-- nx5&#45;&gt;nx8 -->
<g id="edge2" class="edge">
<title>nx5&#45;&gt;nx8</title>
<path fill="none" stroke="#4a6fa5" stroke-width="1.2" d="M69,-143.7C69,-135.9 69,-126.51 69,-117.83"/>
<polygon fill="#4a6fa5" stroke="#4a6fa5" stroke-width="1.2" points="71.8,-117.92 69,-109.92 66.2,-117.92 71.8,-117.92"/>
</g>
<!-- nx8&#45;&gt;nx1 -->
<g id="edge3" class="edge">
<title>nx8&#45;&gt;nx1</title>
<path fill="none" stroke="#4a6fa5" stroke-width="1.2" d="M85.56,-71.7C93.84,-63.05 103.98,-52.45 113,-43.03"/>
<polygon fill="#4a6fa5" stroke="#4a6fa5" stroke-width="1.2" points="114.86,-45.13 118.37,-37.42 110.82,-41.26 114.86,-45.13"/>
</g>
<!-- nx8&#45;&gt;nx2 -->
<g id="edge5" class="edge">
<title>nx8&#45;&gt;nx2</title>
<path fill="none" stroke="#4a6fa5" stroke-width="1.2" d="M58.62,-71.7C53.68,-63.47 47.69,-53.48 42.25,-44.42"/>
<polygon fill="#4a6fa5" stroke="#4a6fa5" stroke-width="1.2" points="44.71,-43.08 38.2,-37.66 39.91,-45.96 44.71,-43.08"/>
</g>
</g>
</svg>
