<?xml version="1.0" encoding="UTF-8" standalone="no"?>
<!DOCTYPE svg PUBLIC "-//W3C//DTD SVG 1.1//EN"
 "http://www.w3.org/Graphics/SVG/1.1/DTD/svg11.dtd">
<!-- Generated by graphviz version 14.0.2 (20251019.1705)
 -->
<!-- Title: G Pages: 1 -->
<svg width="773pt" height="116pt"
 viewBox="0.00 0.00 773.00 116.00" xmlns="http://www.w3.org/2000/svg" xmlns:xlink="http://www.w3.org/1999/xlink">
<g id="graph0" class="graph" transform="scale(1 1) rotate(0) translate(4 112)">
<title>G</title>
<polygon fill="white" stroke="none" points="-4,4 -4,-112 769,-112 769,4 -4,4"/>
<!-- bx1 -->
<g id="node1" class="node">
<title>bx1</title>
<path fill="#e6f2ff" stroke="#4a6fa5" d="M397,-108C397,-108 367,-108 367,-108 361,-108 355,-102 355,-96 355,-96 355,-84 355,-84 355,-78 361,-72 367,-72 367,-72 397,-72 397,-72 403,-72 409,-78 409,-84 409,-84 409,-96 409,-96 409,-102 403,-108 397,-108"/>
<text xml:space="preserve" text-anchor="middle" x="382" y="-86.5" font-family="Helvetica,sans-Serif" font-size="10.00">bx1</text>
</g>
<!-- nx1 -->
<g id="node2" class="node">
<title>nx1</title>
<path fill="#e6f2ff" stroke="#4a6fa5" d="M42,-36C42,-36 12,-36 12,-36 6,-36 0,-30 0,-24 0,-24 0,-12 0,-12 0,-6 6,0 12,0 12,0 42,0 42,0 48,0 54,-6 54,-12 54,-12 54,-24 54,-24 54,-30 48,-36 42,-36"/>
<text xml:space="preserve" text-anchor="middle" x="27" y="-14.5" font-family="Helvetica,sans-Serif" font-size="10.00">nx1</text>
</g>
<!-- bx1&#45;&gt;nx1 -->
<g id="edge2" class="edge">
<title>bx1&#45;&gt;nx1</title>
<path fill="none" stroke="#4a6fa5" stroke-width="1.2" d="M354.86,-86.71C299.57,-81.54 170.25,-66.95 66,-36 65.16,-35.75 64.32,-35.49 63.48,-35.22"/>
<polygon fill="#4a6fa5" stroke="#4a6fa5" stroke-width="1.2" points="64.57,-32.63 56.09,-32.55 62.66,-37.9 64.57,-32.63"/>
</g>
<!-- nx10 -->
<g id="node3" class="node">
<title>nx10</title>
<path fill="#e6f2ff" stroke="#4a6fa5" d="M121,-36C121,-36 91,-36 91,-36 85,-36 79,-30 79,-24 79,-24 79,-12 79,-12 79,-6 85,0 91,0 91,0 121,0 121,0 127,0 133,-6 133,-12 133,-12 133,-24 133,-24 133,-30 127,-36 121,-36"/>
<text xml:space="preserve" text-anchor="middle" x="106" y="-14.5" font-family="Helvetica,sans-Serif" font-size="10.00">nx10</text>
</g>
<!-- bx1&#45;&gt;nx10 -->
<g id="edge1" class="edge">
<title>bx1&#45;&gt;nx10</title>
<path fill="none" stroke="#4a6fa5" stroke-width="1.2" d="M354.53,-84.62C309.9,-77.1 219.15,-60.21 145,-36 144.17,-35.73 143.33,-35.45 142.49,-35.16"/>
<polygon fill="#4a6fa5" stroke="#4a6fa5" stroke-width="1.2" points="143.62,-32.59 135.14,-32.38 141.64,-37.83 143.62,-32.59"/>
</g>
<!-- nx2 -->
<g id="node4" class="node">
<title>nx2</title>
<path fill="#e6f2ff" stroke="#4a6fa5" d="M200,-36C200,-36 170,-36 170,-36 164,-36 158,-30 158,-24 158,-24 158,-12 158,-12 158,-6 164,0 170,0 170,0 200,0 200,0 206,0 212,-6 212,-12 212,-12 212,-24 212,-24 212,-30 206,-36 200,-36"/>
<text xml:space="preserve" text-anchor="middle" x="185" y="-14.5" font-family="Helvetica,sans-Serif" font-size="10.00">nx2</text>
</g>
<!-- bx1&#45;&gt;nx2 -->
<g id="edge5" class="edge">
<title>bx1&#45;&gt;nx2</title>
<path fill="none" stroke="#4a6fa5" stroke-width="1.2" d="M354.62,-80.62C322.91,-70.72 269.23,-53.41 224,-36 223.03,-35.63 222.06,-35.25 221.08,-34.86"/>
<polygon fill="#4a6fa5" stroke="#4a6fa5" stroke-width="1.2" points="222.29,-32.33 213.83,-31.88 220.17,-37.51 222.29,-32.33"/>
</g>
<!-- nx3 -->
<g id="node5" class="node">
<title>nx3</title>
<path fill="#e6f2ff" stroke="#4a6fa5" d="M279,-36C279,-36 249,-36 249,-36 243,-36 237,-30 237,-24 237,-24 237,-12 237,-12 237,-6 243,0 249,0 249,0 279,0 279,0 285,0 291,-6 291,-12 291,-12 291,-24 291,-24 291,-30 285,-36 279,-36"/>
<text xml:space="preserve" text-anchor="middle" x="264" y="-14.5" font-family="Helvetica,sans-Serif" font-size="10.00">nx3</text>
</g>
<!-- bx1&#45;&gt;nx3 -->
<g id="edge7" class="edge">
<title>bx1&#45;&gt;nx3</title>
<path fill="none" stroke="#4a6fa5" stroke-width="1.2" d="M354.63,-72.76C338.25,-63.05 317.25,-50.59 299.59,-40.11"/>
<polygon fill="#4a6fa5" stroke="#4a6fa5" stroke-width="1.2" points="301.09,-37.75 292.78,-36.07 298.23,-42.56 301.09,-37.75"/>
</g>
<!-- nx4 -->
<g id="node6" class="node">
<title>nx4</title>
<path fill="#e6f2ff" stroke="#4a6fa5" d="M358,-36C358,-36 328,-36 328,-36 322,-36 316,-30 316,-24 316,-24 316,-12 316,-12 316,-6 322,0 328,0 328,0 358,0 358,0 364,0 370,-6 370,-12 370,-12 370,-24 370,-24 370,-30 364,-36 358,-36"/>
<text xml:space="preserve" text-anchor="middle" x="343" y="-14.5" font-family="Helvetica,sans-Serif" font-size="10.00">nx4</text>
</g>
<!-- bx1&#45;&gt;nx4 -->
<g id="edge6" class="edge">
<title>bx1&#45;&gt;nx4</title>
<path fill="none" stroke="#4a6fa5" stroke-width="1.2" d="M372.36,-71.7C367.78,-63.47 362.21,-53.48 357.16,-44.42"/>
<polygon fill="#4a6fa5" stroke="#4a6fa5" stroke-width="1.2" points="359.75,-43.32 353.41,-37.69 354.86,-46.04 359.75,-43.32"/>
</g>
<!-- nx5 -->
<g id="node7" class="node">
<title>nx5</title>
<path fill="#e6f2ff" stroke="#4a6fa5" d="M437,-36C437,-36 407,-36 407,-36 401,-36 395,-30 395,-24 395,-24 395,-12 395,-12 395,-6 401,0 407,0 407,0 437,0 437,0 443,0 449,-6 449,-12 449,-12 449,-24 449,-24 449,-30 443,-36 437,-36"/>
<text xml:space="preserve" text-anchor="middle" x="422" y="-14.5" font-family="Helvetica,sans-Serif" font-size="10.00">nx5</text>
</g>
<!-- bx1&#45;&gt;nx5 -->
<g id="edge4" class="edge">
<title>bx1&#45;&gt;nx5</title>
<path fill="none" stroke="#4a6fa5" stroke-width="1.2" d="M391.89,-71.7C396.59,-63.47 402.3,-53.48 407.47,-44.42"/>
<polygon fill="#4a6fa5" stroke="#4a6fa5" stroke-width="1.2" points="409.79,-46.02 411.32,-37.68 404.92,-43.24 409.79,-46.02"/>
</g>
<!-- nx6 -->
<g id="node8" class="node">
<title>nx6</title>
<path fill="#e6f2ff" stroke="#4a6fa5" d="M516,-36C516,-36 486,-36 486,-36 480,-36 474,-30 474,-24 474,-24 474,-12 474,-12 474,-6 480,0 486,0 486,0 516,0 516,0 522,0 528,-6 528,-12 528,-12 528,-24 528,-24 528,-30 522,-36 516,-36"/>
<text xml:space="preserve" text-anchor="middle" x="501" y="-14.5" font-family="Helvetica,sans-Serif" font-size="10.00">nx6</text>
</g>
<!-- bx1&#45;&gt;nx6 -->
<g id="edge10" class="edge">
<title>bx1&#45;&gt;nx6</title>
<path fill="none" stroke="#4a6fa5" stroke-width="1.2" d="M409.3,-72.94C426.08,-63.07 447.75,-50.32 465.81,-39.7"/>
<polygon fill="#4a6fa5" stroke="#4a6fa5" stroke-width="1.2" points="466.78,-42.38 472.26,-35.91 463.95,-37.55 466.78,-42.38"/>
</g>
<!-- nx7 -->
<g id="node9" class="node">
<title>nx7</title>
<path fill="#e6f2ff" stroke="#4a6fa5" d="M595,-36C595,-36 565,-36 565,-36 559,-36 553,-30 553,-24 553,-24 553,-12 553,-12 553,-6 559,0 565,0 565,0 595,0 595,0 601,0 607,-6 607,-12 607,-12 607,-24 607,-24 607,-30 601,-36 595,-36"/>
<text xml:space="preserve" text-anchor="middle" x="580" y="-14.5" font-family="Helvetica,sans-Serif" font-size="10.00">nx7</text>
</g>
<!-- bx1&#45;&gt;nx7 -->
<g id="edge9" class="edge">
<title>bx1&#45;&gt;nx7</title>
<path fill="none" stroke="#4a6fa5" stroke-width="1.2" d="M409.27,-80.73C441.15,-70.87 495.36,-53.51 541,-36 541.97,-35.63 542.94,-35.25 543.93,-34.86"/>
<polygon fill="#4a6fa5" stroke="#4a6fa5" stroke-width="1.2" points="544.83,-37.51 551.17,-31.89 542.71,-32.33 544.83,-37.51"/>
</g>
<!-- nx8 -->
<g id="node10" class="node">
<title>nx8</title>
<path fill="#e6f2ff" stroke="#4a6fa5" d="M674,-36C674,-36 644,-36 644,-36 638,-36 632,-30 632,-24 632,-24 632,-12 632,-12 632,-6 638,0 644,0 644,0 674,0 674,0 680,0 686,-6 686,-12 686,-12 686,-24 686,-24 686,-30 680,-36 674,-36"/>
<text xml:space="preserve" text-anchor="middle" x="659" y="-14.5" font-family="Helvetica,sans-Serif" font-size="10.00">nx8</text>
</g>
<!-- bx1&#45;&gt;nx8 -->
<g id="edge8" class="edge">
<title>bx1&#45;&gt;nx8</title>
<path fill="none" stroke="#4a6fa5" stroke-width="1.2" d="M409.22,-84.69C453.92,-77.23 545.34,-60.34 620,-36 620.83,-35.73 621.67,-35.45 622.51,-35.16"/>
<polygon fill="#4a6fa5" stroke="#4a6fa5" stroke-width="1.2" points="623.36,-37.83 629.86,-32.38 621.38,-32.59 623.36,-37.83"/>
</g>
<!-- nx9 -->
<g id="node11" class="node">
<title>nx9</title>
<path fill="#e6f2ff" stroke="#4a6fa5" d="M753,-36C753,-36 723,-36 723,-36 717,-36 711,-30 711,-24 711,-24 711,-12 711,-12 711,-6 717,0 723,0 723,0 753,0 753,0 759,0 765,-6 765,-12 765,-12 765,-24 765,-24 765,-30 759,-36 753,-36"/>
<text xml:space="preserve" text-anchor="middle" x="738" y="-14.5" font-family="Helvetica,sans-Serif" font-size="10.00">nx9</text>
</g>
<!-- bx1&#45;&gt;nx9 -->
<g id="edge3" class="edge">
<title>bx1&#45;&gt;nx9</title>
<path fill="none" stroke="#4a6fa5" stroke-width="1.2" d="M409.22,-86.72C464.7,-81.57 594.42,-67.02 699,-36 699.84,-35.75 700.68,-35.49 701.52,-35.22"/>
<polygon fill="#4a6fa5" stroke="#4a6fa5" stroke-width="1.2" points="702.34,-37.9 708.91,-32.55 700.43,-32.63 702.34,-37.9"/>
</g>
</g>
</svg>
