<?xml version="1.0" encoding="UTF-8" standalone="no"?>
<!DOCTYPE svg PUBLIC "-//W3C//DTD SVG 1.1//EN"
 "http://www.w3.org/Graphics/SVG/1.1/DTD/svg11.dtd">
<!-- Generated by graphviz version 14.0.2 (20251019.1705)
 -->
<!-- Title: G Pages: 1 -->
<svg width="1207pt" height="188pt"
 viewBox="0.00 0.00 1207.00 188.00" xmlns="http://www.w3.org/2000/svg" xmlns:xlink="http://www.w3.org/1999/xlink">
<g id="graph0" class="graph" transform="scale(1 1) rotate(0) translate(4 184)">
<title>G</title>
<polygon fill="white" stroke="none" points="-4,4 -4,-184 1203,-184 1203,4 -4,4"/>
<!-- bx1 -->
<g id="node1" class="node">
<title>bx1</title>
<path fill="#e6f2ff" stroke="#4a6fa5" d="M713,-180C713,-180 683,-180 683,-180 677,-180 671,-174 671,-168 671,-168 671,-156 671,-156 671,-150 677,-144 683,-144 683,-144 713,-144 713,-144 719,-144 725,-150 725,-156 725,-156 725,-168 725,-168 725,-174 719,-180 713,-180"/>
<text xml:space="preserve" text-anchor="middle" x="698" y="-158.5" font-family="Helvetica,sans-Serif" font-size="10.00">bx1</text>
</g>
<!-- nx1 -->
<g id="node22" class="node">
<title>nx1</title>
<path fill="#e6f2ff" stroke="#4a6fa5" d="M161,-108C161,-108 131,-108 131,-108 125,-108 119,-102 119,-96 119,-96 119,-84 119,-84 119,-78 125,-72 131,-72 131,-72 161,-72 161,-72 167,-72 173,-78 173,-84 173,-84 173,-96 173,-96 173,-102 167,-108 161,-108"/>
<text xml:space="preserve" text-anchor="middle" x="146" y="-86.5" font-family="Helvetica,sans-Serif" font-size="10.00">nx1</text>
</g>
<!-- bx1&#45;&gt;nx1 -->
<g id="edge2" class="edge">
<title>bx1&#45;&gt;nx1</title>
<path fill="none" stroke="#4a6fa5" stroke-width="1.2" d="M670.61,-158.93C597.67,-153.21 392.73,-135.74 224,-108 210.49,-105.78 195.78,-102.74 182.82,-99.84"/>
<polygon fill="#4a6fa5" stroke="#4a6fa5" stroke-width="1.2" points="183.49,-97.12 175.07,-98.08 182.25,-102.58 183.49,-97.12"/>
</g>
<!-- nx10 -->
<g id="node23" class="node">
<title>nx10</title>
<path fill="#e6f2ff" stroke="#4a6fa5" d="M555,-108C555,-108 525,-108 525,-108 519,-108 513,-102 513,-96 513,-96 513,-84 513,-84 513,-78 519,-72 525,-72 525,-72 555,-72 555,-72 561,-72 567,-78 567,-84 567,-84 567,-96 567,-96 567,-102 561,-108 555,-108"/>
<text xml:space="preserve" text-anchor="middle" x="540" y="-86.5" font-family="Helvetica,sans-Serif" font-size="10.00">nx10</text>
</g>
<!-- bx1&#45;&gt;nx10 -->
<g id="edge8" class="edge">
<title>bx1&#45;&gt;nx10</title>
<path fill="none" stroke="#4a6fa5" stroke-width="1.2" d="M670.84,-148.97C644.73,-137.4 605.08,-119.83 576.28,-107.07"/>
<polygon fill="#4a6fa5" stroke="#4a6fa5" stroke-width="1.2" points="577.44,-104.53 569,-103.85 575.18,-109.65 577.44,-104.53"/>
</g>
<!-- nx2 -->
<g id="node24" class="node">
<title>nx2</title>
<path fill="#e6f2ff" stroke="#4a6fa5" d="M753,-108C753,-108 723,-108 723,-108 717,-108 711,-102 711,-96 711,-96 711,-84 711,-84 711,-78 717,-72 723,-72 723,-72 753,-72 753,-72 759,-72 765,-78 765,-84 765,-84 765,-96 765,-96 765,-102 759,-108 753,-108"/>
<text xml:space="preserve" text-anchor="middle" x="738" y="-86.5" font-family="Helvetica,sans-Serif" font-size="10.00">nx2</text>
</g>
<!-- bx1&#45;&gt;nx2 -->
<g id="edge4" class="edge">
<title>bx1&#45;&gt;nx2</title>
<path fill="none" stroke="#4a6fa5" stroke-width="1.2" d="M707.89,-143.7C712.59,-135.47 718.3,-125.48 723.47,-116.42"/>
<polygon fill="#4a6fa5" stroke="#4a6fa5" stroke-width="1.2" points="725.79,-118.02 727.32,-109.68 720.92,-115.24 725.79,-118.02"/>
</g>
<!-- nx3 -->
<g id="node25" class="node">
<title>nx3</title>
<path fill="#e6f2ff" stroke="#4a6fa5" d="M674,-108C674,-108 644,-108 644,-108 638,-108 632,-102 632,-96 632,-96 632,-84 632,-84 632,-78 638,-72 644,-72 644,-72 674,-72 674,-72 680,-72 686,-78 686,-84 686,-84 686,-96 686,-96 686,-102 680,-108 674,-108"/>
<text xml:space="preserve" text-anchor="middle" x="659" y="-86.5" font-family="Helvetica,sans-Serif" font-size="10.00">nx3</text>
</g>
<!-- bx1&#45;&gt;nx3 -->
<g id="edge5" class="edge">
<title>bx1&#45;&gt;nx3</title>
<path fill="none" stroke="#4a6fa5" stroke-width="1.2" d="M688.36,-143.7C683.78,-135.47 678.21,-125.48 673.16,-116.42"/>
<polygon fill="#4a6fa5" stroke="#4a6fa5" stroke-width="1.2" points="675.75,-115.32 669.41,-109.69 670.86,-118.04 675.75,-115.32"/>
</g>
<!-- nx4 -->
<g id="node26" class="node">
<title>nx4</title>
<path fill="#e6f2ff" stroke="#4a6fa5" d="M832,-108C832,-108 802,-108 802,-108 796,-108 790,-102 790,-96 790,-96 790,-84 790,-84 790,-78 796,-72 802,-72 802,-72 832,-72 832,-72 838,-72 844,-78 844,-84 844,-84 844,-96 844,-96 844,-102 838,-108 832,-108"/>
<text xml:space="preserve" text-anchor="middle" x="817" y="-86.5" font-family="Helvetica,sans-Serif" font-size="10.00">nx4</text>
</g>
<!-- bx1&#45;&gt;nx4 -->
<g id="edge10" class="edge">
<title>bx1&#45;&gt;nx4</title>
<path fill="none" stroke="#4a6fa5" stroke-width="1.2" d="M725.3,-144.94C742.08,-135.07 763.75,-122.32 781.81,-111.7"/>
<polygon fill="#4a6fa5" stroke="#4a6fa5" stroke-width="1.2" points="782.78,-114.38 788.26,-107.91 779.95,-109.55 782.78,-114.38"/>
</g>
<!-- nx5 -->
<g id="node27" class="node">
<title>nx5</title>
<path fill="#e6f2ff" stroke="#4a6fa5" d="M911,-108C911,-108 881,-108 881,-108 875,-108 869,-102 869,-96 869,-96 869,-84 869,-84 869,-78 875,-72 881,-72 881,-72 911,-72 911,-72 917,-72 923,-78 923,-84 923,-84 923,-96 923,-96 923,-102 917,-108 911,-108"/>
<text xml:space="preserve" text-anchor="middle" x="896" y="-86.5" font-family="Helvetica,sans-Serif" font-size="10.00">nx5</text>
</g>
<!-- bx1&#45;&gt;nx5 -->
<g id="edge3" class="edge">
<title>bx1&#45;&gt;nx5</title>
<path fill="none" stroke="#4a6fa5" stroke-width="1.2" d="M725.39,-148.9C729.58,-147.18 733.89,-145.49 738,-144 789.95,-125.17 805.14,-127.07 857,-108 857.97,-107.64 858.95,-107.27 859.94,-106.9"/>
<polygon fill="#4a6fa5" stroke="#4a6fa5" stroke-width="1.2" points="860.82,-109.56 867.2,-103.98 858.74,-104.36 860.82,-109.56"/>
</g>
<!-- nx6 -->
<g id="node28" class="node">
<title>nx6</title>
<path fill="#e6f2ff" stroke="#4a6fa5" d="M990,-108C990,-108 960,-108 960,-108 954,-108 948,-102 948,-96 948,-96 948,-84 948,-84 948,-78 954,-72 960,-72 960,-72 990,-72 990,-72 996,-72 1002,-78 1002,-84 1002,-84 1002,-96 1002,-96 1002,-102 996,-108 990,-108"/>
<text xml:space="preserve" text-anchor="middle" x="975" y="-86.5" font-family="Helvetica,sans-Serif" font-size="10.00">nx6</text>
</g>
<!-- bx1&#45;&gt;nx6 -->
<g id="edge7" class="edge">
<title>bx1&#45;&gt;nx6</title>
<path fill="none" stroke="#4a6fa5" stroke-width="1.2" d="M725.25,-148.47C729.46,-146.81 733.81,-145.26 738,-144 823.69,-118.35 850.43,-134.04 936,-108 936.83,-107.75 937.68,-107.48 938.52,-107.2"/>
<polygon fill="#4a6fa5" stroke="#4a6fa5" stroke-width="1.2" points="939.34,-109.88 945.9,-104.5 937.42,-104.62 939.34,-109.88"/>
</g>
<!-- nx7 -->
<g id="node29" class="node">
<title>nx7</title>
<path fill="#e6f2ff" stroke="#4a6fa5" d="M358,-108C358,-108 328,-108 328,-108 322,-108 316,-102 316,-96 316,-96 316,-84 316,-84 316,-78 322,-72 328,-72 328,-72 358,-72 358,-72 364,-72 370,-78 370,-84 370,-84 370,-96 370,-96 370,-102 364,-108 358,-108"/>
<text xml:space="preserve" text-anchor="middle" x="343" y="-86.5" font-family="Helvetica,sans-Serif" font-size="10.00">nx7</text>
</g>
<!-- bx1&#45;&gt;nx7 -->
<g id="edge1" class="edge">
<title>bx1&#45;&gt;nx7</title>
<path fill="none" stroke="#4a6fa5" stroke-width="1.2" d="M670.73,-155.62C607.62,-143.18 451.43,-112.38 379.88,-98.27"/>
<polygon fill="#4a6fa5" stroke="#4a6fa5" stroke-width="1.2" points="380.53,-95.55 372.14,-96.75 379.45,-101.04 380.53,-95.55"/>
</g>
<!-- nx8 -->
<g id="node30" class="node">
<title>nx8</title>
<path fill="#e6f2ff" stroke="#4a6fa5" d="M1069,-108C1069,-108 1039,-108 1039,-108 1033,-108 1027,-102 1027,-96 1027,-96 1027,-84 1027,-84 1027,-78 1033,-72 1039,-72 1039,-72 1069,-72 1069,-72 1075,-72 1081,-78 1081,-84 1081,-84 1081,-96 1081,-96 1081,-102 1075,-108 1069,-108"/>
<text xml:space="preserve" text-anchor="middle" x="1054" y="-86.5" font-family="Helvetica,sans-Serif" font-size="10.00">nx8</text>
</g>
<!-- bx1&#45;&gt;nx8 -->
<g id="edge9" class="edge">
<title>bx1&#45;&gt;nx8</title>
<path fill="none" stroke="#4a6fa5" stroke-width="1.2" d="M725.19,-148.28C729.41,-146.65 733.78,-145.15 738,-144 857.79,-111.42 895.36,-141.13 1015,-108 1015.84,-107.77 1016.69,-107.52 1017.54,-107.26"/>
<polygon fill="#4a6fa5" stroke="#4a6fa5" stroke-width="1.2" points="1018.32,-109.95 1024.94,-104.66 1016.46,-104.67 1018.32,-109.95"/>
</g>
<!-- nx9 -->
<g id="node31" class="node">
<title>nx9</title>
<path fill="#e6f2ff" stroke="#4a6fa5" d="M279,-108C279,-108 249,-108 249,-108 243,-108 237,-102 237,-96 237,-96 237,-84 237,-84 237,-78 243,-72 249,-72 249,-72 279,-72 279,-72 285,-72 291,-78 291,-84 291,-84 291,-96 291,-96 291,-102 285,-108 279,-108"/>
<text xml:space="preserve" text-anchor="middle" x="264" y="-86.5" font-family="Helvetica,sans-Serif" font-size="10.00">nx9</text>
</g>
<!-- bx1&#45;&gt;nx9 -->
<g id="edge6" class="edge">
<title>bx1&#45;&gt;nx9</title>
<path fill="none" stroke="#4a6fa5" stroke-width="1.2" d="M670.66,-159.94C605.73,-156.85 437.62,-145.58 303,-108 302.16,-107.77 301.31,-107.52 300.46,-107.25"/>
<polygon fill="#4a6fa5" stroke="#4a6fa5" stroke-width="1.2" points="301.54,-104.66 293.06,-104.65 299.68,-109.95 301.54,-104.66"/>
</g>
<!-- cx1 -->
<g id="node2" class="node">
<title>cx1</title>
<path fill="#e6f2ff" stroke="#4a6fa5" d="M437,-36C437,-36 407,-36 407,-36 401,-36 395,-30 395,-24 395,-24 395,-12 395,-12 395,-6 401,0 407,0 407,0 437,0 437,0 443,0 449,-6 449,-12 449,-12 449,-24 449,-24 449,-30 443,-36 437,-36"/>
<text xml:space="preserve" text-anchor="middle" x="422" y="-14.5" font-family="Helvetica,sans-Serif" font-size="10.00">cx1</text>
</g>
<!-- cx10 -->
<g id="node3" class="node">
<title>cx10</title>
<path fill="#e6f2ff" stroke="#4a6fa5" d="M832,-36C832,-36 802,-36 802,-36 796,-36 790,-30 790,-24 790,-24 790,-12 790,-12 790,-6 796,0 802,0 802,0 832,0 832,0 838,0 844,-6 844,-12 844,-12 844,-24 844,-24 844,-30 838,-36 832,-36"/>
<text xml:space="preserve" text-anchor="middle" x="817" y="-14.5" font-family="Helvetica,sans-Serif" font-size="10.00">cx10</text>
</g>
<!-- cx11 -->
<g id="node4" class="node">
<title>cx11</title>
<path fill="#e6f2ff" stroke="#4a6fa5" d="M42,-36C42,-36 12,-36 12,-36 6,-36 0,-30 0,-24 0,-24 0,-12 0,-12 0,-6 6,0 12,0 12,0 42,0 42,0 48,0 54,-6 54,-12 54,-12 54,-24 54,-24 54,-30 48,-36 42,-36"/>
<text xml:space="preserve" text-anchor="middle" x="27" y="-14.5" font-family="Helvetica,sans-Serif" font-size="10.00">cx11</text>
</g>
<!-- cx12 -->
<g id="node5" class="node">
<title>cx12</title>
<path fill="#e6f2ff" stroke="#4a6fa5" d="M200,-36C200,-36 170,-36 170,-36 164,-36 158,-30 158,-24 158,-24 158,-12 158,-12 158,-6 164,0 170,0 170,0 200,0 200,0 206,0 212,-6 212,-12 212,-12 212,-24 212,-24 212,-30 206,-36 200,-36"/>
<text xml:space="preserve" text-anchor="middle" x="185" y="-14.5" font-family="Helvetica,sans-Serif" font-size="10.00">cx12</text>
</g>
<!-- cx13 -->
<g id="node6" class="node">
<title>cx13</title>
<path fill="#e6f2ff" stroke="#4a6fa5" d="M279,-36C279,-36 249,-36 249,-36 243,-36 237,-30 237,-24 237,-24 237,-12 237,-12 237,-6 243,0 249,0 249,0 279,0 279,0 285,0 291,-6 291,-12 291,-12 291,-24 291,-24 291,-30 285,-36 279,-36"/>
<text xml:space="preserve" text-anchor="middle" x="264" y="-14.5" font-family="Helvetica,sans-Serif" font-size="10.00">cx13</text>
</g>
<!-- cx14 -->
<g id="node7" class="node">
<title>cx14</title>
<path fill="#e6f2ff" stroke="#4a6fa5" d="M674,-36C674,-36 644,-36 644,-36 638,-36 632,-30 632,-24 632,-24 632,-12 632,-12 632,-6 638,0 644,0 644,0 674,0 674,0 680,0 686,-6 686,-12 686,-12 686,-24 686,-24 686,-30 680,-36 674,-36"/>
<text xml:space="preserve" text-anchor="middle" x="659" y="-14.5" font-family="Helvetica,sans-Serif" font-size="10.00">cx14</text>
</g>
<!-- cx15 -->
<g id="node8" class="node">
<title>cx15</title>
<path fill="#e6f2ff" stroke="#4a6fa5" d="M792,-180C792,-180 762,-180 762,-180 756,-180 750,-174 750,-168 750,-168 750,-156 750,-156 750,-150 756,-144 762,-144 762,-144 792,-144 792,-144 798,-144 804,-150 804,-156 804,-156 804,-168 804,-168 804,-174 798,-180 792,-180"/>
<text xml:space="preserve" text-anchor="middle" x="777" y="-158.5" font-family="Helvetica,sans-Serif" font-size="10.00">cx15</text>
</g>
<!-- cx16 -->
<g id="node9" class="node">
<title>cx16</title>
<path fill="#e6f2ff" stroke="#4a6fa5" d="M1069,-36C1069,-36 1039,-36 1039,-36 1033,-36 1027,-30 1027,-24 1027,-24 1027,-12 1027,-12 1027,-6 1033,0 1039,0 1039,0 1069,0 1069,0 1075,0 1081,-6 1081,-12 1081,-12 1081,-24 1081,-24 1081,-30 1075,-36 1069,-36"/>
<text xml:space="preserve" text-anchor="middle" x="1054" y="-14.5" font-family="Helvetica,sans-Serif" font-size="10.00">cx16</text>
</g>
<!-- cx17 -->
<g id="node10" class="node">
<title>cx17</title>
<path fill="#e6f2ff" stroke="#4a6fa5" d="M121,-36C121,-36 91,-36 91,-36 85,-36 79,-30 79,-24 79,-24 79,-12 79,-12 79,-6 85,0 91,0 91,0 121,0 121,0 127,0 133,-6 133,-12 133,-12 133,-24 133,-24 133,-30 127,-36 121,-36"/>
<text xml:space="preserve" text-anchor="middle" x="106" y="-14.5" font-family="Helvetica,sans-Serif" font-size="10.00">cx17</text>
</g>
<!-- cx18 -->
<g id="node11" class="node">
<title>cx18</title>
<path fill="#e6f2ff" stroke="#4a6fa5" d="M871,-180C871,-180 841,-180 841,-180 835,-180 829,-174 829,-168 829,-168 829,-156 829,-156 829,-150 835,-144 841,-144 841,-144 871,-144 871,-144 877,-144 883,-150 883,-156 883,-156 883,-168 883,-168 883,-174 877,-180 871,-180"/>
<text xml:space="preserve" text-anchor="middle" x="856" y="-158.5" font-family="Helvetica,sans-Serif" font-size="10.00">cx18</text>
</g>
<!-- cx19 -->
<g id="node12" class="node">
<title>cx19</title>
<path fill="#e6f2ff" stroke="#4a6fa5" d="M911,-36C911,-36 881,-36 881,-36 875,-36 869,-30 869,-24 869,-24 869,-12 869,-12 869,-6 875,0 881,0 881,0 911,0 911,0 917,0 923,-6 923,-12 923,-12 923,-24 923,-24 923,-30 917,-36 911,-36"/>
<text xml:space="preserve" text-anchor="middle" x="896" y="-14.5" font-family="Helvetica,sans-Serif" font-size="10.00">cx19</text>
</g>
<!-- cx2 -->
<g id="node13" class="node">
<title>cx2</title>
<path fill="#e6f2ff" stroke="#4a6fa5" d="M358,-36C358,-36 328,-36 328,-36 322,-36 316,-30 316,-24 316,-24 316,-12 316,-12 316,-6 322,0 328,0 328,0 358,0 358,0 364,0 370,-6 370,-12 370,-12 370,-24 370,-24 370,-30 364,-36 358,-36"/>
<text xml:space="preserve" text-anchor="middle" x="343" y="-14.5" font-family="Helvetica,sans-Serif" font-size="10.00">cx2</text>
</g>
<!-- cx20 -->
<g id="node14" class="node">
<title>cx20</title>
<path fill="#e6f2ff" stroke="#4a6fa5" d="M516,-36C516,-36 486,-36 486,-36 480,-36 474,-30 474,-24 474,-24 474,-12 474,-12 474,-6 480,0 486,0 486,0 516,0 516,0 522,0 528,-6 528,-12 528,-12 528,-24 528,-24 528,-30 522,-36 516,-36"/>
<text xml:space="preserve" text-anchor="middle" x="501" y="-14.5" font-family="Helvetica,sans-Serif" font-size="10.00">cx20</text>
</g>
<!-- cx3 -->
<g id="node15" class="node">
<title>cx3</title>
<path fill="#e6f2ff" stroke="#4a6fa5" d="M950,-180C950,-180 920,-180 920,-180 914,-180 908,-174 908,-168 908,-168 908,-156 908,-156 908,-150 914,-144 920,-144 920,-144 950,-144 950,-144 956,-144 962,-150 962,-156 962,-156 962,-168 962,-168 962,-174 956,-180 950,-180"/>
<text xml:space="preserve" text-anchor="middle" x="935" y="-158.5" font-family="Helvetica,sans-Serif" font-size="10.00">cx3</text>
</g>
<!-- cx4 -->
<g id="node16" class="node">
<title>cx4</title>
<path fill="#e6f2ff" stroke="#4a6fa5" d="M595,-36C595,-36 565,-36 565,-36 559,-36 553,-30 553,-24 553,-24 553,-12 553,-12 553,-6 559,0 565,0 565,0 595,0 595,0 601,0 607,-6 607,-12 607,-12 607,-24 607,-24 607,-30 601,-36 595,-36"/>
<text xml:space="preserve" text-anchor="middle" x="580" y="-14.5" font-family="Helvetica,sans-Serif" font-size="10.00">cx4</text>
</g>
<!-- cx5 -->
<g id="node17" class="node">
<title>cx5</title>
<path fill="#e6f2ff" stroke="#4a6fa5" d="M1029,-180C1029,-180 999,-180 999,-180 993,-180 987,-174 987,-168 987,-168 987,-156 987,-156 987,-150 993,-144 999,-144 999,-144 1029,-144 1029,-144 1035,-144 1041,-150 1041,-156 1041,-156 1041,-168 1041,-168 1041,-174 1035,-180 1029,-180"/>
<text xml:space="preserve" text-anchor="middle" x="1014" y="-158.5" font-family="Helvetica,sans-Serif" font-size="10.00">cx5</text>
</g>
<!-- cx6 -->
<g id="node18" class="node">
<title>cx6</title>
<path fill="#e6f2ff" stroke="#4a6fa5" d="M1108,-180C1108,-180 1078,-180 1078,-180 1072,-180 1066,-174 1066,-168 1066,-168 1066,-156 1066,-156 1066,-150 1072,-144 1078,-144 1078,-144 1108,-144 1108,-144 1114,-144 1120,-150 1120,-156 1120,-156 1120,-168 1120,-168 1120,-174 1114,-180 1108,-180"/>
<text xml:space="preserve" text-anchor="middle" x="1093" y="-158.5" font-family="Helvetica,sans-Serif" font-size="10.00">cx6</text>
</g>
<!-- cx7 -->
<g id="node19" class="node">
<title>cx7</title>
<path fill="#e6f2ff" stroke="#4a6fa5" d="M753,-36C753,-36 723,-36 723,-36 717,-36 711,-30 711,-24 711,-24 711,-12 711,-12 711,-6 717,0 723,0 723,0 753,0 753,0 759,0 765,-6 765,-12 765,-12 765,-24 765,-24 765,-30 759,-36 753,-36"/>
<text xml:space="preserve" text-anchor="middle" x="738" y="-14.5" font-family="Helvetica,sans-Serif" font-size="10.00">cx7</text>
</g>
<!-- cx8 -->
<g id="node20" class="node">
<title>cx8</title>
<path fill="#e6f2ff" stroke="#4a6fa5" d="M1187,-180C1187,-180 1157,-180 1157,-180 1151,-180 1145,-174 1145,-168 1145,-168 1145,-156 1145,-156 1145,-150 1151,-144 1157,-144 1157,-144 1187,-144 1187,-144 1193,-144 1199,-150 1199,-156 1199,-156 1199,-168 1199,-168 1199,-174 1193,-180 1187,-180"/>
<text xml:space="preserve" text-anchor="middle" x="1172" y="-158.5" font-family="Helvetica,sans-Serif" font-size="10.00">cx8</text>
</g>
<!-- cx9 -->
<g id="node21" class="node">
<title>cx9</title>
<path fill="#e6f2ff" stroke="#4a6fa5" d="M990,-36C990,-36 960,-36 960,-36 954,-36 948,-30 948,-24 948,-24 948,-12 948,-12 948,-6 954,0 960,0 960,0 990,0 990,0 996,0 1002,-6 1002,-12 1002,-12 1002,-24 1002,-24 1002,-30 996,-36 990,-36"/>
<text xml:space="preserve" text-anchor="middle" x="975" y="-14.5" font-family="Helvetica,sans-Serif" font-size="10.00">cx9</text>
</g>
<!-- nx1&#45;&gt;cx11 -->
<g id="edge20" class="edge">
<title>nx1&#45;&gt;cx11</title>
<path fill="none" stroke="#4a6fa5" stroke-width="1.2" d="M118.7,-72.94C101.92,-63.07 80.25,-50.32 62.19,-39.7"/>
<polygon fill="#4a6fa5" stroke="#4a6fa5" stroke-width="1.2" points="64.05,-37.55 55.74,-35.91 61.22,-42.38 64.05,-37.55"/>
</g>
<!-- nx1&#45;&gt;cx12 -->
<g id="edge30" class="edge">
<title>nx1&#45;&gt;cx12</title>
<path fill="none" stroke="#4a6fa5" stroke-width="1.2" d="M155.64,-71.7C160.22,-63.47 165.79,-53.48 170.84,-44.42"/>
<polygon fill="#4a6fa5" stroke="#4a6fa5" stroke-width="1.2" points="173.14,-46.04 174.59,-37.69 168.25,-43.32 173.14,-46.04"/>
</g>
<!-- nx1&#45;&gt;cx17 -->
<g id="edge26" class="edge">
<title>nx1&#45;&gt;cx17</title>
<path fill="none" stroke="#4a6fa5" stroke-width="1.2" d="M136.11,-71.7C131.41,-63.47 125.7,-53.48 120.53,-44.42"/>
<polygon fill="#4a6fa5" stroke="#4a6fa5" stroke-width="1.2" points="123.08,-43.24 116.68,-37.68 118.21,-46.02 123.08,-43.24"/>
</g>
<!-- nx10&#45;&gt;cx1 -->
<g id="edge28" class="edge">
<title>nx10&#45;&gt;cx1</title>
<path fill="none" stroke="#4a6fa5" stroke-width="1.2" d="M512.63,-72.76C496.25,-63.05 475.25,-50.59 457.59,-40.11"/>
<polygon fill="#4a6fa5" stroke="#4a6fa5" stroke-width="1.2" points="459.09,-37.75 450.78,-36.07 456.23,-42.56 459.09,-37.75"/>
</g>
<!-- nx10&#45;&gt;cx2 -->
<g id="edge25" class="edge">
<title>nx10&#45;&gt;cx2</title>
<path fill="none" stroke="#4a6fa5" stroke-width="1.2" d="M512.55,-80.43C481.03,-70.44 427.9,-53.09 383,-36 381.85,-35.56 380.68,-35.11 379.51,-34.65"/>
<polygon fill="#4a6fa5" stroke="#4a6fa5" stroke-width="1.2" points="380.58,-32.06 372.11,-31.66 378.48,-37.26 380.58,-32.06"/>
</g>
<!-- nx10&#45;&gt;cx20 -->
<g id="edge29" class="edge">
<title>nx10&#45;&gt;cx20</title>
<path fill="none" stroke="#4a6fa5" stroke-width="1.2" d="M530.36,-71.7C525.78,-63.47 520.21,-53.48 515.16,-44.42"/>
<polygon fill="#4a6fa5" stroke="#4a6fa5" stroke-width="1.2" points="517.75,-43.32 511.41,-37.69 512.86,-46.04 517.75,-43.32"/>
</g>
<!-- nx10&#45;&gt;cx4 -->
<g id="edge22" class="edge">
<title>nx10&#45;&gt;cx4</title>
<path fill="none" stroke="#4a6fa5" stroke-width="1.2" d="M549.89,-71.7C554.59,-63.47 560.3,-53.48 565.47,-44.42"/>
<polygon fill="#4a6fa5" stroke="#4a6fa5" stroke-width="1.2" points="567.79,-46.02 569.32,-37.68 562.92,-43.24 567.79,-46.02"/>
</g>
<!-- nx10&#45;&gt;cx7 -->
<g id="edge16" class="edge">
<title>nx10&#45;&gt;cx7</title>
<path fill="none" stroke="#4a6fa5" stroke-width="1.2" d="M567.27,-80.73C599.15,-70.87 653.36,-53.51 699,-36 699.97,-35.63 700.94,-35.25 701.93,-34.86"/>
<polygon fill="#4a6fa5" stroke="#4a6fa5" stroke-width="1.2" points="702.83,-37.51 709.17,-31.89 700.71,-32.33 702.83,-37.51"/>
</g>
<!-- nx2&#45;&gt;cx10 -->
<g id="edge27" class="edge">
<title>nx2&#45;&gt;cx10</title>
<path fill="none" stroke="#4a6fa5" stroke-width="1.2" d="M757.53,-71.7C767.4,-62.95 779.54,-52.19 790.27,-42.69"/>
<polygon fill="#4a6fa5" stroke="#4a6fa5" stroke-width="1.2" points="791.93,-44.95 796.06,-37.55 788.22,-40.76 791.93,-44.95"/>
</g>
<!-- nx2&#45;&gt;cx19 -->
<g id="edge11" class="edge">
<title>nx2&#45;&gt;cx19</title>
<path fill="none" stroke="#4a6fa5" stroke-width="1.2" d="M765.16,-76.97C791.27,-65.4 830.92,-47.83 859.72,-35.07"/>
<polygon fill="#4a6fa5" stroke="#4a6fa5" stroke-width="1.2" points="860.82,-37.65 867,-31.85 858.56,-32.53 860.82,-37.65"/>
</g>
<!-- nx2&#45;&gt;cx7 -->
<g id="edge18" class="edge">
<title>nx2&#45;&gt;cx7</title>
<path fill="none" stroke="#4a6fa5" stroke-width="1.2" d="M738,-71.7C738,-63.9 738,-54.51 738,-45.83"/>
<polygon fill="#4a6fa5" stroke="#4a6fa5" stroke-width="1.2" points="740.8,-45.92 738,-37.92 735.2,-45.92 740.8,-45.92"/>
</g>
<!-- nx3&#45;&gt;cx14 -->
<g id="edge24" class="edge">
<title>nx3&#45;&gt;cx14</title>
<path fill="none" stroke="#4a6fa5" stroke-width="1.2" d="M659,-71.7C659,-63.9 659,-54.51 659,-45.83"/>
<polygon fill="#4a6fa5" stroke="#4a6fa5" stroke-width="1.2" points="661.8,-45.92 659,-37.92 656.2,-45.92 661.8,-45.92"/>
</g>
<!-- nx3&#45;&gt;cx4 -->
<g id="edge21" class="edge">
<title>nx3&#45;&gt;cx4</title>
<path fill="none" stroke="#4a6fa5" stroke-width="1.2" d="M639.47,-71.7C629.6,-62.95 617.46,-52.19 606.73,-42.69"/>
<polygon fill="#4a6fa5" stroke="#4a6fa5" stroke-width="1.2" points="608.78,-40.76 600.94,-37.55 605.07,-44.95 608.78,-40.76"/>
</g>
<!-- nx3&#45;&gt;cx7 -->
<g id="edge13" class="edge">
<title>nx3&#45;&gt;cx7</title>
<path fill="none" stroke="#4a6fa5" stroke-width="1.2" d="M678.53,-71.7C688.4,-62.95 700.54,-52.19 711.27,-42.69"/>
<polygon fill="#4a6fa5" stroke="#4a6fa5" stroke-width="1.2" points="712.93,-44.95 717.06,-37.55 709.22,-40.76 712.93,-44.95"/>
</g>
<!-- nx5&#45;&gt;cx9 -->
<g id="edge14" class="edge">
<title>nx5&#45;&gt;cx9</title>
<path fill="none" stroke="#4a6fa5" stroke-width="1.2" d="M915.53,-71.7C925.4,-62.95 937.54,-52.19 948.27,-42.69"/>
<polygon fill="#4a6fa5" stroke="#4a6fa5" stroke-width="1.2" points="949.93,-44.95 954.06,-37.55 946.22,-40.76 949.93,-44.95"/>
</g>
<!-- nx6&#45;&gt;cx16 -->
<g id="edge15" class="edge">
<title>nx6&#45;&gt;cx16</title>
<path fill="none" stroke="#4a6fa5" stroke-width="1.2" d="M994.53,-71.7C1004.4,-62.95 1016.54,-52.19 1027.27,-42.69"/>
<polygon fill="#4a6fa5" stroke="#4a6fa5" stroke-width="1.2" points="1028.93,-44.95 1033.06,-37.55 1025.22,-40.76 1028.93,-44.95"/>
</g>
<!-- nx7&#45;&gt;cx12 -->
<g id="edge12" class="edge">
<title>nx7&#45;&gt;cx12</title>
<path fill="none" stroke="#4a6fa5" stroke-width="1.2" d="M315.84,-76.97C289.73,-65.4 250.08,-47.83 221.28,-35.07"/>
<polygon fill="#4a6fa5" stroke="#4a6fa5" stroke-width="1.2" points="222.44,-32.53 214,-31.85 220.18,-37.65 222.44,-32.53"/>
</g>
<!-- nx7&#45;&gt;cx2 -->
<g id="edge19" class="edge">
<title>nx7&#45;&gt;cx2</title>
<path fill="none" stroke="#4a6fa5" stroke-width="1.2" d="M343,-71.7C343,-63.9 343,-54.51 343,-45.83"/>
<polygon fill="#4a6fa5" stroke="#4a6fa5" stroke-width="1.2" points="345.8,-45.92 343,-37.92 340.2,-45.92 345.8,-45.92"/>
</g>
<!-- nx9&#45;&gt;cx13 -->
<g id="edge17" class="edge">
<title>nx9&#45;&gt;cx13</title>
<path fill="none" stroke="#4a6fa5" stroke-width="1.2" d="M264,-71.7C264,-63.9 264,-54.51 264,-45.83"/>
<polygon fill="#4a6fa5" stroke="#4a6fa5" stroke-width="1.2" points="266.8,-45.92 264,-37.92 261.2,-45.92 266.8,-45.92"/>
</g>
<!-- nx9&#45;&gt;cx17 -->
<g id="edge23" class="edge">
<title>nx9&#45;&gt;cx17</title>
<path fill="none" stroke="#4a6fa5" stroke-width="1.2" d="M236.84,-76.97C210.73,-65.4 171.08,-47.83 142.28,-35.07"/>
<polygon fill="#4a6fa5" stroke="#4a6fa5" stroke-width="1.2" points="143.44,-32.53 135,-31.85 141.18,-37.65 143.44,-32.53"/>
</g>
</g>
</svg>
