<?xml version="1.0" encoding="UTF-8" standalone="no"?>
<!DOCTYPE svg PUBLIC "-//W3C//DTD SVG 1.1//EN"
 "http://www.w3.org/Graphics/SVG/1.1/DTD/svg11.dtd">
<!-- Generated by graphviz version 14.0.2 (20251019.1705)
 -->
<!-- Title: G Pages: 1 -->
<svg width="931pt" height="188pt"
 viewBox="0.00 0.00 931.00 188.00" xmlns="http://www.w3.org/2000/svg" xmlns:xlink="http://www.w3.org/1999/xlink">
<g id="graph0" class="graph" transform="scale(1 1) rotate(0) translate(4 184)">
<title>G</title>
<polygon fill="white" stroke="none" points="-4,4 -4,-184 927,-184 927,4 -4,4"/>
<!-- bx1 -->
<g id="node1" class="node">
<title>bx1</title>
<path fill="#e6f2ff" stroke="#4a6fa5" d="M595,-180C595,-180 565,-180 565,-180 559,-180 553,-174 553,-168 553,-168 553,-156 553,-156 553,-150 559,-144 565,-144 565,-144 595,-144 595,-144 601,-144 607,-150 607,-156 607,-156 607,-168 607,-168 607,-174 601,-180 595,-180"/>
<text xml:space="preserve" text-anchor="middle" x="580" y="-158.5" font-family="Helvetica,sans-Serif" font-size="10.00">bx1</text>
</g>
<!-- nx1 -->
<g id="node14" class="node">
<title>nx1</title>
<path fill="#e6f2ff" stroke="#4a6fa5" d="M121,-108C121,-108 91,-108 91,-108 85,-108 79,-102 79,-96 79,-96 79,-84 79,-84 79,-78 85,-72 91,-72 91,-72 121,-72 121,-72 127,-72 133,-78 133,-84 133,-84 133,-96 133,-96 133,-102 127,-108 121,-108"/>
<text xml:space="preserve" text-anchor="middle" x="106" y="-86.5" font-family="Helvetica,sans-Serif" font-size="10.00">nx1</text>
</g>
<!-- bx1&#45;&gt;nx1 -->
<g id="edge2" class="edge">
<title>bx1&#45;&gt;nx1</title>
<path fill="none" stroke="#4a6fa5" stroke-width="1.2" d="M552.75,-160.4C483.44,-158.31 295.29,-148.97 145,-108 144.16,-107.77 143.31,-107.53 142.46,-107.27"/>
<polygon fill="#4a6fa5" stroke="#4a6fa5" stroke-width="1.2" points="143.53,-104.68 135.05,-104.69 141.69,-109.96 143.53,-104.68"/>
</g>
<!-- nx2 -->
<g id="node15" class="node">
<title>nx2</title>
<path fill="#e6f2ff" stroke="#4a6fa5" d="M516,-108C516,-108 486,-108 486,-108 480,-108 474,-102 474,-96 474,-96 474,-84 474,-84 474,-78 480,-72 486,-72 486,-72 516,-72 516,-72 522,-72 528,-78 528,-84 528,-84 528,-96 528,-96 528,-102 522,-108 516,-108"/>
<text xml:space="preserve" text-anchor="middle" x="501" y="-86.5" font-family="Helvetica,sans-Serif" font-size="10.00">nx2</text>
</g>
<!-- bx1&#45;&gt;nx2 -->
<g id="edge4" class="edge">
<title>bx1&#45;&gt;nx2</title>
<path fill="none" stroke="#4a6fa5" stroke-width="1.2" d="M560.47,-143.7C550.6,-134.95 538.46,-124.19 527.73,-114.69"/>
<polygon fill="#4a6fa5" stroke="#4a6fa5" stroke-width="1.2" points="529.78,-112.76 521.94,-109.55 526.07,-116.95 529.78,-112.76"/>
</g>
<!-- nx3 -->
<g id="node16" class="node">
<title>nx3</title>
<path fill="#e6f2ff" stroke="#4a6fa5" d="M595,-108C595,-108 565,-108 565,-108 559,-108 553,-102 553,-96 553,-96 553,-84 553,-84 553,-78 559,-72 565,-72 565,-72 595,-72 595,-72 601,-72 607,-78 607,-84 607,-84 607,-96 607,-96 607,-102 601,-108 595,-108"/>
<text xml:space="preserve" text-anchor="middle" x="580" y="-86.5" font-family="Helvetica,sans-Serif" font-size="10.00">nx3</text>
</g>
<!-- bx1&#45;&gt;nx3 -->
<g id="edge5" class="edge">
<title>bx1&#45;&gt;nx3</title>
<path fill="none" stroke="#4a6fa5" stroke-width="1.2" d="M580,-143.7C580,-135.9 580,-126.51 580,-117.83"/>
<polygon fill="#4a6fa5" stroke="#4a6fa5" stroke-width="1.2" points="582.8,-117.92 580,-109.92 577.2,-117.92 582.8,-117.92"/>
</g>
<!-- nx4 -->
<g id="node17" class="node">
<title>nx4</title>
<path fill="#e6f2ff" stroke="#4a6fa5" d="M674,-108C674,-108 644,-108 644,-108 638,-108 632,-102 632,-96 632,-96 632,-84 632,-84 632,-78 638,-72 644,-72 644,-72 674,-72 674,-72 680,-72 686,-78 686,-84 686,-84 686,-96 686,-96 686,-102 680,-108 674,-108"/>
<text xml:space="preserve" text-anchor="middle" x="659" y="-86.5" font-family="Helvetica,sans-Serif" font-size="10.00">nx4</text>
</g>
<!-- bx1&#45;&gt;nx4 -->
<g id="edge9" class="edge">
<title>bx1&#45;&gt;nx4</title>
<path fill="none" stroke="#4a6fa5" stroke-width="1.2" d="M599.53,-143.7C609.4,-134.95 621.54,-124.19 632.27,-114.69"/>
<polygon fill="#4a6fa5" stroke="#4a6fa5" stroke-width="1.2" points="633.93,-116.95 638.06,-109.55 630.22,-112.76 633.93,-116.95"/>
</g>
<!-- nx5 -->
<g id="node18" class="node">
<title>nx5</title>
<path fill="#e6f2ff" stroke="#4a6fa5" d="M753,-108C753,-108 723,-108 723,-108 717,-108 711,-102 711,-96 711,-96 711,-84 711,-84 711,-78 717,-72 723,-72 723,-72 753,-72 753,-72 759,-72 765,-78 765,-84 765,-84 765,-96 765,-96 765,-102 759,-108 753,-108"/>
<text xml:space="preserve" text-anchor="middle" x="738" y="-86.5" font-family="Helvetica,sans-Serif" font-size="10.00">nx5</text>
</g>
<!-- bx1&#45;&gt;nx5 -->
<g id="edge3" class="edge">
<title>bx1&#45;&gt;nx5</title>
<path fill="none" stroke="#4a6fa5" stroke-width="1.2" d="M607.16,-148.97C633.27,-137.4 672.92,-119.83 701.72,-107.07"/>
<polygon fill="#4a6fa5" stroke="#4a6fa5" stroke-width="1.2" points="702.82,-109.65 709,-103.85 700.56,-104.53 702.82,-109.65"/>
</g>
<!-- nx6 -->
<g id="node19" class="node">
<title>nx6</title>
<path fill="#e6f2ff" stroke="#4a6fa5" d="M832,-108C832,-108 802,-108 802,-108 796,-108 790,-102 790,-96 790,-96 790,-84 790,-84 790,-78 796,-72 802,-72 802,-72 832,-72 832,-72 838,-72 844,-78 844,-84 844,-84 844,-96 844,-96 844,-102 838,-108 832,-108"/>
<text xml:space="preserve" text-anchor="middle" x="817" y="-86.5" font-family="Helvetica,sans-Serif" font-size="10.00">nx6</text>
</g>
<!-- bx1&#45;&gt;nx6 -->
<g id="edge7" class="edge">
<title>bx1&#45;&gt;nx6</title>
<path fill="none" stroke="#4a6fa5" stroke-width="1.2" d="M607.29,-155.06C645.84,-146.36 718.21,-128.9 778,-108 778.82,-107.71 779.65,-107.41 780.49,-107.11"/>
<polygon fill="#4a6fa5" stroke="#4a6fa5" stroke-width="1.2" points="781.38,-109.77 787.81,-104.25 779.34,-104.55 781.38,-109.77"/>
</g>
<!-- nx7 -->
<g id="node20" class="node">
<title>nx7</title>
<path fill="#e6f2ff" stroke="#4a6fa5" d="M200,-108C200,-108 170,-108 170,-108 164,-108 158,-102 158,-96 158,-96 158,-84 158,-84 158,-78 164,-72 170,-72 170,-72 200,-72 200,-72 206,-72 212,-78 212,-84 212,-84 212,-96 212,-96 212,-102 206,-108 200,-108"/>
<text xml:space="preserve" text-anchor="middle" x="185" y="-86.5" font-family="Helvetica,sans-Serif" font-size="10.00">nx7</text>
</g>
<!-- bx1&#45;&gt;nx7 -->
<g id="edge1" class="edge">
<title>bx1&#45;&gt;nx7</title>
<path fill="none" stroke="#4a6fa5" stroke-width="1.2" d="M552.54,-156.13C483.08,-143.82 300.34,-111.44 221.77,-97.52"/>
<polygon fill="#4a6fa5" stroke="#4a6fa5" stroke-width="1.2" points="222.43,-94.79 214.07,-96.15 221.46,-100.3 222.43,-94.79"/>
</g>
<!-- nx8 -->
<g id="node21" class="node">
<title>nx8</title>
<path fill="#e6f2ff" stroke="#4a6fa5" d="M911,-108C911,-108 881,-108 881,-108 875,-108 869,-102 869,-96 869,-96 869,-84 869,-84 869,-78 875,-72 881,-72 881,-72 911,-72 911,-72 917,-72 923,-78 923,-84 923,-84 923,-96 923,-96 923,-102 917,-108 911,-108"/>
<text xml:space="preserve" text-anchor="middle" x="896" y="-86.5" font-family="Helvetica,sans-Serif" font-size="10.00">nx8</text>
</g>
<!-- bx1&#45;&gt;nx8 -->
<g id="edge8" class="edge">
<title>bx1&#45;&gt;nx8</title>
<path fill="none" stroke="#4a6fa5" stroke-width="1.2" d="M607.23,-157.83C657.44,-151.54 767.66,-135.64 857,-108 857.83,-107.74 858.67,-107.47 859.52,-107.19"/>
<polygon fill="#4a6fa5" stroke="#4a6fa5" stroke-width="1.2" points="860.35,-109.87 866.89,-104.48 858.41,-104.61 860.35,-109.87"/>
</g>
<!-- nx9 -->
<g id="node22" class="node">
<title>nx9</title>
<path fill="#e6f2ff" stroke="#4a6fa5" d="M358,-108C358,-108 328,-108 328,-108 322,-108 316,-102 316,-96 316,-96 316,-84 316,-84 316,-78 322,-72 328,-72 328,-72 358,-72 358,-72 364,-72 370,-78 370,-84 370,-84 370,-96 370,-96 370,-102 364,-108 358,-108"/>
<text xml:space="preserve" text-anchor="middle" x="343" y="-86.5" font-family="Helvetica,sans-Serif" font-size="10.00">nx9</text>
</g>
<!-- bx1&#45;&gt;nx9 -->
<g id="edge6" class="edge">
<title>bx1&#45;&gt;nx9</title>
<path fill="none" stroke="#4a6fa5" stroke-width="1.2" d="M552.81,-152.97C510.16,-140.37 427.45,-115.94 379.6,-101.81"/>
<polygon fill="#4a6fa5" stroke="#4a6fa5" stroke-width="1.2" points="380.44,-99.14 371.98,-99.56 378.85,-104.51 380.44,-99.14"/>
</g>
<!-- cx10 -->
<g id="node2" class="node">
<title>cx10</title>
<path fill="#e6f2ff" stroke="#4a6fa5" d="M437,-36C437,-36 407,-36 407,-36 401,-36 395,-30 395,-24 395,-24 395,-12 395,-12 395,-6 401,0 407,0 407,0 437,0 437,0 443,0 449,-6 449,-12 449,-12 449,-24 449,-24 449,-30 443,-36 437,-36"/>
<text xml:space="preserve" text-anchor="middle" x="422" y="-14.5" font-family="Helvetica,sans-Serif" font-size="10.00">cx10</text>
</g>
<!-- cx11 -->
<g id="node3" class="node">
<title>cx11</title>
<path fill="#e6f2ff" stroke="#4a6fa5" d="M42,-36C42,-36 12,-36 12,-36 6,-36 0,-30 0,-24 0,-24 0,-12 0,-12 0,-6 6,0 12,0 12,0 42,0 42,0 48,0 54,-6 54,-12 54,-12 54,-24 54,-24 54,-30 48,-36 42,-36"/>
<text xml:space="preserve" text-anchor="middle" x="27" y="-14.5" font-family="Helvetica,sans-Serif" font-size="10.00">cx11</text>
</g>
<!-- cx12 -->
<g id="node4" class="node">
<title>cx12</title>
<path fill="#e6f2ff" stroke="#4a6fa5" d="M121,-36C121,-36 91,-36 91,-36 85,-36 79,-30 79,-24 79,-24 79,-12 79,-12 79,-6 85,0 91,0 91,0 121,0 121,0 127,0 133,-6 133,-12 133,-12 133,-24 133,-24 133,-30 127,-36 121,-36"/>
<text xml:space="preserve" text-anchor="middle" x="106" y="-14.5" font-family="Helvetica,sans-Serif" font-size="10.00">cx12</text>
</g>
<!-- cx13 -->
<g id="node5" class="node">
<title>cx13</title>
<path fill="#e6f2ff" stroke="#4a6fa5" d="M358,-36C358,-36 328,-36 328,-36 322,-36 316,-30 316,-24 316,-24 316,-12 316,-12 316,-6 322,0 328,0 328,0 358,0 358,0 364,0 370,-6 370,-12 370,-12 370,-24 370,-24 370,-30 364,-36 358,-36"/>
<text xml:space="preserve" text-anchor="middle" x="343" y="-14.5" font-family="Helvetica,sans-Serif" font-size="10.00">cx13</text>
</g>
<!-- cx14 -->
<g id="node6" class="node">
<title>cx14</title>
<path fill="#e6f2ff" stroke="#4a6fa5" d="M674,-36C674,-36 644,-36 644,-36 638,-36 632,-30 632,-24 632,-24 632,-12 632,-12 632,-6 638,0 644,0 644,0 674,0 674,0 680,0 686,-6 686,-12 686,-12 686,-24 686,-24 686,-30 680,-36 674,-36"/>
<text xml:space="preserve" text-anchor="middle" x="659" y="-14.5" font-family="Helvetica,sans-Serif" font-size="10.00">cx14</text>
</g>
<!-- cx16 -->
<g id="node7" class="node">
<title>cx16</title>
<path fill="#e6f2ff" stroke="#4a6fa5" d="M911,-36C911,-36 881,-36 881,-36 875,-36 869,-30 869,-24 869,-24 869,-12 869,-12 869,-6 875,0 881,0 881,0 911,0 911,0 917,0 923,-6 923,-12 923,-12 923,-24 923,-24 923,-30 917,-36 911,-36"/>
<text xml:space="preserve" text-anchor="middle" x="896" y="-14.5" font-family="Helvetica,sans-Serif" font-size="10.00">cx16</text>
</g>
<!-- cx17 -->
<g id="node8" class="node">
<title>cx17</title>
<path fill="#e6f2ff" stroke="#4a6fa5" d="M279,-36C279,-36 249,-36 249,-36 243,-36 237,-30 237,-24 237,-24 237,-12 237,-12 237,-6 243,0 249,0 249,0 279,0 279,0 285,0 291,-6 291,-12 291,-12 291,-24 291,-24 291,-30 285,-36 279,-36"/>
<text xml:space="preserve" text-anchor="middle" x="264" y="-14.5" font-family="Helvetica,sans-Serif" font-size="10.00">cx17</text>
</g>
<!-- cx19 -->
<g id="node9" class="node">
<title>cx19</title>
<path fill="#e6f2ff" stroke="#4a6fa5" d="M516,-36C516,-36 486,-36 486,-36 480,-36 474,-30 474,-24 474,-24 474,-12 474,-12 474,-6 480,0 486,0 486,0 516,0 516,0 522,0 528,-6 528,-12 528,-12 528,-24 528,-24 528,-30 522,-36 516,-36"/>
<text xml:space="preserve" text-anchor="middle" x="501" y="-14.5" font-family="Helvetica,sans-Serif" font-size="10.00">cx19</text>
</g>
<!-- cx2 -->
<g id="node10" class="node">
<title>cx2</title>
<path fill="#e6f2ff" stroke="#4a6fa5" d="M200,-36C200,-36 170,-36 170,-36 164,-36 158,-30 158,-24 158,-24 158,-12 158,-12 158,-6 164,0 170,0 170,0 200,0 200,0 206,0 212,-6 212,-12 212,-12 212,-24 212,-24 212,-30 206,-36 200,-36"/>
<text xml:space="preserve" text-anchor="middle" x="185" y="-14.5" font-family="Helvetica,sans-Serif" font-size="10.00">cx2</text>
</g>
<!-- cx4 -->
<g id="node11" class="node">
<title>cx4</title>
<path fill="#e6f2ff" stroke="#4a6fa5" d="M753,-36C753,-36 723,-36 723,-36 717,-36 711,-30 711,-24 711,-24 711,-12 711,-12 711,-6 717,0 723,0 723,0 753,0 753,0 759,0 765,-6 765,-12 765,-12 765,-24 765,-24 765,-30 759,-36 753,-36"/>
<text xml:space="preserve" text-anchor="middle" x="738" y="-14.5" font-family="Helvetica,sans-Serif" font-size="10.00">cx4</text>
</g>
<!-- cx7 -->
<g id="node12" class="node">
<title>cx7</title>
<path fill="#e6f2ff" stroke="#4a6fa5" d="M595,-36C595,-36 565,-36 565,-36 559,-36 553,-30 553,-24 553,-24 553,-12 553,-12 553,-6 559,0 565,0 565,0 595,0 595,0 601,0 607,-6 607,-12 607,-12 607,-24 607,-24 607,-30 601,-36 595,-36"/>
<text xml:space="preserve" text-anchor="middle" x="580" y="-14.5" font-family="Helvetica,sans-Serif" font-size="10.00">cx7</text>
</g>
<!-- cx9 -->
<g id="node13" class="node">
<title>cx9</title>
<path fill="#e6f2ff" stroke="#4a6fa5" d="M832,-36C832,-36 802,-36 802,-36 796,-36 790,-30 790,-24 790,-24 790,-12 790,-12 790,-6 796,0 802,0 802,0 832,0 832,0 838,0 844,-6 844,-12 844,-12 844,-24 844,-24 844,-30 838,-36 832,-36"/>
<text xml:space="preserve" text-anchor="middle" x="817" y="-14.5" font-family="Helvetica,sans-Serif" font-size="10.00">cx9</text>
</g>
<!-- nx1&#45;&gt;cx11 -->
<g id="edge18" class="edge">
<title>nx1&#45;&gt;cx11</title>
<path fill="none" stroke="#4a6fa5" stroke-width="1.2" d="M86.47,-71.7C76.6,-62.95 64.46,-52.19 53.73,-42.69"/>
<polygon fill="#4a6fa5" stroke="#4a6fa5" stroke-width="1.2" points="55.78,-40.76 47.94,-37.55 52.07,-44.95 55.78,-40.76"/>
</g>
<!-- nx1&#45;&gt;cx12 -->
<g id="edge24" class="edge">
<title>nx1&#45;&gt;cx12</title>
<path fill="none" stroke="#4a6fa5" stroke-width="1.2" d="M106,-71.7C106,-63.9 106,-54.51 106,-45.83"/>
<polygon fill="#4a6fa5" stroke="#4a6fa5" stroke-width="1.2" points="108.8,-45.92 106,-37.92 103.2,-45.92 108.8,-45.92"/>
</g>
<!-- nx1&#45;&gt;cx17 -->
<g id="edge22" class="edge">
<title>nx1&#45;&gt;cx17</title>
<path fill="none" stroke="#4a6fa5" stroke-width="1.2" d="M133.16,-76.97C159.27,-65.4 198.92,-47.83 227.72,-35.07"/>
<polygon fill="#4a6fa5" stroke="#4a6fa5" stroke-width="1.2" points="228.82,-37.65 235,-31.85 226.56,-32.53 228.82,-37.65"/>
</g>
<!-- nx2&#45;&gt;cx10 -->
<g id="edge23" class="edge">
<title>nx2&#45;&gt;cx10</title>
<path fill="none" stroke="#4a6fa5" stroke-width="1.2" d="M481.47,-71.7C471.6,-62.95 459.46,-52.19 448.73,-42.69"/>
<polygon fill="#4a6fa5" stroke="#4a6fa5" stroke-width="1.2" points="450.78,-40.76 442.94,-37.55 447.07,-44.95 450.78,-40.76"/>
</g>
<!-- nx2&#45;&gt;cx19 -->
<g id="edge10" class="edge">
<title>nx2&#45;&gt;cx19</title>
<path fill="none" stroke="#4a6fa5" stroke-width="1.2" d="M501,-71.7C501,-63.9 501,-54.51 501,-45.83"/>
<polygon fill="#4a6fa5" stroke="#4a6fa5" stroke-width="1.2" points="503.8,-45.92 501,-37.92 498.2,-45.92 503.8,-45.92"/>
</g>
<!-- nx2&#45;&gt;cx7 -->
<g id="edge16" class="edge">
<title>nx2&#45;&gt;cx7</title>
<path fill="none" stroke="#4a6fa5" stroke-width="1.2" d="M520.53,-71.7C530.4,-62.95 542.54,-52.19 553.27,-42.69"/>
<polygon fill="#4a6fa5" stroke="#4a6fa5" stroke-width="1.2" points="554.93,-44.95 559.06,-37.55 551.22,-40.76 554.93,-44.95"/>
</g>
<!-- nx3&#45;&gt;cx14 -->
<g id="edge21" class="edge">
<title>nx3&#45;&gt;cx14</title>
<path fill="none" stroke="#4a6fa5" stroke-width="1.2" d="M599.53,-71.7C609.4,-62.95 621.54,-52.19 632.27,-42.69"/>
<polygon fill="#4a6fa5" stroke="#4a6fa5" stroke-width="1.2" points="633.93,-44.95 638.06,-37.55 630.22,-40.76 633.93,-44.95"/>
</g>
<!-- nx3&#45;&gt;cx4 -->
<g id="edge19" class="edge">
<title>nx3&#45;&gt;cx4</title>
<path fill="none" stroke="#4a6fa5" stroke-width="1.2" d="M607.16,-76.97C633.27,-65.4 672.92,-47.83 701.72,-35.07"/>
<polygon fill="#4a6fa5" stroke="#4a6fa5" stroke-width="1.2" points="702.82,-37.65 709,-31.85 700.56,-32.53 702.82,-37.65"/>
</g>
<!-- nx3&#45;&gt;cx7 -->
<g id="edge12" class="edge">
<title>nx3&#45;&gt;cx7</title>
<path fill="none" stroke="#4a6fa5" stroke-width="1.2" d="M580,-71.7C580,-63.9 580,-54.51 580,-45.83"/>
<polygon fill="#4a6fa5" stroke="#4a6fa5" stroke-width="1.2" points="582.8,-45.92 580,-37.92 577.2,-45.92 582.8,-45.92"/>
</g>
<!-- nx5&#45;&gt;cx9 -->
<g id="edge13" class="edge">
<title>nx5&#45;&gt;cx9</title>
<path fill="none" stroke="#4a6fa5" stroke-width="1.2" d="M757.53,-71.7C767.4,-62.95 779.54,-52.19 790.27,-42.69"/>
<polygon fill="#4a6fa5" stroke="#4a6fa5" stroke-width="1.2" points="791.93,-44.95 796.06,-37.55 788.22,-40.76 791.93,-44.95"/>
</g>
<!-- nx6&#45;&gt;cx16 -->
<g id="edge14" class="edge">
<title>nx6&#45;&gt;cx16</title>
<path fill="none" stroke="#4a6fa5" stroke-width="1.2" d="M836.53,-71.7C846.4,-62.95 858.54,-52.19 869.27,-42.69"/>
<polygon fill="#4a6fa5" stroke="#4a6fa5" stroke-width="1.2" points="870.93,-44.95 875.06,-37.55 867.22,-40.76 870.93,-44.95"/>
</g>
<!-- nx7&#45;&gt;cx12 -->
<g id="edge11" class="edge">
<title>nx7&#45;&gt;cx12</title>
<path fill="none" stroke="#4a6fa5" stroke-width="1.2" d="M165.47,-71.7C155.6,-62.95 143.46,-52.19 132.73,-42.69"/>
<polygon fill="#4a6fa5" stroke="#4a6fa5" stroke-width="1.2" points="134.78,-40.76 126.94,-37.55 131.07,-44.95 134.78,-40.76"/>
</g>
<!-- nx7&#45;&gt;cx2 -->
<g id="edge17" class="edge">
<title>nx7&#45;&gt;cx2</title>
<path fill="none" stroke="#4a6fa5" stroke-width="1.2" d="M185,-71.7C185,-63.9 185,-54.51 185,-45.83"/>
<polygon fill="#4a6fa5" stroke="#4a6fa5" stroke-width="1.2" points="187.8,-45.92 185,-37.92 182.2,-45.92 187.8,-45.92"/>
</g>
<!-- nx9&#45;&gt;cx13 -->
<g id="edge15" class="edge">
<title>nx9&#45;&gt;cx13</title>
<path fill="none" stroke="#4a6fa5" stroke-width="1.2" d="M343,-71.7C343,-63.9 343,-54.51 343,-45.83"/>
<polygon fill="#4a6fa5" stroke="#4a6fa5" stroke-width="1.2" points="345.8,-45.92 343,-37.92 340.2,-45.92 345.8,-45.92"/>
</g>
<!-- nx9&#45;&gt;cx17 -->
<g id="edge20" class="edge">
<title>nx9&#45;&gt;cx17</title>
<path fill="none" stroke="#4a6fa5" stroke-width="1.2" d="M323.47,-71.7C313.6,-62.95 301.46,-52.19 290.73,-42.69"/>
<polygon fill="#4a6fa5" stroke="#4a6fa5" stroke-width="1.2" points="292.78,-40.76 284.94,-37.55 289.07,-44.95 292.78,-40.76"/>
</g>
</g>
</svg>
