<?xml version="1.0" encoding="UTF-8" standalone="no"?>
<!DOCTYPE svg PUBLIC "-//W3C//DTD SVG 1.1//EN"
 "http://www.w3.org/Graphics/SVG/1.1/DTD/svg11.dtd">
<!-- Generated by graphviz version 14.0.2 (20251019.1705)
 -->
<!-- Title: greggle_regex_nfa Pages: 1 -->
<svg width="1437pt" height="122pt"
 viewBox="0.00 0.00 1437.00 122.00" xmlns="http://www.w3.org/2000/svg" xmlns:xlink="http://www.w3.org/1999/xlink">
<g id="graph0" class="graph" transform="scale(1 1) rotate(0) translate(4 118.49)">
<title>greggle_regex_nfa</title>
<polygon fill="white" stroke="none" points="-4,4 -4,-118.49 1433.43,-118.49 1433.43,4 -4,4"/>
<!-- start -->
<g id="node1" class="node">
<title>start</title>
<polygon fill="none" stroke="black" points="39.75,-67.63 0,-49.63 39.75,-31.63 79.51,-49.63 39.75,-67.63"/>
<text xml:space="preserve" text-anchor="middle" x="39.75" y="-44.2" font-family="Helvetica,sans-Serif" font-size="14.00">start</text>
</g>
<!-- q0 -->
<g id="node2" class="node">
<title>q0</title>
<ellipse fill="none" stroke="black" cx="137.13" cy="-49.63" rx="20.63" ry="20.63"/>
<text xml:space="preserve" text-anchor="middle" x="137.13" y="-44.2" font-family="Helvetica,sans-Serif" font-size="14.00">q0</text>
</g>
<!-- start&#45;&gt;q0 -->
<g id="edge1" class="edge">
<title>start&#45;&gt;q0</title>
<path fill="none" stroke="black" d="M80.65,-49.63C88.69,-49.63 97.03,-49.63 104.73,-49.63"/>
<polygon fill="black" stroke="black" points="104.65,-53.13 114.65,-49.63 104.65,-46.13 104.65,-53.13"/>
</g>
<!-- q2 -->
<g id="node4" class="node">
<title>q2</title>
<ellipse fill="none" stroke="black" cx="236.13" cy="-79.63" rx="20.63" ry="20.63"/>
<text xml:space="preserve" text-anchor="middle" x="236.13" y="-74.2" font-family="Helvetica,sans-Serif" font-size="14.00">q2</text>
</g>
<!-- q0&#45;&gt;q2 -->
<g id="edge2" class="edge">
<title>q0&#45;&gt;q2</title>
<path fill="none" stroke="black" d="M157.3,-55.55C170.98,-59.78 189.66,-65.56 205.28,-70.39"/>
<polygon fill="black" stroke="black" points="203.97,-73.65 214.56,-73.26 206.04,-66.96 203.97,-73.65"/>
<text xml:space="preserve" text-anchor="middle" x="186.63" y="-69.76" font-family="Helvetica,sans-Serif" font-size="14.00">eps</text>
</g>
<!-- q4 -->
<g id="node6" class="node">
<title>q4</title>
<ellipse fill="none" stroke="black" cx="236.13" cy="-20.63" rx="20.63" ry="20.63"/>
<text xml:space="preserve" text-anchor="middle" x="236.13" y="-15.2" font-family="Helvetica,sans-Serif" font-size="14.00">q4</text>
</g>
<!-- q0&#45;&gt;q4 -->
<g id="edge3" class="edge">
<title>q0&#45;&gt;q4</title>
<path fill="none" stroke="black" d="M156.82,-43.05C162.84,-40.99 169.56,-38.77 175.76,-36.88 185.2,-33.99 195.57,-31.06 204.96,-28.51"/>
<polygon fill="black" stroke="black" points="205.58,-31.97 214.33,-26 203.77,-25.21 205.58,-31.97"/>
<text xml:space="preserve" text-anchor="middle" x="186.63" y="-39.33" font-family="Helvetica,sans-Serif" font-size="14.00">eps</text>
</g>
<!-- q1 -->
<g id="node3" class="node">
<title>q1</title>
<ellipse fill="none" stroke="black" cx="473.88" cy="-49.63" rx="20.63" ry="20.63"/>
<text xml:space="preserve" text-anchor="middle" x="473.88" y="-44.2" font-family="Helvetica,sans-Serif" font-size="14.00">q1</text>
</g>
<!-- q8 -->
<g id="node10" class="node">
<title>q8</title>
<ellipse fill="none" stroke="black" cx="572.88" cy="-49.63" rx="20.63" ry="20.63"/>
<text xml:space="preserve" text-anchor="middle" x="572.88" y="-44.2" font-family="Helvetica,sans-Serif" font-size="14.00">q8</text>
</g>
<!-- q1&#45;&gt;q8 -->
<g id="edge4" class="edge">
<title>q1&#45;&gt;q8</title>
<path fill="none" stroke="black" d="M494.98,-49.63C508.12,-49.63 525.55,-49.63 540.49,-49.63"/>
<polygon fill="black" stroke="black" points="540.3,-53.13 550.3,-49.63 540.3,-46.13 540.3,-53.13"/>
<text xml:space="preserve" text-anchor="middle" x="523.38" y="-52.08" font-family="Helvetica,sans-Serif" font-size="14.00">eps</text>
</g>
<!-- q3 -->
<g id="node5" class="node">
<title>q3</title>
<ellipse fill="none" stroke="black" cx="374.88" cy="-79.63" rx="20.63" ry="20.63"/>
<text xml:space="preserve" text-anchor="middle" x="374.88" y="-74.2" font-family="Helvetica,sans-Serif" font-size="14.00">q3</text>
</g>
<!-- q2&#45;&gt;q3 -->
<g id="edge5" class="edge">
<title>q2&#45;&gt;q3</title>
<path fill="none" stroke="black" d="M257.02,-79.63C279.5,-79.63 316.4,-79.63 342.72,-79.63"/>
<polygon fill="black" stroke="black" points="342.46,-83.13 352.46,-79.63 342.46,-76.13 342.46,-83.13"/>
<text xml:space="preserve" text-anchor="middle" x="305.51" y="-82.08" font-family="Helvetica,sans-Serif" font-size="14.00">a</text>
</g>
<!-- q3&#45;&gt;q1 -->
<g id="edge6" class="edge">
<title>q3&#45;&gt;q1</title>
<path fill="none" stroke="black" d="M395.05,-73.7C408.73,-69.47 427.41,-63.69 443.03,-58.86"/>
<polygon fill="black" stroke="black" points="443.79,-62.29 452.31,-55.99 441.73,-55.6 443.79,-62.29"/>
<text xml:space="preserve" text-anchor="middle" x="424.38" y="-69.76" font-family="Helvetica,sans-Serif" font-size="14.00">eps</text>
</g>
<!-- q5 -->
<g id="node7" class="node">
<title>q5</title>
<ellipse fill="none" stroke="black" cx="374.88" cy="-20.63" rx="20.63" ry="20.63"/>
<text xml:space="preserve" text-anchor="middle" x="374.88" y="-15.2" font-family="Helvetica,sans-Serif" font-size="14.00">q5</text>
</g>
<!-- q4&#45;&gt;q5 -->
<g id="edge7" class="edge">
<title>q4&#45;&gt;q5</title>
<path fill="none" stroke="black" d="M257.02,-20.63C279.5,-20.63 316.4,-20.63 342.72,-20.63"/>
<polygon fill="black" stroke="black" points="342.46,-24.13 352.46,-20.63 342.46,-17.13 342.46,-24.13"/>
<text xml:space="preserve" text-anchor="middle" x="305.51" y="-23.08" font-family="Helvetica,sans-Serif" font-size="14.00">(negate b)</text>
</g>
<!-- q5&#45;&gt;q1 -->
<g id="edge8" class="edge">
<title>q5&#45;&gt;q1</title>
<path fill="none" stroke="black" d="M395.22,-25.61C406.87,-28.68 421.97,-32.81 435.26,-36.88 437.87,-37.68 440.58,-38.53 443.29,-39.41"/>
<polygon fill="black" stroke="black" points="442.17,-42.73 452.76,-42.57 444.38,-36.09 442.17,-42.73"/>
<text xml:space="preserve" text-anchor="middle" x="424.38" y="-39.33" font-family="Helvetica,sans-Serif" font-size="14.00">eps</text>
</g>
<!-- q6 -->
<g id="node8" class="node">
<title>q6</title>
<ellipse fill="none" stroke="black" cx="671.88" cy="-82.63" rx="20.63" ry="20.63"/>
<text xml:space="preserve" text-anchor="middle" x="671.88" y="-77.2" font-family="Helvetica,sans-Serif" font-size="14.00">q6</text>
</g>
<!-- q7 -->
<g id="node9" class="node">
<title>q7</title>
<ellipse fill="none" stroke="black" cx="829.38" cy="-82.63" rx="20.63" ry="20.63"/>
<text xml:space="preserve" text-anchor="middle" x="829.38" y="-77.2" font-family="Helvetica,sans-Serif" font-size="14.00">q7</text>
</g>
<!-- q6&#45;&gt;q7 -->
<g id="edge9" class="edge">
<title>q6&#45;&gt;q7</title>
<path fill="none" stroke="black" d="M691.37,-89.77C697.38,-91.75 704.14,-93.63 710.51,-94.63 745.75,-100.11 755.52,-100.11 790.76,-94.63 793.45,-94.21 796.2,-93.63 798.94,-92.95"/>
<polygon fill="black" stroke="black" points="799.82,-96.34 808.45,-90.19 797.87,-89.62 799.82,-96.34"/>
<text xml:space="preserve" text-anchor="middle" x="750.63" y="-101.19" font-family="Helvetica,sans-Serif" font-size="14.00">(some&#45;of c d)</text>
</g>
<!-- q7&#45;&gt;q6 -->
<g id="edge10" class="edge">
<title>q7&#45;&gt;q6</title>
<path fill="none" stroke="black" d="M808.97,-77.84C803.15,-76.62 796.73,-75.48 790.76,-74.88 755.28,-71.26 745.99,-71.26 710.51,-74.88 708.18,-75.11 705.78,-75.43 703.37,-75.8"/>
<polygon fill="black" stroke="black" points="702.98,-72.32 693.78,-77.57 704.25,-79.2 702.98,-72.32"/>
<text xml:space="preserve" text-anchor="middle" x="750.63" y="-77.33" font-family="Helvetica,sans-Serif" font-size="14.00">eps</text>
</g>
<!-- q9 -->
<g id="node11" class="node">
<title>q9</title>
<ellipse fill="none" stroke="black" cx="928.38" cy="-49.63" rx="20.63" ry="20.63"/>
<text xml:space="preserve" text-anchor="middle" x="928.38" y="-44.2" font-family="Helvetica,sans-Serif" font-size="14.00">q9</text>
</g>
<!-- q7&#45;&gt;q9 -->
<g id="edge11" class="edge">
<title>q7&#45;&gt;q9</title>
<path fill="none" stroke="black" d="M849.09,-76.26C862.82,-71.59 881.76,-65.15 897.57,-59.77"/>
<polygon fill="black" stroke="black" points="898.64,-63.1 906.98,-56.57 896.38,-56.48 898.64,-63.1"/>
<text xml:space="preserve" text-anchor="middle" x="878.88" y="-71.53" font-family="Helvetica,sans-Serif" font-size="14.00">eps</text>
</g>
<!-- q8&#45;&gt;q6 -->
<g id="edge12" class="edge">
<title>q8&#45;&gt;q6</title>
<path fill="none" stroke="black" d="M592.59,-55.99C606.32,-60.66 625.26,-67.1 641.07,-72.48"/>
<polygon fill="black" stroke="black" points="639.88,-75.77 650.47,-75.68 642.14,-69.15 639.88,-75.77"/>
<text xml:space="preserve" text-anchor="middle" x="622.38" y="-71.53" font-family="Helvetica,sans-Serif" font-size="14.00">eps</text>
</g>
<!-- q8&#45;&gt;q9 -->
<g id="edge13" class="edge">
<title>q8&#45;&gt;q9</title>
<path fill="none" stroke="black" d="M593.9,-49.63C652.72,-49.63 825.32,-49.63 896.32,-49.63"/>
<polygon fill="black" stroke="black" points="896.07,-53.13 906.07,-49.63 896.07,-46.13 896.07,-53.13"/>
<text xml:space="preserve" text-anchor="middle" x="750.63" y="-52.08" font-family="Helvetica,sans-Serif" font-size="14.00">eps</text>
</g>
<!-- q12 -->
<g id="node14" class="node">
<title>q12</title>
<ellipse fill="none" stroke="black" cx="1032.37" cy="-49.63" rx="25.62" ry="25.62"/>
<text xml:space="preserve" text-anchor="middle" x="1032.37" y="-44.2" font-family="Helvetica,sans-Serif" font-size="14.00">q12</text>
</g>
<!-- q9&#45;&gt;q12 -->
<g id="edge14" class="edge">
<title>q9&#45;&gt;q12</title>
<path fill="none" stroke="black" d="M949.05,-49.63C962.06,-49.63 979.51,-49.63 994.99,-49.63"/>
<polygon fill="black" stroke="black" points="994.83,-53.13 1004.83,-49.63 994.83,-46.13 994.83,-53.13"/>
<text xml:space="preserve" text-anchor="middle" x="977.88" y="-52.08" font-family="Helvetica,sans-Serif" font-size="14.00">eps</text>
</g>
<!-- q10 -->
<g id="node12" class="node">
<title>q10</title>
<ellipse fill="none" stroke="black" cx="1141.36" cy="-49.63" rx="25.62" ry="25.62"/>
<text xml:space="preserve" text-anchor="middle" x="1141.36" y="-44.2" font-family="Helvetica,sans-Serif" font-size="14.00">q10</text>
</g>
<!-- q11 -->
<g id="node13" class="node">
<title>q11</title>
<ellipse fill="none" stroke="black" cx="1287.34" cy="-49.63" rx="25.12" ry="25.12"/>
<text xml:space="preserve" text-anchor="middle" x="1287.34" y="-44.2" font-family="Helvetica,sans-Serif" font-size="14.00">q11</text>
</g>
<!-- q10&#45;&gt;q11 -->
<g id="edge15" class="edge">
<title>q10&#45;&gt;q11</title>
<path fill="none" stroke="black" d="M1167.43,-49.63C1190.49,-49.63 1224.92,-49.63 1250.8,-49.63"/>
<polygon fill="black" stroke="black" points="1250.51,-53.13 1260.51,-49.63 1250.51,-46.13 1250.51,-53.13"/>
<text xml:space="preserve" text-anchor="middle" x="1214.6" y="-52.08" font-family="Helvetica,sans-Serif" font-size="14.00">(all&#45;of x y)</text>
</g>
<!-- q11&#45;&gt;q10 -->
<g id="edge16" class="edge">
<title>q11&#45;&gt;q10</title>
<path fill="none" stroke="black" d="M1265.13,-37.48C1258.63,-34.37 1251.31,-31.46 1244.22,-29.88 1218.52,-24.15 1210.69,-24.21 1184.97,-29.88 1181.58,-30.62 1178.13,-31.67 1174.75,-32.9"/>
<polygon fill="black" stroke="black" points="1173.55,-29.6 1165.67,-36.68 1176.24,-36.06 1173.55,-29.6"/>
<text xml:space="preserve" text-anchor="middle" x="1214.6" y="-32.33" font-family="Helvetica,sans-Serif" font-size="14.00">eps</text>
</g>
<!-- q13 -->
<g id="node15" class="node">
<title>q13</title>
<ellipse fill="none" stroke="black" cx="1399.82" cy="-49.63" rx="25.62" ry="25.62"/>
<ellipse fill="none" stroke="black" cx="1399.82" cy="-49.63" rx="29.62" ry="29.62"/>
<text xml:space="preserve" text-anchor="middle" x="1399.82" y="-44.2" font-family="Helvetica,sans-Serif" font-size="14.00">q13</text>
</g>
<!-- q11&#45;&gt;q13 -->
<g id="edge17" class="edge">
<title>q11&#45;&gt;q13</title>
<path fill="none" stroke="black" d="M1312.86,-49.63C1326.33,-49.63 1343.38,-49.63 1358.74,-49.63"/>
<polygon fill="black" stroke="black" points="1358.55,-53.13 1368.55,-49.63 1358.55,-46.13 1358.55,-53.13"/>
<text xml:space="preserve" text-anchor="middle" x="1341.33" y="-52.08" font-family="Helvetica,sans-Serif" font-size="14.00">eps</text>
</g>
<!-- q12&#45;&gt;q10 -->
<g id="edge18" class="edge">
<title>q12&#45;&gt;q10</title>
<path fill="none" stroke="black" d="M1058.46,-49.63C1072,-49.63 1088.98,-49.63 1103.95,-49.63"/>
<polygon fill="black" stroke="black" points="1103.92,-53.13 1113.92,-49.63 1103.92,-46.13 1103.92,-53.13"/>
<text xml:space="preserve" text-anchor="middle" x="1086.87" y="-52.08" font-family="Helvetica,sans-Serif" font-size="14.00">eps</text>
</g>
</g>
</svg>
