<?xml version="1.0" encoding="UTF-8" standalone="no"?>
<!DOCTYPE svg PUBLIC "-//W3C//DTD SVG 1.1//EN"
 "http://www.w3.org/Graphics/SVG/1.1/DTD/svg11.dtd">
<!-- Generated by graphviz version 14.0.2 (20251019.1705)
 -->
<!-- Title: greggle_regex_nfa Pages: 1 -->
<svg width="383pt" height="115pt"
 viewBox="0.00 0.00 383.00 115.00" xmlns="http://www.w3.org/2000/svg" xmlns:xlink="http://www.w3.org/1999/xlink">
<g id="graph0" class="graph" transform="scale(1 1) rotate(0) translate(4 111)">
<title>greggle_regex_nfa</title>
<polygon fill="white" stroke="none" points="-4,4 -4,-111 378.76,-111 378.76,4 -4,4"/>
<!-- start -->
<g id="node1" class="node">
<title>start</title>
<polygon fill="none" stroke="black" points="39.75,-66.63 0,-48.63 39.75,-30.63 79.51,-48.63 39.75,-66.63"/>
<text xml:space="preserve" text-anchor="middle" x="39.75" y="-43.2" font-family="Helvetica,sans-Serif" font-size="14.00">start</text>
</g>
<!-- q0 -->
<g id="node2" class="node">
<title>q0</title>
<ellipse fill="none" stroke="black" cx="141.13" cy="-48.63" rx="20.63" ry="20.63"/>
<ellipse fill="none" stroke="black" cx="141.13" cy="-48.63" rx="24.63" ry="24.63"/>
<text xml:space="preserve" text-anchor="middle" x="141.13" y="-43.2" font-family="Helvetica,sans-Serif" font-size="14.00">q0</text>
</g>
<!-- start&#45;&gt;q0 -->
<g id="edge1" class="edge">
<title>start&#45;&gt;q0</title>
<path fill="none" stroke="black" d="M80.6,-48.63C88.56,-48.63 96.87,-48.63 104.68,-48.63"/>
<polygon fill="black" stroke="black" points="104.5,-52.13 114.5,-48.63 104.5,-45.13 104.5,-52.13"/>
</g>
<!-- q1 -->
<g id="node3" class="node">
<title>q1</title>
<ellipse fill="none" stroke="black" cx="350.13" cy="-48.63" rx="20.63" ry="20.63"/>
<ellipse fill="none" stroke="black" cx="350.13" cy="-48.63" rx="24.63" ry="24.63"/>
<text xml:space="preserve" text-anchor="middle" x="350.13" y="-43.2" font-family="Helvetica,sans-Serif" font-size="14.00">q1</text>
</g>
<!-- q0&#45;&gt;q1 -->
<g id="edge2" class="edge">
<title>q0&#45;&gt;q1</title>
<path fill="none" stroke="black" d="M165.82,-53.27C171.66,-54.23 177.92,-55.11 183.76,-55.63 238.55,-60.46 252.75,-61.84 307.51,-56.63 309.85,-56.4 312.27,-56.11 314.69,-55.77"/>
<polygon fill="black" stroke="black" points="315.13,-59.24 324.42,-54.14 313.98,-52.34 315.13,-59.24"/>
<text xml:space="preserve" text-anchor="middle" x="240.01" y="-62.4" font-family="Helvetica,sans-Serif" font-size="14.00">(negate a)</text>
</g>
<!-- q2 -->
<g id="node4" class="node">
<title>q2</title>
<ellipse fill="none" stroke="black" cx="240.01" cy="-20.63" rx="20.63" ry="20.63"/>
<text xml:space="preserve" text-anchor="middle" x="240.01" y="-15.2" font-family="Helvetica,sans-Serif" font-size="14.00">q2</text>
</g>
<!-- q0&#45;&gt;q2 -->
<g id="edge3" class="edge">
<title>q0&#45;&gt;q2</title>
<path fill="none" stroke="black" d="M165.09,-41.99C178.25,-38.19 194.91,-33.37 209.08,-29.27"/>
<polygon fill="black" stroke="black" points="209.71,-32.74 218.35,-26.6 207.77,-26.01 209.71,-32.74"/>
<text xml:space="preserve" text-anchor="middle" x="187.51" y="-38.75" font-family="Helvetica,sans-Serif" font-size="14.00">a</text>
</g>
<!-- q1&#45;&gt;q1 -->
<g id="edge4" class="edge">
<title>q1&#45;&gt;q1</title>
<path fill="none" stroke="black" d="M340.58,-71.43C339.53,-82.01 342.72,-91.25 350.13,-91.25 354.65,-91.25 357.6,-87.82 358.98,-82.74"/>
<polygon fill="black" stroke="black" points="362.46,-83.14 359.59,-72.94 355.47,-82.7 362.46,-83.14"/>
<text xml:space="preserve" text-anchor="middle" x="350.13" y="-93.7" font-family="Helvetica,sans-Serif" font-size="14.00">dot</text>
</g>
<!-- q2&#45;&gt;q1 -->
<g id="edge5" class="edge">
<title>q2&#45;&gt;q1</title>
<path fill="none" stroke="black" d="M260.34,-25.63C275.46,-29.55 296.86,-35.09 314.87,-39.75"/>
<polygon fill="black" stroke="black" points="313.81,-43.09 324.37,-42.21 315.56,-36.32 313.81,-43.09"/>
<text xml:space="preserve" text-anchor="middle" x="298.13" y="-39.58" font-family="Helvetica,sans-Serif" font-size="14.00">dot</text>
</g>
</g>
</svg>
