<?xml version="1.0" encoding="UTF-8" standalone="no"?>
<!DOCTYPE svg PUBLIC "-//W3C//DTD SVG 1.1//EN"
 "http://www.w3.org/Graphics/SVG/1.1/DTD/svg11.dtd">
<!-- Generated by graphviz version 14.0.2 (20251019.1705)
 -->
<!-- Title: greggle_regex_nfa Pages: 1 -->
<svg width="1340pt" height="144pt"
 viewBox="0.00 0.00 1340.00 144.00" xmlns="http://www.w3.org/2000/svg" xmlns:xlink="http://www.w3.org/1999/xlink">
<g id="graph0" class="graph" transform="scale(1 1) rotate(0) translate(4 140)">
<title>greggle_regex_nfa</title>
<polygon fill="white" stroke="none" points="-4,4 -4,-140 1335.51,-140 1335.51,4 -4,4"/>
<!-- start -->
<g id="node1" class="node">
<title>start</title>
<polygon fill="none" stroke="black" points="39.75,-112.63 0,-94.63 39.75,-76.63 79.51,-94.63 39.75,-112.63"/>
<text xml:space="preserve" text-anchor="middle" x="39.75" y="-89.2" font-family="Helvetica,sans-Serif" font-size="14.00">start</text>
</g>
<!-- q0 -->
<g id="node2" class="node">
<title>q0</title>
<ellipse fill="none" stroke="black" cx="141.13" cy="-94.63" rx="20.63" ry="20.63"/>
<ellipse fill="none" stroke="black" cx="141.13" cy="-94.63" rx="24.63" ry="24.63"/>
<text xml:space="preserve" text-anchor="middle" x="141.13" y="-89.2" font-family="Helvetica,sans-Serif" font-size="14.00">q0</text>
</g>
<!-- start&#45;&gt;q0 -->
<g id="edge1" class="edge">
<title>start&#45;&gt;q0</title>
<path fill="none" stroke="black" d="M80.6,-94.63C88.56,-94.63 96.87,-94.63 104.68,-94.63"/>
<polygon fill="black" stroke="black" points="104.5,-98.13 114.5,-94.63 104.5,-91.13 104.5,-98.13"/>
</g>
<!-- q1 -->
<g id="node3" class="node">
<title>q1</title>
<ellipse fill="none" stroke="black" cx="1306.88" cy="-77.63" rx="20.63" ry="20.63"/>
<ellipse fill="none" stroke="black" cx="1306.88" cy="-77.63" rx="24.63" ry="24.63"/>
<text xml:space="preserve" text-anchor="middle" x="1306.88" y="-72.2" font-family="Helvetica,sans-Serif" font-size="14.00">q1</text>
</g>
<!-- q0&#45;&gt;q1 -->
<g id="edge2" class="edge">
<title>q0&#45;&gt;q1</title>
<path fill="none" stroke="black" d="M164.74,-103.05C170.83,-104.94 177.47,-106.67 183.76,-107.63 289.86,-123.81 317.93,-108.36 425.26,-107.63 781.84,-105.18 872.29,-127.88 1227.51,-96.63 1243.99,-95.17 1248.15,-94.43 1264.26,-90.63 1266.87,-90.01 1269.55,-89.31 1272.24,-88.57"/>
<polygon fill="black" stroke="black" points="1273.09,-91.97 1281.69,-85.79 1271.11,-85.26 1273.09,-91.97"/>
<text xml:space="preserve" text-anchor="middle" x="685.26" y="-115.69" font-family="Helvetica,sans-Serif" font-size="14.00">(some&#45;of (all&#45;of (negate a) (negate b)) (all&#45;of (negate a) b))</text>
</g>
<!-- q2 -->
<g id="node4" class="node">
<title>q2</title>
<ellipse fill="none" stroke="black" cx="467.88" cy="-68.63" rx="20.63" ry="20.63"/>
<ellipse fill="none" stroke="black" cx="467.88" cy="-68.63" rx="24.63" ry="24.63"/>
<text xml:space="preserve" text-anchor="middle" x="467.88" y="-63.2" font-family="Helvetica,sans-Serif" font-size="14.00">q2</text>
</g>
<!-- q0&#45;&gt;q2 -->
<g id="edge3" class="edge">
<title>q0&#45;&gt;q2</title>
<path fill="none" stroke="black" d="M166.01,-92.71C222.67,-88.18 365.42,-76.75 431.86,-71.43"/>
<polygon fill="black" stroke="black" points="431.77,-74.95 441.46,-70.66 431.21,-67.97 431.77,-74.95"/>
<text xml:space="preserve" text-anchor="middle" x="304.51" y="-93.3" font-family="Helvetica,sans-Serif" font-size="14.00">(some&#45;of (all&#45;of a (negate b)) (all&#45;of a b))</text>
</g>
<!-- q1&#45;&gt;q1 -->
<g id="edge4" class="edge">
<title>q1&#45;&gt;q1</title>
<path fill="none" stroke="black" d="M1297.33,-100.43C1296.28,-111.01 1299.47,-120.25 1306.88,-120.25 1311.4,-120.25 1314.35,-116.82 1315.73,-111.74"/>
<polygon fill="black" stroke="black" points="1319.21,-112.14 1316.35,-101.94 1312.22,-111.7 1319.21,-112.14"/>
<text xml:space="preserve" text-anchor="middle" x="1306.88" y="-122.7" font-family="Helvetica,sans-Serif" font-size="14.00">dot</text>
</g>
<!-- q2&#45;&gt;q1 -->
<g id="edge5" class="edge">
<title>q2&#45;&gt;q1</title>
<path fill="none" stroke="black" d="M492.58,-68.88C610.07,-70.14 1129.98,-75.73 1270.67,-77.25"/>
<polygon fill="black" stroke="black" points="1270.44,-80.74 1280.48,-77.35 1270.51,-73.74 1270.44,-80.74"/>
<text xml:space="preserve" text-anchor="middle" x="1052.76" y="-79.14" font-family="Helvetica,sans-Serif" font-size="14.00">(some&#45;of (all&#45;of (negate a) (negate b)) (all&#45;of a (negate b)))</text>
</g>
<!-- q3 -->
<g id="node5" class="node">
<title>q3</title>
<ellipse fill="none" stroke="black" cx="1052.76" cy="-20.63" rx="20.63" ry="20.63"/>
<text xml:space="preserve" text-anchor="middle" x="1052.76" y="-15.2" font-family="Helvetica,sans-Serif" font-size="14.00">q3</text>
</g>
<!-- q2&#45;&gt;q3 -->
<g id="edge6" class="edge">
<title>q2&#45;&gt;q3</title>
<path fill="none" stroke="black" d="M489.4,-56.31C495.93,-52.97 503.32,-49.76 510.51,-47.88 698.98,1.53 936.72,-11.16 1020.68,-17.82"/>
<polygon fill="black" stroke="black" points="1020.38,-21.31 1030.64,-18.64 1020.96,-14.33 1020.38,-21.31"/>
<text xml:space="preserve" text-anchor="middle" x="685.26" y="-50.33" font-family="Helvetica,sans-Serif" font-size="14.00">(some&#45;of (all&#45;of (negate a) b) (all&#45;of a b))</text>
</g>
<!-- q3&#45;&gt;q1 -->
<g id="edge7" class="edge">
<title>q3&#45;&gt;q1</title>
<path fill="none" stroke="black" d="M1073.7,-20.04C1112.04,-19.58 1198.07,-21.85 1264.26,-47.88 1269.04,-49.75 1273.78,-52.3 1278.26,-55.12"/>
<polygon fill="black" stroke="black" points="1276.1,-57.88 1286.32,-60.71 1280.09,-52.13 1276.1,-57.88"/>
<text xml:space="preserve" text-anchor="middle" x="1254.88" y="-50.33" font-family="Helvetica,sans-Serif" font-size="14.00">dot</text>
</g>
</g>
</svg>
