<?xml version="1.0" encoding="UTF-8" standalone="no"?>
<!DOCTYPE svg PUBLIC "-//W3C//DTD SVG 1.1//EN"
 "http://www.w3.org/Graphics/SVG/1.1/DTD/svg11.dtd">
<!-- Generated by graphviz version 14.0.2 (20251019.1705)
 -->
<!-- Title: greggle_regex_nfa Pages: 1 -->
<svg width="655pt" height="57pt"
 viewBox="0.00 0.00 655.00 57.00" xmlns="http://www.w3.org/2000/svg" xmlns:xlink="http://www.w3.org/1999/xlink">
<g id="graph0" class="graph" transform="scale(1 1) rotate(0) translate(4 53.25)">
<title>greggle_regex_nfa</title>
<polygon fill="white" stroke="none" points="-4,4 -4,-53.25 650.51,-53.25 650.51,4 -4,4"/>
<!-- start -->
<g id="node1" class="node">
<title>start</title>
<polygon fill="none" stroke="black" points="39.75,-42.63 0,-24.63 39.75,-6.63 79.51,-24.63 39.75,-42.63"/>
<text xml:space="preserve" text-anchor="middle" x="39.75" y="-19.2" font-family="Helvetica,sans-Serif" font-size="14.00">start</text>
</g>
<!-- q0 -->
<g id="node2" class="node">
<title>q0</title>
<ellipse fill="none" stroke="black" cx="137.13" cy="-24.63" rx="20.63" ry="20.63"/>
<text xml:space="preserve" text-anchor="middle" x="137.13" y="-19.2" font-family="Helvetica,sans-Serif" font-size="14.00">q0</text>
</g>
<!-- start&#45;&gt;q0 -->
<g id="edge1" class="edge">
<title>start&#45;&gt;q0</title>
<path fill="none" stroke="black" d="M80.65,-24.63C88.69,-24.63 97.03,-24.63 104.73,-24.63"/>
<polygon fill="black" stroke="black" points="104.65,-28.13 114.65,-24.63 104.65,-21.13 104.65,-28.13"/>
</g>
<!-- q1 -->
<g id="node3" class="node">
<title>q1</title>
<ellipse fill="none" stroke="black" cx="221.88" cy="-24.63" rx="20.63" ry="20.63"/>
<text xml:space="preserve" text-anchor="middle" x="221.88" y="-19.2" font-family="Helvetica,sans-Serif" font-size="14.00">q1</text>
</g>
<!-- q0&#45;&gt;q1 -->
<g id="edge2" class="edge">
<title>q0&#45;&gt;q1</title>
<path fill="none" stroke="black" d="M158.16,-24.63C167.62,-24.63 179.12,-24.63 189.67,-24.63"/>
<polygon fill="black" stroke="black" points="189.52,-28.13 199.52,-24.63 189.52,-21.13 189.52,-28.13"/>
<text xml:space="preserve" text-anchor="middle" x="179.51" y="-27.08" font-family="Helvetica,sans-Serif" font-size="14.00">a</text>
</g>
<!-- q4 -->
<g id="node6" class="node">
<title>q4</title>
<ellipse fill="none" stroke="black" cx="320.88" cy="-24.63" rx="20.63" ry="20.63"/>
<text xml:space="preserve" text-anchor="middle" x="320.88" y="-19.2" font-family="Helvetica,sans-Serif" font-size="14.00">q4</text>
</g>
<!-- q1&#45;&gt;q4 -->
<g id="edge3" class="edge">
<title>q1&#45;&gt;q4</title>
<path fill="none" stroke="black" d="M242.98,-24.63C256.12,-24.63 273.55,-24.63 288.49,-24.63"/>
<polygon fill="black" stroke="black" points="288.3,-28.13 298.3,-24.63 288.3,-21.13 288.3,-28.13"/>
<text xml:space="preserve" text-anchor="middle" x="271.38" y="-27.08" font-family="Helvetica,sans-Serif" font-size="14.00">eps</text>
</g>
<!-- q2 -->
<g id="node4" class="node">
<title>q2</title>
<ellipse fill="none" stroke="black" cx="419.88" cy="-24.63" rx="20.63" ry="20.63"/>
<text xml:space="preserve" text-anchor="middle" x="419.88" y="-19.2" font-family="Helvetica,sans-Serif" font-size="14.00">q2</text>
</g>
<!-- q3 -->
<g id="node5" class="node">
<title>q3</title>
<ellipse fill="none" stroke="black" cx="518.88" cy="-24.63" rx="20.63" ry="20.63"/>
<text xml:space="preserve" text-anchor="middle" x="518.88" y="-19.2" font-family="Helvetica,sans-Serif" font-size="14.00">q3</text>
</g>
<!-- q2&#45;&gt;q3 -->
<g id="edge4" class="edge">
<title>q2&#45;&gt;q3</title>
<path fill="none" stroke="black" d="M440.98,-24.63C454.12,-24.63 471.55,-24.63 486.49,-24.63"/>
<polygon fill="black" stroke="black" points="486.3,-28.13 496.3,-24.63 486.3,-21.13 486.3,-28.13"/>
<text xml:space="preserve" text-anchor="middle" x="469.38" y="-27.08" font-family="Helvetica,sans-Serif" font-size="14.00">b</text>
</g>
<!-- q3&#45;&gt;q2 -->
<g id="edge5" class="edge">
<title>q3&#45;&gt;q2</title>
<path fill="none" stroke="black" d="M500.98,-13.53C494.73,-10.04 487.42,-6.64 480.26,-4.88 470.87,-2.56 467.89,-2.56 458.51,-4.88 454.93,-5.76 451.31,-7.05 447.81,-8.56"/>
<polygon fill="black" stroke="black" points="446.55,-5.27 439.15,-12.86 449.66,-11.54 446.55,-5.27"/>
<text xml:space="preserve" text-anchor="middle" x="469.38" y="-7.33" font-family="Helvetica,sans-Serif" font-size="14.00">eps</text>
</g>
<!-- q5 -->
<g id="node7" class="node">
<title>q5</title>
<ellipse fill="none" stroke="black" cx="621.88" cy="-24.63" rx="20.63" ry="20.63"/>
<ellipse fill="none" stroke="black" cx="621.88" cy="-24.63" rx="24.63" ry="24.63"/>
<text xml:space="preserve" text-anchor="middle" x="621.88" y="-19.2" font-family="Helvetica,sans-Serif" font-size="14.00">q5</text>
</g>
<!-- q3&#45;&gt;q5 -->
<g id="edge6" class="edge">
<title>q3&#45;&gt;q5</title>
<path fill="none" stroke="black" d="M539.84,-24.63C552.94,-24.63 570.44,-24.63 585.82,-24.63"/>
<polygon fill="black" stroke="black" points="585.55,-28.13 595.55,-24.63 585.55,-21.13 585.55,-28.13"/>
<text xml:space="preserve" text-anchor="middle" x="568.38" y="-27.08" font-family="Helvetica,sans-Serif" font-size="14.00">eps</text>
</g>
<!-- q4&#45;&gt;q2 -->
<g id="edge7" class="edge">
<title>q4&#45;&gt;q2</title>
<path fill="none" stroke="black" d="M341.98,-24.63C355.12,-24.63 372.55,-24.63 387.49,-24.63"/>
<polygon fill="black" stroke="black" points="387.3,-28.13 397.3,-24.63 387.3,-21.13 387.3,-28.13"/>
<text xml:space="preserve" text-anchor="middle" x="370.38" y="-27.08" font-family="Helvetica,sans-Serif" font-size="14.00">eps</text>
</g>
</g>
</svg>
