<?xml version="1.0" encoding="UTF-8" standalone="no"?>
<!DOCTYPE svg PUBLIC "-//W3C//DTD SVG 1.1//EN"
 "http://www.w3.org/Graphics/SVG/1.1/DTD/svg11.dtd">
<!-- Generated by graphviz version 14.0.2 (20251019.1705)
 -->
<!-- Title: greggle_regex_nfa Pages: 1 -->
<svg width="1438pt" height="202pt"
 viewBox="0.00 0.00 1438.00 202.00" xmlns="http://www.w3.org/2000/svg" xmlns:xlink="http://www.w3.org/1999/xlink">
<g id="graph0" class="graph" transform="scale(1 1) rotate(0) translate(4 198.4)">
<title>greggle_regex_nfa</title>
<polygon fill="white" stroke="none" points="-4,4 -4,-198.4 1434.35,-198.4 1434.35,4 -4,4"/>
<!-- start -->
<g id="node1" class="node">
<title>start</title>
<polygon fill="none" stroke="black" points="39.75,-155.78 0,-137.78 39.75,-119.78 79.51,-137.78 39.75,-155.78"/>
<text xml:space="preserve" text-anchor="middle" x="39.75" y="-132.35" font-family="Helvetica,sans-Serif" font-size="14.00">start</text>
</g>
<!-- q0 -->
<g id="node2" class="node">
<title>q0</title>
<ellipse fill="none" stroke="black" cx="137.13" cy="-137.78" rx="20.63" ry="20.63"/>
<text xml:space="preserve" text-anchor="middle" x="137.13" y="-132.35" font-family="Helvetica,sans-Serif" font-size="14.00">q0</text>
</g>
<!-- start&#45;&gt;q0 -->
<g id="edge1" class="edge">
<title>start&#45;&gt;q0</title>
<path fill="none" stroke="black" d="M80.65,-137.78C88.69,-137.78 97.03,-137.78 104.73,-137.78"/>
<polygon fill="black" stroke="black" points="104.65,-141.28 114.65,-137.78 104.65,-134.28 104.65,-141.28"/>
</g>
<!-- q2 -->
<g id="node4" class="node">
<title>q2</title>
<ellipse fill="none" stroke="black" cx="241.12" cy="-170.78" rx="20.63" ry="20.63"/>
<text xml:space="preserve" text-anchor="middle" x="241.12" y="-165.35" font-family="Helvetica,sans-Serif" font-size="14.00">q2</text>
</g>
<!-- q0&#45;&gt;q2 -->
<g id="edge2" class="edge">
<title>q0&#45;&gt;q2</title>
<path fill="none" stroke="black" d="M157.32,-143.98C172.27,-148.82 193.31,-155.63 210.44,-161.17"/>
<polygon fill="black" stroke="black" points="208.99,-164.38 219.59,-164.13 211.15,-157.72 208.99,-164.38"/>
<text xml:space="preserve" text-anchor="middle" x="186.63" y="-158.7" font-family="Helvetica,sans-Serif" font-size="14.00">eps</text>
</g>
<!-- q10 -->
<g id="node12" class="node">
<title>q10</title>
<ellipse fill="none" stroke="black" cx="241.12" cy="-106.78" rx="25.62" ry="25.62"/>
<text xml:space="preserve" text-anchor="middle" x="241.12" y="-101.35" font-family="Helvetica,sans-Serif" font-size="14.00">q10</text>
</g>
<!-- q0&#45;&gt;q10 -->
<g id="edge3" class="edge">
<title>q0&#45;&gt;q10</title>
<path fill="none" stroke="black" d="M157.26,-131.75C163.18,-129.9 169.74,-127.87 175.76,-126.03 185.38,-123.08 195.82,-119.94 205.44,-117.06"/>
<polygon fill="black" stroke="black" points="206.23,-120.48 214.81,-114.27 204.23,-113.77 206.23,-120.48"/>
<text xml:space="preserve" text-anchor="middle" x="186.63" y="-128.48" font-family="Helvetica,sans-Serif" font-size="14.00">eps</text>
</g>
<!-- q1 -->
<g id="node3" class="node">
<title>q1</title>
<ellipse fill="none" stroke="black" cx="1405.73" cy="-147.78" rx="20.63" ry="20.63"/>
<ellipse fill="none" stroke="black" cx="1405.73" cy="-147.78" rx="24.63" ry="24.63"/>
<text xml:space="preserve" text-anchor="middle" x="1405.73" y="-142.35" font-family="Helvetica,sans-Serif" font-size="14.00">q1</text>
</g>
<!-- q3 -->
<g id="node5" class="node">
<title>q3</title>
<ellipse fill="none" stroke="black" cx="345.11" cy="-172.78" rx="20.63" ry="20.63"/>
<text xml:space="preserve" text-anchor="middle" x="345.11" y="-167.35" font-family="Helvetica,sans-Serif" font-size="14.00">q3</text>
</g>
<!-- q2&#45;&gt;q3 -->
<g id="edge4" class="edge">
<title>q2&#45;&gt;q3</title>
<path fill="none" stroke="black" d="M261.79,-171.16C276.23,-171.44 296.14,-171.83 312.76,-172.16"/>
<polygon fill="black" stroke="black" points="312.58,-175.66 322.65,-172.35 312.72,-168.66 312.58,-175.66"/>
<text xml:space="preserve" text-anchor="middle" x="295.61" y="-174.46" font-family="Helvetica,sans-Serif" font-size="14.00">p</text>
</g>
<!-- q4 -->
<g id="node6" class="node">
<title>q4</title>
<ellipse fill="none" stroke="black" cx="483.11" cy="-173.78" rx="20.63" ry="20.63"/>
<text xml:space="preserve" text-anchor="middle" x="483.11" y="-168.35" font-family="Helvetica,sans-Serif" font-size="14.00">q4</text>
</g>
<!-- q3&#45;&gt;q4 -->
<g id="edge5" class="edge">
<title>q3&#45;&gt;q4</title>
<path fill="none" stroke="black" d="M366.18,-172.92C388.51,-173.09 424.86,-173.35 450.9,-173.55"/>
<polygon fill="black" stroke="black" points="450.87,-177.05 460.89,-173.62 450.92,-170.05 450.87,-177.05"/>
<text xml:space="preserve" text-anchor="middle" x="414.11" y="-175.93" font-family="Helvetica,sans-Serif" font-size="14.00">eps</text>
</g>
<!-- q5 -->
<g id="node7" class="node">
<title>q5</title>
<ellipse fill="none" stroke="black" cx="586.6" cy="-173.78" rx="20.63" ry="20.63"/>
<text xml:space="preserve" text-anchor="middle" x="586.6" y="-168.35" font-family="Helvetica,sans-Serif" font-size="14.00">q5</text>
</g>
<!-- q4&#45;&gt;q5 -->
<g id="edge6" class="edge">
<title>q4&#45;&gt;q5</title>
<path fill="none" stroke="black" d="M504.16,-173.78C518.48,-173.78 538.02,-173.78 554.37,-173.78"/>
<polygon fill="black" stroke="black" points="554.08,-177.28 564.08,-173.78 554.08,-170.28 554.08,-177.28"/>
<text xml:space="preserve" text-anchor="middle" x="532.61" y="-176.23" font-family="Helvetica,sans-Serif" font-size="14.00">q</text>
</g>
<!-- q6 -->
<g id="node8" class="node">
<title>q6</title>
<ellipse fill="none" stroke="black" cx="695.09" cy="-173.78" rx="20.63" ry="20.63"/>
<text xml:space="preserve" text-anchor="middle" x="695.09" y="-168.35" font-family="Helvetica,sans-Serif" font-size="14.00">q6</text>
</g>
<!-- q5&#45;&gt;q6 -->
<g id="edge7" class="edge">
<title>q5&#45;&gt;q6</title>
<path fill="none" stroke="black" d="M607.63,-173.78C623.17,-173.78 645,-173.78 662.84,-173.78"/>
<polygon fill="black" stroke="black" points="662.63,-177.28 672.63,-173.78 662.63,-170.28 662.63,-177.28"/>
<text xml:space="preserve" text-anchor="middle" x="640.6" y="-176.23" font-family="Helvetica,sans-Serif" font-size="14.00">eps</text>
</g>
<!-- q7 -->
<g id="node9" class="node">
<title>q7</title>
<ellipse fill="none" stroke="black" cx="868.31" cy="-173.78" rx="20.63" ry="20.63"/>
<text xml:space="preserve" text-anchor="middle" x="868.31" y="-168.35" font-family="Helvetica,sans-Serif" font-size="14.00">q7</text>
</g>
<!-- q6&#45;&gt;q7 -->
<g id="edge8" class="edge">
<title>q6&#45;&gt;q7</title>
<path fill="none" stroke="black" d="M716.06,-173.78C745.5,-173.78 800.8,-173.78 835.75,-173.78"/>
<polygon fill="black" stroke="black" points="835.68,-177.28 845.68,-173.78 835.68,-170.28 835.68,-177.28"/>
<text xml:space="preserve" text-anchor="middle" x="749.58" y="-176.23" font-family="Helvetica,sans-Serif" font-size="14.00">r</text>
</g>
<!-- q7&#45;&gt;q1 -->
<g id="edge9" class="edge">
<title>q7&#45;&gt;q1</title>
<path fill="none" stroke="black" d="M889.11,-174.01C915.56,-174.31 963.89,-174.78 1005.16,-174.78 1005.16,-174.78 1005.16,-174.78 1298.74,-174.78 1323.73,-174.78 1351.04,-167.64 1371.68,-160.7"/>
<polygon fill="black" stroke="black" points="1372.71,-164.05 1380.98,-157.42 1370.38,-157.45 1372.71,-164.05"/>
<text xml:space="preserve" text-anchor="middle" x="1134.27" y="-177.23" font-family="Helvetica,sans-Serif" font-size="14.00">eps</text>
</g>
<!-- q8 -->
<g id="node10" class="node">
<title>q8</title>
<ellipse fill="none" stroke="black" cx="345.11" cy="-106.78" rx="20.63" ry="20.63"/>
<text xml:space="preserve" text-anchor="middle" x="345.11" y="-101.35" font-family="Helvetica,sans-Serif" font-size="14.00">q8</text>
</g>
<!-- q9 -->
<g id="node11" class="node">
<title>q9</title>
<ellipse fill="none" stroke="black" cx="483.11" cy="-105.78" rx="20.63" ry="20.63"/>
<text xml:space="preserve" text-anchor="middle" x="483.11" y="-100.35" font-family="Helvetica,sans-Serif" font-size="14.00">q9</text>
</g>
<!-- q8&#45;&gt;q9 -->
<g id="edge10" class="edge">
<title>q8&#45;&gt;q9</title>
<path fill="none" stroke="black" d="M365.57,-110.48C371.39,-111.42 377.8,-112.31 383.74,-112.78 410.65,-114.91 417.6,-115.26 444.49,-112.78 446.72,-112.57 449.02,-112.3 451.33,-111.98"/>
<polygon fill="black" stroke="black" points="451.89,-115.43 461.19,-110.34 450.75,-108.52 451.89,-115.43"/>
<text xml:space="preserve" text-anchor="middle" x="414.11" y="-116.96" font-family="Helvetica,sans-Serif" font-size="14.00">(negate s)</text>
</g>
<!-- q9&#45;&gt;q8 -->
<g id="edge11" class="edge">
<title>q9&#45;&gt;q8</title>
<path fill="none" stroke="black" d="M463.67,-98.19C457.66,-96.08 450.89,-94.08 444.49,-93.03 417.85,-88.63 410.32,-88.32 383.74,-93.03 380.92,-93.52 378.04,-94.22 375.18,-95.03"/>
<polygon fill="black" stroke="black" points="374.32,-91.63 365.95,-98.12 376.54,-98.27 374.32,-91.63"/>
<text xml:space="preserve" text-anchor="middle" x="414.11" y="-95.48" font-family="Helvetica,sans-Serif" font-size="14.00">eps</text>
</g>
<!-- q11 -->
<g id="node13" class="node">
<title>q11</title>
<ellipse fill="none" stroke="black" cx="586.6" cy="-56.78" rx="25.12" ry="25.12"/>
<text xml:space="preserve" text-anchor="middle" x="586.6" y="-51.35" font-family="Helvetica,sans-Serif" font-size="14.00">q11</text>
</g>
<!-- q9&#45;&gt;q11 -->
<g id="edge12" class="edge">
<title>q9&#45;&gt;q11</title>
<path fill="none" stroke="black" d="M502.26,-97.02C516.42,-90.18 536.47,-80.5 553.35,-72.35"/>
<polygon fill="black" stroke="black" points="554.52,-75.67 562,-68.17 551.48,-69.37 554.52,-75.67"/>
<text xml:space="preserve" text-anchor="middle" x="532.61" y="-89.56" font-family="Helvetica,sans-Serif" font-size="14.00">eps</text>
</g>
<!-- q10&#45;&gt;q8 -->
<g id="edge13" class="edge">
<title>q10&#45;&gt;q8</title>
<path fill="none" stroke="black" d="M267.07,-106.78C280.94,-106.78 298.32,-106.78 313.06,-106.78"/>
<polygon fill="black" stroke="black" points="312.68,-110.28 322.68,-106.78 312.68,-103.28 312.68,-110.28"/>
<text xml:space="preserve" text-anchor="middle" x="295.61" y="-109.23" font-family="Helvetica,sans-Serif" font-size="14.00">eps</text>
</g>
<!-- q10&#45;&gt;q11 -->
<g id="edge14" class="edge">
<title>q10&#45;&gt;q11</title>
<path fill="none" stroke="black" d="M265.11,-96.74C281.38,-90.05 303.9,-81.63 324.49,-76.78 403.35,-58.2 498.96,-55.79 549.77,-56.05"/>
<polygon fill="black" stroke="black" points="549.56,-59.54 559.59,-56.14 549.62,-52.55 549.56,-59.54"/>
<text xml:space="preserve" text-anchor="middle" x="414.11" y="-68.35" font-family="Helvetica,sans-Serif" font-size="14.00">eps</text>
</g>
<!-- q18 -->
<g id="node20" class="node">
<title>q18</title>
<ellipse fill="none" stroke="black" cx="695.09" cy="-52.78" rx="25.62" ry="25.62"/>
<text xml:space="preserve" text-anchor="middle" x="695.09" y="-47.35" font-family="Helvetica,sans-Serif" font-size="14.00">q18</text>
</g>
<!-- q11&#45;&gt;q18 -->
<g id="edge15" class="edge">
<title>q11&#45;&gt;q18</title>
<path fill="none" stroke="black" d="M612.03,-55.86C625.64,-55.35 642.83,-54.7 657.96,-54.13"/>
<polygon fill="black" stroke="black" points="657.66,-57.65 667.52,-53.77 657.39,-50.65 657.66,-57.65"/>
<text xml:space="preserve" text-anchor="middle" x="640.6" y="-57.58" font-family="Helvetica,sans-Serif" font-size="14.00">eps</text>
</g>
<!-- q12 -->
<g id="node14" class="node">
<title>q12</title>
<ellipse fill="none" stroke="black" cx="804.07" cy="-51.78" rx="25.62" ry="25.62"/>
<text xml:space="preserve" text-anchor="middle" x="804.07" y="-46.35" font-family="Helvetica,sans-Serif" font-size="14.00">q12</text>
</g>
<!-- q14 -->
<g id="node16" class="node">
<title>q14</title>
<ellipse fill="none" stroke="black" cx="932.55" cy="-120.78" rx="25.62" ry="25.62"/>
<text xml:space="preserve" text-anchor="middle" x="932.55" y="-115.35" font-family="Helvetica,sans-Serif" font-size="14.00">q14</text>
</g>
<!-- q12&#45;&gt;q14 -->
<g id="edge16" class="edge">
<title>q12&#45;&gt;q14</title>
<path fill="none" stroke="black" d="M827.1,-63.79C847.23,-74.78 877.23,-91.14 899.92,-103.52"/>
<polygon fill="black" stroke="black" points="897.98,-106.45 908.44,-108.17 901.34,-100.31 897.98,-106.45"/>
<text xml:space="preserve" text-anchor="middle" x="868.31" y="-98.94" font-family="Helvetica,sans-Serif" font-size="14.00">eps</text>
</g>
<!-- q16 -->
<g id="node18" class="node">
<title>q16</title>
<ellipse fill="none" stroke="black" cx="932.55" cy="-51.78" rx="25.62" ry="25.62"/>
<text xml:space="preserve" text-anchor="middle" x="932.55" y="-46.35" font-family="Helvetica,sans-Serif" font-size="14.00">q16</text>
</g>
<!-- q12&#45;&gt;q16 -->
<g id="edge17" class="edge">
<title>q12&#45;&gt;q16</title>
<path fill="none" stroke="black" d="M830.05,-51.78C848.68,-51.78 874.39,-51.78 895.27,-51.78"/>
<polygon fill="black" stroke="black" points="895.1,-55.28 905.1,-51.78 895.1,-48.28 895.1,-55.28"/>
<text xml:space="preserve" text-anchor="middle" x="868.31" y="-54.23" font-family="Helvetica,sans-Serif" font-size="14.00">eps</text>
</g>
<!-- q13 -->
<g id="node15" class="node">
<title>q13</title>
<ellipse fill="none" stroke="black" cx="1188.76" cy="-78.78" rx="25.62" ry="25.62"/>
<text xml:space="preserve" text-anchor="middle" x="1188.76" y="-73.35" font-family="Helvetica,sans-Serif" font-size="14.00">q13</text>
</g>
<!-- q13&#45;&gt;q12 -->
<g id="edge18" class="edge">
<title>q13&#45;&gt;q12</title>
<path fill="none" stroke="black" d="M1170.49,-60.37C1155.07,-45.38 1131.02,-25.34 1105.39,-16.78 1021.74,11.19 993.93,-2.25 906.93,-16.78 883.39,-20.71 857.99,-29.42 838.45,-37.17"/>
<polygon fill="black" stroke="black" points="837.29,-33.86 829.36,-40.89 839.94,-40.34 837.29,-33.86"/>
<text xml:space="preserve" text-anchor="middle" x="1006.16" y="-6.84" font-family="Helvetica,sans-Serif" font-size="14.00">eps</text>
</g>
<!-- q19 -->
<g id="node21" class="node">
<title>q19</title>
<ellipse fill="none" stroke="black" cx="1297.74" cy="-120.78" rx="25.62" ry="25.62"/>
<text xml:space="preserve" text-anchor="middle" x="1297.74" y="-115.35" font-family="Helvetica,sans-Serif" font-size="14.00">q19</text>
</g>
<!-- q13&#45;&gt;q19 -->
<g id="edge19" class="edge">
<title>q13&#45;&gt;q19</title>
<path fill="none" stroke="black" d="M1212.97,-87.89C1227.55,-93.61 1246.6,-101.09 1262.86,-107.47"/>
<polygon fill="black" stroke="black" points="1261.57,-110.73 1272.16,-111.13 1264.13,-104.21 1261.57,-110.73"/>
<text xml:space="preserve" text-anchor="middle" x="1243.25" y="-105.99" font-family="Helvetica,sans-Serif" font-size="14.00">eps</text>
</g>
<!-- q15 -->
<g id="node17" class="node">
<title>q15</title>
<ellipse fill="none" stroke="black" cx="1079.78" cy="-120.78" rx="25.62" ry="25.62"/>
<text xml:space="preserve" text-anchor="middle" x="1079.78" y="-115.35" font-family="Helvetica,sans-Serif" font-size="14.00">q15</text>
</g>
<!-- q14&#45;&gt;q15 -->
<g id="edge20" class="edge">
<title>q14&#45;&gt;q15</title>
<path fill="none" stroke="black" d="M958.51,-120.78C981.72,-120.78 1016.56,-120.78 1042.77,-120.78"/>
<polygon fill="black" stroke="black" points="1042.62,-124.28 1052.62,-120.78 1042.62,-117.28 1042.62,-124.28"/>
<text xml:space="preserve" text-anchor="middle" x="1006.16" y="-123.23" font-family="Helvetica,sans-Serif" font-size="14.00">t</text>
</g>
<!-- q15&#45;&gt;q13 -->
<g id="edge21" class="edge">
<title>q15&#45;&gt;q13</title>
<path fill="none" stroke="black" d="M1103.99,-111.66C1118.57,-105.94 1137.62,-98.46 1153.88,-92.08"/>
<polygon fill="black" stroke="black" points="1155.15,-95.34 1163.18,-88.42 1152.59,-88.82 1155.15,-95.34"/>
<text xml:space="preserve" text-anchor="middle" x="1134.27" y="-105.99" font-family="Helvetica,sans-Serif" font-size="14.00">eps</text>
</g>
<!-- q17 -->
<g id="node19" class="node">
<title>q17</title>
<ellipse fill="none" stroke="black" cx="1079.78" cy="-51.78" rx="25.62" ry="25.62"/>
<text xml:space="preserve" text-anchor="middle" x="1079.78" y="-46.35" font-family="Helvetica,sans-Serif" font-size="14.00">q17</text>
</g>
<!-- q16&#45;&gt;q17 -->
<g id="edge22" class="edge">
<title>q16&#45;&gt;q17</title>
<path fill="none" stroke="black" d="M958.51,-51.78C981.72,-51.78 1016.56,-51.78 1042.77,-51.78"/>
<polygon fill="black" stroke="black" points="1042.62,-55.28 1052.62,-51.78 1042.62,-48.28 1042.62,-55.28"/>
<text xml:space="preserve" text-anchor="middle" x="1006.16" y="-54.23" font-family="Helvetica,sans-Serif" font-size="14.00">(all&#45;of u v)</text>
</g>
<!-- q17&#45;&gt;q13 -->
<g id="edge23" class="edge">
<title>q17&#45;&gt;q13</title>
<path fill="none" stroke="black" d="M1105.05,-57.9C1119.14,-61.46 1137.13,-66 1152.73,-69.94"/>
<polygon fill="black" stroke="black" points="1151.56,-73.25 1162.11,-72.3 1153.27,-66.46 1151.56,-73.25"/>
<text xml:space="preserve" text-anchor="middle" x="1134.27" y="-70.14" font-family="Helvetica,sans-Serif" font-size="14.00">eps</text>
</g>
<!-- q18&#45;&gt;q12 -->
<g id="edge24" class="edge">
<title>q18&#45;&gt;q12</title>
<path fill="none" stroke="black" d="M721.17,-52.54C734.72,-52.41 751.69,-52.26 766.66,-52.12"/>
<polygon fill="black" stroke="black" points="766.66,-55.62 776.63,-52.02 766.6,-48.62 766.66,-55.62"/>
<text xml:space="preserve" text-anchor="middle" x="749.58" y="-54.82" font-family="Helvetica,sans-Serif" font-size="14.00">eps</text>
</g>
<!-- q19&#45;&gt;q1 -->
<g id="edge25" class="edge">
<title>q19&#45;&gt;q1</title>
<path fill="none" stroke="black" d="M1323.05,-126.97C1337.22,-130.58 1355.29,-135.18 1370.84,-139.14"/>
<polygon fill="black" stroke="black" points="1369.59,-142.44 1380.15,-141.51 1371.32,-135.65 1369.59,-142.44"/>
<text xml:space="preserve" text-anchor="middle" x="1352.23" y="-139.14" font-family="Helvetica,sans-Serif" font-size="14.00">eps</text>
</g>
</g>
</svg>
