<?xml version="1.0" encoding="UTF-8" standalone="no"?>
<!DOCTYPE svg PUBLIC "-//W3C//DTD SVG 1.1//EN"
 "http://www.w3.org/Graphics/SVG/1.1/DTD/svg11.dtd">
<!-- Generated by graphviz version 14.0.2 (20251019.1705)
 -->
<!-- Title: greggle_regex_nfa Pages: 1 -->
<svg width="581pt" height="245pt"
 viewBox="0.00 0.00 581.00 245.00" xmlns="http://www.w3.org/2000/svg" xmlns:xlink="http://www.w3.org/1999/xlink">
<g id="graph0" class="graph" transform="scale(1 1) rotate(0) translate(4 240.91)">
<title>greggle_regex_nfa</title>
<polygon fill="white" stroke="none" points="-4,4 -4,-240.91 577.26,-240.91 577.26,4 -4,4"/>
<!-- start -->
<g id="node1" class="node">
<title>start</title>
<polygon fill="none" stroke="black" points="39.75,-149.63 0,-131.63 39.75,-113.63 79.51,-131.63 39.75,-149.63"/>
<text xml:space="preserve" text-anchor="middle" x="39.75" y="-126.2" font-family="Helvetica,sans-Serif" font-size="14.00">start</text>
</g>
<!-- q0 -->
<g id="node2" class="node">
<title>q0</title>
<ellipse fill="none" stroke="black" cx="137.13" cy="-131.63" rx="20.63" ry="20.63"/>
<text xml:space="preserve" text-anchor="middle" x="137.13" y="-126.2" font-family="Helvetica,sans-Serif" font-size="14.00">q0</text>
</g>
<!-- start&#45;&gt;q0 -->
<g id="edge1" class="edge">
<title>start&#45;&gt;q0</title>
<path fill="none" stroke="black" d="M80.65,-131.63C88.69,-131.63 97.03,-131.63 104.73,-131.63"/>
<polygon fill="black" stroke="black" points="104.65,-135.13 114.65,-131.63 104.65,-128.13 104.65,-135.13"/>
</g>
<!-- q1 -->
<g id="node3" class="node">
<title>q1</title>
<ellipse fill="none" stroke="black" cx="552.63" cy="-131.63" rx="20.63" ry="20.63"/>
<text xml:space="preserve" text-anchor="middle" x="552.63" y="-126.2" font-family="Helvetica,sans-Serif" font-size="14.00">q1</text>
</g>
<!-- q0&#45;&gt;q1 -->
<g id="edge2" class="edge">
<title>q0&#45;&gt;q1</title>
<path fill="none" stroke="black" d="M150.87,-147.48C157.53,-154.72 166.27,-162.75 175.76,-167.63 295.35,-229.09 350.65,-237.9 477.26,-192.63 498.09,-185.17 517.28,-169.09 530.95,-155.32"/>
<polygon fill="black" stroke="black" points="533.33,-157.89 537.67,-148.23 528.25,-153.08 533.33,-157.89"/>
<text xml:space="preserve" text-anchor="middle" x="392.88" y="-223.61" font-family="Helvetica,sans-Serif" font-size="14.00">(all&#45;of (negate a) (negate b))</text>
</g>
<!-- q2 -->
<g id="node4" class="node">
<title>q2</title>
<ellipse fill="none" stroke="black" cx="392.88" cy="-158.63" rx="20.63" ry="20.63"/>
<ellipse fill="none" stroke="black" cx="392.88" cy="-158.63" rx="24.63" ry="24.63"/>
<text xml:space="preserve" text-anchor="middle" x="392.88" y="-153.2" font-family="Helvetica,sans-Serif" font-size="14.00">q2</text>
</g>
<!-- q0&#45;&gt;q2 -->
<g id="edge3" class="edge">
<title>q0&#45;&gt;q2</title>
<path fill="none" stroke="black" d="M158.04,-133.74C200.95,-138.31 302.6,-149.13 356.66,-154.88"/>
<polygon fill="black" stroke="black" points="356.24,-158.35 366.56,-155.93 356.98,-151.39 356.24,-158.35"/>
<text xml:space="preserve" text-anchor="middle" x="233.13" y="-149.99" font-family="Helvetica,sans-Serif" font-size="14.00">(all&#45;of a (negate b))</text>
</g>
<!-- q3 -->
<g id="node5" class="node">
<title>q3</title>
<ellipse fill="none" stroke="black" cx="392.88" cy="-91.63" rx="20.63" ry="20.63"/>
<ellipse fill="none" stroke="black" cx="392.88" cy="-91.63" rx="24.63" ry="24.63"/>
<text xml:space="preserve" text-anchor="middle" x="392.88" y="-86.2" font-family="Helvetica,sans-Serif" font-size="14.00">q3</text>
</g>
<!-- q0&#45;&gt;q3 -->
<g id="edge4" class="edge">
<title>q0&#45;&gt;q3</title>
<path fill="none" stroke="black" d="M156.2,-123.46C162.3,-120.99 169.22,-118.51 175.76,-116.88 238.23,-101.26 313.34,-95.24 356.55,-92.97"/>
<polygon fill="black" stroke="black" points="356.53,-96.47 366.35,-92.49 356.19,-89.48 356.53,-96.47"/>
<text xml:space="preserve" text-anchor="middle" x="233.13" y="-119.33" font-family="Helvetica,sans-Serif" font-size="14.00">(all&#45;of a b)</text>
</g>
<!-- q4 -->
<g id="node6" class="node">
<title>q4</title>
<ellipse fill="none" stroke="black" cx="392.88" cy="-24.63" rx="20.63" ry="20.63"/>
<ellipse fill="none" stroke="black" cx="392.88" cy="-24.63" rx="24.63" ry="24.63"/>
<text xml:space="preserve" text-anchor="middle" x="392.88" y="-19.2" font-family="Helvetica,sans-Serif" font-size="14.00">q4</text>
</g>
<!-- q0&#45;&gt;q4 -->
<g id="edge5" class="edge">
<title>q0&#45;&gt;q4</title>
<path fill="none" stroke="black" d="M147,-113.15C153.43,-101.63 163.21,-87.43 175.76,-78.88 231.35,-40.96 311.19,-29.52 356.65,-26.09"/>
<polygon fill="black" stroke="black" points="356.71,-29.59 366.46,-25.44 356.25,-22.6 356.71,-29.59"/>
<text xml:space="preserve" text-anchor="middle" x="233.13" y="-81.33" font-family="Helvetica,sans-Serif" font-size="14.00">(all&#45;of (negate a) b)</text>
</g>
<!-- q1&#45;&gt;q1 -->
<g id="edge6" class="edge">
<title>q1&#45;&gt;q1</title>
<path fill="none" stroke="black" d="M544,-150.7C542.54,-160.93 545.41,-170.25 552.63,-170.25 556.92,-170.25 559.67,-166.97 560.9,-162.16"/>
<polygon fill="black" stroke="black" points="564.39,-162.32 561.21,-152.22 557.4,-162.1 564.39,-162.32"/>
<text xml:space="preserve" text-anchor="middle" x="552.63" y="-172.7" font-family="Helvetica,sans-Serif" font-size="14.00">dot</text>
</g>
<!-- q2&#45;&gt;q1 -->
<g id="edge7" class="edge">
<title>q2&#45;&gt;q1</title>
<path fill="none" stroke="black" d="M417.5,-154.58C444.97,-149.88 490.4,-142.1 520.68,-136.92"/>
<polygon fill="black" stroke="black" points="521.09,-140.4 530.36,-135.27 519.91,-133.5 521.09,-140.4"/>
<text xml:space="preserve" text-anchor="middle" x="504.63" y="-143.58" font-family="Helvetica,sans-Serif" font-size="14.00">dot</text>
</g>
<!-- q3&#45;&gt;q1 -->
<g id="edge8" class="edge">
<title>q3&#45;&gt;q1</title>
<path fill="none" stroke="black" d="M417.54,-96.24C441.9,-101.16 480.87,-109.53 514.01,-118.88 516.64,-119.62 519.36,-120.44 522.08,-121.29"/>
<polygon fill="black" stroke="black" points="520.97,-124.61 531.56,-124.41 523.16,-117.96 520.97,-124.61"/>
<text xml:space="preserve" text-anchor="middle" x="504.63" y="-121.33" font-family="Helvetica,sans-Serif" font-size="14.00">dot</text>
</g>
<!-- q4&#45;&gt;q1 -->
<g id="edge9" class="edge">
<title>q4&#45;&gt;q1</title>
<path fill="none" stroke="black" d="M417.03,-30.99C434.47,-36.44 458.51,-45.34 477.26,-57.63 498.02,-71.22 517.75,-91.31 531.67,-107.13"/>
<polygon fill="black" stroke="black" points="529,-109.4 538.17,-114.71 534.32,-104.84 529,-109.4"/>
<text xml:space="preserve" text-anchor="middle" x="504.63" y="-89.3" font-family="Helvetica,sans-Serif" font-size="14.00">dot</text>
</g>
</g>
</svg>
