<?xml version="1.0" encoding="UTF-8" standalone="no"?>
<!DOCTYPE svg PUBLIC "-//W3C//DTD SVG 1.1//EN"
 "http://www.w3.org/Graphics/SVG/1.1/DTD/svg11.dtd">
<!-- Generated by graphviz version 14.0.2 (20251019.1705)
 -->
<!-- Title: greggle_regex_nfa Pages: 1 -->
<svg width="2531pt" height="164pt"
 viewBox="0.00 0.00 2531.00 164.00" xmlns="http://www.w3.org/2000/svg" xmlns:xlink="http://www.w3.org/1999/xlink">
<g id="graph0" class="graph" transform="scale(1 1) rotate(0) translate(4 159.5)">
<title>greggle_regex_nfa</title>
<polygon fill="white" stroke="none" points="-4,4 -4,-159.5 2526.51,-159.5 2526.51,4 -4,4"/>
<!-- start -->
<g id="node1" class="node">
<title>start</title>
<polygon fill="none" stroke="black" points="39.75,-100.05 0,-82.05 39.75,-64.05 79.51,-82.05 39.75,-100.05"/>
<text xml:space="preserve" text-anchor="middle" x="39.75" y="-76.62" font-family="Helvetica,sans-Serif" font-size="14.00">start</text>
</g>
<!-- q0 -->
<g id="node2" class="node">
<title>q0</title>
<ellipse fill="none" stroke="black" cx="137.13" cy="-82.05" rx="20.63" ry="20.63"/>
<text xml:space="preserve" text-anchor="middle" x="137.13" y="-76.62" font-family="Helvetica,sans-Serif" font-size="14.00">q0</text>
</g>
<!-- start&#45;&gt;q0 -->
<g id="edge1" class="edge">
<title>start&#45;&gt;q0</title>
<path fill="none" stroke="black" d="M80.65,-82.05C88.69,-82.05 97.03,-82.05 104.73,-82.05"/>
<polygon fill="black" stroke="black" points="104.65,-85.55 114.65,-82.05 104.65,-78.55 104.65,-85.55"/>
</g>
<!-- q1 -->
<g id="node3" class="node">
<title>q1</title>
<ellipse fill="none" stroke="black" cx="1004.88" cy="-112.05" rx="20.63" ry="20.63"/>
<text xml:space="preserve" text-anchor="middle" x="1004.88" y="-106.62" font-family="Helvetica,sans-Serif" font-size="14.00">q1</text>
</g>
<!-- q0&#45;&gt;q1 -->
<g id="edge2" class="edge">
<title>q0&#45;&gt;q1</title>
<path fill="none" stroke="black" d="M158.04,-83.81C163.76,-84.27 170,-84.72 175.76,-85.05 486.22,-102.48 862.85,-109.72 972.53,-111.56"/>
<polygon fill="black" stroke="black" points="972.43,-115.06 982.49,-111.72 972.54,-108.06 972.43,-115.06"/>
<text xml:space="preserve" text-anchor="middle" x="571.01" y="-113.83" font-family="Helvetica,sans-Serif" font-size="14.00">(some&#45;of (all&#45;of a (negate b) (negate c)) (all&#45;of a b (negate c)) (all&#45;of a (negate b) c) (all&#45;of a b c))</text>
</g>
<!-- q2 -->
<g id="node4" class="node">
<title>q2</title>
<ellipse fill="none" stroke="black" cx="1004.88" cy="-53.05" rx="20.63" ry="20.63"/>
<text xml:space="preserve" text-anchor="middle" x="1004.88" y="-47.62" font-family="Helvetica,sans-Serif" font-size="14.00">q2</text>
</g>
<!-- q0&#45;&gt;q2 -->
<g id="edge3" class="edge">
<title>q0&#45;&gt;q2</title>
<path fill="none" stroke="black" d="M156.59,-74.53C162.6,-72.43 169.37,-70.42 175.76,-69.3 482.61,-15.62 863.13,-41.15 972.92,-50.27"/>
<polygon fill="black" stroke="black" points="972.34,-53.74 982.6,-51.1 972.93,-46.76 972.34,-53.74"/>
<text xml:space="preserve" text-anchor="middle" x="571.01" y="-71.75" font-family="Helvetica,sans-Serif" font-size="14.00">(some&#45;of (all&#45;of (negate a) (negate b) (negate c)) (all&#45;of (negate a) b (negate c)) (all&#45;of (negate a) (negate b) c) (all&#45;of (negate a) b c))</text>
</g>
<!-- q3 -->
<g id="node5" class="node">
<title>q3</title>
<ellipse fill="none" stroke="black" cx="2501.88" cy="-78.05" rx="20.63" ry="20.63"/>
<text xml:space="preserve" text-anchor="middle" x="2501.88" y="-72.62" font-family="Helvetica,sans-Serif" font-size="14.00">q3</text>
</g>
<!-- q1&#45;&gt;q3 -->
<g id="edge4" class="edge">
<title>q1&#45;&gt;q3</title>
<path fill="none" stroke="black" d="M1024.32,-119.78C1030.33,-121.93 1037.1,-123.97 1043.51,-125.05 1432.07,-190.28 1536.04,-130.2 1930.01,-125.05 2150.73,-122.16 2209.95,-154.84 2426.51,-112.05 2443.16,-108.76 2460.47,-101.13 2474.2,-93.93"/>
<polygon fill="black" stroke="black" points="2475.53,-97.19 2482.61,-89.31 2472.16,-91.06 2475.53,-97.19"/>
<text xml:space="preserve" text-anchor="middle" x="2187.26" y="-136.73" font-family="Helvetica,sans-Serif" font-size="14.00">(some&#45;of (all&#45;of (negate a) (negate b) (negate c)) (all&#45;of a (negate b) (negate c)))</text>
</g>
<!-- q4 -->
<g id="node6" class="node">
<title>q4</title>
<ellipse fill="none" stroke="black" cx="2187.26" cy="-78.05" rx="20.63" ry="20.63"/>
<ellipse fill="none" stroke="black" cx="2187.26" cy="-78.05" rx="24.63" ry="24.63"/>
<text xml:space="preserve" text-anchor="middle" x="2187.26" y="-72.62" font-family="Helvetica,sans-Serif" font-size="14.00">q4</text>
</g>
<!-- q1&#45;&gt;q4 -->
<g id="edge5" class="edge">
<title>q1&#45;&gt;q4</title>
<path fill="none" stroke="black" d="M1025.79,-110.42C1031.51,-110 1037.75,-109.59 1043.51,-109.3 1266.97,-98.08 1983.27,-82.38 2150.92,-78.8"/>
<polygon fill="black" stroke="black" points="2150.81,-82.3 2160.73,-78.59 2150.66,-75.3 2150.81,-82.3"/>
<text xml:space="preserve" text-anchor="middle" x="1486.76" y="-111.75" font-family="Helvetica,sans-Serif" font-size="14.00">(some&#45;of (all&#45;of (negate a) b (negate c)) (all&#45;of a b (negate c)) (all&#45;of (negate a) (negate b) c) (all&#45;of a (negate b) c) (all&#45;of (negate a) b c) (all&#45;of a b c))</text>
</g>
<!-- q2&#45;&gt;q3 -->
<g id="edge6" class="edge">
<title>q2&#45;&gt;q3</title>
<path fill="none" stroke="black" d="M1025.77,-50.62C1031.49,-50.01 1037.74,-49.42 1043.51,-49.05 1444.78,-23.16 1545.93,-32.91 1948.01,-28.3 2160.66,-25.86 2223.01,33.49 2426.51,-28.3 2445.23,-33.98 2463.53,-46.11 2477.29,-56.97"/>
<polygon fill="black" stroke="black" points="2474.94,-59.57 2484.88,-63.23 2479.39,-54.17 2474.94,-59.57"/>
<text xml:space="preserve" text-anchor="middle" x="2187.26" y="-30.75" font-family="Helvetica,sans-Serif" font-size="14.00">(some&#45;of (all&#45;of (negate a) (negate b) (negate c)) (all&#45;of a (negate b) (negate c)))</text>
</g>
<!-- q2&#45;&gt;q4 -->
<g id="edge7" class="edge">
<title>q2&#45;&gt;q4</title>
<path fill="none" stroke="black" d="M1025.72,-53.1C1123.85,-53.41 1567.14,-55.38 1930.01,-66.3 2008.97,-68.67 2101.53,-73.4 2150.93,-76.08"/>
<polygon fill="black" stroke="black" points="2150.56,-79.56 2160.73,-76.61 2150.94,-72.57 2150.56,-79.56"/>
<text xml:space="preserve" text-anchor="middle" x="1486.76" y="-68.75" font-family="Helvetica,sans-Serif" font-size="14.00">(some&#45;of (all&#45;of (negate a) b (negate c)) (all&#45;of a b (negate c)) (all&#45;of (negate a) (negate b) c) (all&#45;of a (negate b) c) (all&#45;of (negate a) b c) (all&#45;of a b c))</text>
</g>
<!-- q3&#45;&gt;q3 -->
<g id="edge8" class="edge">
<title>q3&#45;&gt;q3</title>
<path fill="none" stroke="black" d="M2493.25,-97.13C2491.79,-107.35 2494.66,-116.67 2501.88,-116.67 2506.17,-116.67 2508.92,-113.39 2510.15,-108.58"/>
<polygon fill="black" stroke="black" points="2513.65,-108.75 2510.46,-98.64 2506.65,-108.52 2513.65,-108.75"/>
<text xml:space="preserve" text-anchor="middle" x="2501.88" y="-119.12" font-family="Helvetica,sans-Serif" font-size="14.00">dot</text>
</g>
<!-- q4&#45;&gt;q3 -->
<g id="edge9" class="edge">
<title>q4&#45;&gt;q3</title>
<path fill="none" stroke="black" d="M2212.27,-78.05C2268.17,-78.05 2406.97,-78.05 2469.48,-78.05"/>
<polygon fill="black" stroke="black" points="2469.41,-81.55 2479.41,-78.05 2469.41,-74.55 2469.41,-81.55"/>
<text xml:space="preserve" text-anchor="middle" x="2453.88" y="-80.5" font-family="Helvetica,sans-Serif" font-size="14.00">dot</text>
</g>
</g>
</svg>
