<?xml version="1.0" encoding="UTF-8" standalone="no"?>
<!DOCTYPE svg PUBLIC "-//W3C//DTD SVG 1.1//EN"
 "http://www.w3.org/Graphics/SVG/1.1/DTD/svg11.dtd">
<!-- Generated by graphviz version 14.1.0 (20251206.1807)
 -->
<!-- Title: G Pages: 1 -->
<svg width="186pt" height="221pt"
 viewBox="0.00 0.00 186.00 221.00" xmlns="http://www.w3.org/2000/svg" xmlns:xlink="http://www.w3.org/1999/xlink">
<g id="graph0" class="graph" transform="scale(1 1) rotate(0) translate(4 217)">
<title>G</title>
<polygon fill="white" stroke="none" points="-4,4 -4,-217 182.25,-217 182.25,4 -4,4"/>
<!-- n1 -->
<g id="node1" class="node">
<title>n1</title>
<path fill="#e6f2ff" stroke="#4a6fa5" d="M127,-213C127,-213 97,-213 97,-213 91,-213 85,-207 85,-201 85,-201 85,-189 85,-189 85,-183 91,-177 97,-177 97,-177 127,-177 127,-177 133,-177 139,-183 139,-189 139,-189 139,-201 139,-201 139,-207 133,-213 127,-213"/>
<text xml:space="preserve" text-anchor="middle" x="112" y="-191.5" font-family="Helvetica,sans-Serif" font-size="10.00">n1</text>
</g>
<!-- n1&#45;&gt;n1 -->
<g id="edge1" class="edge">
<title>n1&#45;&gt;n1</title>
<path fill="none" stroke="#4a6fa5" stroke-width="1.2" d="M139.29,-203.09C152.41,-204.09 164,-201.4 164,-195 164,-190.25 157.62,-187.54 148.96,-186.87"/>
<polygon fill="#4a6fa5" stroke="#4a6fa5" stroke-width="1.2" points="149.09,-184.07 141.1,-186.9 149.11,-189.67 149.09,-184.07"/>
<text xml:space="preserve" text-anchor="middle" x="171.12" y="-189.95" font-family="Times New Roman,serif" font-size="14.00">lbl</text>
</g>
<!-- n2 -->
<g id="node2" class="node">
<title>n2</title>
<path fill="#e6f2ff" stroke="#4a6fa5" d="M42,-124.5C42,-124.5 12,-124.5 12,-124.5 6,-124.5 0,-118.5 0,-112.5 0,-112.5 0,-100.5 0,-100.5 0,-94.5 6,-88.5 12,-88.5 12,-88.5 42,-88.5 42,-88.5 48,-88.5 54,-94.5 54,-100.5 54,-100.5 54,-112.5 54,-112.5 54,-118.5 48,-124.5 42,-124.5"/>
<text xml:space="preserve" text-anchor="middle" x="27" y="-103" font-family="Helvetica,sans-Serif" font-size="10.00">n2</text>
</g>
<!-- n1&#45;&gt;n2 -->
<g id="edge2" class="edge">
<title>n1&#45;&gt;n2</title>
<path fill="none" stroke="#4a6fa5" stroke-width="1.2" d="M84.77,-182.99C73.13,-177.22 60.1,-169.2 50.75,-159 44.2,-151.86 39.18,-142.6 35.48,-133.9"/>
<polygon fill="#4a6fa5" stroke="#4a6fa5" stroke-width="1.2" points="38.12,-132.96 32.62,-126.51 32.89,-134.98 38.12,-132.96"/>
<text xml:space="preserve" text-anchor="middle" x="57.88" y="-145.7" font-family="Times New Roman,serif" font-size="14.00">lbl</text>
</g>
<!-- n3 -->
<g id="node3" class="node">
<title>n3</title>
<path fill="#e6f2ff" stroke="#4a6fa5" d="M127,-36C127,-36 97,-36 97,-36 91,-36 85,-30 85,-24 85,-24 85,-12 85,-12 85,-6 91,0 97,0 97,0 127,0 127,0 133,0 139,-6 139,-12 139,-12 139,-24 139,-24 139,-30 133,-36 127,-36"/>
<text xml:space="preserve" text-anchor="middle" x="112" y="-14.5" font-family="Helvetica,sans-Serif" font-size="10.00">n3</text>
</g>
<!-- n1&#45;&gt;n3 -->
<g id="edge3" class="edge">
<title>n1&#45;&gt;n3</title>
<path fill="none" stroke="#4a6fa5" stroke-width="1.2" d="M112,-176.58C112,-145.92 112,-82.13 112,-45.81"/>
<polygon fill="#4a6fa5" stroke="#4a6fa5" stroke-width="1.2" points="114.8,-46.17 112,-38.17 109.2,-46.17 114.8,-46.17"/>
<text xml:space="preserve" text-anchor="middle" x="119.12" y="-101.45" font-family="Times New Roman,serif" font-size="14.00">lbl</text>
</g>
<!-- n2&#45;&gt;n1 -->
<g id="edge4" class="edge">
<title>n2&#45;&gt;n1</title>
<path fill="none" stroke="#4a6fa5" stroke-width="1.2" d="M47.83,-124.79C54.15,-130.29 61,-136.5 67,-142.5 75.44,-150.94 84.19,-160.7 91.71,-169.43"/>
<polygon fill="#4a6fa5" stroke="#4a6fa5" stroke-width="1.2" points="89.47,-171.12 96.78,-175.4 93.73,-167.49 89.47,-171.12"/>
<text xml:space="preserve" text-anchor="middle" x="89.59" y="-145.7" font-family="Times New Roman,serif" font-size="14.00">lbl</text>
</g>
<!-- n2&#45;&gt;n2 -->
<g id="edge5" class="edge">
<title>n2&#45;&gt;n2</title>
<path fill="none" stroke="#4a6fa5" stroke-width="1.2" d="M54.29,-114.59C67.41,-115.59 79,-112.9 79,-106.5 79,-101.75 72.62,-99.04 63.96,-98.37"/>
<polygon fill="#4a6fa5" stroke="#4a6fa5" stroke-width="1.2" points="64.09,-95.57 56.1,-98.4 64.11,-101.17 64.09,-95.57"/>
<text xml:space="preserve" text-anchor="middle" x="86.12" y="-101.45" font-family="Times New Roman,serif" font-size="14.00">lbl</text>
</g>
<!-- n2&#45;&gt;n3 -->
<g id="edge6" class="edge">
<title>n2&#45;&gt;n3</title>
<path fill="none" stroke="#4a6fa5" stroke-width="1.2" d="M31.97,-88.19C35.75,-77.38 41.84,-63.73 50.75,-54 57.84,-46.27 67.04,-39.79 76.14,-34.6"/>
<polygon fill="#4a6fa5" stroke="#4a6fa5" stroke-width="1.2" points="77.42,-37.09 83.17,-30.86 74.79,-32.15 77.42,-37.09"/>
<text xml:space="preserve" text-anchor="middle" x="57.88" y="-57.2" font-family="Times New Roman,serif" font-size="14.00">lbl</text>
</g>
<!-- n3&#45;&gt;n1 -->
<g id="edge7" class="edge">
<title>n3&#45;&gt;n1</title>
<path fill="none" stroke="#4a6fa5" stroke-width="1.2" d="M123.56,-36.48C126.55,-41.88 129.38,-47.99 131,-54 143.14,-99.06 143.14,-113.94 131,-159 130.19,-162 129.08,-165.03 127.8,-167.99"/>
<polygon fill="#4a6fa5" stroke="#4a6fa5" stroke-width="1.2" points="125.42,-166.48 124.37,-174.89 130.44,-168.97 125.42,-166.48"/>
<text xml:space="preserve" text-anchor="middle" x="147.23" y="-101.45" font-family="Times New Roman,serif" font-size="14.00">lbl</text>
</g>
<!-- n3&#45;&gt;n2 -->
<g id="edge8" class="edge">
<title>n3&#45;&gt;n2</title>
<path fill="none" stroke="#4a6fa5" stroke-width="1.2" d="M97.96,-36.21C89.34,-46.47 77.91,-59.58 67,-70.5 63.25,-74.25 59.17,-78.09 55.09,-81.77"/>
<polygon fill="#4a6fa5" stroke="#4a6fa5" stroke-width="1.2" points="53.32,-79.6 49.19,-87 57.03,-83.79 53.32,-79.6"/>
<text xml:space="preserve" text-anchor="middle" x="89.59" y="-57.2" font-family="Times New Roman,serif" font-size="14.00">lbl</text>
</g>
<!-- n3&#45;&gt;n3 -->
<g id="edge9" class="edge">
<title>n3&#45;&gt;n3</title>
<path fill="none" stroke="#4a6fa5" stroke-width="1.2" d="M139.29,-26.09C152.41,-27.09 164,-24.4 164,-18 164,-13.25 157.62,-10.54 148.96,-9.87"/>
<polygon fill="#4a6fa5" stroke="#4a6fa5" stroke-width="1.2" points="149.09,-7.07 141.1,-9.9 149.11,-12.67 149.09,-7.07"/>
<text xml:space="preserve" text-anchor="middle" x="171.12" y="-12.95" font-family="Times New Roman,serif" font-size="14.00">lbl</text>
</g>
</g>
</svg>
