<?xml version="1.0" encoding="UTF-8" standalone="no"?>
<!DOCTYPE svg PUBLIC "-//W3C//DTD SVG 1.1//EN"
 "http://www.w3.org/Graphics/SVG/1.1/DTD/svg11.dtd">
<!-- Generated by graphviz version 14.1.0 (20251206.1807)
 -->
<!-- Title: G Pages: 1 -->
<svg width="457pt" height="1052pt"
 viewBox="0.00 0.00 457.00 1052.00" xmlns="http://www.w3.org/2000/svg" xmlns:xlink="http://www.w3.org/1999/xlink">
<g id="graph0" class="graph" transform="scale(1 1) rotate(0) translate(4 1048)">
<title>G</title>
<polygon fill="white" stroke="none" points="-4,4 -4,-1048 453,-1048 453,4 -4,4"/>
<!-- g_1_1 -->
<g id="node1" class="node">
<title>g_1_1</title>
<path fill="#e6f2ff" stroke="#4a6fa5" d="M237,-1044C237,-1044 207,-1044 207,-1044 201,-1044 195,-1038 195,-1032 195,-1032 195,-1020 195,-1020 195,-1014 201,-1008 207,-1008 207,-1008 237,-1008 237,-1008 243,-1008 249,-1014 249,-1020 249,-1020 249,-1032 249,-1032 249,-1038 243,-1044 237,-1044"/>
<text xml:space="preserve" text-anchor="middle" x="222" y="-1022.5" font-family="Helvetica,sans-Serif" font-size="10.00">g_1_1</text>
</g>
<!-- g_1_2 -->
<g id="node2" class="node">
<title>g_1_2</title>
<path fill="#e6f2ff" stroke="#4a6fa5" d="M198,-972C198,-972 168,-972 168,-972 162,-972 156,-966 156,-960 156,-960 156,-948 156,-948 156,-942 162,-936 168,-936 168,-936 198,-936 198,-936 204,-936 210,-942 210,-948 210,-948 210,-960 210,-960 210,-966 204,-972 198,-972"/>
<text xml:space="preserve" text-anchor="middle" x="183" y="-950.5" font-family="Helvetica,sans-Serif" font-size="10.00">g_1_2</text>
</g>
<!-- g_1_1&#45;&gt;g_1_2 -->
<g id="edge2" class="edge">
<title>g_1_1&#45;&gt;g_1_2</title>
<path fill="none" stroke="#4a6fa5" stroke-width="1.2" d="M212.36,-1007.7C207.78,-999.47 202.21,-989.48 197.16,-980.42"/>
<polygon fill="#4a6fa5" stroke="#4a6fa5" stroke-width="1.2" points="199.75,-979.32 193.41,-973.69 194.86,-982.04 199.75,-979.32"/>
</g>
<!-- g_2_1 -->
<g id="node13" class="node">
<title>g_2_1</title>
<path fill="#e6f2ff" stroke="#4a6fa5" d="M277,-972C277,-972 247,-972 247,-972 241,-972 235,-966 235,-960 235,-960 235,-948 235,-948 235,-942 241,-936 247,-936 247,-936 277,-936 277,-936 283,-936 289,-942 289,-948 289,-948 289,-960 289,-960 289,-966 283,-972 277,-972"/>
<text xml:space="preserve" text-anchor="middle" x="262" y="-950.5" font-family="Helvetica,sans-Serif" font-size="10.00">g_2_1</text>
</g>
<!-- g_1_1&#45;&gt;g_2_1 -->
<g id="edge1" class="edge">
<title>g_1_1&#45;&gt;g_2_1</title>
<path fill="none" stroke="#4a6fa5" stroke-width="1.2" d="M231.89,-1007.7C236.59,-999.47 242.3,-989.48 247.47,-980.42"/>
<polygon fill="#4a6fa5" stroke="#4a6fa5" stroke-width="1.2" points="249.79,-982.02 251.32,-973.68 244.92,-979.24 249.79,-982.02"/>
</g>
<!-- g_1_3 -->
<g id="node3" class="node">
<title>g_1_3</title>
<path fill="#e6f2ff" stroke="#4a6fa5" d="M159,-900C159,-900 129,-900 129,-900 123,-900 117,-894 117,-888 117,-888 117,-876 117,-876 117,-870 123,-864 129,-864 129,-864 159,-864 159,-864 165,-864 171,-870 171,-876 171,-876 171,-888 171,-888 171,-894 165,-900 159,-900"/>
<text xml:space="preserve" text-anchor="middle" x="144" y="-878.5" font-family="Helvetica,sans-Serif" font-size="10.00">g_1_3</text>
</g>
<!-- g_1_2&#45;&gt;g_1_3 -->
<g id="edge4" class="edge">
<title>g_1_2&#45;&gt;g_1_3</title>
<path fill="none" stroke="#4a6fa5" stroke-width="1.2" d="M173.36,-935.7C168.78,-927.47 163.21,-917.48 158.16,-908.42"/>
<polygon fill="#4a6fa5" stroke="#4a6fa5" stroke-width="1.2" points="160.75,-907.32 154.41,-901.69 155.86,-910.04 160.75,-907.32"/>
</g>
<!-- g_2_2 -->
<g id="node14" class="node">
<title>g_2_2</title>
<path fill="#e6f2ff" stroke="#4a6fa5" d="M238,-900C238,-900 208,-900 208,-900 202,-900 196,-894 196,-888 196,-888 196,-876 196,-876 196,-870 202,-864 208,-864 208,-864 238,-864 238,-864 244,-864 250,-870 250,-876 250,-876 250,-888 250,-888 250,-894 244,-900 238,-900"/>
<text xml:space="preserve" text-anchor="middle" x="223" y="-878.5" font-family="Helvetica,sans-Serif" font-size="10.00">g_2_2</text>
</g>
<!-- g_1_2&#45;&gt;g_2_2 -->
<g id="edge3" class="edge">
<title>g_1_2&#45;&gt;g_2_2</title>
<path fill="none" stroke="#4a6fa5" stroke-width="1.2" d="M192.89,-935.7C197.59,-927.47 203.3,-917.48 208.47,-908.42"/>
<polygon fill="#4a6fa5" stroke="#4a6fa5" stroke-width="1.2" points="210.79,-910.02 212.32,-901.68 205.92,-907.24 210.79,-910.02"/>
</g>
<!-- g_1_4 -->
<g id="node4" class="node">
<title>g_1_4</title>
<path fill="#e6f2ff" stroke="#4a6fa5" d="M120,-828C120,-828 90,-828 90,-828 84,-828 78,-822 78,-816 78,-816 78,-804 78,-804 78,-798 84,-792 90,-792 90,-792 120,-792 120,-792 126,-792 132,-798 132,-804 132,-804 132,-816 132,-816 132,-822 126,-828 120,-828"/>
<text xml:space="preserve" text-anchor="middle" x="105" y="-806.5" font-family="Helvetica,sans-Serif" font-size="10.00">g_1_4</text>
</g>
<!-- g_1_3&#45;&gt;g_1_4 -->
<g id="edge6" class="edge">
<title>g_1_3&#45;&gt;g_1_4</title>
<path fill="none" stroke="#4a6fa5" stroke-width="1.2" d="M134.36,-863.7C129.78,-855.47 124.21,-845.48 119.16,-836.42"/>
<polygon fill="#4a6fa5" stroke="#4a6fa5" stroke-width="1.2" points="121.75,-835.32 115.41,-829.69 116.86,-838.04 121.75,-835.32"/>
</g>
<!-- g_2_3 -->
<g id="node15" class="node">
<title>g_2_3</title>
<path fill="#e6f2ff" stroke="#4a6fa5" d="M199,-828C199,-828 169,-828 169,-828 163,-828 157,-822 157,-816 157,-816 157,-804 157,-804 157,-798 163,-792 169,-792 169,-792 199,-792 199,-792 205,-792 211,-798 211,-804 211,-804 211,-816 211,-816 211,-822 205,-828 199,-828"/>
<text xml:space="preserve" text-anchor="middle" x="184" y="-806.5" font-family="Helvetica,sans-Serif" font-size="10.00">g_2_3</text>
</g>
<!-- g_1_3&#45;&gt;g_2_3 -->
<g id="edge5" class="edge">
<title>g_1_3&#45;&gt;g_2_3</title>
<path fill="none" stroke="#4a6fa5" stroke-width="1.2" d="M153.89,-863.7C158.59,-855.47 164.3,-845.48 169.47,-836.42"/>
<polygon fill="#4a6fa5" stroke="#4a6fa5" stroke-width="1.2" points="171.79,-838.02 173.32,-829.68 166.92,-835.24 171.79,-838.02"/>
</g>
<!-- g_1_5 -->
<g id="node5" class="node">
<title>g_1_5</title>
<path fill="#e6f2ff" stroke="#4a6fa5" d="M81,-756C81,-756 51,-756 51,-756 45,-756 39,-750 39,-744 39,-744 39,-732 39,-732 39,-726 45,-720 51,-720 51,-720 81,-720 81,-720 87,-720 93,-726 93,-732 93,-732 93,-744 93,-744 93,-750 87,-756 81,-756"/>
<text xml:space="preserve" text-anchor="middle" x="66" y="-734.5" font-family="Helvetica,sans-Serif" font-size="10.00">g_1_5</text>
</g>
<!-- g_1_4&#45;&gt;g_1_5 -->
<g id="edge8" class="edge">
<title>g_1_4&#45;&gt;g_1_5</title>
<path fill="none" stroke="#4a6fa5" stroke-width="1.2" d="M95.36,-791.7C90.78,-783.47 85.21,-773.48 80.16,-764.42"/>
<polygon fill="#4a6fa5" stroke="#4a6fa5" stroke-width="1.2" points="82.75,-763.32 76.41,-757.69 77.86,-766.04 82.75,-763.32"/>
</g>
<!-- g_2_4 -->
<g id="node16" class="node">
<title>g_2_4</title>
<path fill="#e6f2ff" stroke="#4a6fa5" d="M160,-756C160,-756 130,-756 130,-756 124,-756 118,-750 118,-744 118,-744 118,-732 118,-732 118,-726 124,-720 130,-720 130,-720 160,-720 160,-720 166,-720 172,-726 172,-732 172,-732 172,-744 172,-744 172,-750 166,-756 160,-756"/>
<text xml:space="preserve" text-anchor="middle" x="145" y="-734.5" font-family="Helvetica,sans-Serif" font-size="10.00">g_2_4</text>
</g>
<!-- g_1_4&#45;&gt;g_2_4 -->
<g id="edge7" class="edge">
<title>g_1_4&#45;&gt;g_2_4</title>
<path fill="none" stroke="#4a6fa5" stroke-width="1.2" d="M114.89,-791.7C119.59,-783.47 125.3,-773.48 130.47,-764.42"/>
<polygon fill="#4a6fa5" stroke="#4a6fa5" stroke-width="1.2" points="132.79,-766.02 134.32,-757.68 127.92,-763.24 132.79,-766.02"/>
</g>
<!-- g_1_6 -->
<g id="node6" class="node">
<title>g_1_6</title>
<path fill="#e6f2ff" stroke="#4a6fa5" d="M42,-684C42,-684 12,-684 12,-684 6,-684 0,-678 0,-672 0,-672 0,-660 0,-660 0,-654 6,-648 12,-648 12,-648 42,-648 42,-648 48,-648 54,-654 54,-660 54,-660 54,-672 54,-672 54,-678 48,-684 42,-684"/>
<text xml:space="preserve" text-anchor="middle" x="27" y="-662.5" font-family="Helvetica,sans-Serif" font-size="10.00">g_1_6</text>
</g>
<!-- g_1_5&#45;&gt;g_1_6 -->
<g id="edge10" class="edge">
<title>g_1_5&#45;&gt;g_1_6</title>
<path fill="none" stroke="#4a6fa5" stroke-width="1.2" d="M56.36,-719.7C51.78,-711.47 46.21,-701.48 41.16,-692.42"/>
<polygon fill="#4a6fa5" stroke="#4a6fa5" stroke-width="1.2" points="43.75,-691.32 37.41,-685.69 38.86,-694.04 43.75,-691.32"/>
</g>
<!-- g_2_5 -->
<g id="node17" class="node">
<title>g_2_5</title>
<path fill="#e6f2ff" stroke="#4a6fa5" d="M121,-684C121,-684 91,-684 91,-684 85,-684 79,-678 79,-672 79,-672 79,-660 79,-660 79,-654 85,-648 91,-648 91,-648 121,-648 121,-648 127,-648 133,-654 133,-660 133,-660 133,-672 133,-672 133,-678 127,-684 121,-684"/>
<text xml:space="preserve" text-anchor="middle" x="106" y="-662.5" font-family="Helvetica,sans-Serif" font-size="10.00">g_2_5</text>
</g>
<!-- g_1_5&#45;&gt;g_2_5 -->
<g id="edge9" class="edge">
<title>g_1_5&#45;&gt;g_2_5</title>
<path fill="none" stroke="#4a6fa5" stroke-width="1.2" d="M75.89,-719.7C80.59,-711.47 86.3,-701.48 91.47,-692.42"/>
<polygon fill="#4a6fa5" stroke="#4a6fa5" stroke-width="1.2" points="93.79,-694.02 95.32,-685.68 88.92,-691.24 93.79,-694.02"/>
</g>
<!-- g_2_6 -->
<g id="node18" class="node">
<title>g_2_6</title>
<path fill="#e6f2ff" stroke="#4a6fa5" d="M42,-612C42,-612 12,-612 12,-612 6,-612 0,-606 0,-600 0,-600 0,-588 0,-588 0,-582 6,-576 12,-576 12,-576 42,-576 42,-576 48,-576 54,-582 54,-588 54,-588 54,-600 54,-600 54,-606 48,-612 42,-612"/>
<text xml:space="preserve" text-anchor="middle" x="27" y="-590.5" font-family="Helvetica,sans-Serif" font-size="10.00">g_2_6</text>
</g>
<!-- g_1_6&#45;&gt;g_2_6 -->
<g id="edge11" class="edge">
<title>g_1_6&#45;&gt;g_2_6</title>
<path fill="none" stroke="#4a6fa5" stroke-width="1.2" d="M27,-647.7C27,-639.9 27,-630.51 27,-621.83"/>
<polygon fill="#4a6fa5" stroke="#4a6fa5" stroke-width="1.2" points="29.8,-621.92 27,-613.92 24.2,-621.92 29.8,-621.92"/>
</g>
<!-- g_10_1 -->
<g id="node7" class="node">
<title>g_10_1</title>
<path fill="#e6f2ff" stroke="#4a6fa5" d="M437,-396C437,-396 407,-396 407,-396 401,-396 395,-390 395,-384 395,-384 395,-372 395,-372 395,-366 401,-360 407,-360 407,-360 437,-360 437,-360 443,-360 449,-366 449,-372 449,-372 449,-384 449,-384 449,-390 443,-396 437,-396"/>
<text xml:space="preserve" text-anchor="middle" x="422" y="-374.5" font-family="Helvetica,sans-Serif" font-size="10.00">g_10_1</text>
</g>
<!-- g_10_2 -->
<g id="node8" class="node">
<title>g_10_2</title>
<path fill="#e6f2ff" stroke="#4a6fa5" d="M397,-324C397,-324 367,-324 367,-324 361,-324 355,-318 355,-312 355,-312 355,-300 355,-300 355,-294 361,-288 367,-288 367,-288 397,-288 397,-288 403,-288 409,-294 409,-300 409,-300 409,-312 409,-312 409,-318 403,-324 397,-324"/>
<text xml:space="preserve" text-anchor="middle" x="382" y="-302.5" font-family="Helvetica,sans-Serif" font-size="10.00">g_10_2</text>
</g>
<!-- g_10_1&#45;&gt;g_10_2 -->
<g id="edge100" class="edge">
<title>g_10_1&#45;&gt;g_10_2</title>
<path fill="none" stroke="#4a6fa5" stroke-width="1.2" d="M412.11,-359.7C407.41,-351.47 401.7,-341.48 396.53,-332.42"/>
<polygon fill="#4a6fa5" stroke="#4a6fa5" stroke-width="1.2" points="399.08,-331.24 392.68,-325.68 394.21,-334.02 399.08,-331.24"/>
</g>
<!-- g_10_3 -->
<g id="node9" class="node">
<title>g_10_3</title>
<path fill="#e6f2ff" stroke="#4a6fa5" d="M357,-252C357,-252 327,-252 327,-252 321,-252 315,-246 315,-240 315,-240 315,-228 315,-228 315,-222 321,-216 327,-216 327,-216 357,-216 357,-216 363,-216 369,-222 369,-228 369,-228 369,-240 369,-240 369,-246 363,-252 357,-252"/>
<text xml:space="preserve" text-anchor="middle" x="342" y="-230.5" font-family="Helvetica,sans-Serif" font-size="10.00">g_10_3</text>
</g>
<!-- g_10_2&#45;&gt;g_10_3 -->
<g id="edge101" class="edge">
<title>g_10_2&#45;&gt;g_10_3</title>
<path fill="none" stroke="#4a6fa5" stroke-width="1.2" d="M372.11,-287.7C367.41,-279.47 361.7,-269.48 356.53,-260.42"/>
<polygon fill="#4a6fa5" stroke="#4a6fa5" stroke-width="1.2" points="359.08,-259.24 352.68,-253.68 354.21,-262.02 359.08,-259.24"/>
</g>
<!-- g_10_4 -->
<g id="node10" class="node">
<title>g_10_4</title>
<path fill="#e6f2ff" stroke="#4a6fa5" d="M317,-180C317,-180 287,-180 287,-180 281,-180 275,-174 275,-168 275,-168 275,-156 275,-156 275,-150 281,-144 287,-144 287,-144 317,-144 317,-144 323,-144 329,-150 329,-156 329,-156 329,-168 329,-168 329,-174 323,-180 317,-180"/>
<text xml:space="preserve" text-anchor="middle" x="302" y="-158.5" font-family="Helvetica,sans-Serif" font-size="10.00">g_10_4</text>
</g>
<!-- g_10_3&#45;&gt;g_10_4 -->
<g id="edge102" class="edge">
<title>g_10_3&#45;&gt;g_10_4</title>
<path fill="none" stroke="#4a6fa5" stroke-width="1.2" d="M332.11,-215.7C327.41,-207.47 321.7,-197.48 316.53,-188.42"/>
<polygon fill="#4a6fa5" stroke="#4a6fa5" stroke-width="1.2" points="319.08,-187.24 312.68,-181.68 314.21,-190.02 319.08,-187.24"/>
</g>
<!-- g_10_5 -->
<g id="node11" class="node">
<title>g_10_5</title>
<path fill="#e6f2ff" stroke="#4a6fa5" d="M277,-108C277,-108 247,-108 247,-108 241,-108 235,-102 235,-96 235,-96 235,-84 235,-84 235,-78 241,-72 247,-72 247,-72 277,-72 277,-72 283,-72 289,-78 289,-84 289,-84 289,-96 289,-96 289,-102 283,-108 277,-108"/>
<text xml:space="preserve" text-anchor="middle" x="262" y="-86.5" font-family="Helvetica,sans-Serif" font-size="10.00">g_10_5</text>
</g>
<!-- g_10_4&#45;&gt;g_10_5 -->
<g id="edge103" class="edge">
<title>g_10_4&#45;&gt;g_10_5</title>
<path fill="none" stroke="#4a6fa5" stroke-width="1.2" d="M292.11,-143.7C287.41,-135.47 281.7,-125.48 276.53,-116.42"/>
<polygon fill="#4a6fa5" stroke="#4a6fa5" stroke-width="1.2" points="279.08,-115.24 272.68,-109.68 274.21,-118.02 279.08,-115.24"/>
</g>
<!-- g_10_6 -->
<g id="node12" class="node">
<title>g_10_6</title>
<path fill="#e6f2ff" stroke="#4a6fa5" d="M237,-36C237,-36 207,-36 207,-36 201,-36 195,-30 195,-24 195,-24 195,-12 195,-12 195,-6 201,0 207,0 207,0 237,0 237,0 243,0 249,-6 249,-12 249,-12 249,-24 249,-24 249,-30 243,-36 237,-36"/>
<text xml:space="preserve" text-anchor="middle" x="222" y="-14.5" font-family="Helvetica,sans-Serif" font-size="10.00">g_10_6</text>
</g>
<!-- g_10_5&#45;&gt;g_10_6 -->
<g id="edge104" class="edge">
<title>g_10_5&#45;&gt;g_10_6</title>
<path fill="none" stroke="#4a6fa5" stroke-width="1.2" d="M252.11,-71.7C247.41,-63.47 241.7,-53.48 236.53,-44.42"/>
<polygon fill="#4a6fa5" stroke="#4a6fa5" stroke-width="1.2" points="239.08,-43.24 232.68,-37.68 234.21,-46.02 239.08,-43.24"/>
</g>
<!-- g_2_1&#45;&gt;g_2_2 -->
<g id="edge13" class="edge">
<title>g_2_1&#45;&gt;g_2_2</title>
<path fill="none" stroke="#4a6fa5" stroke-width="1.2" d="M252.36,-935.7C247.78,-927.47 242.21,-917.48 237.16,-908.42"/>
<polygon fill="#4a6fa5" stroke="#4a6fa5" stroke-width="1.2" points="239.75,-907.32 233.41,-901.69 234.86,-910.04 239.75,-907.32"/>
</g>
<!-- g_3_1 -->
<g id="node19" class="node">
<title>g_3_1</title>
<path fill="#e6f2ff" stroke="#4a6fa5" d="M317,-900C317,-900 287,-900 287,-900 281,-900 275,-894 275,-888 275,-888 275,-876 275,-876 275,-870 281,-864 287,-864 287,-864 317,-864 317,-864 323,-864 329,-870 329,-876 329,-876 329,-888 329,-888 329,-894 323,-900 317,-900"/>
<text xml:space="preserve" text-anchor="middle" x="302" y="-878.5" font-family="Helvetica,sans-Serif" font-size="10.00">g_3_1</text>
</g>
<!-- g_2_1&#45;&gt;g_3_1 -->
<g id="edge12" class="edge">
<title>g_2_1&#45;&gt;g_3_1</title>
<path fill="none" stroke="#4a6fa5" stroke-width="1.2" d="M271.89,-935.7C276.59,-927.47 282.3,-917.48 287.47,-908.42"/>
<polygon fill="#4a6fa5" stroke="#4a6fa5" stroke-width="1.2" points="289.79,-910.02 291.32,-901.68 284.92,-907.24 289.79,-910.02"/>
</g>
<!-- g_2_2&#45;&gt;g_2_3 -->
<g id="edge15" class="edge">
<title>g_2_2&#45;&gt;g_2_3</title>
<path fill="none" stroke="#4a6fa5" stroke-width="1.2" d="M213.36,-863.7C208.78,-855.47 203.21,-845.48 198.16,-836.42"/>
<polygon fill="#4a6fa5" stroke="#4a6fa5" stroke-width="1.2" points="200.75,-835.32 194.41,-829.69 195.86,-838.04 200.75,-835.32"/>
</g>
<!-- g_3_2 -->
<g id="node20" class="node">
<title>g_3_2</title>
<path fill="#e6f2ff" stroke="#4a6fa5" d="M278,-828C278,-828 248,-828 248,-828 242,-828 236,-822 236,-816 236,-816 236,-804 236,-804 236,-798 242,-792 248,-792 248,-792 278,-792 278,-792 284,-792 290,-798 290,-804 290,-804 290,-816 290,-816 290,-822 284,-828 278,-828"/>
<text xml:space="preserve" text-anchor="middle" x="263" y="-806.5" font-family="Helvetica,sans-Serif" font-size="10.00">g_3_2</text>
</g>
<!-- g_2_2&#45;&gt;g_3_2 -->
<g id="edge14" class="edge">
<title>g_2_2&#45;&gt;g_3_2</title>
<path fill="none" stroke="#4a6fa5" stroke-width="1.2" d="M232.89,-863.7C237.59,-855.47 243.3,-845.48 248.47,-836.42"/>
<polygon fill="#4a6fa5" stroke="#4a6fa5" stroke-width="1.2" points="250.79,-838.02 252.32,-829.68 245.92,-835.24 250.79,-838.02"/>
</g>
<!-- g_2_3&#45;&gt;g_2_4 -->
<g id="edge17" class="edge">
<title>g_2_3&#45;&gt;g_2_4</title>
<path fill="none" stroke="#4a6fa5" stroke-width="1.2" d="M174.36,-791.7C169.78,-783.47 164.21,-773.48 159.16,-764.42"/>
<polygon fill="#4a6fa5" stroke="#4a6fa5" stroke-width="1.2" points="161.75,-763.32 155.41,-757.69 156.86,-766.04 161.75,-763.32"/>
</g>
<!-- g_3_3 -->
<g id="node21" class="node">
<title>g_3_3</title>
<path fill="#e6f2ff" stroke="#4a6fa5" d="M239,-756C239,-756 209,-756 209,-756 203,-756 197,-750 197,-744 197,-744 197,-732 197,-732 197,-726 203,-720 209,-720 209,-720 239,-720 239,-720 245,-720 251,-726 251,-732 251,-732 251,-744 251,-744 251,-750 245,-756 239,-756"/>
<text xml:space="preserve" text-anchor="middle" x="224" y="-734.5" font-family="Helvetica,sans-Serif" font-size="10.00">g_3_3</text>
</g>
<!-- g_2_3&#45;&gt;g_3_3 -->
<g id="edge16" class="edge">
<title>g_2_3&#45;&gt;g_3_3</title>
<path fill="none" stroke="#4a6fa5" stroke-width="1.2" d="M193.89,-791.7C198.59,-783.47 204.3,-773.48 209.47,-764.42"/>
<polygon fill="#4a6fa5" stroke="#4a6fa5" stroke-width="1.2" points="211.79,-766.02 213.32,-757.68 206.92,-763.24 211.79,-766.02"/>
</g>
<!-- g_2_4&#45;&gt;g_2_5 -->
<g id="edge19" class="edge">
<title>g_2_4&#45;&gt;g_2_5</title>
<path fill="none" stroke="#4a6fa5" stroke-width="1.2" d="M135.36,-719.7C130.78,-711.47 125.21,-701.48 120.16,-692.42"/>
<polygon fill="#4a6fa5" stroke="#4a6fa5" stroke-width="1.2" points="122.75,-691.32 116.41,-685.69 117.86,-694.04 122.75,-691.32"/>
</g>
<!-- g_3_4 -->
<g id="node22" class="node">
<title>g_3_4</title>
<path fill="#e6f2ff" stroke="#4a6fa5" d="M200,-684C200,-684 170,-684 170,-684 164,-684 158,-678 158,-672 158,-672 158,-660 158,-660 158,-654 164,-648 170,-648 170,-648 200,-648 200,-648 206,-648 212,-654 212,-660 212,-660 212,-672 212,-672 212,-678 206,-684 200,-684"/>
<text xml:space="preserve" text-anchor="middle" x="185" y="-662.5" font-family="Helvetica,sans-Serif" font-size="10.00">g_3_4</text>
</g>
<!-- g_2_4&#45;&gt;g_3_4 -->
<g id="edge18" class="edge">
<title>g_2_4&#45;&gt;g_3_4</title>
<path fill="none" stroke="#4a6fa5" stroke-width="1.2" d="M154.89,-719.7C159.59,-711.47 165.3,-701.48 170.47,-692.42"/>
<polygon fill="#4a6fa5" stroke="#4a6fa5" stroke-width="1.2" points="172.79,-694.02 174.32,-685.68 167.92,-691.24 172.79,-694.02"/>
</g>
<!-- g_2_5&#45;&gt;g_2_6 -->
<g id="edge21" class="edge">
<title>g_2_5&#45;&gt;g_2_6</title>
<path fill="none" stroke="#4a6fa5" stroke-width="1.2" d="M86.47,-647.7C76.6,-638.95 64.46,-628.19 53.73,-618.69"/>
<polygon fill="#4a6fa5" stroke="#4a6fa5" stroke-width="1.2" points="55.78,-616.76 47.94,-613.55 52.07,-620.95 55.78,-616.76"/>
</g>
<!-- g_3_5 -->
<g id="node23" class="node">
<title>g_3_5</title>
<path fill="#e6f2ff" stroke="#4a6fa5" d="M121,-612C121,-612 91,-612 91,-612 85,-612 79,-606 79,-600 79,-600 79,-588 79,-588 79,-582 85,-576 91,-576 91,-576 121,-576 121,-576 127,-576 133,-582 133,-588 133,-588 133,-600 133,-600 133,-606 127,-612 121,-612"/>
<text xml:space="preserve" text-anchor="middle" x="106" y="-590.5" font-family="Helvetica,sans-Serif" font-size="10.00">g_3_5</text>
</g>
<!-- g_2_5&#45;&gt;g_3_5 -->
<g id="edge20" class="edge">
<title>g_2_5&#45;&gt;g_3_5</title>
<path fill="none" stroke="#4a6fa5" stroke-width="1.2" d="M106,-647.7C106,-639.9 106,-630.51 106,-621.83"/>
<polygon fill="#4a6fa5" stroke="#4a6fa5" stroke-width="1.2" points="108.8,-621.92 106,-613.92 103.2,-621.92 108.8,-621.92"/>
</g>
<!-- g_3_6 -->
<g id="node24" class="node">
<title>g_3_6</title>
<path fill="#e6f2ff" stroke="#4a6fa5" d="M42,-540C42,-540 12,-540 12,-540 6,-540 0,-534 0,-528 0,-528 0,-516 0,-516 0,-510 6,-504 12,-504 12,-504 42,-504 42,-504 48,-504 54,-510 54,-516 54,-516 54,-528 54,-528 54,-534 48,-540 42,-540"/>
<text xml:space="preserve" text-anchor="middle" x="27" y="-518.5" font-family="Helvetica,sans-Serif" font-size="10.00">g_3_6</text>
</g>
<!-- g_2_6&#45;&gt;g_3_6 -->
<g id="edge22" class="edge">
<title>g_2_6&#45;&gt;g_3_6</title>
<path fill="none" stroke="#4a6fa5" stroke-width="1.2" d="M27,-575.7C27,-567.9 27,-558.51 27,-549.83"/>
<polygon fill="#4a6fa5" stroke="#4a6fa5" stroke-width="1.2" points="29.8,-549.92 27,-541.92 24.2,-549.92 29.8,-549.92"/>
</g>
<!-- g_3_1&#45;&gt;g_3_2 -->
<g id="edge24" class="edge">
<title>g_3_1&#45;&gt;g_3_2</title>
<path fill="none" stroke="#4a6fa5" stroke-width="1.2" d="M292.36,-863.7C287.78,-855.47 282.21,-845.48 277.16,-836.42"/>
<polygon fill="#4a6fa5" stroke="#4a6fa5" stroke-width="1.2" points="279.75,-835.32 273.41,-829.69 274.86,-838.04 279.75,-835.32"/>
</g>
<!-- g_4_1 -->
<g id="node25" class="node">
<title>g_4_1</title>
<path fill="#e6f2ff" stroke="#4a6fa5" d="M357,-828C357,-828 327,-828 327,-828 321,-828 315,-822 315,-816 315,-816 315,-804 315,-804 315,-798 321,-792 327,-792 327,-792 357,-792 357,-792 363,-792 369,-798 369,-804 369,-804 369,-816 369,-816 369,-822 363,-828 357,-828"/>
<text xml:space="preserve" text-anchor="middle" x="342" y="-806.5" font-family="Helvetica,sans-Serif" font-size="10.00">g_4_1</text>
</g>
<!-- g_3_1&#45;&gt;g_4_1 -->
<g id="edge23" class="edge">
<title>g_3_1&#45;&gt;g_4_1</title>
<path fill="none" stroke="#4a6fa5" stroke-width="1.2" d="M311.89,-863.7C316.59,-855.47 322.3,-845.48 327.47,-836.42"/>
<polygon fill="#4a6fa5" stroke="#4a6fa5" stroke-width="1.2" points="329.79,-838.02 331.32,-829.68 324.92,-835.24 329.79,-838.02"/>
</g>
<!-- g_3_2&#45;&gt;g_3_3 -->
<g id="edge26" class="edge">
<title>g_3_2&#45;&gt;g_3_3</title>
<path fill="none" stroke="#4a6fa5" stroke-width="1.2" d="M253.36,-791.7C248.78,-783.47 243.21,-773.48 238.16,-764.42"/>
<polygon fill="#4a6fa5" stroke="#4a6fa5" stroke-width="1.2" points="240.75,-763.32 234.41,-757.69 235.86,-766.04 240.75,-763.32"/>
</g>
<!-- g_4_2 -->
<g id="node26" class="node">
<title>g_4_2</title>
<path fill="#e6f2ff" stroke="#4a6fa5" d="M318,-756C318,-756 288,-756 288,-756 282,-756 276,-750 276,-744 276,-744 276,-732 276,-732 276,-726 282,-720 288,-720 288,-720 318,-720 318,-720 324,-720 330,-726 330,-732 330,-732 330,-744 330,-744 330,-750 324,-756 318,-756"/>
<text xml:space="preserve" text-anchor="middle" x="303" y="-734.5" font-family="Helvetica,sans-Serif" font-size="10.00">g_4_2</text>
</g>
<!-- g_3_2&#45;&gt;g_4_2 -->
<g id="edge25" class="edge">
<title>g_3_2&#45;&gt;g_4_2</title>
<path fill="none" stroke="#4a6fa5" stroke-width="1.2" d="M272.89,-791.7C277.59,-783.47 283.3,-773.48 288.47,-764.42"/>
<polygon fill="#4a6fa5" stroke="#4a6fa5" stroke-width="1.2" points="290.79,-766.02 292.32,-757.68 285.92,-763.24 290.79,-766.02"/>
</g>
<!-- g_3_3&#45;&gt;g_3_4 -->
<g id="edge28" class="edge">
<title>g_3_3&#45;&gt;g_3_4</title>
<path fill="none" stroke="#4a6fa5" stroke-width="1.2" d="M214.36,-719.7C209.78,-711.47 204.21,-701.48 199.16,-692.42"/>
<polygon fill="#4a6fa5" stroke="#4a6fa5" stroke-width="1.2" points="201.75,-691.32 195.41,-685.69 196.86,-694.04 201.75,-691.32"/>
</g>
<!-- g_4_3 -->
<g id="node27" class="node">
<title>g_4_3</title>
<path fill="#e6f2ff" stroke="#4a6fa5" d="M279,-684C279,-684 249,-684 249,-684 243,-684 237,-678 237,-672 237,-672 237,-660 237,-660 237,-654 243,-648 249,-648 249,-648 279,-648 279,-648 285,-648 291,-654 291,-660 291,-660 291,-672 291,-672 291,-678 285,-684 279,-684"/>
<text xml:space="preserve" text-anchor="middle" x="264" y="-662.5" font-family="Helvetica,sans-Serif" font-size="10.00">g_4_3</text>
</g>
<!-- g_3_3&#45;&gt;g_4_3 -->
<g id="edge27" class="edge">
<title>g_3_3&#45;&gt;g_4_3</title>
<path fill="none" stroke="#4a6fa5" stroke-width="1.2" d="M233.89,-719.7C238.59,-711.47 244.3,-701.48 249.47,-692.42"/>
<polygon fill="#4a6fa5" stroke="#4a6fa5" stroke-width="1.2" points="251.79,-694.02 253.32,-685.68 246.92,-691.24 251.79,-694.02"/>
</g>
<!-- g_3_4&#45;&gt;g_3_5 -->
<g id="edge30" class="edge">
<title>g_3_4&#45;&gt;g_3_5</title>
<path fill="none" stroke="#4a6fa5" stroke-width="1.2" d="M165.47,-647.7C155.6,-638.95 143.46,-628.19 132.73,-618.69"/>
<polygon fill="#4a6fa5" stroke="#4a6fa5" stroke-width="1.2" points="134.78,-616.76 126.94,-613.55 131.07,-620.95 134.78,-616.76"/>
</g>
<!-- g_4_4 -->
<g id="node28" class="node">
<title>g_4_4</title>
<path fill="#e6f2ff" stroke="#4a6fa5" d="M200,-612C200,-612 170,-612 170,-612 164,-612 158,-606 158,-600 158,-600 158,-588 158,-588 158,-582 164,-576 170,-576 170,-576 200,-576 200,-576 206,-576 212,-582 212,-588 212,-588 212,-600 212,-600 212,-606 206,-612 200,-612"/>
<text xml:space="preserve" text-anchor="middle" x="185" y="-590.5" font-family="Helvetica,sans-Serif" font-size="10.00">g_4_4</text>
</g>
<!-- g_3_4&#45;&gt;g_4_4 -->
<g id="edge29" class="edge">
<title>g_3_4&#45;&gt;g_4_4</title>
<path fill="none" stroke="#4a6fa5" stroke-width="1.2" d="M185,-647.7C185,-639.9 185,-630.51 185,-621.83"/>
<polygon fill="#4a6fa5" stroke="#4a6fa5" stroke-width="1.2" points="187.8,-621.92 185,-613.92 182.2,-621.92 187.8,-621.92"/>
</g>
<!-- g_3_5&#45;&gt;g_3_6 -->
<g id="edge32" class="edge">
<title>g_3_5&#45;&gt;g_3_6</title>
<path fill="none" stroke="#4a6fa5" stroke-width="1.2" d="M86.47,-575.7C76.6,-566.95 64.46,-556.19 53.73,-546.69"/>
<polygon fill="#4a6fa5" stroke="#4a6fa5" stroke-width="1.2" points="55.78,-544.76 47.94,-541.55 52.07,-548.95 55.78,-544.76"/>
</g>
<!-- g_4_5 -->
<g id="node29" class="node">
<title>g_4_5</title>
<path fill="#e6f2ff" stroke="#4a6fa5" d="M121,-540C121,-540 91,-540 91,-540 85,-540 79,-534 79,-528 79,-528 79,-516 79,-516 79,-510 85,-504 91,-504 91,-504 121,-504 121,-504 127,-504 133,-510 133,-516 133,-516 133,-528 133,-528 133,-534 127,-540 121,-540"/>
<text xml:space="preserve" text-anchor="middle" x="106" y="-518.5" font-family="Helvetica,sans-Serif" font-size="10.00">g_4_5</text>
</g>
<!-- g_3_5&#45;&gt;g_4_5 -->
<g id="edge31" class="edge">
<title>g_3_5&#45;&gt;g_4_5</title>
<path fill="none" stroke="#4a6fa5" stroke-width="1.2" d="M106,-575.7C106,-567.9 106,-558.51 106,-549.83"/>
<polygon fill="#4a6fa5" stroke="#4a6fa5" stroke-width="1.2" points="108.8,-549.92 106,-541.92 103.2,-549.92 108.8,-549.92"/>
</g>
<!-- g_4_6 -->
<g id="node30" class="node">
<title>g_4_6</title>
<path fill="#e6f2ff" stroke="#4a6fa5" d="M42,-468C42,-468 12,-468 12,-468 6,-468 0,-462 0,-456 0,-456 0,-444 0,-444 0,-438 6,-432 12,-432 12,-432 42,-432 42,-432 48,-432 54,-438 54,-444 54,-444 54,-456 54,-456 54,-462 48,-468 42,-468"/>
<text xml:space="preserve" text-anchor="middle" x="27" y="-446.5" font-family="Helvetica,sans-Serif" font-size="10.00">g_4_6</text>
</g>
<!-- g_3_6&#45;&gt;g_4_6 -->
<g id="edge33" class="edge">
<title>g_3_6&#45;&gt;g_4_6</title>
<path fill="none" stroke="#4a6fa5" stroke-width="1.2" d="M27,-503.7C27,-495.9 27,-486.51 27,-477.83"/>
<polygon fill="#4a6fa5" stroke="#4a6fa5" stroke-width="1.2" points="29.8,-477.92 27,-469.92 24.2,-477.92 29.8,-477.92"/>
</g>
<!-- g_4_1&#45;&gt;g_4_2 -->
<g id="edge35" class="edge">
<title>g_4_1&#45;&gt;g_4_2</title>
<path fill="none" stroke="#4a6fa5" stroke-width="1.2" d="M332.36,-791.7C327.78,-783.47 322.21,-773.48 317.16,-764.42"/>
<polygon fill="#4a6fa5" stroke="#4a6fa5" stroke-width="1.2" points="319.75,-763.32 313.41,-757.69 314.86,-766.04 319.75,-763.32"/>
</g>
<!-- g_5_1 -->
<g id="node31" class="node">
<title>g_5_1</title>
<path fill="#e6f2ff" stroke="#4a6fa5" d="M397,-756C397,-756 367,-756 367,-756 361,-756 355,-750 355,-744 355,-744 355,-732 355,-732 355,-726 361,-720 367,-720 367,-720 397,-720 397,-720 403,-720 409,-726 409,-732 409,-732 409,-744 409,-744 409,-750 403,-756 397,-756"/>
<text xml:space="preserve" text-anchor="middle" x="382" y="-734.5" font-family="Helvetica,sans-Serif" font-size="10.00">g_5_1</text>
</g>
<!-- g_4_1&#45;&gt;g_5_1 -->
<g id="edge34" class="edge">
<title>g_4_1&#45;&gt;g_5_1</title>
<path fill="none" stroke="#4a6fa5" stroke-width="1.2" d="M351.89,-791.7C356.59,-783.47 362.3,-773.48 367.47,-764.42"/>
<polygon fill="#4a6fa5" stroke="#4a6fa5" stroke-width="1.2" points="369.79,-766.02 371.32,-757.68 364.92,-763.24 369.79,-766.02"/>
</g>
<!-- g_4_2&#45;&gt;g_4_3 -->
<g id="edge37" class="edge">
<title>g_4_2&#45;&gt;g_4_3</title>
<path fill="none" stroke="#4a6fa5" stroke-width="1.2" d="M293.36,-719.7C288.78,-711.47 283.21,-701.48 278.16,-692.42"/>
<polygon fill="#4a6fa5" stroke="#4a6fa5" stroke-width="1.2" points="280.75,-691.32 274.41,-685.69 275.86,-694.04 280.75,-691.32"/>
</g>
<!-- g_5_2 -->
<g id="node32" class="node">
<title>g_5_2</title>
<path fill="#e6f2ff" stroke="#4a6fa5" d="M358,-684C358,-684 328,-684 328,-684 322,-684 316,-678 316,-672 316,-672 316,-660 316,-660 316,-654 322,-648 328,-648 328,-648 358,-648 358,-648 364,-648 370,-654 370,-660 370,-660 370,-672 370,-672 370,-678 364,-684 358,-684"/>
<text xml:space="preserve" text-anchor="middle" x="343" y="-662.5" font-family="Helvetica,sans-Serif" font-size="10.00">g_5_2</text>
</g>
<!-- g_4_2&#45;&gt;g_5_2 -->
<g id="edge36" class="edge">
<title>g_4_2&#45;&gt;g_5_2</title>
<path fill="none" stroke="#4a6fa5" stroke-width="1.2" d="M312.89,-719.7C317.59,-711.47 323.3,-701.48 328.47,-692.42"/>
<polygon fill="#4a6fa5" stroke="#4a6fa5" stroke-width="1.2" points="330.79,-694.02 332.32,-685.68 325.92,-691.24 330.79,-694.02"/>
</g>
<!-- g_4_3&#45;&gt;g_4_4 -->
<g id="edge39" class="edge">
<title>g_4_3&#45;&gt;g_4_4</title>
<path fill="none" stroke="#4a6fa5" stroke-width="1.2" d="M244.47,-647.7C234.6,-638.95 222.46,-628.19 211.73,-618.69"/>
<polygon fill="#4a6fa5" stroke="#4a6fa5" stroke-width="1.2" points="213.78,-616.76 205.94,-613.55 210.07,-620.95 213.78,-616.76"/>
</g>
<!-- g_5_3 -->
<g id="node33" class="node">
<title>g_5_3</title>
<path fill="#e6f2ff" stroke="#4a6fa5" d="M279,-612C279,-612 249,-612 249,-612 243,-612 237,-606 237,-600 237,-600 237,-588 237,-588 237,-582 243,-576 249,-576 249,-576 279,-576 279,-576 285,-576 291,-582 291,-588 291,-588 291,-600 291,-600 291,-606 285,-612 279,-612"/>
<text xml:space="preserve" text-anchor="middle" x="264" y="-590.5" font-family="Helvetica,sans-Serif" font-size="10.00">g_5_3</text>
</g>
<!-- g_4_3&#45;&gt;g_5_3 -->
<g id="edge38" class="edge">
<title>g_4_3&#45;&gt;g_5_3</title>
<path fill="none" stroke="#4a6fa5" stroke-width="1.2" d="M264,-647.7C264,-639.9 264,-630.51 264,-621.83"/>
<polygon fill="#4a6fa5" stroke="#4a6fa5" stroke-width="1.2" points="266.8,-621.92 264,-613.92 261.2,-621.92 266.8,-621.92"/>
</g>
<!-- g_4_4&#45;&gt;g_4_5 -->
<g id="edge41" class="edge">
<title>g_4_4&#45;&gt;g_4_5</title>
<path fill="none" stroke="#4a6fa5" stroke-width="1.2" d="M165.47,-575.7C155.6,-566.95 143.46,-556.19 132.73,-546.69"/>
<polygon fill="#4a6fa5" stroke="#4a6fa5" stroke-width="1.2" points="134.78,-544.76 126.94,-541.55 131.07,-548.95 134.78,-544.76"/>
</g>
<!-- g_5_4 -->
<g id="node34" class="node">
<title>g_5_4</title>
<path fill="#e6f2ff" stroke="#4a6fa5" d="M200,-540C200,-540 170,-540 170,-540 164,-540 158,-534 158,-528 158,-528 158,-516 158,-516 158,-510 164,-504 170,-504 170,-504 200,-504 200,-504 206,-504 212,-510 212,-516 212,-516 212,-528 212,-528 212,-534 206,-540 200,-540"/>
<text xml:space="preserve" text-anchor="middle" x="185" y="-518.5" font-family="Helvetica,sans-Serif" font-size="10.00">g_5_4</text>
</g>
<!-- g_4_4&#45;&gt;g_5_4 -->
<g id="edge40" class="edge">
<title>g_4_4&#45;&gt;g_5_4</title>
<path fill="none" stroke="#4a6fa5" stroke-width="1.2" d="M185,-575.7C185,-567.9 185,-558.51 185,-549.83"/>
<polygon fill="#4a6fa5" stroke="#4a6fa5" stroke-width="1.2" points="187.8,-549.92 185,-541.92 182.2,-549.92 187.8,-549.92"/>
</g>
<!-- g_4_5&#45;&gt;g_4_6 -->
<g id="edge43" class="edge">
<title>g_4_5&#45;&gt;g_4_6</title>
<path fill="none" stroke="#4a6fa5" stroke-width="1.2" d="M86.47,-503.7C76.6,-494.95 64.46,-484.19 53.73,-474.69"/>
<polygon fill="#4a6fa5" stroke="#4a6fa5" stroke-width="1.2" points="55.78,-472.76 47.94,-469.55 52.07,-476.95 55.78,-472.76"/>
</g>
<!-- g_5_5 -->
<g id="node35" class="node">
<title>g_5_5</title>
<path fill="#e6f2ff" stroke="#4a6fa5" d="M121,-468C121,-468 91,-468 91,-468 85,-468 79,-462 79,-456 79,-456 79,-444 79,-444 79,-438 85,-432 91,-432 91,-432 121,-432 121,-432 127,-432 133,-438 133,-444 133,-444 133,-456 133,-456 133,-462 127,-468 121,-468"/>
<text xml:space="preserve" text-anchor="middle" x="106" y="-446.5" font-family="Helvetica,sans-Serif" font-size="10.00">g_5_5</text>
</g>
<!-- g_4_5&#45;&gt;g_5_5 -->
<g id="edge42" class="edge">
<title>g_4_5&#45;&gt;g_5_5</title>
<path fill="none" stroke="#4a6fa5" stroke-width="1.2" d="M106,-503.7C106,-495.9 106,-486.51 106,-477.83"/>
<polygon fill="#4a6fa5" stroke="#4a6fa5" stroke-width="1.2" points="108.8,-477.92 106,-469.92 103.2,-477.92 108.8,-477.92"/>
</g>
<!-- g_5_6 -->
<g id="node36" class="node">
<title>g_5_6</title>
<path fill="#e6f2ff" stroke="#4a6fa5" d="M42,-396C42,-396 12,-396 12,-396 6,-396 0,-390 0,-384 0,-384 0,-372 0,-372 0,-366 6,-360 12,-360 12,-360 42,-360 42,-360 48,-360 54,-366 54,-372 54,-372 54,-384 54,-384 54,-390 48,-396 42,-396"/>
<text xml:space="preserve" text-anchor="middle" x="27" y="-374.5" font-family="Helvetica,sans-Serif" font-size="10.00">g_5_6</text>
</g>
<!-- g_4_6&#45;&gt;g_5_6 -->
<g id="edge44" class="edge">
<title>g_4_6&#45;&gt;g_5_6</title>
<path fill="none" stroke="#4a6fa5" stroke-width="1.2" d="M27,-431.7C27,-423.9 27,-414.51 27,-405.83"/>
<polygon fill="#4a6fa5" stroke="#4a6fa5" stroke-width="1.2" points="29.8,-405.92 27,-397.92 24.2,-405.92 29.8,-405.92"/>
</g>
<!-- g_5_1&#45;&gt;g_5_2 -->
<g id="edge46" class="edge">
<title>g_5_1&#45;&gt;g_5_2</title>
<path fill="none" stroke="#4a6fa5" stroke-width="1.2" d="M372.36,-719.7C367.78,-711.47 362.21,-701.48 357.16,-692.42"/>
<polygon fill="#4a6fa5" stroke="#4a6fa5" stroke-width="1.2" points="359.75,-691.32 353.41,-685.69 354.86,-694.04 359.75,-691.32"/>
</g>
<!-- g_6_1 -->
<g id="node37" class="node">
<title>g_6_1</title>
<path fill="#e6f2ff" stroke="#4a6fa5" d="M437,-684C437,-684 407,-684 407,-684 401,-684 395,-678 395,-672 395,-672 395,-660 395,-660 395,-654 401,-648 407,-648 407,-648 437,-648 437,-648 443,-648 449,-654 449,-660 449,-660 449,-672 449,-672 449,-678 443,-684 437,-684"/>
<text xml:space="preserve" text-anchor="middle" x="422" y="-662.5" font-family="Helvetica,sans-Serif" font-size="10.00">g_6_1</text>
</g>
<!-- g_5_1&#45;&gt;g_6_1 -->
<g id="edge45" class="edge">
<title>g_5_1&#45;&gt;g_6_1</title>
<path fill="none" stroke="#4a6fa5" stroke-width="1.2" d="M391.89,-719.7C396.59,-711.47 402.3,-701.48 407.47,-692.42"/>
<polygon fill="#4a6fa5" stroke="#4a6fa5" stroke-width="1.2" points="409.79,-694.02 411.32,-685.68 404.92,-691.24 409.79,-694.02"/>
</g>
<!-- g_5_2&#45;&gt;g_5_3 -->
<g id="edge48" class="edge">
<title>g_5_2&#45;&gt;g_5_3</title>
<path fill="none" stroke="#4a6fa5" stroke-width="1.2" d="M323.47,-647.7C313.6,-638.95 301.46,-628.19 290.73,-618.69"/>
<polygon fill="#4a6fa5" stroke="#4a6fa5" stroke-width="1.2" points="292.78,-616.76 284.94,-613.55 289.07,-620.95 292.78,-616.76"/>
</g>
<!-- g_6_2 -->
<g id="node38" class="node">
<title>g_6_2</title>
<path fill="#e6f2ff" stroke="#4a6fa5" d="M358,-612C358,-612 328,-612 328,-612 322,-612 316,-606 316,-600 316,-600 316,-588 316,-588 316,-582 322,-576 328,-576 328,-576 358,-576 358,-576 364,-576 370,-582 370,-588 370,-588 370,-600 370,-600 370,-606 364,-612 358,-612"/>
<text xml:space="preserve" text-anchor="middle" x="343" y="-590.5" font-family="Helvetica,sans-Serif" font-size="10.00">g_6_2</text>
</g>
<!-- g_5_2&#45;&gt;g_6_2 -->
<g id="edge47" class="edge">
<title>g_5_2&#45;&gt;g_6_2</title>
<path fill="none" stroke="#4a6fa5" stroke-width="1.2" d="M343,-647.7C343,-639.9 343,-630.51 343,-621.83"/>
<polygon fill="#4a6fa5" stroke="#4a6fa5" stroke-width="1.2" points="345.8,-621.92 343,-613.92 340.2,-621.92 345.8,-621.92"/>
</g>
<!-- g_5_3&#45;&gt;g_5_4 -->
<g id="edge50" class="edge">
<title>g_5_3&#45;&gt;g_5_4</title>
<path fill="none" stroke="#4a6fa5" stroke-width="1.2" d="M244.47,-575.7C234.6,-566.95 222.46,-556.19 211.73,-546.69"/>
<polygon fill="#4a6fa5" stroke="#4a6fa5" stroke-width="1.2" points="213.78,-544.76 205.94,-541.55 210.07,-548.95 213.78,-544.76"/>
</g>
<!-- g_6_3 -->
<g id="node39" class="node">
<title>g_6_3</title>
<path fill="#e6f2ff" stroke="#4a6fa5" d="M279,-540C279,-540 249,-540 249,-540 243,-540 237,-534 237,-528 237,-528 237,-516 237,-516 237,-510 243,-504 249,-504 249,-504 279,-504 279,-504 285,-504 291,-510 291,-516 291,-516 291,-528 291,-528 291,-534 285,-540 279,-540"/>
<text xml:space="preserve" text-anchor="middle" x="264" y="-518.5" font-family="Helvetica,sans-Serif" font-size="10.00">g_6_3</text>
</g>
<!-- g_5_3&#45;&gt;g_6_3 -->
<g id="edge49" class="edge">
<title>g_5_3&#45;&gt;g_6_3</title>
<path fill="none" stroke="#4a6fa5" stroke-width="1.2" d="M264,-575.7C264,-567.9 264,-558.51 264,-549.83"/>
<polygon fill="#4a6fa5" stroke="#4a6fa5" stroke-width="1.2" points="266.8,-549.92 264,-541.92 261.2,-549.92 266.8,-549.92"/>
</g>
<!-- g_5_4&#45;&gt;g_5_5 -->
<g id="edge52" class="edge">
<title>g_5_4&#45;&gt;g_5_5</title>
<path fill="none" stroke="#4a6fa5" stroke-width="1.2" d="M165.47,-503.7C155.6,-494.95 143.46,-484.19 132.73,-474.69"/>
<polygon fill="#4a6fa5" stroke="#4a6fa5" stroke-width="1.2" points="134.78,-472.76 126.94,-469.55 131.07,-476.95 134.78,-472.76"/>
</g>
<!-- g_6_4 -->
<g id="node40" class="node">
<title>g_6_4</title>
<path fill="#e6f2ff" stroke="#4a6fa5" d="M200,-468C200,-468 170,-468 170,-468 164,-468 158,-462 158,-456 158,-456 158,-444 158,-444 158,-438 164,-432 170,-432 170,-432 200,-432 200,-432 206,-432 212,-438 212,-444 212,-444 212,-456 212,-456 212,-462 206,-468 200,-468"/>
<text xml:space="preserve" text-anchor="middle" x="185" y="-446.5" font-family="Helvetica,sans-Serif" font-size="10.00">g_6_4</text>
</g>
<!-- g_5_4&#45;&gt;g_6_4 -->
<g id="edge51" class="edge">
<title>g_5_4&#45;&gt;g_6_4</title>
<path fill="none" stroke="#4a6fa5" stroke-width="1.2" d="M185,-503.7C185,-495.9 185,-486.51 185,-477.83"/>
<polygon fill="#4a6fa5" stroke="#4a6fa5" stroke-width="1.2" points="187.8,-477.92 185,-469.92 182.2,-477.92 187.8,-477.92"/>
</g>
<!-- g_5_5&#45;&gt;g_5_6 -->
<g id="edge54" class="edge">
<title>g_5_5&#45;&gt;g_5_6</title>
<path fill="none" stroke="#4a6fa5" stroke-width="1.2" d="M86.47,-431.7C76.6,-422.95 64.46,-412.19 53.73,-402.69"/>
<polygon fill="#4a6fa5" stroke="#4a6fa5" stroke-width="1.2" points="55.78,-400.76 47.94,-397.55 52.07,-404.95 55.78,-400.76"/>
</g>
<!-- g_6_5 -->
<g id="node41" class="node">
<title>g_6_5</title>
<path fill="#e6f2ff" stroke="#4a6fa5" d="M121,-396C121,-396 91,-396 91,-396 85,-396 79,-390 79,-384 79,-384 79,-372 79,-372 79,-366 85,-360 91,-360 91,-360 121,-360 121,-360 127,-360 133,-366 133,-372 133,-372 133,-384 133,-384 133,-390 127,-396 121,-396"/>
<text xml:space="preserve" text-anchor="middle" x="106" y="-374.5" font-family="Helvetica,sans-Serif" font-size="10.00">g_6_5</text>
</g>
<!-- g_5_5&#45;&gt;g_6_5 -->
<g id="edge53" class="edge">
<title>g_5_5&#45;&gt;g_6_5</title>
<path fill="none" stroke="#4a6fa5" stroke-width="1.2" d="M106,-431.7C106,-423.9 106,-414.51 106,-405.83"/>
<polygon fill="#4a6fa5" stroke="#4a6fa5" stroke-width="1.2" points="108.8,-405.92 106,-397.92 103.2,-405.92 108.8,-405.92"/>
</g>
<!-- g_6_6 -->
<g id="node42" class="node">
<title>g_6_6</title>
<path fill="#e6f2ff" stroke="#4a6fa5" d="M81,-324C81,-324 51,-324 51,-324 45,-324 39,-318 39,-312 39,-312 39,-300 39,-300 39,-294 45,-288 51,-288 51,-288 81,-288 81,-288 87,-288 93,-294 93,-300 93,-300 93,-312 93,-312 93,-318 87,-324 81,-324"/>
<text xml:space="preserve" text-anchor="middle" x="66" y="-302.5" font-family="Helvetica,sans-Serif" font-size="10.00">g_6_6</text>
</g>
<!-- g_5_6&#45;&gt;g_6_6 -->
<g id="edge55" class="edge">
<title>g_5_6&#45;&gt;g_6_6</title>
<path fill="none" stroke="#4a6fa5" stroke-width="1.2" d="M36.64,-359.7C41.22,-351.47 46.79,-341.48 51.84,-332.42"/>
<polygon fill="#4a6fa5" stroke="#4a6fa5" stroke-width="1.2" points="54.14,-334.04 55.59,-325.69 49.25,-331.32 54.14,-334.04"/>
</g>
<!-- g_6_1&#45;&gt;g_6_2 -->
<g id="edge57" class="edge">
<title>g_6_1&#45;&gt;g_6_2</title>
<path fill="none" stroke="#4a6fa5" stroke-width="1.2" d="M402.47,-647.7C392.6,-638.95 380.46,-628.19 369.73,-618.69"/>
<polygon fill="#4a6fa5" stroke="#4a6fa5" stroke-width="1.2" points="371.78,-616.76 363.94,-613.55 368.07,-620.95 371.78,-616.76"/>
</g>
<!-- g_7_1 -->
<g id="node43" class="node">
<title>g_7_1</title>
<path fill="#e6f2ff" stroke="#4a6fa5" d="M437,-612C437,-612 407,-612 407,-612 401,-612 395,-606 395,-600 395,-600 395,-588 395,-588 395,-582 401,-576 407,-576 407,-576 437,-576 437,-576 443,-576 449,-582 449,-588 449,-588 449,-600 449,-600 449,-606 443,-612 437,-612"/>
<text xml:space="preserve" text-anchor="middle" x="422" y="-590.5" font-family="Helvetica,sans-Serif" font-size="10.00">g_7_1</text>
</g>
<!-- g_6_1&#45;&gt;g_7_1 -->
<g id="edge56" class="edge">
<title>g_6_1&#45;&gt;g_7_1</title>
<path fill="none" stroke="#4a6fa5" stroke-width="1.2" d="M422,-647.7C422,-639.9 422,-630.51 422,-621.83"/>
<polygon fill="#4a6fa5" stroke="#4a6fa5" stroke-width="1.2" points="424.8,-621.92 422,-613.92 419.2,-621.92 424.8,-621.92"/>
</g>
<!-- g_6_2&#45;&gt;g_6_3 -->
<g id="edge59" class="edge">
<title>g_6_2&#45;&gt;g_6_3</title>
<path fill="none" stroke="#4a6fa5" stroke-width="1.2" d="M323.47,-575.7C313.6,-566.95 301.46,-556.19 290.73,-546.69"/>
<polygon fill="#4a6fa5" stroke="#4a6fa5" stroke-width="1.2" points="292.78,-544.76 284.94,-541.55 289.07,-548.95 292.78,-544.76"/>
</g>
<!-- g_7_2 -->
<g id="node44" class="node">
<title>g_7_2</title>
<path fill="#e6f2ff" stroke="#4a6fa5" d="M358,-540C358,-540 328,-540 328,-540 322,-540 316,-534 316,-528 316,-528 316,-516 316,-516 316,-510 322,-504 328,-504 328,-504 358,-504 358,-504 364,-504 370,-510 370,-516 370,-516 370,-528 370,-528 370,-534 364,-540 358,-540"/>
<text xml:space="preserve" text-anchor="middle" x="343" y="-518.5" font-family="Helvetica,sans-Serif" font-size="10.00">g_7_2</text>
</g>
<!-- g_6_2&#45;&gt;g_7_2 -->
<g id="edge58" class="edge">
<title>g_6_2&#45;&gt;g_7_2</title>
<path fill="none" stroke="#4a6fa5" stroke-width="1.2" d="M343,-575.7C343,-567.9 343,-558.51 343,-549.83"/>
<polygon fill="#4a6fa5" stroke="#4a6fa5" stroke-width="1.2" points="345.8,-549.92 343,-541.92 340.2,-549.92 345.8,-549.92"/>
</g>
<!-- g_6_3&#45;&gt;g_6_4 -->
<g id="edge61" class="edge">
<title>g_6_3&#45;&gt;g_6_4</title>
<path fill="none" stroke="#4a6fa5" stroke-width="1.2" d="M244.47,-503.7C234.6,-494.95 222.46,-484.19 211.73,-474.69"/>
<polygon fill="#4a6fa5" stroke="#4a6fa5" stroke-width="1.2" points="213.78,-472.76 205.94,-469.55 210.07,-476.95 213.78,-472.76"/>
</g>
<!-- g_7_3 -->
<g id="node45" class="node">
<title>g_7_3</title>
<path fill="#e6f2ff" stroke="#4a6fa5" d="M279,-468C279,-468 249,-468 249,-468 243,-468 237,-462 237,-456 237,-456 237,-444 237,-444 237,-438 243,-432 249,-432 249,-432 279,-432 279,-432 285,-432 291,-438 291,-444 291,-444 291,-456 291,-456 291,-462 285,-468 279,-468"/>
<text xml:space="preserve" text-anchor="middle" x="264" y="-446.5" font-family="Helvetica,sans-Serif" font-size="10.00">g_7_3</text>
</g>
<!-- g_6_3&#45;&gt;g_7_3 -->
<g id="edge60" class="edge">
<title>g_6_3&#45;&gt;g_7_3</title>
<path fill="none" stroke="#4a6fa5" stroke-width="1.2" d="M264,-503.7C264,-495.9 264,-486.51 264,-477.83"/>
<polygon fill="#4a6fa5" stroke="#4a6fa5" stroke-width="1.2" points="266.8,-477.92 264,-469.92 261.2,-477.92 266.8,-477.92"/>
</g>
<!-- g_6_4&#45;&gt;g_6_5 -->
<g id="edge63" class="edge">
<title>g_6_4&#45;&gt;g_6_5</title>
<path fill="none" stroke="#4a6fa5" stroke-width="1.2" d="M165.47,-431.7C155.6,-422.95 143.46,-412.19 132.73,-402.69"/>
<polygon fill="#4a6fa5" stroke="#4a6fa5" stroke-width="1.2" points="134.78,-400.76 126.94,-397.55 131.07,-404.95 134.78,-400.76"/>
</g>
<!-- g_7_4 -->
<g id="node46" class="node">
<title>g_7_4</title>
<path fill="#e6f2ff" stroke="#4a6fa5" d="M200,-396C200,-396 170,-396 170,-396 164,-396 158,-390 158,-384 158,-384 158,-372 158,-372 158,-366 164,-360 170,-360 170,-360 200,-360 200,-360 206,-360 212,-366 212,-372 212,-372 212,-384 212,-384 212,-390 206,-396 200,-396"/>
<text xml:space="preserve" text-anchor="middle" x="185" y="-374.5" font-family="Helvetica,sans-Serif" font-size="10.00">g_7_4</text>
</g>
<!-- g_6_4&#45;&gt;g_7_4 -->
<g id="edge62" class="edge">
<title>g_6_4&#45;&gt;g_7_4</title>
<path fill="none" stroke="#4a6fa5" stroke-width="1.2" d="M185,-431.7C185,-423.9 185,-414.51 185,-405.83"/>
<polygon fill="#4a6fa5" stroke="#4a6fa5" stroke-width="1.2" points="187.8,-405.92 185,-397.92 182.2,-405.92 187.8,-405.92"/>
</g>
<!-- g_6_5&#45;&gt;g_6_6 -->
<g id="edge65" class="edge">
<title>g_6_5&#45;&gt;g_6_6</title>
<path fill="none" stroke="#4a6fa5" stroke-width="1.2" d="M96.11,-359.7C91.41,-351.47 85.7,-341.48 80.53,-332.42"/>
<polygon fill="#4a6fa5" stroke="#4a6fa5" stroke-width="1.2" points="83.08,-331.24 76.68,-325.68 78.21,-334.02 83.08,-331.24"/>
</g>
<!-- g_7_5 -->
<g id="node47" class="node">
<title>g_7_5</title>
<path fill="#e6f2ff" stroke="#4a6fa5" d="M160,-324C160,-324 130,-324 130,-324 124,-324 118,-318 118,-312 118,-312 118,-300 118,-300 118,-294 124,-288 130,-288 130,-288 160,-288 160,-288 166,-288 172,-294 172,-300 172,-300 172,-312 172,-312 172,-318 166,-324 160,-324"/>
<text xml:space="preserve" text-anchor="middle" x="145" y="-302.5" font-family="Helvetica,sans-Serif" font-size="10.00">g_7_5</text>
</g>
<!-- g_6_5&#45;&gt;g_7_5 -->
<g id="edge64" class="edge">
<title>g_6_5&#45;&gt;g_7_5</title>
<path fill="none" stroke="#4a6fa5" stroke-width="1.2" d="M115.64,-359.7C120.22,-351.47 125.79,-341.48 130.84,-332.42"/>
<polygon fill="#4a6fa5" stroke="#4a6fa5" stroke-width="1.2" points="133.14,-334.04 134.59,-325.69 128.25,-331.32 133.14,-334.04"/>
</g>
<!-- g_7_6 -->
<g id="node48" class="node">
<title>g_7_6</title>
<path fill="#e6f2ff" stroke="#4a6fa5" d="M120,-252C120,-252 90,-252 90,-252 84,-252 78,-246 78,-240 78,-240 78,-228 78,-228 78,-222 84,-216 90,-216 90,-216 120,-216 120,-216 126,-216 132,-222 132,-228 132,-228 132,-240 132,-240 132,-246 126,-252 120,-252"/>
<text xml:space="preserve" text-anchor="middle" x="105" y="-230.5" font-family="Helvetica,sans-Serif" font-size="10.00">g_7_6</text>
</g>
<!-- g_6_6&#45;&gt;g_7_6 -->
<g id="edge66" class="edge">
<title>g_6_6&#45;&gt;g_7_6</title>
<path fill="none" stroke="#4a6fa5" stroke-width="1.2" d="M75.64,-287.7C80.22,-279.47 85.79,-269.48 90.84,-260.42"/>
<polygon fill="#4a6fa5" stroke="#4a6fa5" stroke-width="1.2" points="93.14,-262.04 94.59,-253.69 88.25,-259.32 93.14,-262.04"/>
</g>
<!-- g_7_1&#45;&gt;g_7_2 -->
<g id="edge68" class="edge">
<title>g_7_1&#45;&gt;g_7_2</title>
<path fill="none" stroke="#4a6fa5" stroke-width="1.2" d="M402.47,-575.7C392.6,-566.95 380.46,-556.19 369.73,-546.69"/>
<polygon fill="#4a6fa5" stroke="#4a6fa5" stroke-width="1.2" points="371.78,-544.76 363.94,-541.55 368.07,-548.95 371.78,-544.76"/>
</g>
<!-- g_8_1 -->
<g id="node49" class="node">
<title>g_8_1</title>
<path fill="#e6f2ff" stroke="#4a6fa5" d="M437,-540C437,-540 407,-540 407,-540 401,-540 395,-534 395,-528 395,-528 395,-516 395,-516 395,-510 401,-504 407,-504 407,-504 437,-504 437,-504 443,-504 449,-510 449,-516 449,-516 449,-528 449,-528 449,-534 443,-540 437,-540"/>
<text xml:space="preserve" text-anchor="middle" x="422" y="-518.5" font-family="Helvetica,sans-Serif" font-size="10.00">g_8_1</text>
</g>
<!-- g_7_1&#45;&gt;g_8_1 -->
<g id="edge67" class="edge">
<title>g_7_1&#45;&gt;g_8_1</title>
<path fill="none" stroke="#4a6fa5" stroke-width="1.2" d="M422,-575.7C422,-567.9 422,-558.51 422,-549.83"/>
<polygon fill="#4a6fa5" stroke="#4a6fa5" stroke-width="1.2" points="424.8,-549.92 422,-541.92 419.2,-549.92 424.8,-549.92"/>
</g>
<!-- g_7_2&#45;&gt;g_7_3 -->
<g id="edge70" class="edge">
<title>g_7_2&#45;&gt;g_7_3</title>
<path fill="none" stroke="#4a6fa5" stroke-width="1.2" d="M323.47,-503.7C313.6,-494.95 301.46,-484.19 290.73,-474.69"/>
<polygon fill="#4a6fa5" stroke="#4a6fa5" stroke-width="1.2" points="292.78,-472.76 284.94,-469.55 289.07,-476.95 292.78,-472.76"/>
</g>
<!-- g_8_2 -->
<g id="node50" class="node">
<title>g_8_2</title>
<path fill="#e6f2ff" stroke="#4a6fa5" d="M358,-468C358,-468 328,-468 328,-468 322,-468 316,-462 316,-456 316,-456 316,-444 316,-444 316,-438 322,-432 328,-432 328,-432 358,-432 358,-432 364,-432 370,-438 370,-444 370,-444 370,-456 370,-456 370,-462 364,-468 358,-468"/>
<text xml:space="preserve" text-anchor="middle" x="343" y="-446.5" font-family="Helvetica,sans-Serif" font-size="10.00">g_8_2</text>
</g>
<!-- g_7_2&#45;&gt;g_8_2 -->
<g id="edge69" class="edge">
<title>g_7_2&#45;&gt;g_8_2</title>
<path fill="none" stroke="#4a6fa5" stroke-width="1.2" d="M343,-503.7C343,-495.9 343,-486.51 343,-477.83"/>
<polygon fill="#4a6fa5" stroke="#4a6fa5" stroke-width="1.2" points="345.8,-477.92 343,-469.92 340.2,-477.92 345.8,-477.92"/>
</g>
<!-- g_7_3&#45;&gt;g_7_4 -->
<g id="edge72" class="edge">
<title>g_7_3&#45;&gt;g_7_4</title>
<path fill="none" stroke="#4a6fa5" stroke-width="1.2" d="M244.47,-431.7C234.6,-422.95 222.46,-412.19 211.73,-402.69"/>
<polygon fill="#4a6fa5" stroke="#4a6fa5" stroke-width="1.2" points="213.78,-400.76 205.94,-397.55 210.07,-404.95 213.78,-400.76"/>
</g>
<!-- g_8_3 -->
<g id="node51" class="node">
<title>g_8_3</title>
<path fill="#e6f2ff" stroke="#4a6fa5" d="M279,-396C279,-396 249,-396 249,-396 243,-396 237,-390 237,-384 237,-384 237,-372 237,-372 237,-366 243,-360 249,-360 249,-360 279,-360 279,-360 285,-360 291,-366 291,-372 291,-372 291,-384 291,-384 291,-390 285,-396 279,-396"/>
<text xml:space="preserve" text-anchor="middle" x="264" y="-374.5" font-family="Helvetica,sans-Serif" font-size="10.00">g_8_3</text>
</g>
<!-- g_7_3&#45;&gt;g_8_3 -->
<g id="edge71" class="edge">
<title>g_7_3&#45;&gt;g_8_3</title>
<path fill="none" stroke="#4a6fa5" stroke-width="1.2" d="M264,-431.7C264,-423.9 264,-414.51 264,-405.83"/>
<polygon fill="#4a6fa5" stroke="#4a6fa5" stroke-width="1.2" points="266.8,-405.92 264,-397.92 261.2,-405.92 266.8,-405.92"/>
</g>
<!-- g_7_4&#45;&gt;g_7_5 -->
<g id="edge74" class="edge">
<title>g_7_4&#45;&gt;g_7_5</title>
<path fill="none" stroke="#4a6fa5" stroke-width="1.2" d="M175.11,-359.7C170.41,-351.47 164.7,-341.48 159.53,-332.42"/>
<polygon fill="#4a6fa5" stroke="#4a6fa5" stroke-width="1.2" points="162.08,-331.24 155.68,-325.68 157.21,-334.02 162.08,-331.24"/>
</g>
<!-- g_8_4 -->
<g id="node52" class="node">
<title>g_8_4</title>
<path fill="#e6f2ff" stroke="#4a6fa5" d="M239,-324C239,-324 209,-324 209,-324 203,-324 197,-318 197,-312 197,-312 197,-300 197,-300 197,-294 203,-288 209,-288 209,-288 239,-288 239,-288 245,-288 251,-294 251,-300 251,-300 251,-312 251,-312 251,-318 245,-324 239,-324"/>
<text xml:space="preserve" text-anchor="middle" x="224" y="-302.5" font-family="Helvetica,sans-Serif" font-size="10.00">g_8_4</text>
</g>
<!-- g_7_4&#45;&gt;g_8_4 -->
<g id="edge73" class="edge">
<title>g_7_4&#45;&gt;g_8_4</title>
<path fill="none" stroke="#4a6fa5" stroke-width="1.2" d="M194.64,-359.7C199.22,-351.47 204.79,-341.48 209.84,-332.42"/>
<polygon fill="#4a6fa5" stroke="#4a6fa5" stroke-width="1.2" points="212.14,-334.04 213.59,-325.69 207.25,-331.32 212.14,-334.04"/>
</g>
<!-- g_7_5&#45;&gt;g_7_6 -->
<g id="edge76" class="edge">
<title>g_7_5&#45;&gt;g_7_6</title>
<path fill="none" stroke="#4a6fa5" stroke-width="1.2" d="M135.11,-287.7C130.41,-279.47 124.7,-269.48 119.53,-260.42"/>
<polygon fill="#4a6fa5" stroke="#4a6fa5" stroke-width="1.2" points="122.08,-259.24 115.68,-253.68 117.21,-262.02 122.08,-259.24"/>
</g>
<!-- g_8_5 -->
<g id="node53" class="node">
<title>g_8_5</title>
<path fill="#e6f2ff" stroke="#4a6fa5" d="M199,-252C199,-252 169,-252 169,-252 163,-252 157,-246 157,-240 157,-240 157,-228 157,-228 157,-222 163,-216 169,-216 169,-216 199,-216 199,-216 205,-216 211,-222 211,-228 211,-228 211,-240 211,-240 211,-246 205,-252 199,-252"/>
<text xml:space="preserve" text-anchor="middle" x="184" y="-230.5" font-family="Helvetica,sans-Serif" font-size="10.00">g_8_5</text>
</g>
<!-- g_7_5&#45;&gt;g_8_5 -->
<g id="edge75" class="edge">
<title>g_7_5&#45;&gt;g_8_5</title>
<path fill="none" stroke="#4a6fa5" stroke-width="1.2" d="M154.64,-287.7C159.22,-279.47 164.79,-269.48 169.84,-260.42"/>
<polygon fill="#4a6fa5" stroke="#4a6fa5" stroke-width="1.2" points="172.14,-262.04 173.59,-253.69 167.25,-259.32 172.14,-262.04"/>
</g>
<!-- g_8_6 -->
<g id="node54" class="node">
<title>g_8_6</title>
<path fill="#e6f2ff" stroke="#4a6fa5" d="M159,-180C159,-180 129,-180 129,-180 123,-180 117,-174 117,-168 117,-168 117,-156 117,-156 117,-150 123,-144 129,-144 129,-144 159,-144 159,-144 165,-144 171,-150 171,-156 171,-156 171,-168 171,-168 171,-174 165,-180 159,-180"/>
<text xml:space="preserve" text-anchor="middle" x="144" y="-158.5" font-family="Helvetica,sans-Serif" font-size="10.00">g_8_6</text>
</g>
<!-- g_7_6&#45;&gt;g_8_6 -->
<g id="edge77" class="edge">
<title>g_7_6&#45;&gt;g_8_6</title>
<path fill="none" stroke="#4a6fa5" stroke-width="1.2" d="M114.64,-215.7C119.22,-207.47 124.79,-197.48 129.84,-188.42"/>
<polygon fill="#4a6fa5" stroke="#4a6fa5" stroke-width="1.2" points="132.14,-190.04 133.59,-181.69 127.25,-187.32 132.14,-190.04"/>
</g>
<!-- g_8_1&#45;&gt;g_8_2 -->
<g id="edge79" class="edge">
<title>g_8_1&#45;&gt;g_8_2</title>
<path fill="none" stroke="#4a6fa5" stroke-width="1.2" d="M402.47,-503.7C392.6,-494.95 380.46,-484.19 369.73,-474.69"/>
<polygon fill="#4a6fa5" stroke="#4a6fa5" stroke-width="1.2" points="371.78,-472.76 363.94,-469.55 368.07,-476.95 371.78,-472.76"/>
</g>
<!-- g_9_1 -->
<g id="node55" class="node">
<title>g_9_1</title>
<path fill="#e6f2ff" stroke="#4a6fa5" d="M437,-468C437,-468 407,-468 407,-468 401,-468 395,-462 395,-456 395,-456 395,-444 395,-444 395,-438 401,-432 407,-432 407,-432 437,-432 437,-432 443,-432 449,-438 449,-444 449,-444 449,-456 449,-456 449,-462 443,-468 437,-468"/>
<text xml:space="preserve" text-anchor="middle" x="422" y="-446.5" font-family="Helvetica,sans-Serif" font-size="10.00">g_9_1</text>
</g>
<!-- g_8_1&#45;&gt;g_9_1 -->
<g id="edge78" class="edge">
<title>g_8_1&#45;&gt;g_9_1</title>
<path fill="none" stroke="#4a6fa5" stroke-width="1.2" d="M422,-503.7C422,-495.9 422,-486.51 422,-477.83"/>
<polygon fill="#4a6fa5" stroke="#4a6fa5" stroke-width="1.2" points="424.8,-477.92 422,-469.92 419.2,-477.92 424.8,-477.92"/>
</g>
<!-- g_8_2&#45;&gt;g_8_3 -->
<g id="edge81" class="edge">
<title>g_8_2&#45;&gt;g_8_3</title>
<path fill="none" stroke="#4a6fa5" stroke-width="1.2" d="M323.47,-431.7C313.6,-422.95 301.46,-412.19 290.73,-402.69"/>
<polygon fill="#4a6fa5" stroke="#4a6fa5" stroke-width="1.2" points="292.78,-400.76 284.94,-397.55 289.07,-404.95 292.78,-400.76"/>
</g>
<!-- g_9_2 -->
<g id="node56" class="node">
<title>g_9_2</title>
<path fill="#e6f2ff" stroke="#4a6fa5" d="M358,-396C358,-396 328,-396 328,-396 322,-396 316,-390 316,-384 316,-384 316,-372 316,-372 316,-366 322,-360 328,-360 328,-360 358,-360 358,-360 364,-360 370,-366 370,-372 370,-372 370,-384 370,-384 370,-390 364,-396 358,-396"/>
<text xml:space="preserve" text-anchor="middle" x="343" y="-374.5" font-family="Helvetica,sans-Serif" font-size="10.00">g_9_2</text>
</g>
<!-- g_8_2&#45;&gt;g_9_2 -->
<g id="edge80" class="edge">
<title>g_8_2&#45;&gt;g_9_2</title>
<path fill="none" stroke="#4a6fa5" stroke-width="1.2" d="M343,-431.7C343,-423.9 343,-414.51 343,-405.83"/>
<polygon fill="#4a6fa5" stroke="#4a6fa5" stroke-width="1.2" points="345.8,-405.92 343,-397.92 340.2,-405.92 345.8,-405.92"/>
</g>
<!-- g_8_3&#45;&gt;g_8_4 -->
<g id="edge83" class="edge">
<title>g_8_3&#45;&gt;g_8_4</title>
<path fill="none" stroke="#4a6fa5" stroke-width="1.2" d="M254.11,-359.7C249.41,-351.47 243.7,-341.48 238.53,-332.42"/>
<polygon fill="#4a6fa5" stroke="#4a6fa5" stroke-width="1.2" points="241.08,-331.24 234.68,-325.68 236.21,-334.02 241.08,-331.24"/>
</g>
<!-- g_9_3 -->
<g id="node57" class="node">
<title>g_9_3</title>
<path fill="#e6f2ff" stroke="#4a6fa5" d="M318,-324C318,-324 288,-324 288,-324 282,-324 276,-318 276,-312 276,-312 276,-300 276,-300 276,-294 282,-288 288,-288 288,-288 318,-288 318,-288 324,-288 330,-294 330,-300 330,-300 330,-312 330,-312 330,-318 324,-324 318,-324"/>
<text xml:space="preserve" text-anchor="middle" x="303" y="-302.5" font-family="Helvetica,sans-Serif" font-size="10.00">g_9_3</text>
</g>
<!-- g_8_3&#45;&gt;g_9_3 -->
<g id="edge82" class="edge">
<title>g_8_3&#45;&gt;g_9_3</title>
<path fill="none" stroke="#4a6fa5" stroke-width="1.2" d="M273.64,-359.7C278.22,-351.47 283.79,-341.48 288.84,-332.42"/>
<polygon fill="#4a6fa5" stroke="#4a6fa5" stroke-width="1.2" points="291.14,-334.04 292.59,-325.69 286.25,-331.32 291.14,-334.04"/>
</g>
<!-- g_8_4&#45;&gt;g_8_5 -->
<g id="edge85" class="edge">
<title>g_8_4&#45;&gt;g_8_5</title>
<path fill="none" stroke="#4a6fa5" stroke-width="1.2" d="M214.11,-287.7C209.41,-279.47 203.7,-269.48 198.53,-260.42"/>
<polygon fill="#4a6fa5" stroke="#4a6fa5" stroke-width="1.2" points="201.08,-259.24 194.68,-253.68 196.21,-262.02 201.08,-259.24"/>
</g>
<!-- g_9_4 -->
<g id="node58" class="node">
<title>g_9_4</title>
<path fill="#e6f2ff" stroke="#4a6fa5" d="M278,-252C278,-252 248,-252 248,-252 242,-252 236,-246 236,-240 236,-240 236,-228 236,-228 236,-222 242,-216 248,-216 248,-216 278,-216 278,-216 284,-216 290,-222 290,-228 290,-228 290,-240 290,-240 290,-246 284,-252 278,-252"/>
<text xml:space="preserve" text-anchor="middle" x="263" y="-230.5" font-family="Helvetica,sans-Serif" font-size="10.00">g_9_4</text>
</g>
<!-- g_8_4&#45;&gt;g_9_4 -->
<g id="edge84" class="edge">
<title>g_8_4&#45;&gt;g_9_4</title>
<path fill="none" stroke="#4a6fa5" stroke-width="1.2" d="M233.64,-287.7C238.22,-279.47 243.79,-269.48 248.84,-260.42"/>
<polygon fill="#4a6fa5" stroke="#4a6fa5" stroke-width="1.2" points="251.14,-262.04 252.59,-253.69 246.25,-259.32 251.14,-262.04"/>
</g>
<!-- g_8_5&#45;&gt;g_8_6 -->
<g id="edge87" class="edge">
<title>g_8_5&#45;&gt;g_8_6</title>
<path fill="none" stroke="#4a6fa5" stroke-width="1.2" d="M174.11,-215.7C169.41,-207.47 163.7,-197.48 158.53,-188.42"/>
<polygon fill="#4a6fa5" stroke="#4a6fa5" stroke-width="1.2" points="161.08,-187.24 154.68,-181.68 156.21,-190.02 161.08,-187.24"/>
</g>
<!-- g_9_5 -->
<g id="node59" class="node">
<title>g_9_5</title>
<path fill="#e6f2ff" stroke="#4a6fa5" d="M238,-180C238,-180 208,-180 208,-180 202,-180 196,-174 196,-168 196,-168 196,-156 196,-156 196,-150 202,-144 208,-144 208,-144 238,-144 238,-144 244,-144 250,-150 250,-156 250,-156 250,-168 250,-168 250,-174 244,-180 238,-180"/>
<text xml:space="preserve" text-anchor="middle" x="223" y="-158.5" font-family="Helvetica,sans-Serif" font-size="10.00">g_9_5</text>
</g>
<!-- g_8_5&#45;&gt;g_9_5 -->
<g id="edge86" class="edge">
<title>g_8_5&#45;&gt;g_9_5</title>
<path fill="none" stroke="#4a6fa5" stroke-width="1.2" d="M193.64,-215.7C198.22,-207.47 203.79,-197.48 208.84,-188.42"/>
<polygon fill="#4a6fa5" stroke="#4a6fa5" stroke-width="1.2" points="211.14,-190.04 212.59,-181.69 206.25,-187.32 211.14,-190.04"/>
</g>
<!-- g_9_6 -->
<g id="node60" class="node">
<title>g_9_6</title>
<path fill="#e6f2ff" stroke="#4a6fa5" d="M198,-108C198,-108 168,-108 168,-108 162,-108 156,-102 156,-96 156,-96 156,-84 156,-84 156,-78 162,-72 168,-72 168,-72 198,-72 198,-72 204,-72 210,-78 210,-84 210,-84 210,-96 210,-96 210,-102 204,-108 198,-108"/>
<text xml:space="preserve" text-anchor="middle" x="183" y="-86.5" font-family="Helvetica,sans-Serif" font-size="10.00">g_9_6</text>
</g>
<!-- g_8_6&#45;&gt;g_9_6 -->
<g id="edge88" class="edge">
<title>g_8_6&#45;&gt;g_9_6</title>
<path fill="none" stroke="#4a6fa5" stroke-width="1.2" d="M153.64,-143.7C158.22,-135.47 163.79,-125.48 168.84,-116.42"/>
<polygon fill="#4a6fa5" stroke="#4a6fa5" stroke-width="1.2" points="171.14,-118.04 172.59,-109.69 166.25,-115.32 171.14,-118.04"/>
</g>
<!-- g_9_1&#45;&gt;g_10_1 -->
<g id="edge89" class="edge">
<title>g_9_1&#45;&gt;g_10_1</title>
<path fill="none" stroke="#4a6fa5" stroke-width="1.2" d="M422,-431.7C422,-423.9 422,-414.51 422,-405.83"/>
<polygon fill="#4a6fa5" stroke="#4a6fa5" stroke-width="1.2" points="424.8,-405.92 422,-397.92 419.2,-405.92 424.8,-405.92"/>
</g>
<!-- g_9_1&#45;&gt;g_9_2 -->
<g id="edge90" class="edge">
<title>g_9_1&#45;&gt;g_9_2</title>
<path fill="none" stroke="#4a6fa5" stroke-width="1.2" d="M402.47,-431.7C392.6,-422.95 380.46,-412.19 369.73,-402.69"/>
<polygon fill="#4a6fa5" stroke="#4a6fa5" stroke-width="1.2" points="371.78,-400.76 363.94,-397.55 368.07,-404.95 371.78,-400.76"/>
</g>
<!-- g_9_2&#45;&gt;g_10_2 -->
<g id="edge91" class="edge">
<title>g_9_2&#45;&gt;g_10_2</title>
<path fill="none" stroke="#4a6fa5" stroke-width="1.2" d="M352.64,-359.7C357.22,-351.47 362.79,-341.48 367.84,-332.42"/>
<polygon fill="#4a6fa5" stroke="#4a6fa5" stroke-width="1.2" points="370.14,-334.04 371.59,-325.69 365.25,-331.32 370.14,-334.04"/>
</g>
<!-- g_9_2&#45;&gt;g_9_3 -->
<g id="edge92" class="edge">
<title>g_9_2&#45;&gt;g_9_3</title>
<path fill="none" stroke="#4a6fa5" stroke-width="1.2" d="M333.11,-359.7C328.41,-351.47 322.7,-341.48 317.53,-332.42"/>
<polygon fill="#4a6fa5" stroke="#4a6fa5" stroke-width="1.2" points="320.08,-331.24 313.68,-325.68 315.21,-334.02 320.08,-331.24"/>
</g>
<!-- g_9_3&#45;&gt;g_10_3 -->
<g id="edge93" class="edge">
<title>g_9_3&#45;&gt;g_10_3</title>
<path fill="none" stroke="#4a6fa5" stroke-width="1.2" d="M312.64,-287.7C317.22,-279.47 322.79,-269.48 327.84,-260.42"/>
<polygon fill="#4a6fa5" stroke="#4a6fa5" stroke-width="1.2" points="330.14,-262.04 331.59,-253.69 325.25,-259.32 330.14,-262.04"/>
</g>
<!-- g_9_3&#45;&gt;g_9_4 -->
<g id="edge94" class="edge">
<title>g_9_3&#45;&gt;g_9_4</title>
<path fill="none" stroke="#4a6fa5" stroke-width="1.2" d="M293.11,-287.7C288.41,-279.47 282.7,-269.48 277.53,-260.42"/>
<polygon fill="#4a6fa5" stroke="#4a6fa5" stroke-width="1.2" points="280.08,-259.24 273.68,-253.68 275.21,-262.02 280.08,-259.24"/>
</g>
<!-- g_9_4&#45;&gt;g_10_4 -->
<g id="edge95" class="edge">
<title>g_9_4&#45;&gt;g_10_4</title>
<path fill="none" stroke="#4a6fa5" stroke-width="1.2" d="M272.64,-215.7C277.22,-207.47 282.79,-197.48 287.84,-188.42"/>
<polygon fill="#4a6fa5" stroke="#4a6fa5" stroke-width="1.2" points="290.14,-190.04 291.59,-181.69 285.25,-187.32 290.14,-190.04"/>
</g>
<!-- g_9_4&#45;&gt;g_9_5 -->
<g id="edge96" class="edge">
<title>g_9_4&#45;&gt;g_9_5</title>
<path fill="none" stroke="#4a6fa5" stroke-width="1.2" d="M253.11,-215.7C248.41,-207.47 242.7,-197.48 237.53,-188.42"/>
<polygon fill="#4a6fa5" stroke="#4a6fa5" stroke-width="1.2" points="240.08,-187.24 233.68,-181.68 235.21,-190.02 240.08,-187.24"/>
</g>
<!-- g_9_5&#45;&gt;g_10_5 -->
<g id="edge97" class="edge">
<title>g_9_5&#45;&gt;g_10_5</title>
<path fill="none" stroke="#4a6fa5" stroke-width="1.2" d="M232.64,-143.7C237.22,-135.47 242.79,-125.48 247.84,-116.42"/>
<polygon fill="#4a6fa5" stroke="#4a6fa5" stroke-width="1.2" points="250.14,-118.04 251.59,-109.69 245.25,-115.32 250.14,-118.04"/>
</g>
<!-- g_9_5&#45;&gt;g_9_6 -->
<g id="edge98" class="edge">
<title>g_9_5&#45;&gt;g_9_6</title>
<path fill="none" stroke="#4a6fa5" stroke-width="1.2" d="M213.11,-143.7C208.41,-135.47 202.7,-125.48 197.53,-116.42"/>
<polygon fill="#4a6fa5" stroke="#4a6fa5" stroke-width="1.2" points="200.08,-115.24 193.68,-109.68 195.21,-118.02 200.08,-115.24"/>
</g>
<!-- g_9_6&#45;&gt;g_10_6 -->
<g id="edge99" class="edge">
<title>g_9_6&#45;&gt;g_10_6</title>
<path fill="none" stroke="#4a6fa5" stroke-width="1.2" d="M192.64,-71.7C197.22,-63.47 202.79,-53.48 207.84,-44.42"/>
<polygon fill="#4a6fa5" stroke="#4a6fa5" stroke-width="1.2" points="210.14,-46.04 211.59,-37.69 205.25,-43.32 210.14,-46.04"/>
</g>
</g>
</svg>
