<?xml version="1.0" encoding="UTF-8" standalone="no"?>
<!DOCTYPE svg PUBLIC "-//W3C//DTD SVG 1.1//EN"
 "http://www.w3.org/Graphics/SVG/1.1/DTD/svg11.dtd">
<!-- Generated by graphviz version 14.1.0 (20251206.1807)
 -->
<!-- Title: sample1 Pages: 1 -->
<svg width="252pt" height="310pt"
 viewBox="0.00 0.00 252.00 310.00" xmlns="http://www.w3.org/2000/svg" xmlns:xlink="http://www.w3.org/1999/xlink">
<g id="graph0" class="graph" transform="scale(1 1) rotate(0) translate(4 305.5)">
<title>sample1</title>
<polygon fill="white" stroke="none" points="-4,4 -4,-305.5 248,-305.5 248,4 -4,4"/>
<!-- a -->
<g id="node1" class="node">
<title>a</title>
<path fill="#e6f2ff" stroke="#4a6fa5" d="M167,-213C167,-213 137,-213 137,-213 131,-213 125,-207 125,-201 125,-201 125,-189 125,-189 125,-183 131,-177 137,-177 137,-177 167,-177 167,-177 173,-177 179,-183 179,-189 179,-189 179,-201 179,-201 179,-207 173,-213 167,-213"/>
<text xml:space="preserve" text-anchor="middle" x="152" y="-191.5" font-family="Helvetica,sans-Serif" font-size="10.00">a</text>
</g>
<!-- b -->
<g id="node2" class="node">
<title>b</title>
<path fill="#e6f2ff" stroke="#4a6fa5" d="M105,-124.5C105,-124.5 75,-124.5 75,-124.5 69,-124.5 63,-118.5 63,-112.5 63,-112.5 63,-100.5 63,-100.5 63,-94.5 69,-88.5 75,-88.5 75,-88.5 105,-88.5 105,-88.5 111,-88.5 117,-94.5 117,-100.5 117,-100.5 117,-112.5 117,-112.5 117,-118.5 111,-124.5 105,-124.5"/>
<text xml:space="preserve" text-anchor="middle" x="90" y="-103" font-family="Helvetica,sans-Serif" font-size="10.00">b</text>
</g>
<!-- a&#45;&gt;b -->
<g id="edge5" class="edge">
<title>a&#45;&gt;b</title>
<path fill="none" stroke="#4a6fa5" stroke-width="1.2" d="M124.54,-186.11C111.26,-180.76 96.53,-172.19 88.75,-159 84.49,-151.77 83.52,-142.92 84,-134.61"/>
<polygon fill="#4a6fa5" stroke="#4a6fa5" stroke-width="1.2" points="86.78,-134.97 84.96,-126.69 81.22,-134.29 86.78,-134.97"/>
<text xml:space="preserve" text-anchor="middle" x="104.88" y="-145.7" font-family="Times New Roman,serif" font-size="14.00">z,new</text>
</g>
<!-- t1 -->
<g id="node5" class="node">
<title>t1</title>
<path fill="#e6f2ff" stroke="#4a6fa5" d="M232,-124.5C232,-124.5 202,-124.5 202,-124.5 196,-124.5 190,-118.5 190,-112.5 190,-112.5 190,-100.5 190,-100.5 190,-94.5 196,-88.5 202,-88.5 202,-88.5 232,-88.5 232,-88.5 238,-88.5 244,-94.5 244,-100.5 244,-100.5 244,-112.5 244,-112.5 244,-118.5 238,-124.5 232,-124.5"/>
<text xml:space="preserve" text-anchor="middle" x="217" y="-103" font-family="Helvetica,sans-Serif" font-size="10.00">t1</text>
</g>
<!-- a&#45;&gt;t1 -->
<g id="edge2" class="edge">
<title>a&#45;&gt;t1</title>
<path fill="none" stroke="#4a6fa5" stroke-width="1.2" d="M164.84,-176.91C174.39,-164.2 187.58,-146.66 198.3,-132.39"/>
<polygon fill="#4a6fa5" stroke="#4a6fa5" stroke-width="1.2" points="200.3,-134.38 202.87,-126.3 195.83,-131.02 200.3,-134.38"/>
<text xml:space="preserve" text-anchor="middle" x="206.45" y="-145.7" font-family="Times New Roman,serif" font-size="14.00">y,new</text>
</g>
<!-- b&#45;&gt;a -->
<g id="edge6" class="edge">
<title>b&#45;&gt;a</title>
<path fill="none" stroke="#4a6fa5" stroke-width="1.2" d="M108.01,-124.93C113.14,-130.32 118.55,-136.45 123,-142.5 128.87,-150.47 134.43,-159.75 139.09,-168.22"/>
<polygon fill="#4a6fa5" stroke="#4a6fa5" stroke-width="1.2" points="136.5,-169.31 142.73,-175.06 141.44,-166.68 136.5,-169.31"/>
<text xml:space="preserve" text-anchor="middle" x="151.31" y="-145.7" font-family="Times New Roman,serif" font-size="14.00">w,new</text>
</g>
<!-- t2 -->
<g id="node6" class="node">
<title>t2</title>
<path fill="#e6f2ff" stroke="#4a6fa5" d="M105,-36C105,-36 75,-36 75,-36 69,-36 63,-30 63,-24 63,-24 63,-12 63,-12 63,-6 69,0 75,0 75,0 105,0 105,0 111,0 117,-6 117,-12 117,-12 117,-24 117,-24 117,-30 111,-36 105,-36"/>
<text xml:space="preserve" text-anchor="middle" x="90" y="-14.5" font-family="Helvetica,sans-Serif" font-size="10.00">t2</text>
</g>
<!-- b&#45;&gt;t2 -->
<g id="edge4" class="edge">
<title>b&#45;&gt;t2</title>
<path fill="none" stroke="#4a6fa5" stroke-width="1.2" d="M90,-88.41C90,-76.29 90,-59.77 90,-45.89"/>
<polygon fill="#4a6fa5" stroke="#4a6fa5" stroke-width="1.2" points="92.8,-46.17 90,-38.17 87.2,-46.17 92.8,-46.17"/>
<text xml:space="preserve" text-anchor="middle" x="106.12" y="-57.2" font-family="Times New Roman,serif" font-size="14.00">y,new</text>
</g>
<!-- s1 -->
<g id="node3" class="node">
<title>s1</title>
<path fill="#e6f2ff" stroke="#4a6fa5" d="M167,-301.5C167,-301.5 137,-301.5 137,-301.5 131,-301.5 125,-295.5 125,-289.5 125,-289.5 125,-277.5 125,-277.5 125,-271.5 131,-265.5 137,-265.5 137,-265.5 167,-265.5 167,-265.5 173,-265.5 179,-271.5 179,-277.5 179,-277.5 179,-289.5 179,-289.5 179,-295.5 173,-301.5 167,-301.5"/>
<text xml:space="preserve" text-anchor="middle" x="152" y="-280" font-family="Helvetica,sans-Serif" font-size="10.00">s1</text>
</g>
<!-- s1&#45;&gt;a -->
<g id="edge1" class="edge">
<title>s1&#45;&gt;a</title>
<path fill="none" stroke="#4a6fa5" stroke-width="1.2" d="M152,-265.41C152,-253.29 152,-236.77 152,-222.89"/>
<polygon fill="#4a6fa5" stroke="#4a6fa5" stroke-width="1.2" points="154.8,-223.17 152,-215.17 149.2,-223.17 154.8,-223.17"/>
<text xml:space="preserve" text-anchor="middle" x="163.25" y="-234.2" font-family="Times New Roman,serif" font-size="14.00">new</text>
</g>
<!-- s2 -->
<g id="node4" class="node">
<title>s2</title>
<path fill="#e6f2ff" stroke="#4a6fa5" d="M42,-213C42,-213 12,-213 12,-213 6,-213 0,-207 0,-201 0,-201 0,-189 0,-189 0,-183 6,-177 12,-177 12,-177 42,-177 42,-177 48,-177 54,-183 54,-189 54,-189 54,-201 54,-201 54,-207 48,-213 42,-213"/>
<text xml:space="preserve" text-anchor="middle" x="27" y="-191.5" font-family="Helvetica,sans-Serif" font-size="10.00">s2</text>
</g>
<!-- s2&#45;&gt;b -->
<g id="edge3" class="edge">
<title>s2&#45;&gt;b</title>
<path fill="none" stroke="#4a6fa5" stroke-width="1.2" d="M30.44,-176.6C33.15,-166.03 37.71,-152.65 45,-142.5 48.03,-138.28 51.71,-134.32 55.65,-130.69"/>
<polygon fill="#4a6fa5" stroke="#4a6fa5" stroke-width="1.2" points="57.24,-133.01 61.54,-125.7 53.62,-128.73 57.24,-133.01"/>
<text xml:space="preserve" text-anchor="middle" x="61.5" y="-145.7" font-family="Times New Roman,serif" font-size="14.00">x,new</text>
</g>
</g>
</svg>
