<?xml version="1.0" encoding="UTF-8" standalone="no"?>
<!DOCTYPE svg PUBLIC "-//W3C//DTD SVG 1.1//EN"
 "http://www.w3.org/Graphics/SVG/1.1/DTD/svg11.dtd">
<!-- Generated by graphviz version 14.1.0 (20251206.1807)
 -->
<!-- Title: G Pages: 1 -->
<svg width="62pt" height="260pt"
 viewBox="0.00 0.00 62.00 260.00" xmlns="http://www.w3.org/2000/svg" xmlns:xlink="http://www.w3.org/1999/xlink">
<g id="graph0" class="graph" transform="scale(1 1) rotate(0) translate(4 256)">
<title>G</title>
<polygon fill="white" stroke="none" points="-4,4 -4,-256 58,-256 58,4 -4,4"/>
<!-- c_1 -->
<g id="node1" class="node">
<title>c_1</title>
<path fill="#e6f2ff" stroke="#4a6fa5" d="M42,-252C42,-252 12,-252 12,-252 6,-252 0,-246 0,-240 0,-240 0,-228 0,-228 0,-222 6,-216 12,-216 12,-216 42,-216 42,-216 48,-216 54,-222 54,-228 54,-228 54,-240 54,-240 54,-246 48,-252 42,-252"/>
<text xml:space="preserve" text-anchor="middle" x="27" y="-230.5" font-family="Helvetica,sans-Serif" font-size="10.00">c_1</text>
</g>
<!-- c_2 -->
<g id="node2" class="node">
<title>c_2</title>
<path fill="#e6f2ff" stroke="#4a6fa5" d="M42,-180C42,-180 12,-180 12,-180 6,-180 0,-174 0,-168 0,-168 0,-156 0,-156 0,-150 6,-144 12,-144 12,-144 42,-144 42,-144 48,-144 54,-150 54,-156 54,-156 54,-168 54,-168 54,-174 48,-180 42,-180"/>
<text xml:space="preserve" text-anchor="middle" x="27" y="-158.5" font-family="Helvetica,sans-Serif" font-size="10.00">c_2</text>
</g>
<!-- c_1&#45;&gt;c_2 -->
<g id="edge1" class="edge">
<title>c_1&#45;&gt;c_2</title>
<path fill="none" stroke="#4a6fa5" stroke-width="1.2" d="M27,-215.7C27,-207.9 27,-198.51 27,-189.83"/>
<polygon fill="#4a6fa5" stroke="#4a6fa5" stroke-width="1.2" points="29.8,-189.92 27,-181.92 24.2,-189.92 29.8,-189.92"/>
</g>
<!-- c_3 -->
<g id="node3" class="node">
<title>c_3</title>
<path fill="#e6f2ff" stroke="#4a6fa5" d="M42,-108C42,-108 12,-108 12,-108 6,-108 0,-102 0,-96 0,-96 0,-84 0,-84 0,-78 6,-72 12,-72 12,-72 42,-72 42,-72 48,-72 54,-78 54,-84 54,-84 54,-96 54,-96 54,-102 48,-108 42,-108"/>
<text xml:space="preserve" text-anchor="middle" x="27" y="-86.5" font-family="Helvetica,sans-Serif" font-size="10.00">c_3</text>
</g>
<!-- c_2&#45;&gt;c_3 -->
<g id="edge2" class="edge">
<title>c_2&#45;&gt;c_3</title>
<path fill="none" stroke="#4a6fa5" stroke-width="1.2" d="M27,-143.7C27,-135.9 27,-126.51 27,-117.83"/>
<polygon fill="#4a6fa5" stroke="#4a6fa5" stroke-width="1.2" points="29.8,-117.92 27,-109.92 24.2,-117.92 29.8,-117.92"/>
</g>
<!-- c_4 -->
<g id="node4" class="node">
<title>c_4</title>
<path fill="#e6f2ff" stroke="#4a6fa5" d="M42,-36C42,-36 12,-36 12,-36 6,-36 0,-30 0,-24 0,-24 0,-12 0,-12 0,-6 6,0 12,0 12,0 42,0 42,0 48,0 54,-6 54,-12 54,-12 54,-24 54,-24 54,-30 48,-36 42,-36"/>
<text xml:space="preserve" text-anchor="middle" x="27" y="-14.5" font-family="Helvetica,sans-Serif" font-size="10.00">c_4</text>
</g>
<!-- c_3&#45;&gt;c_4 -->
<g id="edge3" class="edge">
<title>c_3&#45;&gt;c_4</title>
<path fill="none" stroke="#4a6fa5" stroke-width="1.2" d="M27,-71.7C27,-63.9 27,-54.51 27,-45.83"/>
<polygon fill="#4a6fa5" stroke="#4a6fa5" stroke-width="1.2" points="29.8,-45.92 27,-37.92 24.2,-45.92 29.8,-45.92"/>
</g>
</g>
</svg>
