<?xml version="1.0" encoding="UTF-8" standalone="no"?>
<!DOCTYPE svg PUBLIC "-//W3C//DTD SVG 1.1//EN"
 "http://www.w3.org/Graphics/SVG/1.1/DTD/svg11.dtd">
<!-- Generated by graphviz version 14.1.0 (20251206.1807)
 -->
<!-- Title: G Pages: 1 -->
<svg width="94pt" height="188pt"
 viewBox="0.00 0.00 94.00 188.00" xmlns="http://www.w3.org/2000/svg" xmlns:xlink="http://www.w3.org/1999/xlink">
<g id="graph0" class="graph" transform="scale(1 1) rotate(0) translate(4 184)">
<title>G</title>
<polygon fill="white" stroke="none" points="-4,4 -4,-184 90,-184 90,4 -4,4"/>
<!-- r_0 -->
<g id="node1" class="node">
<title>r_0</title>
<path fill="#e6f2ff" stroke="#4a6fa5" d="M74,-180C74,-180 44,-180 44,-180 38,-180 32,-174 32,-168 32,-168 32,-156 32,-156 32,-150 38,-144 44,-144 44,-144 74,-144 74,-144 80,-144 86,-150 86,-156 86,-156 86,-168 86,-168 86,-174 80,-180 74,-180"/>
<text xml:space="preserve" text-anchor="middle" x="59" y="-158.5" font-family="Helvetica,sans-Serif" font-size="10.00">r_0</text>
</g>
<!-- r_1 -->
<g id="node2" class="node">
<title>r_1</title>
<path fill="#e6f2ff" stroke="#4a6fa5" d="M42,-108C42,-108 12,-108 12,-108 6,-108 0,-102 0,-96 0,-96 0,-84 0,-84 0,-78 6,-72 12,-72 12,-72 42,-72 42,-72 48,-72 54,-78 54,-84 54,-84 54,-96 54,-96 54,-102 48,-108 42,-108"/>
<text xml:space="preserve" text-anchor="middle" x="27" y="-86.5" font-family="Helvetica,sans-Serif" font-size="10.00">r_1</text>
</g>
<!-- r_0&#45;&gt;r_1 -->
<g id="edge1" class="edge">
<title>r_0&#45;&gt;r_1</title>
<path fill="none" stroke="#4a6fa5" stroke-width="1.2" d="M51.09,-143.7C47.41,-135.64 42.95,-125.89 38.88,-116.98"/>
<polygon fill="#4a6fa5" stroke="#4a6fa5" stroke-width="1.2" points="41.45,-115.87 35.57,-109.76 36.35,-118.2 41.45,-115.87"/>
</g>
<!-- r_2 -->
<g id="node3" class="node">
<title>r_2</title>
<path fill="#e6f2ff" stroke="#4a6fa5" d="M74,-36C74,-36 44,-36 44,-36 38,-36 32,-30 32,-24 32,-24 32,-12 32,-12 32,-6 38,0 44,0 44,0 74,0 74,0 80,0 86,-6 86,-12 86,-12 86,-24 86,-24 86,-30 80,-36 74,-36"/>
<text xml:space="preserve" text-anchor="middle" x="59" y="-14.5" font-family="Helvetica,sans-Serif" font-size="10.00">r_2</text>
</g>
<!-- r_1&#45;&gt;r_2 -->
<g id="edge2" class="edge">
<title>r_1&#45;&gt;r_2</title>
<path fill="none" stroke="#4a6fa5" stroke-width="1.2" d="M34.91,-71.7C38.59,-63.64 43.05,-53.89 47.12,-44.98"/>
<polygon fill="#4a6fa5" stroke="#4a6fa5" stroke-width="1.2" points="49.65,-46.2 50.43,-37.76 44.55,-43.87 49.65,-46.2"/>
</g>
<!-- r_2&#45;&gt;r_0 -->
<g id="edge3" class="edge">
<title>r_2&#45;&gt;r_0</title>
<path fill="none" stroke="#4a6fa5" stroke-width="1.2" d="M62.25,-36.11C64.05,-46.46 66.09,-59.94 67,-72 68.2,-87.96 68.2,-92.04 67,-108 66.36,-116.58 65.13,-125.87 63.84,-134.24"/>
<polygon fill="#4a6fa5" stroke="#4a6fa5" stroke-width="1.2" points="61.08,-133.75 62.54,-142.1 66.61,-134.66 61.08,-133.75"/>
</g>
</g>
</svg>
