<?xml version="1.0" encoding="UTF-8" standalone="no"?>
<!DOCTYPE svg PUBLIC "-//W3C//DTD SVG 1.1//EN"
 "http://www.w3.org/Graphics/SVG/1.1/DTD/svg11.dtd">
<!-- Generated by graphviz version 14.1.0 (20251206.1807)
 -->
<!-- Title: G Pages: 1 -->
<svg width="100pt" height="188pt"
 viewBox="0.00 0.00 100.00 188.00" xmlns="http://www.w3.org/2000/svg" xmlns:xlink="http://www.w3.org/1999/xlink">
<g id="graph0" class="graph" transform="scale(1 1) rotate(0) translate(4 184)">
<title>G</title>
<polygon fill="white" stroke="none" points="-4,4 -4,-184 96,-184 96,4 -4,4"/>
<!-- q_1 -->
<g id="node1" class="node">
<title>q_1</title>
<path fill="#e6f2ff" stroke="#4a6fa5" d="M80,-180C80,-180 50,-180 50,-180 44,-180 38,-174 38,-168 38,-168 38,-156 38,-156 38,-150 44,-144 50,-144 50,-144 80,-144 80,-144 86,-144 92,-150 92,-156 92,-156 92,-168 92,-168 92,-174 86,-180 80,-180"/>
<text xml:space="preserve" text-anchor="middle" x="65" y="-158.5" font-family="Helvetica,sans-Serif" font-size="10.00">q_1</text>
</g>
<!-- q_2 -->
<g id="node2" class="node">
<title>q_2</title>
<path fill="#e6f2ff" stroke="#4a6fa5" d="M42,-108C42,-108 12,-108 12,-108 6,-108 0,-102 0,-96 0,-96 0,-84 0,-84 0,-78 6,-72 12,-72 12,-72 42,-72 42,-72 48,-72 54,-78 54,-84 54,-84 54,-96 54,-96 54,-102 48,-108 42,-108"/>
<text xml:space="preserve" text-anchor="middle" x="27" y="-86.5" font-family="Helvetica,sans-Serif" font-size="10.00">q_2</text>
</g>
<!-- q_1&#45;&gt;q_2 -->
<g id="edge1" class="edge">
<title>q_1&#45;&gt;q_2</title>
<path fill="none" stroke="#4a6fa5" stroke-width="1.2" d="M47.39,-143.7C41.87,-135.64 36.28,-125.89 32.01,-116.98"/>
<polygon fill="#4a6fa5" stroke="#4a6fa5" stroke-width="1.2" points="34.62,-115.96 28.83,-109.77 29.5,-118.22 34.62,-115.96"/>
</g>
<!-- q_3 -->
<g id="node3" class="node">
<title>q_3</title>
<path fill="#e6f2ff" stroke="#4a6fa5" d="M80,-36C80,-36 50,-36 50,-36 44,-36 38,-30 38,-24 38,-24 38,-12 38,-12 38,-6 44,0 50,0 50,0 80,0 80,0 86,0 92,-6 92,-12 92,-12 92,-24 92,-24 92,-30 86,-36 80,-36"/>
<text xml:space="preserve" text-anchor="middle" x="65" y="-14.5" font-family="Helvetica,sans-Serif" font-size="10.00">q_3</text>
</g>
<!-- q_1&#45;&gt;q_3 -->
<g id="edge2" class="edge">
<title>q_1&#45;&gt;q_3</title>
<path fill="none" stroke="#4a6fa5" stroke-width="1.2" d="M54.95,-143.82C53.76,-133.45 54.27,-119.97 54.5,-108 54.8,-92 54.8,-88 54.5,-72 54.34,-63.49 54.03,-54.22 54.3,-45.84"/>
<polygon fill="#4a6fa5" stroke="#4a6fa5" stroke-width="1.2" points="57.08,-46.16 54.83,-37.99 51.5,-45.79 57.08,-46.16"/>
</g>
<!-- q_2&#45;&gt;q_1 -->
<g id="edge3" class="edge">
<title>q_2&#45;&gt;q_1</title>
<path fill="none" stroke="#4a6fa5" stroke-width="1.2" d="M44.47,-108.1C50,-116.13 55.59,-125.87 59.88,-134.8"/>
<polygon fill="#4a6fa5" stroke="#4a6fa5" stroke-width="1.2" points="57.29,-135.85 63.09,-142.04 62.41,-133.59 57.29,-135.85"/>
</g>
<!-- q_2&#45;&gt;q_3 -->
<g id="edge4" class="edge">
<title>q_2&#45;&gt;q_3</title>
<path fill="none" stroke="#4a6fa5" stroke-width="1.2" d="M28.18,-71.7C31.5,-63.39 36.71,-53.28 42.32,-44.14"/>
<polygon fill="#4a6fa5" stroke="#4a6fa5" stroke-width="1.2" points="44.54,-45.86 46.54,-37.63 39.84,-42.82 44.54,-45.86"/>
</g>
<!-- q_3&#45;&gt;q_1 -->
<g id="edge5" class="edge">
<title>q_3&#45;&gt;q_1</title>
<path fill="none" stroke="#4a6fa5" stroke-width="1.2" d="M76.68,-36.18C78.76,-46.55 79.27,-60.03 79.5,-72 79.8,-88 79.8,-92 79.5,-108 79.34,-116.51 79.03,-125.78 78.12,-134.16"/>
<polygon fill="#4a6fa5" stroke="#4a6fa5" stroke-width="1.2" points="75.36,-133.7 76.94,-142.02 80.9,-134.53 75.36,-133.7"/>
</g>
<!-- q_3&#45;&gt;q_2 -->
<g id="edge6" class="edge">
<title>q_3&#45;&gt;q_2</title>
<path fill="none" stroke="#4a6fa5" stroke-width="1.2" d="M63.9,-36.1C60.61,-44.38 55.42,-54.49 49.82,-63.64"/>
<polygon fill="#4a6fa5" stroke="#4a6fa5" stroke-width="1.2" points="47.59,-61.93 45.6,-70.17 52.29,-64.97 47.59,-61.93"/>
</g>
</g>
</svg>
