<?xml version="1.0" encoding="UTF-8" standalone="no"?>
<!DOCTYPE svg PUBLIC "-//W3C//DTD SVG 1.1//EN"
 "http://www.w3.org/Graphics/SVG/1.1/DTD/svg11.dtd">
<!-- Generated by graphviz version 14.1.0 (20251206.1807)
 -->
<!-- Title: sample1 Pages: 1 -->
<svg width="141pt" height="221pt"
 viewBox="0.00 0.00 141.00 221.00" xmlns="http://www.w3.org/2000/svg" xmlns:xlink="http://www.w3.org/1999/xlink">
<g id="graph0" class="graph" transform="scale(1 1) rotate(0) translate(4 217)">
<title>sample1</title>
<polygon fill="white" stroke="none" points="-4,4 -4,-217 137,-217 137,4 -4,4"/>
<!-- a -->
<g id="node1" class="node">
<title>a</title>
<path fill="#e6f2ff" stroke="#4a6fa5" d="M78,-124.5C78,-124.5 48,-124.5 48,-124.5 42,-124.5 36,-118.5 36,-112.5 36,-112.5 36,-100.5 36,-100.5 36,-94.5 42,-88.5 48,-88.5 48,-88.5 78,-88.5 78,-88.5 84,-88.5 90,-94.5 90,-100.5 90,-100.5 90,-112.5 90,-112.5 90,-118.5 84,-124.5 78,-124.5"/>
<text xml:space="preserve" text-anchor="middle" x="63" y="-103" font-family="Helvetica,sans-Serif" font-size="10.00">a</text>
</g>
<!-- b -->
<g id="node2" class="node">
<title>b</title>
<path fill="#e6f2ff" stroke="#4a6fa5" d="M42,-36C42,-36 12,-36 12,-36 6,-36 0,-30 0,-24 0,-24 0,-12 0,-12 0,-6 6,0 12,0 12,0 42,0 42,0 48,0 54,-6 54,-12 54,-12 54,-24 54,-24 54,-30 48,-36 42,-36"/>
<text xml:space="preserve" text-anchor="middle" x="27" y="-14.5" font-family="Helvetica,sans-Serif" font-size="10.00">b</text>
</g>
<!-- a&#45;&gt;b -->
<g id="edge3" class="edge">
<title>a&#45;&gt;b</title>
<path fill="none" stroke="#4a6fa5" stroke-width="1.2" d="M43.13,-88.29C38.35,-83.08 33.82,-77 31,-70.5 27.74,-62.98 26.3,-54.26 25.79,-46.16"/>
<polygon fill="#4a6fa5" stroke="#4a6fa5" stroke-width="1.2" points="28.59,-46.13 25.62,-38.19 22.99,-46.25 28.59,-46.13"/>
<text xml:space="preserve" text-anchor="middle" x="34" y="-57.2" font-family="Times New Roman,serif" font-size="14.00">z</text>
</g>
<!-- t1 -->
<g id="node4" class="node">
<title>t1</title>
<path fill="#e6f2ff" stroke="#4a6fa5" d="M121,-36C121,-36 91,-36 91,-36 85,-36 79,-30 79,-24 79,-24 79,-12 79,-12 79,-6 85,0 91,0 91,0 121,0 121,0 127,0 133,-6 133,-12 133,-12 133,-24 133,-24 133,-30 127,-36 121,-36"/>
<text xml:space="preserve" text-anchor="middle" x="106" y="-14.5" font-family="Helvetica,sans-Serif" font-size="10.00">t1</text>
</g>
<!-- a&#45;&gt;t1 -->
<g id="edge2" class="edge">
<title>a&#45;&gt;t1</title>
<path fill="none" stroke="#4a6fa5" stroke-width="1.2" d="M71.5,-88.41C77.64,-76.05 86.05,-59.13 93.03,-45.08"/>
<polygon fill="#4a6fa5" stroke="#4a6fa5" stroke-width="1.2" points="95.51,-46.39 96.57,-37.98 90.5,-43.89 95.51,-46.39"/>
<text xml:space="preserve" text-anchor="middle" x="91.73" y="-57.2" font-family="Times New Roman,serif" font-size="14.00">y</text>
</g>
<!-- b&#45;&gt;a -->
<g id="edge4" class="edge">
<title>b&#45;&gt;a</title>
<path fill="none" stroke="#4a6fa5" stroke-width="1.2" d="M34.22,-36.35C39.39,-48.77 46.44,-65.71 52.27,-79.71"/>
<polygon fill="#4a6fa5" stroke="#4a6fa5" stroke-width="1.2" points="49.53,-80.42 55.19,-86.73 54.7,-78.27 49.53,-80.42"/>
<text xml:space="preserve" text-anchor="middle" x="53.1" y="-57.2" font-family="Times New Roman,serif" font-size="14.00">w</text>
</g>
<!-- s1 -->
<g id="node3" class="node">
<title>s1</title>
<path fill="#e6f2ff" stroke="#4a6fa5" d="M78,-213C78,-213 48,-213 48,-213 42,-213 36,-207 36,-201 36,-201 36,-189 36,-189 36,-183 42,-177 48,-177 48,-177 78,-177 78,-177 84,-177 90,-183 90,-189 90,-189 90,-201 90,-201 90,-207 84,-213 78,-213"/>
<text xml:space="preserve" text-anchor="middle" x="63" y="-191.5" font-family="Helvetica,sans-Serif" font-size="10.00">s1</text>
</g>
<!-- s1&#45;&gt;a -->
<g id="edge1" class="edge">
<title>s1&#45;&gt;a</title>
<path fill="none" stroke="#4a6fa5" stroke-width="1.2" d="M63,-176.91C63,-164.79 63,-148.27 63,-134.39"/>
<polygon fill="#4a6fa5" stroke="#4a6fa5" stroke-width="1.2" points="65.8,-134.67 63,-126.67 60.2,-134.67 65.8,-134.67"/>
<text xml:space="preserve" text-anchor="middle" x="66.38" y="-145.7" font-family="Times New Roman,serif" font-size="14.00">x</text>
</g>
</g>
</svg>
