<?xml version="1.0" encoding="UTF-8" standalone="no"?>
<!DOCTYPE svg PUBLIC "-//W3C//DTD SVG 1.1//EN"
 "http://www.w3.org/Graphics/SVG/1.1/DTD/svg11.dtd">
<!-- Generated by graphviz version 14.1.0 (20251206.1807)
 -->
<!-- Title: sample1 Pages: 1 -->
<svg width="180pt" height="310pt"
 viewBox="0.00 0.00 180.00 310.00" xmlns="http://www.w3.org/2000/svg" xmlns:xlink="http://www.w3.org/1999/xlink">
<g id="graph0" class="graph" transform="scale(1 1) rotate(0) translate(4 305.5)">
<title>sample1</title>
<polygon fill="white" stroke="none" points="-4,4 -4,-305.5 176,-305.5 176,4 -4,4"/>
<!-- a -->
<g id="node1" class="node">
<title>a</title>
<path fill="#e6f2ff" stroke="#4a6fa5" d="M121,-213C121,-213 91,-213 91,-213 85,-213 79,-207 79,-201 79,-201 79,-189 79,-189 79,-183 85,-177 91,-177 91,-177 121,-177 121,-177 127,-177 133,-183 133,-189 133,-189 133,-201 133,-201 133,-207 127,-213 121,-213"/>
<text xml:space="preserve" text-anchor="middle" x="106" y="-191.5" font-family="Helvetica,sans-Serif" font-size="10.00">a</text>
</g>
<!-- b -->
<g id="node2" class="node">
<title>b</title>
<path fill="#e6f2ff" stroke="#4a6fa5" d="M81,-124.5C81,-124.5 51,-124.5 51,-124.5 45,-124.5 39,-118.5 39,-112.5 39,-112.5 39,-100.5 39,-100.5 39,-94.5 45,-88.5 51,-88.5 51,-88.5 81,-88.5 81,-88.5 87,-88.5 93,-94.5 93,-100.5 93,-100.5 93,-112.5 93,-112.5 93,-118.5 87,-124.5 81,-124.5"/>
<text xml:space="preserve" text-anchor="middle" x="66" y="-103" font-family="Helvetica,sans-Serif" font-size="10.00">b</text>
</g>
<!-- a&#45;&gt;b -->
<g id="edge5" class="edge">
<title>a&#45;&gt;b</title>
<path fill="none" stroke="#4a6fa5" stroke-width="1.2" d="M84.01,-176.67C78.91,-171.54 74.08,-165.53 71,-159 67.46,-151.49 65.82,-142.69 65.17,-134.51"/>
<polygon fill="#4a6fa5" stroke="#4a6fa5" stroke-width="1.2" points="67.98,-134.68 64.89,-126.79 62.39,-134.89 67.98,-134.68"/>
<text xml:space="preserve" text-anchor="middle" x="74" y="-145.7" font-family="Times New Roman,serif" font-size="14.00">z</text>
</g>
<!-- t1 -->
<g id="node5" class="node">
<title>t1</title>
<path fill="#e6f2ff" stroke="#4a6fa5" d="M160,-124.5C160,-124.5 130,-124.5 130,-124.5 124,-124.5 118,-118.5 118,-112.5 118,-112.5 118,-100.5 118,-100.5 118,-94.5 124,-88.5 130,-88.5 130,-88.5 160,-88.5 160,-88.5 166,-88.5 172,-94.5 172,-100.5 172,-100.5 172,-112.5 172,-112.5 172,-118.5 166,-124.5 160,-124.5"/>
<text xml:space="preserve" text-anchor="middle" x="145" y="-103" font-family="Helvetica,sans-Serif" font-size="10.00">t1</text>
</g>
<!-- a&#45;&gt;t1 -->
<g id="edge2" class="edge">
<title>a&#45;&gt;t1</title>
<path fill="none" stroke="#4a6fa5" stroke-width="1.2" d="M113.71,-176.91C119.28,-164.55 126.91,-147.63 133.24,-133.58"/>
<polygon fill="#4a6fa5" stroke="#4a6fa5" stroke-width="1.2" points="135.7,-134.95 136.43,-126.51 130.59,-132.65 135.7,-134.95"/>
<text xml:space="preserve" text-anchor="middle" x="132.37" y="-145.7" font-family="Times New Roman,serif" font-size="14.00">y</text>
</g>
<!-- b&#45;&gt;a -->
<g id="edge6" class="edge">
<title>b&#45;&gt;a</title>
<path fill="none" stroke="#4a6fa5" stroke-width="1.2" d="M74.02,-124.85C79.77,-137.27 87.6,-154.21 94.07,-168.21"/>
<polygon fill="#4a6fa5" stroke="#4a6fa5" stroke-width="1.2" points="91.44,-169.18 97.33,-175.26 96.52,-166.83 91.44,-169.18"/>
<text xml:space="preserve" text-anchor="middle" x="94.46" y="-145.7" font-family="Times New Roman,serif" font-size="14.00">w</text>
</g>
<!-- t2 -->
<g id="node6" class="node">
<title>t2</title>
<path fill="#e6f2ff" stroke="#4a6fa5" d="M81,-36C81,-36 51,-36 51,-36 45,-36 39,-30 39,-24 39,-24 39,-12 39,-12 39,-6 45,0 51,0 51,0 81,0 81,0 87,0 93,-6 93,-12 93,-12 93,-24 93,-24 93,-30 87,-36 81,-36"/>
<text xml:space="preserve" text-anchor="middle" x="66" y="-14.5" font-family="Helvetica,sans-Serif" font-size="10.00">t2</text>
</g>
<!-- b&#45;&gt;t2 -->
<g id="edge4" class="edge">
<title>b&#45;&gt;t2</title>
<path fill="none" stroke="#4a6fa5" stroke-width="1.2" d="M66,-88.41C66,-76.29 66,-59.77 66,-45.89"/>
<polygon fill="#4a6fa5" stroke="#4a6fa5" stroke-width="1.2" points="68.8,-46.17 66,-38.17 63.2,-46.17 68.8,-46.17"/>
<text xml:space="preserve" text-anchor="middle" x="69.38" y="-57.2" font-family="Times New Roman,serif" font-size="14.00">y</text>
</g>
<!-- s1 -->
<g id="node3" class="node">
<title>s1</title>
<path fill="#e6f2ff" stroke="#4a6fa5" d="M121,-301.5C121,-301.5 91,-301.5 91,-301.5 85,-301.5 79,-295.5 79,-289.5 79,-289.5 79,-277.5 79,-277.5 79,-271.5 85,-265.5 91,-265.5 91,-265.5 121,-265.5 121,-265.5 127,-265.5 133,-271.5 133,-277.5 133,-277.5 133,-289.5 133,-289.5 133,-295.5 127,-301.5 121,-301.5"/>
<text xml:space="preserve" text-anchor="middle" x="106" y="-280" font-family="Helvetica,sans-Serif" font-size="10.00">s1</text>
</g>
<!-- s1&#45;&gt;a -->
<g id="edge1" class="edge">
<title>s1&#45;&gt;a</title>
<path fill="none" stroke="#4a6fa5" stroke-width="1.2" d="M106,-265.41C106,-253.29 106,-236.77 106,-222.89"/>
<polygon fill="#4a6fa5" stroke="#4a6fa5" stroke-width="1.2" points="108.8,-223.17 106,-215.17 103.2,-223.17 108.8,-223.17"/>
<text xml:space="preserve" text-anchor="middle" x="109.38" y="-234.2" font-family="Times New Roman,serif" font-size="14.00">x</text>
</g>
<!-- s2 -->
<g id="node4" class="node">
<title>s2</title>
<path fill="#e6f2ff" stroke="#4a6fa5" d="M42,-213C42,-213 12,-213 12,-213 6,-213 0,-207 0,-201 0,-201 0,-189 0,-189 0,-183 6,-177 12,-177 12,-177 42,-177 42,-177 48,-177 54,-183 54,-189 54,-189 54,-201 54,-201 54,-207 48,-213 42,-213"/>
<text xml:space="preserve" text-anchor="middle" x="27" y="-191.5" font-family="Helvetica,sans-Serif" font-size="10.00">s2</text>
</g>
<!-- s2&#45;&gt;b -->
<g id="edge3" class="edge">
<title>s2&#45;&gt;b</title>
<path fill="none" stroke="#4a6fa5" stroke-width="1.2" d="M25.06,-176.55C24.64,-166.2 25.4,-153.09 30.25,-142.5 31.96,-138.77 34.26,-135.22 36.86,-131.92"/>
<polygon fill="#4a6fa5" stroke="#4a6fa5" stroke-width="1.2" points="38.89,-133.85 42.17,-126.03 34.73,-130.1 38.89,-133.85"/>
<text xml:space="preserve" text-anchor="middle" x="33.62" y="-145.7" font-family="Times New Roman,serif" font-size="14.00">x</text>
</g>
</g>
</svg>
