<?xml version="1.0" encoding="UTF-8" standalone="no"?>
<!DOCTYPE svg PUBLIC "-//W3C//DTD SVG 1.1//EN"
 "http://www.w3.org/Graphics/SVG/1.1/DTD/svg11.dtd">
<!-- Generated by graphviz version 14.1.0 (20251206.1807)
 -->
<!-- Title: sample1 Pages: 1 -->
<svg width="180pt" height="221pt"
 viewBox="0.00 0.00 180.00 221.00" xmlns="http://www.w3.org/2000/svg" xmlns:xlink="http://www.w3.org/1999/xlink">
<g id="graph0" class="graph" transform="scale(1 1) rotate(0) translate(4 217)">
<title>sample1</title>
<polygon fill="white" stroke="none" points="-4,4 -4,-217 176,-217 176,4 -4,4"/>
<!-- s1 -->
<g id="node1" class="node">
<title>s1</title>
<path fill="#e6f2ff" stroke="#4a6fa5" d="M81,-213C81,-213 51,-213 51,-213 45,-213 39,-207 39,-201 39,-201 39,-189 39,-189 39,-183 45,-177 51,-177 51,-177 81,-177 81,-177 87,-177 93,-183 93,-189 93,-189 93,-201 93,-201 93,-207 87,-213 81,-213"/>
<text xml:space="preserve" text-anchor="middle" x="66" y="-191.5" font-family="Helvetica,sans-Serif" font-size="10.00">s1</text>
</g>
<!-- a -->
<g id="node2" class="node">
<title>a</title>
<path fill="#e6f2ff" stroke="#4a6fa5" d="M81,-124.5C81,-124.5 51,-124.5 51,-124.5 45,-124.5 39,-118.5 39,-112.5 39,-112.5 39,-100.5 39,-100.5 39,-94.5 45,-88.5 51,-88.5 51,-88.5 81,-88.5 81,-88.5 87,-88.5 93,-94.5 93,-100.5 93,-100.5 93,-112.5 93,-112.5 93,-118.5 87,-124.5 81,-124.5"/>
<text xml:space="preserve" text-anchor="middle" x="66" y="-103" font-family="Helvetica,sans-Serif" font-size="10.00">a</text>
</g>
<!-- s1&#45;&gt;a -->
<g id="edge1" class="edge">
<title>s1&#45;&gt;a</title>
<path fill="none" stroke="#4a6fa5" stroke-width="1.2" d="M66,-176.91C66,-164.79 66,-148.27 66,-134.39"/>
<polygon fill="#4a6fa5" stroke="#4a6fa5" stroke-width="1.2" points="68.8,-134.67 66,-126.67 63.2,-134.67 68.8,-134.67"/>
<text xml:space="preserve" text-anchor="middle" x="69.38" y="-145.7" font-family="Times New Roman,serif" font-size="14.00">x</text>
</g>
<!-- t1 -->
<g id="node3" class="node">
<title>t1</title>
<path fill="#e6f2ff" stroke="#4a6fa5" d="M42,-36C42,-36 12,-36 12,-36 6,-36 0,-30 0,-24 0,-24 0,-12 0,-12 0,-6 6,0 12,0 12,0 42,0 42,0 48,0 54,-6 54,-12 54,-12 54,-24 54,-24 54,-30 48,-36 42,-36"/>
<text xml:space="preserve" text-anchor="middle" x="27" y="-14.5" font-family="Helvetica,sans-Serif" font-size="10.00">t1</text>
</g>
<!-- a&#45;&gt;t1 -->
<g id="edge2" class="edge">
<title>a&#45;&gt;t1</title>
<path fill="none" stroke="#4a6fa5" stroke-width="1.2" d="M43.39,-88.32C38.18,-83.18 33.29,-77.13 30.25,-70.5 26.84,-63.05 25.45,-54.36 25.07,-46.26"/>
<polygon fill="#4a6fa5" stroke="#4a6fa5" stroke-width="1.2" points="27.87,-46.26 25.06,-38.27 22.27,-46.27 27.87,-46.26"/>
<text xml:space="preserve" text-anchor="middle" x="33.62" y="-57.2" font-family="Times New Roman,serif" font-size="14.00">y</text>
</g>
<!-- b -->
<g id="node5" class="node">
<title>b</title>
<path fill="#e6f2ff" stroke="#4a6fa5" d="M121,-36C121,-36 91,-36 91,-36 85,-36 79,-30 79,-24 79,-24 79,-12 79,-12 79,-6 85,0 91,0 91,0 121,0 121,0 127,0 133,-6 133,-12 133,-12 133,-24 133,-24 133,-30 127,-36 121,-36"/>
<text xml:space="preserve" text-anchor="middle" x="106" y="-14.5" font-family="Helvetica,sans-Serif" font-size="10.00">b</text>
</g>
<!-- a&#45;&gt;b -->
<g id="edge4" class="edge">
<title>a&#45;&gt;b</title>
<path fill="none" stroke="#4a6fa5" stroke-width="1.2" d="M64.82,-88.03C64.8,-77.68 66.01,-64.56 71,-54 72.73,-50.33 75.02,-46.82 77.59,-43.54"/>
<polygon fill="#4a6fa5" stroke="#4a6fa5" stroke-width="1.2" points="79.58,-45.52 82.8,-37.69 75.39,-41.8 79.58,-45.52"/>
<text xml:space="preserve" text-anchor="middle" x="74" y="-57.2" font-family="Times New Roman,serif" font-size="14.00">z</text>
</g>
<!-- s2 -->
<g id="node4" class="node">
<title>s2</title>
<path fill="#e6f2ff" stroke="#4a6fa5" d="M160,-124.5C160,-124.5 130,-124.5 130,-124.5 124,-124.5 118,-118.5 118,-112.5 118,-112.5 118,-100.5 118,-100.5 118,-94.5 124,-88.5 130,-88.5 130,-88.5 160,-88.5 160,-88.5 166,-88.5 172,-94.5 172,-100.5 172,-100.5 172,-112.5 172,-112.5 172,-118.5 166,-124.5 160,-124.5"/>
<text xml:space="preserve" text-anchor="middle" x="145" y="-103" font-family="Helvetica,sans-Serif" font-size="10.00">s2</text>
</g>
<!-- s2&#45;&gt;b -->
<g id="edge3" class="edge">
<title>s2&#45;&gt;b</title>
<path fill="none" stroke="#4a6fa5" stroke-width="1.2" d="M137.29,-88.41C131.72,-76.05 124.09,-59.13 117.76,-45.08"/>
<polygon fill="#4a6fa5" stroke="#4a6fa5" stroke-width="1.2" points="120.41,-44.15 114.57,-38.01 115.3,-46.45 120.41,-44.15"/>
<text xml:space="preserve" text-anchor="middle" x="132.37" y="-57.2" font-family="Times New Roman,serif" font-size="14.00">x</text>
</g>
<!-- b&#45;&gt;a -->
<g id="edge5" class="edge">
<title>b&#45;&gt;a</title>
<path fill="none" stroke="#4a6fa5" stroke-width="1.2" d="M97.98,-36.35C92.23,-48.77 84.4,-65.71 77.93,-79.71"/>
<polygon fill="#4a6fa5" stroke="#4a6fa5" stroke-width="1.2" points="75.48,-78.33 74.67,-86.76 80.56,-80.68 75.48,-78.33"/>
<text xml:space="preserve" text-anchor="middle" x="94.46" y="-57.2" font-family="Times New Roman,serif" font-size="14.00">w</text>
</g>
</g>
</svg>
