<?xml version="1.0" encoding="UTF-8" standalone="no"?>
<!DOCTYPE svg PUBLIC "-//W3C//DTD SVG 1.1//EN"
 "http://www.w3.org/Graphics/SVG/1.1/DTD/svg11.dtd">
<!-- Generated by graphviz version 14.0.2 (20251019.1705)
 -->
<!-- Title: merged Pages: 1 -->
<svg width="348pt" height="398pt"
 viewBox="0.00 0.00 348.00 398.00" xmlns="http://www.w3.org/2000/svg" xmlns:xlink="http://www.w3.org/1999/xlink">
<g id="graph0" class="graph" transform="scale(1 1) rotate(0) translate(4 394)">
<title>merged</title>
<polygon fill="white" stroke="none" points="-4,4 -4,-394 344,-394 344,4 -4,4"/>
<!-- a -->
<g id="node1" class="node">
<title>a</title>
<path fill="#e6f2ff" stroke="#4a6fa5" d="M121,-213C121,-213 91,-213 91,-213 85,-213 79,-207 79,-201 79,-201 79,-189 79,-189 79,-183 85,-177 91,-177 91,-177 121,-177 121,-177 127,-177 133,-183 133,-189 133,-189 133,-201 133,-201 133,-207 127,-213 121,-213"/>
<text xml:space="preserve" text-anchor="middle" x="106" y="-191.5" font-family="Helvetica,sans-Serif" font-size="10.00">a</text>
</g>
<!-- b -->
<g id="node2" class="node">
<title>b</title>
<path fill="#e6f2ff" stroke="#4a6fa5" d="M121,-124.5C121,-124.5 91,-124.5 91,-124.5 85,-124.5 79,-118.5 79,-112.5 79,-112.5 79,-100.5 79,-100.5 79,-94.5 85,-88.5 91,-88.5 91,-88.5 121,-88.5 121,-88.5 127,-88.5 133,-94.5 133,-100.5 133,-100.5 133,-112.5 133,-112.5 133,-118.5 127,-124.5 121,-124.5"/>
<text xml:space="preserve" text-anchor="middle" x="106" y="-103" font-family="Helvetica,sans-Serif" font-size="10.00">b</text>
</g>
<!-- a&#45;&gt;b -->
<g id="edge5" class="edge">
<title>a&#45;&gt;b</title>
<path fill="none" stroke="#4a6fa5" stroke-width="1.2" d="M97.53,-176.59C95.27,-171.1 93.14,-164.91 92,-159 90.61,-151.8 90.61,-149.7 92,-142.5 92.53,-139.73 93.28,-136.9 94.17,-134.11"/>
<polygon fill="#4a6fa5" stroke="#4a6fa5" stroke-width="1.2" points="96.79,-135.09 96.9,-126.61 91.53,-133.17 96.79,-135.09"/>
<text xml:space="preserve" text-anchor="middle" x="95" y="-145.7" font-family="Times New Roman,serif" font-size="14.00">z</text>
</g>
<!-- t1 -->
<g id="node7" class="node">
<title>t1</title>
<path fill="#e6f2ff" stroke="#4a6fa5" d="M246,-124.5C246,-124.5 216,-124.5 216,-124.5 210,-124.5 204,-118.5 204,-112.5 204,-112.5 204,-100.5 204,-100.5 204,-94.5 210,-88.5 216,-88.5 216,-88.5 246,-88.5 246,-88.5 252,-88.5 258,-94.5 258,-100.5 258,-100.5 258,-112.5 258,-112.5 258,-118.5 252,-124.5 246,-124.5"/>
<text xml:space="preserve" text-anchor="middle" x="231" y="-103" font-family="Helvetica,sans-Serif" font-size="10.00">t1</text>
</g>
<!-- a&#45;&gt;t1 -->
<g id="edge2" class="edge">
<title>a&#45;&gt;t1</title>
<path fill="none" stroke="#4a6fa5" stroke-width="1.2" d="M131,-176.7C150.24,-163.38 177.02,-144.86 198.02,-130.32"/>
<polygon fill="#4a6fa5" stroke="#4a6fa5" stroke-width="1.2" points="199.57,-132.66 204.55,-125.8 196.38,-128.05 199.57,-132.66"/>
<text xml:space="preserve" text-anchor="middle" x="183.07" y="-145.7" font-family="Times New Roman,serif" font-size="14.00">y</text>
</g>
<!-- b&#45;&gt;a -->
<g id="edge6" class="edge">
<title>b&#45;&gt;a</title>
<path fill="none" stroke="#4a6fa5" stroke-width="1.2" d="M106,-124.85C106,-137.04 106,-153.56 106,-167.41"/>
<polygon fill="#4a6fa5" stroke="#4a6fa5" stroke-width="1.2" points="103.2,-167.09 106,-175.09 108.8,-167.09 103.2,-167.09"/>
<text xml:space="preserve" text-anchor="middle" x="110.88" y="-145.7" font-family="Times New Roman,serif" font-size="14.00">w</text>
</g>
<!-- t2 -->
<g id="node8" class="node">
<title>t2</title>
<path fill="#e6f2ff" stroke="#4a6fa5" d="M233,-36C233,-36 203,-36 203,-36 197,-36 191,-30 191,-24 191,-24 191,-12 191,-12 191,-6 197,0 203,0 203,0 233,0 233,0 239,0 245,-6 245,-12 245,-12 245,-24 245,-24 245,-30 239,-36 233,-36"/>
<text xml:space="preserve" text-anchor="middle" x="218" y="-14.5" font-family="Helvetica,sans-Serif" font-size="10.00">t2</text>
</g>
<!-- b&#45;&gt;t2 -->
<g id="edge4" class="edge">
<title>b&#45;&gt;t2</title>
<path fill="none" stroke="#4a6fa5" stroke-width="1.2" d="M128.4,-88.2C145.49,-75 169.21,-56.68 187.95,-42.21"/>
<polygon fill="#4a6fa5" stroke="#4a6fa5" stroke-width="1.2" points="189.59,-44.48 194.21,-37.38 186.16,-40.05 189.59,-44.48"/>
<text xml:space="preserve" text-anchor="middle" x="175.41" y="-57.2" font-family="Times New Roman,serif" font-size="14.00">y</text>
</g>
<!-- mid -->
<g id="node3" class="node">
<title>mid</title>
<path fill="#e6f2ff" stroke="#4a6fa5" d="M123,-301.5C123,-301.5 93,-301.5 93,-301.5 87,-301.5 81,-295.5 81,-289.5 81,-289.5 81,-277.5 81,-277.5 81,-271.5 87,-265.5 93,-265.5 93,-265.5 123,-265.5 123,-265.5 129,-265.5 135,-271.5 135,-277.5 135,-277.5 135,-289.5 135,-289.5 135,-295.5 129,-301.5 123,-301.5"/>
<text xml:space="preserve" text-anchor="middle" x="108" y="-280" font-family="Helvetica,sans-Serif" font-size="10.00">mid</text>
</g>
<!-- mid&#45;&gt;a -->
<g id="edge9" class="edge">
<title>mid&#45;&gt;a</title>
<path fill="none" stroke="#4a6fa5" stroke-width="1.2" d="M107.6,-265.41C107.32,-253.29 106.94,-236.77 106.62,-222.89"/>
<polygon fill="#4a6fa5" stroke="#4a6fa5" stroke-width="1.2" points="109.43,-223.1 106.44,-215.17 103.83,-223.23 109.43,-223.1"/>
<text xml:space="preserve" text-anchor="middle" x="109.43" y="-234.2" font-family="Times New Roman,serif" font-size="14.00">r</text>
</g>
<!-- t3 -->
<g id="node9" class="node">
<title>t3</title>
<path fill="#e6f2ff" stroke="#4a6fa5" d="M200,-213C200,-213 170,-213 170,-213 164,-213 158,-207 158,-201 158,-201 158,-189 158,-189 158,-183 164,-177 170,-177 170,-177 200,-177 200,-177 206,-177 212,-183 212,-189 212,-189 212,-201 212,-201 212,-207 206,-213 200,-213"/>
<text xml:space="preserve" text-anchor="middle" x="185" y="-191.5" font-family="Helvetica,sans-Serif" font-size="10.00">t3</text>
</g>
<!-- mid&#45;&gt;t3 -->
<g id="edge8" class="edge">
<title>mid&#45;&gt;t3</title>
<path fill="none" stroke="#4a6fa5" stroke-width="1.2" d="M123.21,-265.41C134.63,-252.58 150.43,-234.83 163.2,-220.49"/>
<polygon fill="#4a6fa5" stroke="#4a6fa5" stroke-width="1.2" points="165.12,-222.54 168.35,-214.71 160.94,-218.82 165.12,-222.54"/>
<text xml:space="preserve" text-anchor="middle" x="156.77" y="-234.2" font-family="Times New Roman,serif" font-size="14.00">q</text>
</g>
<!-- s1 -->
<g id="node4" class="node">
<title>s1</title>
<path fill="#e6f2ff" stroke="#4a6fa5" d="M44,-301.5C44,-301.5 14,-301.5 14,-301.5 8,-301.5 2,-295.5 2,-289.5 2,-289.5 2,-277.5 2,-277.5 2,-271.5 8,-265.5 14,-265.5 14,-265.5 44,-265.5 44,-265.5 50,-265.5 56,-271.5 56,-277.5 56,-277.5 56,-289.5 56,-289.5 56,-295.5 50,-301.5 44,-301.5"/>
<text xml:space="preserve" text-anchor="middle" x="29" y="-280" font-family="Helvetica,sans-Serif" font-size="10.00">s1</text>
</g>
<!-- s1&#45;&gt;a -->
<g id="edge1" class="edge">
<title>s1&#45;&gt;a</title>
<path fill="none" stroke="#4a6fa5" stroke-width="1.2" d="M44.21,-265.41C55.63,-252.58 71.43,-234.83 84.2,-220.49"/>
<polygon fill="#4a6fa5" stroke="#4a6fa5" stroke-width="1.2" points="86.12,-222.54 89.35,-214.71 81.94,-218.82 86.12,-222.54"/>
<text xml:space="preserve" text-anchor="middle" x="77.77" y="-234.2" font-family="Times New Roman,serif" font-size="14.00">x</text>
</g>
<!-- s2 -->
<g id="node5" class="node">
<title>s2</title>
<path fill="#e6f2ff" stroke="#4a6fa5" d="M42,-213C42,-213 12,-213 12,-213 6,-213 0,-207 0,-201 0,-201 0,-189 0,-189 0,-183 6,-177 12,-177 12,-177 42,-177 42,-177 48,-177 54,-183 54,-189 54,-189 54,-201 54,-201 54,-207 48,-213 42,-213"/>
<text xml:space="preserve" text-anchor="middle" x="27" y="-191.5" font-family="Helvetica,sans-Serif" font-size="10.00">s2</text>
</g>
<!-- s2&#45;&gt;b -->
<g id="edge3" class="edge">
<title>s2&#45;&gt;b</title>
<path fill="none" stroke="#4a6fa5" stroke-width="1.2" d="M42.61,-176.91C54.33,-164.08 70.54,-146.33 83.63,-131.99"/>
<polygon fill="#4a6fa5" stroke="#4a6fa5" stroke-width="1.2" points="85.6,-133.99 88.93,-126.19 81.47,-130.21 85.6,-133.99"/>
<text xml:space="preserve" text-anchor="middle" x="76.95" y="-145.7" font-family="Times New Roman,serif" font-size="14.00">x</text>
</g>
<!-- s3 -->
<g id="node6" class="node">
<title>s3</title>
<path fill="#e6f2ff" stroke="#4a6fa5" d="M232,-390C232,-390 202,-390 202,-390 196,-390 190,-384 190,-378 190,-378 190,-366 190,-366 190,-360 196,-354 202,-354 202,-354 232,-354 232,-354 238,-354 244,-360 244,-366 244,-366 244,-378 244,-378 244,-384 238,-390 232,-390"/>
<text xml:space="preserve" text-anchor="middle" x="217" y="-368.5" font-family="Helvetica,sans-Serif" font-size="10.00">s3</text>
</g>
<!-- s3&#45;&gt;mid -->
<g id="edge7" class="edge">
<title>s3&#45;&gt;mid</title>
<path fill="none" stroke="#4a6fa5" stroke-width="1.2" d="M189.65,-356.27C179.73,-350.45 168.65,-343.39 159.25,-336 148.92,-327.88 138.51,-317.84 129.8,-308.79"/>
<polygon fill="#4a6fa5" stroke="#4a6fa5" stroke-width="1.2" points="131.98,-307.02 124.46,-303.12 127.91,-310.86 131.98,-307.02"/>
<text xml:space="preserve" text-anchor="middle" x="162.62" y="-322.7" font-family="Times New Roman,serif" font-size="14.00">p</text>
</g>
<!-- s3&#45;&gt;t1 -->
<g id="edge10" class="edge">
<title>s3&#45;&gt;t1</title>
<path fill="none" stroke="#4a6fa5" stroke-width="1.2" d="M223.04,-353.7C224.83,-348.11 226.67,-341.84 228,-336 231.44,-320.89 231.89,-316.95 233,-301.5 237.28,-242.08 234.69,-172.16 232.68,-134.62"/>
<polygon fill="#4a6fa5" stroke="#4a6fa5" stroke-width="1.2" points="235.48,-134.56 232.24,-126.73 229.89,-134.88 235.48,-134.56"/>
<text xml:space="preserve" text-anchor="middle" x="248.81" y="-234.2" font-family="Times New Roman,serif" font-size="14.00">extra</text>
</g>
<!-- s3&#45;&gt;t2 -->
<g id="edge11" class="edge">
<title>s3&#45;&gt;t2</title>
<path fill="none" stroke="#4a6fa5" stroke-width="1.2" d="M244.25,-360.25C272.63,-347.06 313,-321.74 313,-284.5 313,-284.5 313,-284.5 313,-105.5 313,-72.29 280.87,-48.45 253.98,-34.32"/>
<polygon fill="#4a6fa5" stroke="#4a6fa5" stroke-width="1.2" points="255.51,-31.95 247.1,-30.88 253.01,-36.96 255.51,-31.95"/>
<text xml:space="preserve" text-anchor="middle" x="326.5" y="-189.95" font-family="Times New Roman,serif" font-size="14.00">extra</text>
</g>
<!-- s3&#45;&gt;t3 -->
<g id="edge12" class="edge">
<title>s3&#45;&gt;t3</title>
<path fill="none" stroke="#4a6fa5" stroke-width="1.2" d="M213.71,-353.58C211.06,-339.53 207.26,-319.25 204,-301.5 199.07,-274.64 193.55,-243.9 189.73,-222.56"/>
<polygon fill="#4a6fa5" stroke="#4a6fa5" stroke-width="1.2" points="192.54,-222.35 188.38,-214.97 187.03,-223.34 192.54,-222.35"/>
<text xml:space="preserve" text-anchor="middle" x="217.5" y="-278.45" font-family="Times New Roman,serif" font-size="14.00">extra</text>
</g>
</g>
</svg>
