<?xml version="1.0" encoding="UTF-8" standalone="no"?>
<!DOCTYPE svg PUBLIC "-//W3C//DTD SVG 1.1//EN"
 "http://www.w3.org/Graphics/SVG/1.1/DTD/svg11.dtd">
<!-- Generated by graphviz version 14.1.0 (20251206.1807)
 -->
<!-- Title: sample1 Pages: 1 -->
<svg width="187pt" height="310pt"
 viewBox="0.00 0.00 187.00 310.00" xmlns="http://www.w3.org/2000/svg" xmlns:xlink="http://www.w3.org/1999/xlink">
<g id="graph0" class="graph" transform="scale(1 1) rotate(0) translate(4 305.5)">
<title>sample1</title>
<polygon fill="white" stroke="none" points="-4,4 -4,-305.5 183,-305.5 183,4 -4,4"/>
<!-- a -->
<g id="node1" class="node">
<title>a</title>
<path fill="#e6f2ff" stroke="#4a6fa5" d="M127,-213C127,-213 97,-213 97,-213 91,-213 85,-207 85,-201 85,-201 85,-189 85,-189 85,-183 91,-177 97,-177 97,-177 127,-177 127,-177 133,-177 139,-183 139,-189 139,-189 139,-201 139,-201 139,-207 133,-213 127,-213"/>
<text xml:space="preserve" text-anchor="middle" x="112" y="-191.5" font-family="Helvetica,sans-Serif" font-size="10.00">a</text>
</g>
<!-- b -->
<g id="node2" class="node">
<title>b</title>
<path fill="#e6f2ff" stroke="#4a6fa5" d="M79,-124.5C79,-124.5 49,-124.5 49,-124.5 43,-124.5 37,-118.5 37,-112.5 37,-112.5 37,-100.5 37,-100.5 37,-94.5 43,-88.5 49,-88.5 49,-88.5 79,-88.5 79,-88.5 85,-88.5 91,-94.5 91,-100.5 91,-100.5 91,-112.5 91,-112.5 91,-118.5 85,-124.5 79,-124.5"/>
<text xml:space="preserve" text-anchor="middle" x="64" y="-103" font-family="Helvetica,sans-Serif" font-size="10.00">b</text>
</g>
<!-- a&#45;&gt;b -->
<g id="edge5" class="edge">
<title>a&#45;&gt;b</title>
<path fill="none" stroke="#4a6fa5" stroke-width="1.2" d="M84.66,-181.04C76.14,-175.52 67.74,-168.2 63,-159 59.16,-151.54 58.27,-142.63 58.68,-134.33"/>
<polygon fill="#4a6fa5" stroke="#4a6fa5" stroke-width="1.2" points="61.46,-134.71 59.53,-126.46 55.89,-134.12 61.46,-134.71"/>
<text xml:space="preserve" text-anchor="middle" x="72" y="-145.7" font-family="Times New Roman,serif" font-size="14.00">foo</text>
</g>
<!-- t1 -->
<g id="node5" class="node">
<title>t1</title>
<path fill="#e6f2ff" stroke="#4a6fa5" d="M167,-124.5C167,-124.5 137,-124.5 137,-124.5 131,-124.5 125,-118.5 125,-112.5 125,-112.5 125,-100.5 125,-100.5 125,-94.5 131,-88.5 137,-88.5 137,-88.5 167,-88.5 167,-88.5 173,-88.5 179,-94.5 179,-100.5 179,-100.5 179,-112.5 179,-112.5 179,-118.5 173,-124.5 167,-124.5"/>
<text xml:space="preserve" text-anchor="middle" x="152" y="-103" font-family="Helvetica,sans-Serif" font-size="10.00">t1</text>
</g>
<!-- a&#45;&gt;t1 -->
<g id="edge2" class="edge">
<title>a&#45;&gt;t1</title>
<path fill="none" stroke="#4a6fa5" stroke-width="1.2" d="M119.9,-176.91C125.62,-164.55 133.44,-147.63 139.94,-133.58"/>
<polygon fill="#4a6fa5" stroke="#4a6fa5" stroke-width="1.2" points="142.4,-134.94 143.21,-126.5 137.32,-132.58 142.4,-134.94"/>
<text xml:space="preserve" text-anchor="middle" x="138.96" y="-145.7" font-family="Times New Roman,serif" font-size="14.00">y</text>
</g>
<!-- b&#45;&gt;a -->
<g id="edge6" class="edge">
<title>b&#45;&gt;a</title>
<path fill="none" stroke="#4a6fa5" stroke-width="1.2" d="M73.63,-124.85C80.59,-137.39 90.1,-154.53 97.91,-168.61"/>
<polygon fill="#4a6fa5" stroke="#4a6fa5" stroke-width="1.2" points="95.31,-169.69 101.64,-175.32 100.2,-166.97 95.31,-169.69"/>
<text xml:space="preserve" text-anchor="middle" x="97.17" y="-145.7" font-family="Times New Roman,serif" font-size="14.00">w</text>
</g>
<!-- t2 -->
<g id="node6" class="node">
<title>t2</title>
<path fill="#e6f2ff" stroke="#4a6fa5" d="M79,-36C79,-36 49,-36 49,-36 43,-36 37,-30 37,-24 37,-24 37,-12 37,-12 37,-6 43,0 49,0 49,0 79,0 79,0 85,0 91,-6 91,-12 91,-12 91,-24 91,-24 91,-30 85,-36 79,-36"/>
<text xml:space="preserve" text-anchor="middle" x="64" y="-14.5" font-family="Helvetica,sans-Serif" font-size="10.00">t2</text>
</g>
<!-- b&#45;&gt;t2 -->
<g id="edge4" class="edge">
<title>b&#45;&gt;t2</title>
<path fill="none" stroke="#4a6fa5" stroke-width="1.2" d="M64,-88.41C64,-76.29 64,-59.77 64,-45.89"/>
<polygon fill="#4a6fa5" stroke="#4a6fa5" stroke-width="1.2" points="66.8,-46.17 64,-38.17 61.2,-46.17 66.8,-46.17"/>
<text xml:space="preserve" text-anchor="middle" x="67.38" y="-57.2" font-family="Times New Roman,serif" font-size="14.00">y</text>
</g>
<!-- s1 -->
<g id="node3" class="node">
<title>s1</title>
<path fill="#e6f2ff" stroke="#4a6fa5" d="M127,-301.5C127,-301.5 97,-301.5 97,-301.5 91,-301.5 85,-295.5 85,-289.5 85,-289.5 85,-277.5 85,-277.5 85,-271.5 91,-265.5 97,-265.5 97,-265.5 127,-265.5 127,-265.5 133,-265.5 139,-271.5 139,-277.5 139,-277.5 139,-289.5 139,-289.5 139,-295.5 133,-301.5 127,-301.5"/>
<text xml:space="preserve" text-anchor="middle" x="112" y="-280" font-family="Helvetica,sans-Serif" font-size="10.00">s1</text>
</g>
<!-- s1&#45;&gt;a -->
<g id="edge1" class="edge">
<title>s1&#45;&gt;a</title>
<path fill="none" stroke="#4a6fa5" stroke-width="1.2" d="M112,-265.41C112,-253.29 112,-236.77 112,-222.89"/>
<polygon fill="#4a6fa5" stroke="#4a6fa5" stroke-width="1.2" points="114.8,-223.17 112,-215.17 109.2,-223.17 114.8,-223.17"/>
<text xml:space="preserve" text-anchor="middle" x="115.38" y="-234.2" font-family="Times New Roman,serif" font-size="14.00">x</text>
</g>
<!-- s2 -->
<g id="node4" class="node">
<title>s2</title>
<path fill="#e6f2ff" stroke="#4a6fa5" d="M42,-213C42,-213 12,-213 12,-213 6,-213 0,-207 0,-201 0,-201 0,-189 0,-189 0,-183 6,-177 12,-177 12,-177 42,-177 42,-177 48,-177 54,-183 54,-189 54,-189 54,-201 54,-201 54,-207 48,-213 42,-213"/>
<text xml:space="preserve" text-anchor="middle" x="27" y="-191.5" font-family="Helvetica,sans-Serif" font-size="10.00">s2</text>
</g>
<!-- s2&#45;&gt;b -->
<g id="edge3" class="edge">
<title>s2&#45;&gt;b</title>
<path fill="none" stroke="#4a6fa5" stroke-width="1.2" d="M25.17,-176.6C24.79,-166.27 25.55,-153.16 30.25,-142.5 31.81,-138.95 33.9,-135.55 36.28,-132.36"/>
<polygon fill="#4a6fa5" stroke="#4a6fa5" stroke-width="1.2" points="38.41,-134.17 41.46,-126.26 34.15,-130.54 38.41,-134.17"/>
<text xml:space="preserve" text-anchor="middle" x="33.62" y="-145.7" font-family="Times New Roman,serif" font-size="14.00">x</text>
</g>
</g>
</svg>
