<?xml version="1.0" encoding="UTF-8" standalone="no"?>
<!DOCTYPE svg PUBLIC "-//W3C//DTD SVG 1.1//EN"
 "http://www.w3.org/Graphics/SVG/1.1/DTD/svg11.dtd">
<!-- Generated by graphviz version 14.1.0 (20251206.1807)
 -->
<!-- Title: sample1 Pages: 1 -->
<svg width="220pt" height="221pt"
 viewBox="0.00 0.00 220.00 221.00" xmlns="http://www.w3.org/2000/svg" xmlns:xlink="http://www.w3.org/1999/xlink">
<g id="graph0" class="graph" transform="scale(1 1) rotate(0) translate(4 217)">
<title>sample1</title>
<polygon fill="white" stroke="none" points="-4,4 -4,-217 216,-217 216,4 -4,4"/>
<!-- a -->
<g id="node1" class="node">
<title>a</title>
<path fill="#e6f2ff" stroke="#4a6fa5" d="M42,-124.5C42,-124.5 12,-124.5 12,-124.5 6,-124.5 0,-118.5 0,-112.5 0,-112.5 0,-100.5 0,-100.5 0,-94.5 6,-88.5 12,-88.5 12,-88.5 42,-88.5 42,-88.5 48,-88.5 54,-94.5 54,-100.5 54,-100.5 54,-112.5 54,-112.5 54,-118.5 48,-124.5 42,-124.5"/>
<text xml:space="preserve" text-anchor="middle" x="27" y="-103" font-family="Helvetica,sans-Serif" font-size="10.00">a</text>
</g>
<!-- t1 -->
<g id="node4" class="node">
<title>t1</title>
<path fill="#e6f2ff" stroke="#4a6fa5" d="M42,-36C42,-36 12,-36 12,-36 6,-36 0,-30 0,-24 0,-24 0,-12 0,-12 0,-6 6,0 12,0 12,0 42,0 42,0 48,0 54,-6 54,-12 54,-12 54,-24 54,-24 54,-30 48,-36 42,-36"/>
<text xml:space="preserve" text-anchor="middle" x="27" y="-14.5" font-family="Helvetica,sans-Serif" font-size="10.00">t1</text>
</g>
<!-- a&#45;&gt;t1 -->
<g id="edge2" class="edge">
<title>a&#45;&gt;t1</title>
<path fill="none" stroke="#4a6fa5" stroke-width="1.2" d="M27,-88.41C27,-76.29 27,-59.77 27,-45.89"/>
<polygon fill="#4a6fa5" stroke="#4a6fa5" stroke-width="1.2" points="29.8,-46.17 27,-38.17 24.2,-46.17 29.8,-46.17"/>
<text xml:space="preserve" text-anchor="middle" x="30.38" y="-57.2" font-family="Times New Roman,serif" font-size="14.00">y</text>
</g>
<!-- s1 -->
<g id="node2" class="node">
<title>s1</title>
<path fill="#e6f2ff" stroke="#4a6fa5" d="M42,-213C42,-213 12,-213 12,-213 6,-213 0,-207 0,-201 0,-201 0,-189 0,-189 0,-183 6,-177 12,-177 12,-177 42,-177 42,-177 48,-177 54,-183 54,-189 54,-189 54,-201 54,-201 54,-207 48,-213 42,-213"/>
<text xml:space="preserve" text-anchor="middle" x="27" y="-191.5" font-family="Helvetica,sans-Serif" font-size="10.00">s1</text>
</g>
<!-- s1&#45;&gt;a -->
<g id="edge1" class="edge">
<title>s1&#45;&gt;a</title>
<path fill="none" stroke="#4a6fa5" stroke-width="1.2" d="M27,-176.91C27,-164.79 27,-148.27 27,-134.39"/>
<polygon fill="#4a6fa5" stroke="#4a6fa5" stroke-width="1.2" points="29.8,-134.67 27,-126.67 24.2,-134.67 29.8,-134.67"/>
<text xml:space="preserve" text-anchor="middle" x="30.38" y="-145.7" font-family="Times New Roman,serif" font-size="14.00">x</text>
</g>
<!-- s2 -->
<g id="node3" class="node">
<title>s2</title>
<path fill="#e6f2ff" stroke="#4a6fa5" d="M121,-213C121,-213 91,-213 91,-213 85,-213 79,-207 79,-201 79,-201 79,-189 79,-189 79,-183 85,-177 91,-177 91,-177 121,-177 121,-177 127,-177 133,-183 133,-189 133,-189 133,-201 133,-201 133,-207 127,-213 121,-213"/>
<text xml:space="preserve" text-anchor="middle" x="106" y="-191.5" font-family="Helvetica,sans-Serif" font-size="10.00">s2</text>
</g>
<!-- t2 -->
<g id="node5" class="node">
<title>t2</title>
<path fill="#e6f2ff" stroke="#4a6fa5" d="M200,-213C200,-213 170,-213 170,-213 164,-213 158,-207 158,-201 158,-201 158,-189 158,-189 158,-183 164,-177 170,-177 170,-177 200,-177 200,-177 206,-177 212,-183 212,-189 212,-189 212,-201 212,-201 212,-207 206,-213 200,-213"/>
<text xml:space="preserve" text-anchor="middle" x="185" y="-191.5" font-family="Helvetica,sans-Serif" font-size="10.00">t2</text>
</g>
</g>
</svg>
