<?xml version="1.0" encoding="UTF-8" standalone="no"?>
<!DOCTYPE svg PUBLIC "-//W3C//DTD SVG 1.1//EN"
 "http://www.w3.org/Graphics/SVG/1.1/DTD/svg11.dtd">
<!-- Generated by graphviz version 14.1.0 (20251206.1807)
 -->
<!-- Title: sample2 Pages: 1 -->
<svg width="134pt" height="221pt"
 viewBox="0.00 0.00 134.00 221.00" xmlns="http://www.w3.org/2000/svg" xmlns:xlink="http://www.w3.org/1999/xlink">
<g id="graph0" class="graph" transform="scale(1 1) rotate(0) translate(4 217)">
<title>sample2</title>
<polygon fill="white" stroke="none" points="-4,4 -4,-217 130,-217 130,4 -4,4"/>
<!-- s3 -->
<g id="node1" class="node">
<title>s3</title>
<ellipse fill="none" stroke="black" cx="63" cy="-195" rx="27" ry="18"/>
<text xml:space="preserve" text-anchor="middle" x="63" y="-189.95" font-family="Times New Roman,serif" font-size="14.00">s3</text>
</g>
<!-- mid -->
<g id="node2" class="node">
<title>mid</title>
<ellipse fill="none" stroke="black" cx="63" cy="-106.5" rx="27" ry="18"/>
<text xml:space="preserve" text-anchor="middle" x="63" y="-101.45" font-family="Times New Roman,serif" font-size="14.00">mid</text>
</g>
<!-- s3&#45;&gt;mid -->
<g id="edge1" class="edge">
<title>s3&#45;&gt;mid</title>
<path fill="none" stroke="black" d="M63,-176.91C63,-165.26 63,-149.55 63,-136.02"/>
<polygon fill="black" stroke="black" points="66.5,-136.36 63,-126.36 59.5,-136.36 66.5,-136.36"/>
<text xml:space="preserve" text-anchor="middle" x="66.38" y="-145.7" font-family="Times New Roman,serif" font-size="14.00">p</text>
</g>
<!-- t3 -->
<g id="node3" class="node">
<title>t3</title>
<ellipse fill="none" stroke="black" cx="27" cy="-18" rx="27" ry="18"/>
<text xml:space="preserve" text-anchor="middle" x="27" y="-12.95" font-family="Times New Roman,serif" font-size="14.00">t3</text>
</g>
<!-- mid&#45;&gt;t3 -->
<g id="edge2" class="edge">
<title>mid&#45;&gt;t3</title>
<path fill="none" stroke="black" d="M56.06,-88.82C51.03,-76.74 44.12,-60.13 38.3,-46.14"/>
<polygon fill="black" stroke="black" points="41.58,-44.91 34.5,-37.02 35.11,-47.6 41.58,-44.91"/>
<text xml:space="preserve" text-anchor="middle" x="51.6" y="-57.2" font-family="Times New Roman,serif" font-size="14.00">q</text>
</g>
<!-- a -->
<g id="node4" class="node">
<title>a</title>
<ellipse fill="none" stroke="black" cx="99" cy="-18" rx="27" ry="18"/>
<text xml:space="preserve" text-anchor="middle" x="99" y="-12.95" font-family="Times New Roman,serif" font-size="14.00">a</text>
</g>
<!-- mid&#45;&gt;a -->
<g id="edge3" class="edge">
<title>mid&#45;&gt;a</title>
<path fill="none" stroke="black" d="M69.94,-88.82C74.97,-76.74 81.88,-60.13 87.7,-46.14"/>
<polygon fill="black" stroke="black" points="90.89,-47.6 91.5,-37.02 84.42,-44.91 90.89,-47.6"/>
<text xml:space="preserve" text-anchor="middle" x="86.47" y="-57.2" font-family="Times New Roman,serif" font-size="14.00">r</text>
</g>
</g>
</svg>
