<?xml version="1.0" encoding="UTF-8" standalone="no"?>
<!DOCTYPE svg PUBLIC "-//W3C//DTD SVG 1.1//EN"
 "http://www.w3.org/Graphics/SVG/1.1/DTD/svg11.dtd">
<!-- Generated by graphviz version 14.1.0 (20251206.1807)
 -->
<!-- Title: sample1 Pages: 1 -->
<svg width="164pt" height="310pt"
 viewBox="0.00 0.00 164.00 310.00" xmlns="http://www.w3.org/2000/svg" xmlns:xlink="http://www.w3.org/1999/xlink">
<g id="graph0" class="graph" transform="scale(1 1) rotate(0) translate(4 305.5)">
<title>sample1</title>
<polygon fill="white" stroke="none" points="-4,4 -4,-305.5 160,-305.5 160,4 -4,4"/>
<!-- s1 -->
<g id="node1" class="node">
<title>s1</title>
<ellipse fill="none" stroke="black" cx="57" cy="-283.5" rx="27" ry="18"/>
<text xml:space="preserve" text-anchor="middle" x="57" y="-278.45" font-family="Times New Roman,serif" font-size="14.00">s1</text>
</g>
<!-- a -->
<g id="node3" class="node">
<title>a</title>
<ellipse fill="none" stroke="black" cx="57" cy="-195" rx="27" ry="18"/>
<text xml:space="preserve" text-anchor="middle" x="57" y="-189.95" font-family="Times New Roman,serif" font-size="14.00">a</text>
</g>
<!-- s1&#45;&gt;a -->
<g id="edge1" class="edge">
<title>s1&#45;&gt;a</title>
<path fill="none" stroke="black" d="M57,-265.41C57,-253.76 57,-238.05 57,-224.52"/>
<polygon fill="black" stroke="black" points="60.5,-224.86 57,-214.86 53.5,-224.86 60.5,-224.86"/>
<text xml:space="preserve" text-anchor="middle" x="60.38" y="-234.2" font-family="Times New Roman,serif" font-size="14.00">x</text>
</g>
<!-- s2 -->
<g id="node2" class="node">
<title>s2</title>
<ellipse fill="none" stroke="black" cx="129" cy="-195" rx="27" ry="18"/>
<text xml:space="preserve" text-anchor="middle" x="129" y="-189.95" font-family="Times New Roman,serif" font-size="14.00">s2</text>
</g>
<!-- b -->
<g id="node4" class="node">
<title>b</title>
<ellipse fill="none" stroke="black" cx="99" cy="-106.5" rx="27" ry="18"/>
<text xml:space="preserve" text-anchor="middle" x="99" y="-101.45" font-family="Times New Roman,serif" font-size="14.00">b</text>
</g>
<!-- s2&#45;&gt;b -->
<g id="edge3" class="edge">
<title>s2&#45;&gt;b</title>
<path fill="none" stroke="black" d="M123.22,-177.32C119.05,-165.31 113.34,-148.84 108.51,-134.91"/>
<polygon fill="black" stroke="black" points="111.95,-134.15 105.36,-125.85 105.33,-136.45 111.95,-134.15"/>
<text xml:space="preserve" text-anchor="middle" x="120.06" y="-145.7" font-family="Times New Roman,serif" font-size="14.00">x</text>
</g>
<!-- a&#45;&gt;b -->
<g id="edge5" class="edge">
<title>a&#45;&gt;b</title>
<path fill="none" stroke="black" d="M65.1,-177.32C71.02,-165.12 79.19,-148.3 86.02,-134.23"/>
<polygon fill="black" stroke="black" points="89.05,-136.01 90.27,-125.49 82.75,-132.96 89.05,-136.01"/>
<text xml:space="preserve" text-anchor="middle" x="84.76" y="-145.7" font-family="Times New Roman,serif" font-size="14.00">z</text>
</g>
<!-- t1 -->
<g id="node5" class="node">
<title>t1</title>
<ellipse fill="none" stroke="black" cx="27" cy="-106.5" rx="27" ry="18"/>
<text xml:space="preserve" text-anchor="middle" x="27" y="-101.45" font-family="Times New Roman,serif" font-size="14.00">t1</text>
</g>
<!-- a&#45;&gt;t1 -->
<g id="edge2" class="edge">
<title>a&#45;&gt;t1</title>
<path fill="none" stroke="black" d="M43.8,-178.96C39.38,-173.11 34.91,-166.11 32.25,-159 29.56,-151.82 28.08,-143.71 27.3,-136.08"/>
<polygon fill="black" stroke="black" points="30.8,-135.97 26.68,-126.21 23.81,-136.41 30.8,-135.97"/>
<text xml:space="preserve" text-anchor="middle" x="35.62" y="-145.7" font-family="Times New Roman,serif" font-size="14.00">y</text>
</g>
<!-- b&#45;&gt;a -->
<g id="edge6" class="edge">
<title>b&#45;&gt;a</title>
<path fill="none" stroke="black" d="M80.37,-120.04C73.13,-125.95 65.55,-133.66 61.25,-142.5 57.81,-149.57 56.23,-157.84 55.63,-165.65"/>
<polygon fill="black" stroke="black" points="52.14,-165.36 55.41,-175.44 59.14,-165.52 52.14,-165.36"/>
<text xml:space="preserve" text-anchor="middle" x="66.12" y="-145.7" font-family="Times New Roman,serif" font-size="14.00">w</text>
</g>
<!-- t2 -->
<g id="node6" class="node">
<title>t2</title>
<ellipse fill="none" stroke="black" cx="99" cy="-18" rx="27" ry="18"/>
<text xml:space="preserve" text-anchor="middle" x="99" y="-12.95" font-family="Times New Roman,serif" font-size="14.00">t2</text>
</g>
<!-- b&#45;&gt;t2 -->
<g id="edge4" class="edge">
<title>b&#45;&gt;t2</title>
<path fill="none" stroke="black" d="M99,-88.41C99,-76.76 99,-61.05 99,-47.52"/>
<polygon fill="black" stroke="black" points="102.5,-47.86 99,-37.86 95.5,-47.86 102.5,-47.86"/>
<text xml:space="preserve" text-anchor="middle" x="102.38" y="-57.2" font-family="Times New Roman,serif" font-size="14.00">y</text>
</g>
</g>
</svg>
