<?xml version="1.0" encoding="UTF-8" standalone="no"?>
<!DOCTYPE svg PUBLIC "-//W3C//DTD SVG 1.1//EN"
 "http://www.w3.org/Graphics/SVG/1.1/DTD/svg11.dtd">
<!-- Generated by graphviz version 14.1.0 (20251206.1807)
 -->
<!-- Title: sample1 Pages: 1 -->
<svg width="183pt" height="310pt"
 viewBox="0.00 0.00 183.00 310.00" xmlns="http://www.w3.org/2000/svg" xmlns:xlink="http://www.w3.org/1999/xlink">
<g id="graph0" class="graph" transform="scale(1 1) rotate(0) translate(4 305.5)">
<title>sample1</title>
<polygon fill="white" stroke="none" points="-4,4 -4,-305.5 179,-305.5 179,4 -4,4"/>
<!-- a -->
<g id="node1" class="node">
<title>a</title>
<path fill="#e6f2ff" stroke="#4a6fa5" d="M127.12,-213C127.12,-213 90.88,-213 90.88,-213 84.88,-213 78.88,-207 78.88,-201 78.88,-201 78.88,-189 78.88,-189 78.88,-183 84.88,-177 90.88,-177 90.88,-177 127.12,-177 127.12,-177 133.12,-177 139.12,-183 139.12,-189 139.12,-189 139.12,-201 139.12,-201 139.12,-207 133.12,-213 127.12,-213"/>
<text xml:space="preserve" text-anchor="middle" x="109" y="-191.5" font-family="Helvetica,sans-Serif" font-size="10.00">a:indegsel</text>
</g>
<!-- b -->
<g id="node2" class="node">
<title>b</title>
<path fill="#e6f2ff" stroke="#4a6fa5" d="M84.12,-124.5C84.12,-124.5 47.88,-124.5 47.88,-124.5 41.88,-124.5 35.88,-118.5 35.88,-112.5 35.88,-112.5 35.88,-100.5 35.88,-100.5 35.88,-94.5 41.88,-88.5 47.88,-88.5 47.88,-88.5 84.12,-88.5 84.12,-88.5 90.12,-88.5 96.12,-94.5 96.12,-100.5 96.12,-100.5 96.12,-112.5 96.12,-112.5 96.12,-118.5 90.12,-124.5 84.12,-124.5"/>
<text xml:space="preserve" text-anchor="middle" x="66" y="-103" font-family="Helvetica,sans-Serif" font-size="10.00">b:indegsel</text>
</g>
<!-- a&#45;&gt;b -->
<g id="edge5" class="edge">
<title>a&#45;&gt;b</title>
<path fill="none" stroke="#4a6fa5" stroke-width="1.2" d="M85.84,-176.82C80.46,-171.69 75.33,-165.64 72,-159 68.22,-151.45 66.4,-142.51 65.62,-134.22"/>
<polygon fill="#4a6fa5" stroke="#4a6fa5" stroke-width="1.2" points="68.42,-134.22 65.21,-126.38 62.83,-134.52 68.42,-134.22"/>
<text xml:space="preserve" text-anchor="middle" x="75" y="-145.7" font-family="Times New Roman,serif" font-size="14.00">z</text>
</g>
<!-- t1 -->
<g id="node5" class="node">
<title>t1</title>
<path fill="#e6f2ff" stroke="#4a6fa5" d="M163,-124.5C163,-124.5 133,-124.5 133,-124.5 127,-124.5 121,-118.5 121,-112.5 121,-112.5 121,-100.5 121,-100.5 121,-94.5 127,-88.5 133,-88.5 133,-88.5 163,-88.5 163,-88.5 169,-88.5 175,-94.5 175,-100.5 175,-100.5 175,-112.5 175,-112.5 175,-118.5 169,-124.5 163,-124.5"/>
<text xml:space="preserve" text-anchor="middle" x="148" y="-103" font-family="Helvetica,sans-Serif" font-size="10.00">t1</text>
</g>
<!-- a&#45;&gt;t1 -->
<g id="edge2" class="edge">
<title>a&#45;&gt;t1</title>
<path fill="none" stroke="#4a6fa5" stroke-width="1.2" d="M116.71,-176.91C122.28,-164.55 129.91,-147.63 136.24,-133.58"/>
<polygon fill="#4a6fa5" stroke="#4a6fa5" stroke-width="1.2" points="138.7,-134.95 139.43,-126.51 133.59,-132.65 138.7,-134.95"/>
<text xml:space="preserve" text-anchor="middle" x="135.37" y="-145.7" font-family="Times New Roman,serif" font-size="14.00">y</text>
</g>
<!-- b&#45;&gt;a -->
<g id="edge6" class="edge">
<title>b&#45;&gt;a</title>
<path fill="none" stroke="#4a6fa5" stroke-width="1.2" d="M74.62,-124.85C80.8,-137.27 89.22,-154.21 96.18,-168.21"/>
<polygon fill="#4a6fa5" stroke="#4a6fa5" stroke-width="1.2" points="93.63,-169.37 99.7,-175.28 98.64,-166.87 93.63,-169.37"/>
<text xml:space="preserve" text-anchor="middle" x="96.23" y="-145.7" font-family="Times New Roman,serif" font-size="14.00">w</text>
</g>
<!-- t2 -->
<g id="node6" class="node">
<title>t2</title>
<path fill="#e6f2ff" stroke="#4a6fa5" d="M81,-36C81,-36 51,-36 51,-36 45,-36 39,-30 39,-24 39,-24 39,-12 39,-12 39,-6 45,0 51,0 51,0 81,0 81,0 87,0 93,-6 93,-12 93,-12 93,-24 93,-24 93,-30 87,-36 81,-36"/>
<text xml:space="preserve" text-anchor="middle" x="66" y="-14.5" font-family="Helvetica,sans-Serif" font-size="10.00">t2</text>
</g>
<!-- b&#45;&gt;t2 -->
<g id="edge4" class="edge">
<title>b&#45;&gt;t2</title>
<path fill="none" stroke="#4a6fa5" stroke-width="1.2" d="M66,-88.41C66,-76.29 66,-59.77 66,-45.89"/>
<polygon fill="#4a6fa5" stroke="#4a6fa5" stroke-width="1.2" points="68.8,-46.17 66,-38.17 63.2,-46.17 68.8,-46.17"/>
<text xml:space="preserve" text-anchor="middle" x="69.38" y="-57.2" font-family="Times New Roman,serif" font-size="14.00">y</text>
</g>
<!-- s1 -->
<g id="node3" class="node">
<title>s1</title>
<path fill="#e6f2ff" stroke="#4a6fa5" d="M124,-301.5C124,-301.5 94,-301.5 94,-301.5 88,-301.5 82,-295.5 82,-289.5 82,-289.5 82,-277.5 82,-277.5 82,-271.5 88,-265.5 94,-265.5 94,-265.5 124,-265.5 124,-265.5 130,-265.5 136,-271.5 136,-277.5 136,-277.5 136,-289.5 136,-289.5 136,-295.5 130,-301.5 124,-301.5"/>
<text xml:space="preserve" text-anchor="middle" x="109" y="-280" font-family="Helvetica,sans-Serif" font-size="10.00">s1</text>
</g>
<!-- s1&#45;&gt;a -->
<g id="edge1" class="edge">
<title>s1&#45;&gt;a</title>
<path fill="none" stroke="#4a6fa5" stroke-width="1.2" d="M109,-265.41C109,-253.29 109,-236.77 109,-222.89"/>
<polygon fill="#4a6fa5" stroke="#4a6fa5" stroke-width="1.2" points="111.8,-223.17 109,-215.17 106.2,-223.17 111.8,-223.17"/>
<text xml:space="preserve" text-anchor="middle" x="112.38" y="-234.2" font-family="Times New Roman,serif" font-size="14.00">x</text>
</g>
<!-- s2 -->
<g id="node4" class="node">
<title>s2</title>
<path fill="#e6f2ff" stroke="#4a6fa5" d="M42,-213C42,-213 12,-213 12,-213 6,-213 0,-207 0,-201 0,-201 0,-189 0,-189 0,-183 6,-177 12,-177 12,-177 42,-177 42,-177 48,-177 54,-183 54,-189 54,-189 54,-201 54,-201 54,-207 48,-213 42,-213"/>
<text xml:space="preserve" text-anchor="middle" x="27" y="-191.5" font-family="Helvetica,sans-Serif" font-size="10.00">s2</text>
</g>
<!-- s2&#45;&gt;b -->
<g id="edge3" class="edge">
<title>s2&#45;&gt;b</title>
<path fill="none" stroke="#4a6fa5" stroke-width="1.2" d="M25.06,-176.55C24.64,-166.2 25.4,-153.09 30.25,-142.5 31.96,-138.77 34.26,-135.22 36.86,-131.92"/>
<polygon fill="#4a6fa5" stroke="#4a6fa5" stroke-width="1.2" points="38.89,-133.85 42.17,-126.03 34.73,-130.1 38.89,-133.85"/>
<text xml:space="preserve" text-anchor="middle" x="33.62" y="-145.7" font-family="Times New Roman,serif" font-size="14.00">x</text>
</g>
</g>
</svg>
