<?xml version="1.0" encoding="UTF-8" standalone="no"?>
<!DOCTYPE svg PUBLIC "-//W3C//DTD SVG 1.1//EN"
 "http://www.w3.org/Graphics/SVG/1.1/DTD/svg11.dtd">
<!-- Generated by graphviz version 14.1.0 (20251206.1807)
 -->
<!-- Title: comps Pages: 1 -->
<svg width="226pt" height="133pt"
 viewBox="0.00 0.00 226.00 133.00" xmlns="http://www.w3.org/2000/svg" xmlns:xlink="http://www.w3.org/1999/xlink">
<g id="graph0" class="graph" transform="scale(1 1) rotate(0) translate(4 128.5)">
<title>comps</title>
<polygon fill="white" stroke="none" points="-4,4 -4,-128.5 222.12,-128.5 222.12,4 -4,4"/>
<!-- x1 -->
<g id="node1" class="node">
<title>x1</title>
<path fill="#e6f2ff" stroke="#4a6fa5" d="M48.25,-124.5C48.25,-124.5 12,-124.5 12,-124.5 6,-124.5 0,-118.5 0,-112.5 0,-112.5 0,-100.5 0,-100.5 0,-94.5 6,-88.5 12,-88.5 12,-88.5 48.25,-88.5 48.25,-88.5 54.25,-88.5 60.25,-94.5 60.25,-100.5 60.25,-100.5 60.25,-112.5 60.25,-112.5 60.25,-118.5 54.25,-124.5 48.25,-124.5"/>
<text xml:space="preserve" text-anchor="middle" x="30.12" y="-103" font-family="Helvetica,sans-Serif" font-size="10.00">x1:compA</text>
</g>
<!-- x2 -->
<g id="node2" class="node">
<title>x2</title>
<path fill="#e6f2ff" stroke="#4a6fa5" d="M48.25,-36C48.25,-36 12,-36 12,-36 6,-36 0,-30 0,-24 0,-24 0,-12 0,-12 0,-6 6,0 12,0 12,0 48.25,0 48.25,0 54.25,0 60.25,-6 60.25,-12 60.25,-12 60.25,-24 60.25,-24 60.25,-30 54.25,-36 48.25,-36"/>
<text xml:space="preserve" text-anchor="middle" x="30.12" y="-14.5" font-family="Helvetica,sans-Serif" font-size="10.00">x2:compA</text>
</g>
<!-- x1&#45;&gt;x2 -->
<g id="edge1" class="edge">
<title>x1&#45;&gt;x2</title>
<path fill="none" stroke="#4a6fa5" stroke-width="1.2" d="M30.12,-88.41C30.12,-76.29 30.12,-59.77 30.12,-45.89"/>
<polygon fill="#4a6fa5" stroke="#4a6fa5" stroke-width="1.2" points="32.93,-46.17 30.13,-38.17 27.33,-46.17 32.93,-46.17"/>
<text xml:space="preserve" text-anchor="middle" x="50.38" y="-57.2" font-family="Times New Roman,serif" font-size="14.00">compA</text>
</g>
<!-- y1 -->
<g id="node3" class="node">
<title>y1</title>
<path fill="#e6f2ff" stroke="#4a6fa5" d="M127.12,-124.5C127.12,-124.5 97.12,-124.5 97.12,-124.5 91.12,-124.5 85.12,-118.5 85.12,-112.5 85.12,-112.5 85.12,-100.5 85.12,-100.5 85.12,-94.5 91.12,-88.5 97.12,-88.5 97.12,-88.5 127.12,-88.5 127.12,-88.5 133.12,-88.5 139.12,-94.5 139.12,-100.5 139.12,-100.5 139.12,-112.5 139.12,-112.5 139.12,-118.5 133.12,-124.5 127.12,-124.5"/>
<text xml:space="preserve" text-anchor="middle" x="112.12" y="-103" font-family="Helvetica,sans-Serif" font-size="10.00">y1</text>
</g>
<!-- y2 -->
<g id="node4" class="node">
<title>y2</title>
<path fill="#e6f2ff" stroke="#4a6fa5" d="M127.12,-36C127.12,-36 97.12,-36 97.12,-36 91.12,-36 85.12,-30 85.12,-24 85.12,-24 85.12,-12 85.12,-12 85.12,-6 91.12,0 97.12,0 97.12,0 127.12,0 127.12,0 133.12,0 139.12,-6 139.12,-12 139.12,-12 139.12,-24 139.12,-24 139.12,-30 133.12,-36 127.12,-36"/>
<text xml:space="preserve" text-anchor="middle" x="112.12" y="-14.5" font-family="Helvetica,sans-Serif" font-size="10.00">y2</text>
</g>
<!-- y1&#45;&gt;y2 -->
<g id="edge2" class="edge">
<title>y1&#45;&gt;y2</title>
<path fill="none" stroke="#4a6fa5" stroke-width="1.2" d="M112.12,-88.41C112.12,-76.29 112.12,-59.77 112.12,-45.89"/>
<polygon fill="#4a6fa5" stroke="#4a6fa5" stroke-width="1.2" points="114.93,-46.17 112.13,-38.17 109.33,-46.17 114.93,-46.17"/>
</g>
<!-- z1 -->
<g id="node5" class="node">
<title>z1</title>
<path fill="#e6f2ff" stroke="#4a6fa5" d="M206.12,-124.5C206.12,-124.5 176.12,-124.5 176.12,-124.5 170.12,-124.5 164.12,-118.5 164.12,-112.5 164.12,-112.5 164.12,-100.5 164.12,-100.5 164.12,-94.5 170.12,-88.5 176.12,-88.5 176.12,-88.5 206.12,-88.5 206.12,-88.5 212.12,-88.5 218.12,-94.5 218.12,-100.5 218.12,-100.5 218.12,-112.5 218.12,-112.5 218.12,-118.5 212.12,-124.5 206.12,-124.5"/>
<text xml:space="preserve" text-anchor="middle" x="191.12" y="-103" font-family="Helvetica,sans-Serif" font-size="10.00">z1</text>
</g>
</g>
</svg>
