<?xml version="1.0" encoding="UTF-8" standalone="no"?>
<!DOCTYPE svg PUBLIC "-//W3C//DTD SVG 1.1//EN"
 "http://www.w3.org/Graphics/SVG/1.1/DTD/svg11.dtd">
<!-- Generated by graphviz version 14.1.0 (20251206.1807)
 -->
<!-- Title: sample1 Pages: 1 -->
<svg width="378pt" height="133pt"
 viewBox="0.00 0.00 378.00 133.00" xmlns="http://www.w3.org/2000/svg" xmlns:xlink="http://www.w3.org/1999/xlink">
<g id="graph0" class="graph" transform="scale(1 1) rotate(0) translate(4 128.5)">
<title>sample1</title>
<polygon fill="white" stroke="none" points="-4,4 -4,-128.5 374,-128.5 374,4 -4,4"/>
<!-- a -->
<g id="node1" class="node">
<title>a</title>
<path fill="#e6f2ff" stroke="#4a6fa5" d="M42,-124.5C42,-124.5 12,-124.5 12,-124.5 6,-124.5 0,-118.5 0,-112.5 0,-112.5 0,-100.5 0,-100.5 0,-94.5 6,-88.5 12,-88.5 12,-88.5 42,-88.5 42,-88.5 48,-88.5 54,-94.5 54,-100.5 54,-100.5 54,-112.5 54,-112.5 54,-118.5 48,-124.5 42,-124.5"/>
<text xml:space="preserve" text-anchor="middle" x="27" y="-103" font-family="Helvetica,sans-Serif" font-size="10.00">a</text>
</g>
<!-- t1 -->
<g id="node5" class="node">
<title>t1</title>
<path fill="#e6f2ff" stroke="#4a6fa5" d="M42,-36C42,-36 12,-36 12,-36 6,-36 0,-30 0,-24 0,-24 0,-12 0,-12 0,-6 6,0 12,0 12,0 42,0 42,0 48,0 54,-6 54,-12 54,-12 54,-24 54,-24 54,-30 48,-36 42,-36"/>
<text xml:space="preserve" text-anchor="middle" x="27" y="-14.5" font-family="Helvetica,sans-Serif" font-size="10.00">t1</text>
</g>
<!-- a&#45;&gt;t1 -->
<g id="edge1" class="edge">
<title>a&#45;&gt;t1</title>
<path fill="none" stroke="#4a6fa5" stroke-width="1.2" d="M27,-88.41C27,-76.29 27,-59.77 27,-45.89"/>
<polygon fill="#4a6fa5" stroke="#4a6fa5" stroke-width="1.2" points="29.8,-46.17 27,-38.17 24.2,-46.17 29.8,-46.17"/>
<text xml:space="preserve" text-anchor="middle" x="30.38" y="-57.2" font-family="Times New Roman,serif" font-size="14.00">y</text>
</g>
<!-- b -->
<g id="node2" class="node">
<title>b</title>
<path fill="#e6f2ff" stroke="#4a6fa5" d="M121,-124.5C121,-124.5 91,-124.5 91,-124.5 85,-124.5 79,-118.5 79,-112.5 79,-112.5 79,-100.5 79,-100.5 79,-94.5 85,-88.5 91,-88.5 91,-88.5 121,-88.5 121,-88.5 127,-88.5 133,-94.5 133,-100.5 133,-100.5 133,-112.5 133,-112.5 133,-118.5 127,-124.5 121,-124.5"/>
<text xml:space="preserve" text-anchor="middle" x="106" y="-103" font-family="Helvetica,sans-Serif" font-size="10.00">b</text>
</g>
<!-- s1 -->
<g id="node3" class="node">
<title>s1</title>
<path fill="#e6f2ff" stroke="#4a6fa5" d="M200,-124.5C200,-124.5 170,-124.5 170,-124.5 164,-124.5 158,-118.5 158,-112.5 158,-112.5 158,-100.5 158,-100.5 158,-94.5 164,-88.5 170,-88.5 170,-88.5 200,-88.5 200,-88.5 206,-88.5 212,-94.5 212,-100.5 212,-100.5 212,-112.5 212,-112.5 212,-118.5 206,-124.5 200,-124.5"/>
<text xml:space="preserve" text-anchor="middle" x="185" y="-103" font-family="Helvetica,sans-Serif" font-size="10.00">s1</text>
</g>
<!-- s2 -->
<g id="node4" class="node">
<title>s2</title>
<path fill="#e6f2ff" stroke="#4a6fa5" d="M279,-124.5C279,-124.5 249,-124.5 249,-124.5 243,-124.5 237,-118.5 237,-112.5 237,-112.5 237,-100.5 237,-100.5 237,-94.5 243,-88.5 249,-88.5 249,-88.5 279,-88.5 279,-88.5 285,-88.5 291,-94.5 291,-100.5 291,-100.5 291,-112.5 291,-112.5 291,-118.5 285,-124.5 279,-124.5"/>
<text xml:space="preserve" text-anchor="middle" x="264" y="-103" font-family="Helvetica,sans-Serif" font-size="10.00">s2</text>
</g>
<!-- t2 -->
<g id="node6" class="node">
<title>t2</title>
<path fill="#e6f2ff" stroke="#4a6fa5" d="M358,-124.5C358,-124.5 328,-124.5 328,-124.5 322,-124.5 316,-118.5 316,-112.5 316,-112.5 316,-100.5 316,-100.5 316,-94.5 322,-88.5 328,-88.5 328,-88.5 358,-88.5 358,-88.5 364,-88.5 370,-94.5 370,-100.5 370,-100.5 370,-112.5 370,-112.5 370,-118.5 364,-124.5 358,-124.5"/>
<text xml:space="preserve" text-anchor="middle" x="343" y="-103" font-family="Helvetica,sans-Serif" font-size="10.00">t2</text>
</g>
</g>
</svg>
