<?xml version="1.0" encoding="UTF-8" standalone="no"?>
<!DOCTYPE svg PUBLIC "-//W3C//DTD SVG 1.1//EN"
 "http://www.w3.org/Graphics/SVG/1.1/DTD/svg11.dtd">
<!-- Generated by graphviz version 14.1.0 (20251206.1807)
 -->
<!-- Title: sample1 Pages: 1 -->
<svg width="240pt" height="310pt"
 viewBox="0.00 0.00 240.00 310.00" xmlns="http://www.w3.org/2000/svg" xmlns:xlink="http://www.w3.org/1999/xlink">
<g id="graph0" class="graph" transform="scale(1 1) rotate(0) translate(4 305.5)">
<title>sample1</title>
<polygon fill="white" stroke="none" points="-4,4 -4,-305.5 236,-305.5 236,4 -4,4"/>
<!-- a -->
<g id="node1" class="node">
<title>a</title>
<path fill="#e6f2ff" stroke="#4a6fa5" d="M159,-213C159,-213 129,-213 129,-213 123,-213 117,-207 117,-201 117,-201 117,-189 117,-189 117,-183 123,-177 129,-177 129,-177 159,-177 159,-177 165,-177 171,-183 171,-189 171,-189 171,-201 171,-201 171,-207 165,-213 159,-213"/>
<text xml:space="preserve" text-anchor="middle" x="144" y="-191.5" font-family="Helvetica,sans-Serif" font-size="10.00">a:rnd</text>
</g>
<!-- b -->
<g id="node2" class="node">
<title>b</title>
<path fill="#e6f2ff" stroke="#4a6fa5" d="M101,-124.5C101,-124.5 71,-124.5 71,-124.5 65,-124.5 59,-118.5 59,-112.5 59,-112.5 59,-100.5 59,-100.5 59,-94.5 65,-88.5 71,-88.5 71,-88.5 101,-88.5 101,-88.5 107,-88.5 113,-94.5 113,-100.5 113,-100.5 113,-112.5 113,-112.5 113,-118.5 107,-124.5 101,-124.5"/>
<text xml:space="preserve" text-anchor="middle" x="86" y="-103" font-family="Helvetica,sans-Serif" font-size="10.00">b:rnd</text>
</g>
<!-- a&#45;&gt;b -->
<g id="edge5" class="edge">
<title>a&#45;&gt;b</title>
<path fill="none" stroke="#4a6fa5" stroke-width="1.2" d="M116.61,-184.79C104.75,-179.28 92.05,-170.97 85.25,-159 81.1,-151.7 80.1,-142.84 80.49,-134.53"/>
<polygon fill="#4a6fa5" stroke="#4a6fa5" stroke-width="1.2" points="83.27,-134.88 81.34,-126.63 77.7,-134.28 83.27,-134.88"/>
<text xml:space="preserve" text-anchor="middle" x="99.12" y="-145.7" font-family="Times New Roman,serif" font-size="14.00">z,rnd</text>
</g>
<!-- t1 -->
<g id="node5" class="node">
<title>t1</title>
<path fill="#e6f2ff" stroke="#4a6fa5" d="M220,-124.5C220,-124.5 190,-124.5 190,-124.5 184,-124.5 178,-118.5 178,-112.5 178,-112.5 178,-100.5 178,-100.5 178,-94.5 184,-88.5 190,-88.5 190,-88.5 220,-88.5 220,-88.5 226,-88.5 232,-94.5 232,-100.5 232,-100.5 232,-112.5 232,-112.5 232,-118.5 226,-124.5 220,-124.5"/>
<text xml:space="preserve" text-anchor="middle" x="205" y="-103" font-family="Helvetica,sans-Serif" font-size="10.00">t1:rnd</text>
</g>
<!-- a&#45;&gt;t1 -->
<g id="edge2" class="edge">
<title>a&#45;&gt;t1</title>
<path fill="none" stroke="#4a6fa5" stroke-width="1.2" d="M156.05,-176.91C164.93,-164.32 177.16,-146.98 187.17,-132.79"/>
<polygon fill="#4a6fa5" stroke="#4a6fa5" stroke-width="1.2" points="189.4,-134.49 191.72,-126.33 184.82,-131.26 189.4,-134.49"/>
<text xml:space="preserve" text-anchor="middle" x="193.84" y="-145.7" font-family="Times New Roman,serif" font-size="14.00">y,rnd</text>
</g>
<!-- b&#45;&gt;a -->
<g id="edge6" class="edge">
<title>b&#45;&gt;a</title>
<path fill="none" stroke="#4a6fa5" stroke-width="1.2" d="M101.39,-124.82C105.98,-130.32 110.89,-136.52 115,-142.5 120.61,-150.66 126.11,-159.98 130.79,-168.43"/>
<polygon fill="#4a6fa5" stroke="#4a6fa5" stroke-width="1.2" points="128.2,-169.54 134.47,-175.24 133.13,-166.87 128.2,-169.54"/>
<text xml:space="preserve" text-anchor="middle" x="140.77" y="-145.7" font-family="Times New Roman,serif" font-size="14.00">w,rnd</text>
</g>
<!-- t2 -->
<g id="node6" class="node">
<title>t2</title>
<path fill="#e6f2ff" stroke="#4a6fa5" d="M101,-36C101,-36 71,-36 71,-36 65,-36 59,-30 59,-24 59,-24 59,-12 59,-12 59,-6 65,0 71,0 71,0 101,0 101,0 107,0 113,-6 113,-12 113,-12 113,-24 113,-24 113,-30 107,-36 101,-36"/>
<text xml:space="preserve" text-anchor="middle" x="86" y="-14.5" font-family="Helvetica,sans-Serif" font-size="10.00">t2:rnd</text>
</g>
<!-- b&#45;&gt;t2 -->
<g id="edge4" class="edge">
<title>b&#45;&gt;t2</title>
<path fill="none" stroke="#4a6fa5" stroke-width="1.2" d="M86,-88.41C86,-76.29 86,-59.77 86,-45.89"/>
<polygon fill="#4a6fa5" stroke="#4a6fa5" stroke-width="1.2" points="88.8,-46.17 86,-38.17 83.2,-46.17 88.8,-46.17"/>
<text xml:space="preserve" text-anchor="middle" x="99.88" y="-57.2" font-family="Times New Roman,serif" font-size="14.00">y,rnd</text>
</g>
<!-- s1 -->
<g id="node3" class="node">
<title>s1</title>
<path fill="#e6f2ff" stroke="#4a6fa5" d="M159,-301.5C159,-301.5 129,-301.5 129,-301.5 123,-301.5 117,-295.5 117,-289.5 117,-289.5 117,-277.5 117,-277.5 117,-271.5 123,-265.5 129,-265.5 129,-265.5 159,-265.5 159,-265.5 165,-265.5 171,-271.5 171,-277.5 171,-277.5 171,-289.5 171,-289.5 171,-295.5 165,-301.5 159,-301.5"/>
<text xml:space="preserve" text-anchor="middle" x="144" y="-280" font-family="Helvetica,sans-Serif" font-size="10.00">s1:rnd</text>
</g>
<!-- s1&#45;&gt;a -->
<g id="edge1" class="edge">
<title>s1&#45;&gt;a</title>
<path fill="none" stroke="#4a6fa5" stroke-width="1.2" d="M144,-265.41C144,-253.29 144,-236.77 144,-222.89"/>
<polygon fill="#4a6fa5" stroke="#4a6fa5" stroke-width="1.2" points="146.8,-223.17 144,-215.17 141.2,-223.17 146.8,-223.17"/>
<text xml:space="preserve" text-anchor="middle" x="158.25" y="-234.2" font-family="Times New Roman,serif" font-size="14.00">x,rnd</text>
</g>
<!-- s2 -->
<g id="node4" class="node">
<title>s2</title>
<path fill="#e6f2ff" stroke="#4a6fa5" d="M42,-213C42,-213 12,-213 12,-213 6,-213 0,-207 0,-201 0,-201 0,-189 0,-189 0,-183 6,-177 12,-177 12,-177 42,-177 42,-177 48,-177 54,-183 54,-189 54,-189 54,-201 54,-201 54,-207 48,-213 42,-213"/>
<text xml:space="preserve" text-anchor="middle" x="27" y="-191.5" font-family="Helvetica,sans-Serif" font-size="10.00">s2:rnd</text>
</g>
<!-- s2&#45;&gt;b -->
<g id="edge3" class="edge">
<title>s2&#45;&gt;b</title>
<path fill="none" stroke="#4a6fa5" stroke-width="1.2" d="M31.25,-176.77C34.37,-166.26 39.33,-152.89 46.5,-142.5 49.16,-138.65 52.32,-134.94 55.7,-131.47"/>
<polygon fill="#4a6fa5" stroke="#4a6fa5" stroke-width="1.2" points="57.61,-133.52 61.48,-125.97 53.75,-129.46 57.61,-133.52"/>
<text xml:space="preserve" text-anchor="middle" x="60.75" y="-145.7" font-family="Times New Roman,serif" font-size="14.00">x,rnd</text>
</g>
</g>
</svg>
