<?xml version="1.0" encoding="UTF-8" standalone="no"?>
<!DOCTYPE svg PUBLIC "-//W3C//DTD SVG 1.1//EN"
 "http://www.w3.org/Graphics/SVG/1.1/DTD/svg11.dtd">
<!-- Generated by graphviz version 14.1.0 (20251206.1807)
 -->
<!-- Title: sample1 Pages: 1 -->
<svg width="206pt" height="310pt"
 viewBox="0.00 0.00 206.00 310.00" xmlns="http://www.w3.org/2000/svg" xmlns:xlink="http://www.w3.org/1999/xlink">
<g id="graph0" class="graph" transform="scale(1 1) rotate(0) translate(4 305.5)">
<title>sample1</title>
<polygon fill="white" stroke="none" points="-4,4 -4,-305.5 202,-305.5 202,4 -4,4"/>
<!-- a -->
<g id="node1" class="node">
<title>a</title>
<path fill="#e6f2ff" stroke="#4a6fa5" d="M146,-213C146,-213 116,-213 116,-213 110,-213 104,-207 104,-201 104,-201 104,-189 104,-189 104,-183 110,-177 116,-177 116,-177 146,-177 146,-177 152,-177 158,-183 158,-189 158,-189 158,-201 158,-201 158,-207 152,-213 146,-213"/>
<text xml:space="preserve" text-anchor="middle" x="131" y="-191.5" font-family="Helvetica,sans-Serif" font-size="10.00">a</text>
</g>
<!-- b -->
<g id="node2" class="node">
<title>b</title>
<path fill="#e6f2ff" stroke="#4a6fa5" d="M79,-124.5C79,-124.5 49,-124.5 49,-124.5 43,-124.5 37,-118.5 37,-112.5 37,-112.5 37,-100.5 37,-100.5 37,-94.5 43,-88.5 49,-88.5 49,-88.5 79,-88.5 79,-88.5 85,-88.5 91,-94.5 91,-100.5 91,-100.5 91,-112.5 91,-112.5 91,-118.5 85,-124.5 79,-124.5"/>
<text xml:space="preserve" text-anchor="middle" x="64" y="-103" font-family="Helvetica,sans-Serif" font-size="10.00">b</text>
</g>
<!-- a&#45;&gt;b -->
<g id="edge5" class="edge">
<title>a&#45;&gt;b</title>
<path fill="none" stroke="#4a6fa5" stroke-width="1.2" d="M103.74,-187.36C89,-182.22 72.06,-173.47 63.25,-159 58.89,-151.83 57.82,-143 58.23,-134.69"/>
<polygon fill="#4a6fa5" stroke="#4a6fa5" stroke-width="1.2" points="61.01,-135.02 59.12,-126.75 55.44,-134.39 61.01,-135.02"/>
<text xml:space="preserve" text-anchor="middle" x="81.62" y="-145.7" font-family="Times New Roman,serif" font-size="14.00">z,extra</text>
</g>
<!-- t1 -->
<g id="node5" class="node">
<title>t1</title>
<path fill="#e6f2ff" stroke="#4a6fa5" d="M186,-124.5C186,-124.5 156,-124.5 156,-124.5 150,-124.5 144,-118.5 144,-112.5 144,-112.5 144,-100.5 144,-100.5 144,-94.5 150,-88.5 156,-88.5 156,-88.5 186,-88.5 186,-88.5 192,-88.5 198,-94.5 198,-100.5 198,-100.5 198,-112.5 198,-112.5 198,-118.5 192,-124.5 186,-124.5"/>
<text xml:space="preserve" text-anchor="middle" x="171" y="-103" font-family="Helvetica,sans-Serif" font-size="10.00">t1</text>
</g>
<!-- a&#45;&gt;t1 -->
<g id="edge2" class="edge">
<title>a&#45;&gt;t1</title>
<path fill="none" stroke="#4a6fa5" stroke-width="1.2" d="M138.9,-176.91C144.62,-164.55 152.44,-147.63 158.94,-133.58"/>
<polygon fill="#4a6fa5" stroke="#4a6fa5" stroke-width="1.2" points="161.4,-134.94 162.21,-126.5 156.32,-132.58 161.4,-134.94"/>
<text xml:space="preserve" text-anchor="middle" x="157.96" y="-145.7" font-family="Times New Roman,serif" font-size="14.00">y</text>
</g>
<!-- b&#45;&gt;a -->
<g id="edge6" class="edge">
<title>b&#45;&gt;a</title>
<path fill="none" stroke="#4a6fa5" stroke-width="1.2" d="M85.29,-124.94C91.08,-130.24 97.1,-136.31 102,-142.5 108.24,-150.38 113.95,-159.77 118.62,-168.36"/>
<polygon fill="#4a6fa5" stroke="#4a6fa5" stroke-width="1.2" points="116.07,-169.53 122.26,-175.32 121.04,-166.93 116.07,-169.53"/>
<text xml:space="preserve" text-anchor="middle" x="117.87" y="-145.7" font-family="Times New Roman,serif" font-size="14.00">w</text>
</g>
<!-- t2 -->
<g id="node6" class="node">
<title>t2</title>
<path fill="#e6f2ff" stroke="#4a6fa5" d="M79,-36C79,-36 49,-36 49,-36 43,-36 37,-30 37,-24 37,-24 37,-12 37,-12 37,-6 43,0 49,0 49,0 79,0 79,0 85,0 91,-6 91,-12 91,-12 91,-24 91,-24 91,-30 85,-36 79,-36"/>
<text xml:space="preserve" text-anchor="middle" x="64" y="-14.5" font-family="Helvetica,sans-Serif" font-size="10.00">t2</text>
</g>
<!-- b&#45;&gt;t2 -->
<g id="edge4" class="edge">
<title>b&#45;&gt;t2</title>
<path fill="none" stroke="#4a6fa5" stroke-width="1.2" d="M64,-88.41C64,-76.29 64,-59.77 64,-45.89"/>
<polygon fill="#4a6fa5" stroke="#4a6fa5" stroke-width="1.2" points="66.8,-46.17 64,-38.17 61.2,-46.17 66.8,-46.17"/>
<text xml:space="preserve" text-anchor="middle" x="67.38" y="-57.2" font-family="Times New Roman,serif" font-size="14.00">y</text>
</g>
<!-- s1 -->
<g id="node3" class="node">
<title>s1</title>
<path fill="#e6f2ff" stroke="#4a6fa5" d="M146,-301.5C146,-301.5 116,-301.5 116,-301.5 110,-301.5 104,-295.5 104,-289.5 104,-289.5 104,-277.5 104,-277.5 104,-271.5 110,-265.5 116,-265.5 116,-265.5 146,-265.5 146,-265.5 152,-265.5 158,-271.5 158,-277.5 158,-277.5 158,-289.5 158,-289.5 158,-295.5 152,-301.5 146,-301.5"/>
<text xml:space="preserve" text-anchor="middle" x="131" y="-280" font-family="Helvetica,sans-Serif" font-size="10.00">s1</text>
</g>
<!-- s1&#45;&gt;a -->
<g id="edge1" class="edge">
<title>s1&#45;&gt;a</title>
<path fill="none" stroke="#4a6fa5" stroke-width="1.2" d="M131,-265.41C131,-253.29 131,-236.77 131,-222.89"/>
<polygon fill="#4a6fa5" stroke="#4a6fa5" stroke-width="1.2" points="133.8,-223.17 131,-215.17 128.2,-223.17 133.8,-223.17"/>
<text xml:space="preserve" text-anchor="middle" x="134.38" y="-234.2" font-family="Times New Roman,serif" font-size="14.00">x</text>
</g>
<!-- s2 -->
<g id="node4" class="node">
<title>s2</title>
<path fill="#e6f2ff" stroke="#4a6fa5" d="M42,-213C42,-213 12,-213 12,-213 6,-213 0,-207 0,-201 0,-201 0,-189 0,-189 0,-183 6,-177 12,-177 12,-177 42,-177 42,-177 48,-177 54,-183 54,-189 54,-189 54,-201 54,-201 54,-207 48,-213 42,-213"/>
<text xml:space="preserve" text-anchor="middle" x="27" y="-191.5" font-family="Helvetica,sans-Serif" font-size="10.00">s2</text>
</g>
<!-- s2&#45;&gt;b -->
<g id="edge3" class="edge">
<title>s2&#45;&gt;b</title>
<path fill="none" stroke="#4a6fa5" stroke-width="1.2" d="M25.17,-176.6C24.79,-166.27 25.55,-153.16 30.25,-142.5 31.81,-138.95 33.9,-135.55 36.28,-132.36"/>
<polygon fill="#4a6fa5" stroke="#4a6fa5" stroke-width="1.2" points="38.41,-134.17 41.46,-126.26 34.15,-130.54 38.41,-134.17"/>
<text xml:space="preserve" text-anchor="middle" x="33.62" y="-145.7" font-family="Times New Roman,serif" font-size="14.00">x</text>
</g>
</g>
</svg>
