<?xml version="1.0" encoding="UTF-8" standalone="no"?>
<!DOCTYPE svg PUBLIC "-//W3C//DTD SVG 1.1//EN"
 "http://www.w3.org/Graphics/SVG/1.1/DTD/svg11.dtd">
<!-- Generated by graphviz version 14.1.0 (20251206.1807)
 -->
<!-- Title: comps Pages: 1 -->
<svg width="226pt" height="133pt"
 viewBox="0.00 0.00 226.00 133.00" xmlns="http://www.w3.org/2000/svg" xmlns:xlink="http://www.w3.org/1999/xlink">
<g id="graph0" class="graph" transform="scale(1 1) rotate(0) translate(4 128.5)">
<title>comps</title>
<polygon fill="white" stroke="none" points="-4,4 -4,-128.5 222,-128.5 222,4 -4,4"/>
<!-- x1 -->
<g id="node1" class="node">
<title>x1</title>
<path fill="#e6f2ff" stroke="#4a6fa5" d="M42,-124.5C42,-124.5 12,-124.5 12,-124.5 6,-124.5 0,-118.5 0,-112.5 0,-112.5 0,-100.5 0,-100.5 0,-94.5 6,-88.5 12,-88.5 12,-88.5 42,-88.5 42,-88.5 48,-88.5 54,-94.5 54,-100.5 54,-100.5 54,-112.5 54,-112.5 54,-118.5 48,-124.5 42,-124.5"/>
<text xml:space="preserve" text-anchor="middle" x="27" y="-103" font-family="Helvetica,sans-Serif" font-size="10.00">x1</text>
</g>
<!-- x2 -->
<g id="node2" class="node">
<title>x2</title>
<path fill="#e6f2ff" stroke="#4a6fa5" d="M42,-36C42,-36 12,-36 12,-36 6,-36 0,-30 0,-24 0,-24 0,-12 0,-12 0,-6 6,0 12,0 12,0 42,0 42,0 48,0 54,-6 54,-12 54,-12 54,-24 54,-24 54,-30 48,-36 42,-36"/>
<text xml:space="preserve" text-anchor="middle" x="27" y="-14.5" font-family="Helvetica,sans-Serif" font-size="10.00">x2</text>
</g>
<!-- x1&#45;&gt;x2 -->
<g id="edge1" class="edge">
<title>x1&#45;&gt;x2</title>
<path fill="none" stroke="#4a6fa5" stroke-width="1.2" d="M27,-88.41C27,-76.29 27,-59.77 27,-45.89"/>
<polygon fill="#4a6fa5" stroke="#4a6fa5" stroke-width="1.2" points="29.8,-46.17 27,-38.17 24.2,-46.17 29.8,-46.17"/>
</g>
<!-- y1 -->
<g id="node3" class="node">
<title>y1</title>
<path fill="#e6f2ff" stroke="#4a6fa5" d="M127.12,-124.5C127.12,-124.5 90.88,-124.5 90.88,-124.5 84.88,-124.5 78.88,-118.5 78.88,-112.5 78.88,-112.5 78.88,-100.5 78.88,-100.5 78.88,-94.5 84.88,-88.5 90.88,-88.5 90.88,-88.5 127.12,-88.5 127.12,-88.5 133.12,-88.5 139.12,-94.5 139.12,-100.5 139.12,-100.5 139.12,-112.5 139.12,-112.5 139.12,-118.5 133.12,-124.5 127.12,-124.5"/>
<text xml:space="preserve" text-anchor="middle" x="109" y="-103" font-family="Helvetica,sans-Serif" font-size="10.00">y1:compB</text>
</g>
<!-- y2 -->
<g id="node4" class="node">
<title>y2</title>
<path fill="#e6f2ff" stroke="#4a6fa5" d="M127.12,-36C127.12,-36 90.88,-36 90.88,-36 84.88,-36 78.88,-30 78.88,-24 78.88,-24 78.88,-12 78.88,-12 78.88,-6 84.88,0 90.88,0 90.88,0 127.12,0 127.12,0 133.12,0 139.12,-6 139.12,-12 139.12,-12 139.12,-24 139.12,-24 139.12,-30 133.12,-36 127.12,-36"/>
<text xml:space="preserve" text-anchor="middle" x="109" y="-14.5" font-family="Helvetica,sans-Serif" font-size="10.00">y2:compB</text>
</g>
<!-- y1&#45;&gt;y2 -->
<g id="edge2" class="edge">
<title>y1&#45;&gt;y2</title>
<path fill="none" stroke="#4a6fa5" stroke-width="1.2" d="M109,-88.41C109,-76.29 109,-59.77 109,-45.89"/>
<polygon fill="#4a6fa5" stroke="#4a6fa5" stroke-width="1.2" points="111.8,-46.17 109,-38.17 106.2,-46.17 111.8,-46.17"/>
<text xml:space="preserve" text-anchor="middle" x="128.88" y="-57.2" font-family="Times New Roman,serif" font-size="14.00">compB</text>
</g>
<!-- z1 -->
<g id="node5" class="node">
<title>z1</title>
<path fill="#e6f2ff" stroke="#4a6fa5" d="M206,-124.5C206,-124.5 176,-124.5 176,-124.5 170,-124.5 164,-118.5 164,-112.5 164,-112.5 164,-100.5 164,-100.5 164,-94.5 170,-88.5 176,-88.5 176,-88.5 206,-88.5 206,-88.5 212,-88.5 218,-94.5 218,-100.5 218,-100.5 218,-112.5 218,-112.5 218,-118.5 212,-124.5 206,-124.5"/>
<text xml:space="preserve" text-anchor="middle" x="191" y="-103" font-family="Helvetica,sans-Serif" font-size="10.00">z1</text>
</g>
</g>
</svg>
