<?xml version="1.0" encoding="UTF-8" standalone="no"?>
<!DOCTYPE svg PUBLIC "-//W3C//DTD SVG 1.1//EN"
 "http://www.w3.org/Graphics/SVG/1.1/DTD/svg11.dtd">
<!-- Generated by graphviz version 14.1.0 (20251206.1807)
 -->
<!-- Title: sample1 Pages: 1 -->
<svg width="299pt" height="44pt"
 viewBox="0.00 0.00 299.00 44.00" xmlns="http://www.w3.org/2000/svg" xmlns:xlink="http://www.w3.org/1999/xlink">
<g id="graph0" class="graph" transform="scale(1 1) rotate(0) translate(4 40)">
<title>sample1</title>
<polygon fill="white" stroke="none" points="-4,4 -4,-40 295,-40 295,4 -4,4"/>
<!-- s1 -->
<g id="node1" class="node">
<title>s1</title>
<path fill="#e6f2ff" stroke="#4a6fa5" d="M42,-36C42,-36 12,-36 12,-36 6,-36 0,-30 0,-24 0,-24 0,-12 0,-12 0,-6 6,0 12,0 12,0 42,0 42,0 48,0 54,-6 54,-12 54,-12 54,-24 54,-24 54,-30 48,-36 42,-36"/>
<text xml:space="preserve" text-anchor="middle" x="27" y="-14.5" font-family="Helvetica,sans-Serif" font-size="10.00">s1</text>
</g>
<!-- s2 -->
<g id="node2" class="node">
<title>s2</title>
<path fill="#e6f2ff" stroke="#4a6fa5" d="M121,-36C121,-36 91,-36 91,-36 85,-36 79,-30 79,-24 79,-24 79,-12 79,-12 79,-6 85,0 91,0 91,0 121,0 121,0 127,0 133,-6 133,-12 133,-12 133,-24 133,-24 133,-30 127,-36 121,-36"/>
<text xml:space="preserve" text-anchor="middle" x="106" y="-14.5" font-family="Helvetica,sans-Serif" font-size="10.00">s2</text>
</g>
<!-- t1 -->
<g id="node3" class="node">
<title>t1</title>
<path fill="#e6f2ff" stroke="#4a6fa5" d="M200,-36C200,-36 170,-36 170,-36 164,-36 158,-30 158,-24 158,-24 158,-12 158,-12 158,-6 164,0 170,0 170,0 200,0 200,0 206,0 212,-6 212,-12 212,-12 212,-24 212,-24 212,-30 206,-36 200,-36"/>
<text xml:space="preserve" text-anchor="middle" x="185" y="-14.5" font-family="Helvetica,sans-Serif" font-size="10.00">t1</text>
</g>
<!-- t2 -->
<g id="node4" class="node">
<title>t2</title>
<path fill="#e6f2ff" stroke="#4a6fa5" d="M279,-36C279,-36 249,-36 249,-36 243,-36 237,-30 237,-24 237,-24 237,-12 237,-12 237,-6 243,0 249,0 249,0 279,0 279,0 285,0 291,-6 291,-12 291,-12 291,-24 291,-24 291,-30 285,-36 279,-36"/>
<text xml:space="preserve" text-anchor="middle" x="264" y="-14.5" font-family="Helvetica,sans-Serif" font-size="10.00">t2</text>
</g>
</g>
</svg>
