<?xml version="1.0" encoding="UTF-8" standalone="no"?>
<!DOCTYPE svg PUBLIC "-//W3C//DTD SVG 1.1//EN"
 "http://www.w3.org/Graphics/SVG/1.1/DTD/svg11.dtd">
<!-- Generated by graphviz version 14.1.0 (20251206.1807)
 -->
<!-- Title: sample1 Pages: 1 -->
<svg width="260pt" height="310pt"
 viewBox="0.00 0.00 260.00 310.00" xmlns="http://www.w3.org/2000/svg" xmlns:xlink="http://www.w3.org/1999/xlink">
<g id="graph0" class="graph" transform="scale(1 1) rotate(0) translate(4 305.5)">
<title>sample1</title>
<polygon fill="white" stroke="none" points="-4,4 -4,-305.5 256.38,-305.5 256.38,4 -4,4"/>
<!-- a -->
<g id="node1" class="node">
<title>a</title>
<path fill="#e6f2ff" stroke="#4a6fa5" d="M157.88,-213C157.88,-213 126.12,-213 126.12,-213 120.12,-213 114.12,-207 114.12,-201 114.12,-201 114.12,-189 114.12,-189 114.12,-183 120.12,-177 126.12,-177 126.12,-177 157.88,-177 157.88,-177 163.88,-177 169.88,-183 169.88,-189 169.88,-189 169.88,-201 169.88,-201 169.88,-207 163.88,-213 157.88,-213"/>
<text xml:space="preserve" text-anchor="middle" x="142" y="-191.5" font-family="Helvetica,sans-Serif" font-size="10.00">a:pathsel</text>
</g>
<!-- b -->
<g id="node2" class="node">
<title>b</title>
<path fill="#e6f2ff" stroke="#4a6fa5" d="M79.88,-124.5C79.88,-124.5 48.12,-124.5 48.12,-124.5 42.12,-124.5 36.12,-118.5 36.12,-112.5 36.12,-112.5 36.12,-100.5 36.12,-100.5 36.12,-94.5 42.12,-88.5 48.12,-88.5 48.12,-88.5 79.88,-88.5 79.88,-88.5 85.88,-88.5 91.88,-94.5 91.88,-100.5 91.88,-100.5 91.88,-112.5 91.88,-112.5 91.88,-118.5 85.88,-124.5 79.88,-124.5"/>
<text xml:space="preserve" text-anchor="middle" x="64" y="-103" font-family="Helvetica,sans-Serif" font-size="10.00">b:pathsel</text>
</g>
<!-- a&#45;&gt;b -->
<g id="edge5" class="edge">
<title>a&#45;&gt;b</title>
<path fill="none" stroke="#4a6fa5" stroke-width="1.2" d="M113.93,-189.51C96.05,-185.04 74.21,-176.23 63,-159 58.3,-151.78 57.28,-142.7 57.83,-134.19"/>
<polygon fill="#4a6fa5" stroke="#4a6fa5" stroke-width="1.2" points="60.59,-134.69 58.85,-126.4 55.04,-133.97 60.59,-134.69"/>
<text xml:space="preserve" text-anchor="middle" x="87" y="-145.7" font-family="Times New Roman,serif" font-size="14.00">z,pathsel</text>
</g>
<!-- t1 -->
<g id="node5" class="node">
<title>t1</title>
<path fill="#e6f2ff" stroke="#4a6fa5" d="M240.38,-124.5C240.38,-124.5 205.62,-124.5 205.62,-124.5 199.62,-124.5 193.62,-118.5 193.62,-112.5 193.62,-112.5 193.62,-100.5 193.62,-100.5 193.62,-94.5 199.62,-88.5 205.62,-88.5 205.62,-88.5 240.38,-88.5 240.38,-88.5 246.38,-88.5 252.38,-94.5 252.38,-100.5 252.38,-100.5 252.38,-112.5 252.38,-112.5 252.38,-118.5 246.38,-124.5 240.38,-124.5"/>
<text xml:space="preserve" text-anchor="middle" x="223" y="-103" font-family="Helvetica,sans-Serif" font-size="10.00">t1:pathsel</text>
</g>
<!-- a&#45;&gt;t1 -->
<g id="edge2" class="edge">
<title>a&#45;&gt;t1</title>
<path fill="none" stroke="#4a6fa5" stroke-width="1.2" d="M163.41,-176.51C169.62,-171.12 176.27,-165.01 182,-159 189.85,-150.77 197.8,-141.16 204.58,-132.48"/>
<polygon fill="#4a6fa5" stroke="#4a6fa5" stroke-width="1.2" points="206.68,-134.33 209.33,-126.28 202.24,-130.92 206.68,-134.33"/>
<text xml:space="preserve" text-anchor="middle" x="220.35" y="-145.7" font-family="Times New Roman,serif" font-size="14.00">y,pathsel</text>
</g>
<!-- b&#45;&gt;a -->
<g id="edge6" class="edge">
<title>b&#45;&gt;a</title>
<path fill="none" stroke="#4a6fa5" stroke-width="1.2" d="M92.18,-124.45C99.49,-129.67 106.99,-135.81 113,-142.5 119.72,-149.98 125.54,-159.28 130.17,-167.9"/>
<polygon fill="#4a6fa5" stroke="#4a6fa5" stroke-width="1.2" points="127.61,-169.06 133.73,-174.93 132.61,-166.53 127.61,-169.06"/>
<text xml:space="preserve" text-anchor="middle" x="150.01" y="-145.7" font-family="Times New Roman,serif" font-size="14.00">w,pathsel</text>
</g>
<!-- t2 -->
<g id="node6" class="node">
<title>t2</title>
<path fill="#e6f2ff" stroke="#4a6fa5" d="M79,-36C79,-36 49,-36 49,-36 43,-36 37,-30 37,-24 37,-24 37,-12 37,-12 37,-6 43,0 49,0 49,0 79,0 79,0 85,0 91,-6 91,-12 91,-12 91,-24 91,-24 91,-30 85,-36 79,-36"/>
<text xml:space="preserve" text-anchor="middle" x="64" y="-14.5" font-family="Helvetica,sans-Serif" font-size="10.00">t2</text>
</g>
<!-- b&#45;&gt;t2 -->
<g id="edge4" class="edge">
<title>b&#45;&gt;t2</title>
<path fill="none" stroke="#4a6fa5" stroke-width="1.2" d="M64,-88.41C64,-76.29 64,-59.77 64,-45.89"/>
<polygon fill="#4a6fa5" stroke="#4a6fa5" stroke-width="1.2" points="66.8,-46.17 64,-38.17 61.2,-46.17 66.8,-46.17"/>
<text xml:space="preserve" text-anchor="middle" x="67.38" y="-57.2" font-family="Times New Roman,serif" font-size="14.00">y</text>
</g>
<!-- s1 -->
<g id="node3" class="node">
<title>s1</title>
<path fill="#e6f2ff" stroke="#4a6fa5" d="M160.5,-301.5C160.5,-301.5 123.5,-301.5 123.5,-301.5 117.5,-301.5 111.5,-295.5 111.5,-289.5 111.5,-289.5 111.5,-277.5 111.5,-277.5 111.5,-271.5 117.5,-265.5 123.5,-265.5 123.5,-265.5 160.5,-265.5 160.5,-265.5 166.5,-265.5 172.5,-271.5 172.5,-277.5 172.5,-277.5 172.5,-289.5 172.5,-289.5 172.5,-295.5 166.5,-301.5 160.5,-301.5"/>
<text xml:space="preserve" text-anchor="middle" x="142" y="-280" font-family="Helvetica,sans-Serif" font-size="10.00">s1:pathsel</text>
</g>
<!-- s1&#45;&gt;a -->
<g id="edge1" class="edge">
<title>s1&#45;&gt;a</title>
<path fill="none" stroke="#4a6fa5" stroke-width="1.2" d="M142,-265.41C142,-253.29 142,-236.77 142,-222.89"/>
<polygon fill="#4a6fa5" stroke="#4a6fa5" stroke-width="1.2" points="144.8,-223.17 142,-215.17 139.2,-223.17 144.8,-223.17"/>
<text xml:space="preserve" text-anchor="middle" x="166.38" y="-234.2" font-family="Times New Roman,serif" font-size="14.00">x,pathsel</text>
</g>
<!-- s2 -->
<g id="node4" class="node">
<title>s2</title>
<path fill="#e6f2ff" stroke="#4a6fa5" d="M42,-213C42,-213 12,-213 12,-213 6,-213 0,-207 0,-201 0,-201 0,-189 0,-189 0,-183 6,-177 12,-177 12,-177 42,-177 42,-177 48,-177 54,-183 54,-189 54,-189 54,-201 54,-201 54,-207 48,-213 42,-213"/>
<text xml:space="preserve" text-anchor="middle" x="27" y="-191.5" font-family="Helvetica,sans-Serif" font-size="10.00">s2</text>
</g>
<!-- s2&#45;&gt;b -->
<g id="edge3" class="edge">
<title>s2&#45;&gt;b</title>
<path fill="none" stroke="#4a6fa5" stroke-width="1.2" d="M25.17,-176.6C24.79,-166.27 25.55,-153.16 30.25,-142.5 31.81,-138.95 33.9,-135.55 36.28,-132.36"/>
<polygon fill="#4a6fa5" stroke="#4a6fa5" stroke-width="1.2" points="38.41,-134.17 41.46,-126.26 34.15,-130.54 38.41,-134.17"/>
<text xml:space="preserve" text-anchor="middle" x="33.62" y="-145.7" font-family="Times New Roman,serif" font-size="14.00">x</text>
</g>
</g>
</svg>
