<?xml version="1.0" encoding="UTF-8" standalone="no"?>
<!DOCTYPE svg PUBLIC "-//W3C//DTD SVG 1.1//EN"
 "http://www.w3.org/Graphics/SVG/1.1/DTD/svg11.dtd">
<!-- Generated by graphviz version 14.1.0 (20251206.1807)
 -->
<!-- Title: sample1 Pages: 1 -->
<svg width="192pt" height="310pt"
 viewBox="0.00 0.00 192.00 310.00" xmlns="http://www.w3.org/2000/svg" xmlns:xlink="http://www.w3.org/1999/xlink">
<g id="graph0" class="graph" transform="scale(1 1) rotate(0) translate(4 305.5)">
<title>sample1</title>
<polygon fill="white" stroke="none" points="-4,4 -4,-305.5 187.62,-305.5 187.62,4 -4,4"/>
<!-- a -->
<g id="node1" class="node">
<title>a</title>
<path fill="#e6f2ff" stroke="#4a6fa5" d="M121,-213C121,-213 91,-213 91,-213 85,-213 79,-207 79,-201 79,-201 79,-189 79,-189 79,-183 85,-177 91,-177 91,-177 121,-177 121,-177 127,-177 133,-183 133,-189 133,-189 133,-201 133,-201 133,-207 127,-213 121,-213"/>
<text xml:space="preserve" text-anchor="middle" x="106" y="-191.5" font-family="Helvetica,sans-Serif" font-size="10.00">a</text>
</g>
<!-- b -->
<g id="node2" class="node">
<title>b</title>
<path fill="#e6f2ff" stroke="#4a6fa5" d="M77,-124.5C77,-124.5 47,-124.5 47,-124.5 41,-124.5 35,-118.5 35,-112.5 35,-112.5 35,-100.5 35,-100.5 35,-94.5 41,-88.5 47,-88.5 47,-88.5 77,-88.5 77,-88.5 83,-88.5 89,-94.5 89,-100.5 89,-100.5 89,-112.5 89,-112.5 89,-118.5 83,-124.5 77,-124.5"/>
<text xml:space="preserve" text-anchor="middle" x="62" y="-103" font-family="Helvetica,sans-Serif" font-size="10.00">b</text>
</g>
<!-- a&#45;&gt;b -->
<g id="edge5" class="edge">
<title>a&#45;&gt;b</title>
<path fill="none" stroke="#4a6fa5" stroke-width="1.2" d="M84.34,-176.51C79.24,-171.38 74.33,-165.41 71,-159 67.07,-151.44 64.82,-142.5 63.53,-134.21"/>
<polygon fill="#4a6fa5" stroke="#4a6fa5" stroke-width="1.2" points="66.32,-133.98 62.61,-126.36 60.76,-134.64 66.32,-133.98"/>
<text xml:space="preserve" text-anchor="middle" x="74" y="-145.7" font-family="Times New Roman,serif" font-size="14.00">z</text>
</g>
<!-- t1 -->
<g id="node5" class="node">
<title>t1</title>
<path fill="#e6f2ff" stroke="#4a6fa5" d="M171.62,-124.5C171.62,-124.5 126.38,-124.5 126.38,-124.5 120.38,-124.5 114.38,-118.5 114.38,-112.5 114.38,-112.5 114.38,-100.5 114.38,-100.5 114.38,-94.5 120.38,-88.5 126.38,-88.5 126.38,-88.5 171.62,-88.5 171.62,-88.5 177.62,-88.5 183.62,-94.5 183.62,-100.5 183.62,-100.5 183.62,-112.5 183.62,-112.5 183.62,-118.5 177.62,-124.5 171.62,-124.5"/>
<text xml:space="preserve" text-anchor="middle" x="149" y="-103" font-family="Helvetica,sans-Serif" font-size="10.00">t1:outdegsel</text>
</g>
<!-- a&#45;&gt;t1 -->
<g id="edge2" class="edge">
<title>a&#45;&gt;t1</title>
<path fill="none" stroke="#4a6fa5" stroke-width="1.2" d="M114.5,-176.91C120.64,-164.55 129.05,-147.63 136.03,-133.58"/>
<polygon fill="#4a6fa5" stroke="#4a6fa5" stroke-width="1.2" points="138.51,-134.89 139.57,-126.48 133.5,-132.39 138.51,-134.89"/>
<text xml:space="preserve" text-anchor="middle" x="134.73" y="-145.7" font-family="Times New Roman,serif" font-size="14.00">y</text>
</g>
<!-- b&#45;&gt;a -->
<g id="edge6" class="edge">
<title>b&#45;&gt;a</title>
<path fill="none" stroke="#4a6fa5" stroke-width="1.2" d="M70.83,-124.85C77.14,-137.27 85.76,-154.21 92.88,-168.21"/>
<polygon fill="#4a6fa5" stroke="#4a6fa5" stroke-width="1.2" points="90.36,-169.43 96.48,-175.29 95.35,-166.89 90.36,-169.43"/>
<text xml:space="preserve" text-anchor="middle" x="92.82" y="-145.7" font-family="Times New Roman,serif" font-size="14.00">w</text>
</g>
<!-- t2 -->
<g id="node6" class="node">
<title>t2</title>
<path fill="#e6f2ff" stroke="#4a6fa5" d="M84.62,-36C84.62,-36 39.38,-36 39.38,-36 33.38,-36 27.38,-30 27.38,-24 27.38,-24 27.38,-12 27.38,-12 27.38,-6 33.38,0 39.38,0 39.38,0 84.62,0 84.62,0 90.62,0 96.62,-6 96.62,-12 96.62,-12 96.62,-24 96.62,-24 96.62,-30 90.62,-36 84.62,-36"/>
<text xml:space="preserve" text-anchor="middle" x="62" y="-14.5" font-family="Helvetica,sans-Serif" font-size="10.00">t2:outdegsel</text>
</g>
<!-- b&#45;&gt;t2 -->
<g id="edge4" class="edge">
<title>b&#45;&gt;t2</title>
<path fill="none" stroke="#4a6fa5" stroke-width="1.2" d="M62,-88.41C62,-76.29 62,-59.77 62,-45.89"/>
<polygon fill="#4a6fa5" stroke="#4a6fa5" stroke-width="1.2" points="64.8,-46.17 62,-38.17 59.2,-46.17 64.8,-46.17"/>
<text xml:space="preserve" text-anchor="middle" x="65.38" y="-57.2" font-family="Times New Roman,serif" font-size="14.00">y</text>
</g>
<!-- s1 -->
<g id="node3" class="node">
<title>s1</title>
<path fill="#e6f2ff" stroke="#4a6fa5" d="M121,-301.5C121,-301.5 91,-301.5 91,-301.5 85,-301.5 79,-295.5 79,-289.5 79,-289.5 79,-277.5 79,-277.5 79,-271.5 85,-265.5 91,-265.5 91,-265.5 121,-265.5 121,-265.5 127,-265.5 133,-271.5 133,-277.5 133,-277.5 133,-289.5 133,-289.5 133,-295.5 127,-301.5 121,-301.5"/>
<text xml:space="preserve" text-anchor="middle" x="106" y="-280" font-family="Helvetica,sans-Serif" font-size="10.00">s1</text>
</g>
<!-- s1&#45;&gt;a -->
<g id="edge1" class="edge">
<title>s1&#45;&gt;a</title>
<path fill="none" stroke="#4a6fa5" stroke-width="1.2" d="M106,-265.41C106,-253.29 106,-236.77 106,-222.89"/>
<polygon fill="#4a6fa5" stroke="#4a6fa5" stroke-width="1.2" points="108.8,-223.17 106,-215.17 103.2,-223.17 108.8,-223.17"/>
<text xml:space="preserve" text-anchor="middle" x="109.38" y="-234.2" font-family="Times New Roman,serif" font-size="14.00">x</text>
</g>
<!-- s2 -->
<g id="node4" class="node">
<title>s2</title>
<path fill="#e6f2ff" stroke="#4a6fa5" d="M42,-213C42,-213 12,-213 12,-213 6,-213 0,-207 0,-201 0,-201 0,-189 0,-189 0,-183 6,-177 12,-177 12,-177 42,-177 42,-177 48,-177 54,-183 54,-189 54,-189 54,-201 54,-201 54,-207 48,-213 42,-213"/>
<text xml:space="preserve" text-anchor="middle" x="27" y="-191.5" font-family="Helvetica,sans-Serif" font-size="10.00">s2</text>
</g>
<!-- s2&#45;&gt;b -->
<g id="edge3" class="edge">
<title>s2&#45;&gt;b</title>
<path fill="none" stroke="#4a6fa5" stroke-width="1.2" d="M25.29,-176.65C24.95,-166.34 25.72,-153.23 30.25,-142.5 31.75,-138.95 33.77,-135.52 36.07,-132.29"/>
<polygon fill="#4a6fa5" stroke="#4a6fa5" stroke-width="1.2" points="38.21,-134.09 41.08,-126.12 33.87,-130.56 38.21,-134.09"/>
<text xml:space="preserve" text-anchor="middle" x="33.62" y="-145.7" font-family="Times New Roman,serif" font-size="14.00">x</text>
</g>
</g>
</svg>
