<?xml version="1.0" encoding="UTF-8" standalone="no"?>
<!DOCTYPE svg PUBLIC "-//W3C//DTD SVG 1.1//EN"
 "http://www.w3.org/Graphics/SVG/1.1/DTD/svg11.dtd">
<!-- Generated by graphviz version 14.1.4 (20260321.0153)
 -->
<!-- Title: broken&#45;mutex Pages: 1 -->
<svg width="222pt" height="384pt"
 viewBox="0.00 0.00 222.00 384.00" xmlns="http://www.w3.org/2000/svg" xmlns:xlink="http://www.w3.org/1999/xlink">
<g id="graph0" class="graph" transform="scale(1 1) rotate(0) translate(4 380.21)">
<title>broken&#45;mutex</title>
<polygon fill="white" stroke="none" points="-4,4 -4,-380.21 217.67,-380.21 217.67,4 -4,4"/>
<text xml:space="preserve" text-anchor="middle" x="106.83" y="-358.91" font-family="Helvetica,sans-Serif" font-size="14.00">broken&#45;mutex</text>
<text xml:space="preserve" text-anchor="middle" x="106.83" y="-343.16" font-family="Helvetica,sans-Serif" font-size="14.00">reachable 2/4 states</text>
<text xml:space="preserve" text-anchor="middle" x="106.83" y="-327.41" font-family="Helvetica,sans-Serif" font-size="14.00">2 visible transitions</text>
<text xml:space="preserve" text-anchor="middle" x="106.83" y="-311.66" font-family="Helvetica,sans-Serif" font-size="14.00">0 deadlocks</text>
<text xml:space="preserve" text-anchor="middle" x="106.83" y="-295.91" font-family="Helvetica,sans-Serif" font-size="14.00">1 invariant&#45;bad states</text>
<text xml:space="preserve" text-anchor="middle" x="106.83" y="-280.16" font-family="Helvetica,sans-Serif" font-size="14.00">actions: both&#45;enter</text>
<text xml:space="preserve" text-anchor="middle" x="106.83" y="-264.41" font-family="Helvetica,sans-Serif" font-size="14.00">properties: none</text>
<!-- __start__ -->
<g id="node1" class="node">
<title>__start__</title>
<ellipse fill="#2a9d8f" stroke="#2a9d8f" cx="74.08" cy="-250.76" rx="7.2" ry="7.2"/>
</g>
<!-- n_5b5b227031222c2269646c65225d2c5b227032222c2269646c65225d5d -->
<g id="node2" class="node">
<title>n_5b5b227031222c2269646c65225d2c5b227032222c2269646c65225d5d</title>
<g id="a_node2"><a xlink:title="[[&quot;p1&quot;,&quot;idle&quot;],[&quot;p2&quot;,&quot;idle&quot;]]">
<path fill="#d8f3dc" stroke="#2d6a4f" stroke-width="2" d="M99.42,-198.56C99.42,-198.56 48.75,-198.56 48.75,-198.56 42.75,-198.56 36.75,-192.56 36.75,-186.56 36.75,-186.56 36.75,-139.28 36.75,-139.28 36.75,-133.28 42.75,-127.28 48.75,-127.28 48.75,-127.28 99.42,-127.28 99.42,-127.28 105.42,-127.28 111.42,-133.28 111.42,-139.28 111.42,-139.28 111.42,-186.56 111.42,-186.56 111.42,-192.56 105.42,-198.56 99.42,-198.56"/>
<text xml:space="preserve" text-anchor="middle" x="74.08" y="-179.47" font-family="Helvetica,sans-Serif" font-size="11.00">s0</text>
<text xml:space="preserve" text-anchor="middle" x="74.08" y="-165.97" font-family="Helvetica,sans-Serif" font-size="11.00">p1 = &quot;idle&quot;</text>
<text xml:space="preserve" text-anchor="middle" x="74.08" y="-152.47" font-family="Helvetica,sans-Serif" font-size="11.00">p2 = &quot;idle&quot;</text>
<text xml:space="preserve" text-anchor="middle" x="74.08" y="-138.97" font-family="Helvetica,sans-Serif" font-size="11.00">init</text>
</a>
</g>
</g>
<!-- __start__&#45;&gt;n_5b5b227031222c2269646c65225d2c5b227032222c2269646c65225d5d -->
<g id="edge1" class="edge">
<title>__start__&#45;&gt;n_5b5b227031222c2269646c65225d2c5b227032222c2269646c65225d5d</title>
<path fill="none" stroke="#2a9d8f" stroke-width="2" d="M74.08,-243.31C74.08,-236.36 74.08,-224.64 74.08,-212.31"/>
<polygon fill="#2a9d8f" stroke="#2a9d8f" stroke-width="2" points="77.59,-212.43 74.09,-202.43 70.59,-212.43 77.59,-212.43"/>
</g>
<!-- n_5b5b227031222c226373225d2c5b227032222c226373225d5d -->
<g id="node3" class="node">
<title>n_5b5b227031222c226373225d2c5b227032222c226373225d5d</title>
<g id="a_node3"><a xlink:title="[[&quot;p1&quot;,&quot;cs&quot;],[&quot;p2&quot;,&quot;cs&quot;]]">
<path fill="#ffe3e3" stroke="#c92a2a" stroke-width="2" d="M136.17,-71.28C136.17,-71.28 12,-71.28 12,-71.28 6,-71.28 0,-65.28 0,-59.28 0,-59.28 0,-12 0,-12 0,-6 6,0 12,0 12,0 136.17,0 136.17,0 142.17,0 148.17,-6 148.17,-12 148.17,-12 148.17,-59.28 148.17,-59.28 148.17,-65.28 142.17,-71.28 136.17,-71.28"/>
<text xml:space="preserve" text-anchor="middle" x="74.08" y="-52.19" font-family="Helvetica,sans-Serif" font-size="11.00">s1</text>
<text xml:space="preserve" text-anchor="middle" x="74.08" y="-38.69" font-family="Helvetica,sans-Serif" font-size="11.00">p1 = &quot;cs&quot;</text>
<text xml:space="preserve" text-anchor="middle" x="74.08" y="-25.19" font-family="Helvetica,sans-Serif" font-size="11.00">p2 = &quot;cs&quot;</text>
<text xml:space="preserve" text-anchor="middle" x="74.08" y="-11.69" font-family="Helvetica,sans-Serif" font-size="11.00">violates: mutual&#45;exclusion</text>
</a>
</g>
</g>
<!-- n_5b5b227031222c2269646c65225d2c5b227032222c2269646c65225d5d&#45;&gt;n_5b5b227031222c226373225d2c5b227032222c226373225d5d -->
<g id="edge2" class="edge">
<title>n_5b5b227031222c2269646c65225d2c5b227032222c2269646c65225d5d&#45;&gt;n_5b5b227031222c226373225d2c5b227032222c226373225d5d</title>
<path fill="none" stroke="#6d597a" d="M74.08,-126.35C74.08,-112.88 74.08,-97.34 74.08,-83.02"/>
<polygon fill="#6d597a" stroke="#6d597a" points="77.59,-83.37 74.09,-73.37 70.59,-83.37 77.59,-83.37"/>
<text xml:space="preserve" text-anchor="middle" x="95.83" y="-95.78" font-family="Helvetica,sans-Serif" font-size="10.00">both&#45;enter</text>
</g>
<!-- n_5b5b227031222c226373225d2c5b227032222c226373225d5d&#45;&gt;n_5b5b227031222c226373225d2c5b227032222c226373225d5d -->
<g id="edge3" class="edge">
<title>n_5b5b227031222c226373225d2c5b227032222c226373225d5d&#45;&gt;n_5b5b227031222c226373225d2c5b227032222c226373225d5d</title>
<path fill="none" stroke="#6d597a" d="M149.02,-46.73C161.53,-45.18 170.17,-41.48 170.17,-35.64 170.17,-31.71 166.27,-28.76 159.92,-26.77"/>
<polygon fill="#6d597a" stroke="#6d597a" points="161,-23.42 150.5,-24.85 159.6,-30.28 161,-23.42"/>
<text xml:space="preserve" text-anchor="middle" x="191.92" y="-32.14" font-family="Helvetica,sans-Serif" font-size="10.00">both&#45;enter</text>
</g>
</g>
</svg>
