<?xml version="1.0" encoding="UTF-8" standalone="no"?>
<!DOCTYPE svg PUBLIC "-//W3C//DTD SVG 1.1//EN"
 "http://www.w3.org/Graphics/SVG/1.1/DTD/svg11.dtd">
<!-- Generated by graphviz version 14.1.4 (20260321.0153)
 -->
<!-- Title: counter Pages: 1 -->
<svg width="218pt" height="544pt"
 viewBox="0.00 0.00 218.00 544.00" xmlns="http://www.w3.org/2000/svg" xmlns:xlink="http://www.w3.org/1999/xlink">
<g id="graph0" class="graph" transform="scale(1 1) rotate(0) translate(4 540.27)">
<title>counter</title>
<polygon fill="white" stroke="none" points="-4,4 -4,-540.27 214.25,-540.27 214.25,4 -4,4"/>
<text xml:space="preserve" text-anchor="middle" x="105.12" y="-518.97" font-family="Helvetica,sans-Serif" font-size="14.00">counter</text>
<text xml:space="preserve" text-anchor="middle" x="105.12" y="-503.22" font-family="Helvetica,sans-Serif" font-size="14.00">reachable 4/4 states</text>
<text xml:space="preserve" text-anchor="middle" x="105.12" y="-487.47" font-family="Helvetica,sans-Serif" font-size="14.00">4 visible transitions</text>
<text xml:space="preserve" text-anchor="middle" x="105.12" y="-471.72" font-family="Helvetica,sans-Serif" font-size="14.00">0 deadlocks</text>
<text xml:space="preserve" text-anchor="middle" x="105.12" y="-455.97" font-family="Helvetica,sans-Serif" font-size="14.00">0 invariant&#45;bad states</text>
<text xml:space="preserve" text-anchor="middle" x="105.12" y="-440.22" font-family="Helvetica,sans-Serif" font-size="14.00">actions: inc, reset</text>
<text xml:space="preserve" text-anchor="middle" x="105.12" y="-424.47" font-family="Helvetica,sans-Serif" font-size="14.00">properties: can&#45;reach&#45;three=true</text>
<!-- __start__ -->
<g id="node1" class="node">
<title>__start__</title>
<ellipse fill="#2a9d8f" stroke="#2a9d8f" cx="118.72" cy="-410.82" rx="7.2" ry="7.2"/>
</g>
<!-- n_5b5b2278222c305d5d -->
<g id="node2" class="node">
<title>n_5b5b2278222c305d5d</title>
<g id="a_node2"><a xlink:title="[[&quot;x&quot;,0]]">
<path fill="#d8f3dc" stroke="#2d6a4f" stroke-width="2" d="M133.72,-358.62C133.72,-358.62 103.72,-358.62 103.72,-358.62 97.72,-358.62 91.72,-352.62 91.72,-346.62 91.72,-346.62 91.72,-312.84 91.72,-312.84 91.72,-306.84 97.72,-300.84 103.72,-300.84 103.72,-300.84 133.72,-300.84 133.72,-300.84 139.72,-300.84 145.72,-306.84 145.72,-312.84 145.72,-312.84 145.72,-346.62 145.72,-346.62 145.72,-352.62 139.72,-358.62 133.72,-358.62"/>
<text xml:space="preserve" text-anchor="middle" x="118.72" y="-339.53" font-family="Helvetica,sans-Serif" font-size="11.00">s0</text>
<text xml:space="preserve" text-anchor="middle" x="118.72" y="-326.03" font-family="Helvetica,sans-Serif" font-size="11.00">x = 0</text>
<text xml:space="preserve" text-anchor="middle" x="118.72" y="-312.53" font-family="Helvetica,sans-Serif" font-size="11.00">init</text>
</a>
</g>
</g>
<!-- __start__&#45;&gt;n_5b5b2278222c305d5d -->
<g id="edge1" class="edge">
<title>__start__&#45;&gt;n_5b5b2278222c305d5d</title>
<path fill="none" stroke="#2a9d8f" stroke-width="2" d="M118.72,-403.35C118.72,-396.36 118.72,-384.6 118.72,-372.55"/>
<polygon fill="#2a9d8f" stroke="#2a9d8f" stroke-width="2" points="122.22,-372.61 118.72,-362.61 115.22,-372.61 122.22,-372.61"/>
</g>
<!-- n_5b5b2278222c315d5d -->
<g id="node3" class="node">
<title>n_5b5b2278222c315d5d</title>
<g id="a_node3"><a xlink:title="[[&quot;x&quot;,1]]">
<path fill="#f8f9fb" stroke="#355070" d="M102.72,-244.84C102.72,-244.84 72.72,-244.84 72.72,-244.84 66.72,-244.84 60.72,-238.84 60.72,-232.84 60.72,-232.84 60.72,-212.56 60.72,-212.56 60.72,-206.56 66.72,-200.56 72.72,-200.56 72.72,-200.56 102.72,-200.56 102.72,-200.56 108.72,-200.56 114.72,-206.56 114.72,-212.56 114.72,-212.56 114.72,-232.84 114.72,-232.84 114.72,-238.84 108.72,-244.84 102.72,-244.84"/>
<text xml:space="preserve" text-anchor="middle" x="87.72" y="-225.75" font-family="Helvetica,sans-Serif" font-size="11.00">s1</text>
<text xml:space="preserve" text-anchor="middle" x="87.72" y="-212.25" font-family="Helvetica,sans-Serif" font-size="11.00">x = 1</text>
</a>
</g>
</g>
<!-- n_5b5b2278222c305d5d&#45;&gt;n_5b5b2278222c315d5d -->
<g id="edge2" class="edge">
<title>n_5b5b2278222c305d5d&#45;&gt;n_5b5b2278222c315d5d</title>
<path fill="none" stroke="#6d597a" d="M110.25,-300.03C106.2,-286.32 101.35,-269.87 97.18,-255.76"/>
<polygon fill="#6d597a" stroke="#6d597a" points="100.63,-255.09 94.44,-246.49 93.92,-257.07 100.63,-255.09"/>
<text xml:space="preserve" text-anchor="middle" x="109.59" y="-269.34" font-family="Helvetica,sans-Serif" font-size="10.00">inc</text>
</g>
<!-- n_5b5b2278222c325d5d -->
<g id="node4" class="node">
<title>n_5b5b2278222c325d5d</title>
<g id="a_node4"><a xlink:title="[[&quot;x&quot;,2]]">
<path fill="#f8f9fb" stroke="#355070" d="M102.72,-144.56C102.72,-144.56 72.72,-144.56 72.72,-144.56 66.72,-144.56 60.72,-138.56 60.72,-132.56 60.72,-132.56 60.72,-112.28 60.72,-112.28 60.72,-106.28 66.72,-100.28 72.72,-100.28 72.72,-100.28 102.72,-100.28 102.72,-100.28 108.72,-100.28 114.72,-106.28 114.72,-112.28 114.72,-112.28 114.72,-132.56 114.72,-132.56 114.72,-138.56 108.72,-144.56 102.72,-144.56"/>
<text xml:space="preserve" text-anchor="middle" x="87.72" y="-125.47" font-family="Helvetica,sans-Serif" font-size="11.00">s2</text>
<text xml:space="preserve" text-anchor="middle" x="87.72" y="-111.97" font-family="Helvetica,sans-Serif" font-size="11.00">x = 2</text>
</a>
</g>
</g>
<!-- n_5b5b2278222c315d5d&#45;&gt;n_5b5b2278222c325d5d -->
<g id="edge3" class="edge">
<title>n_5b5b2278222c315d5d&#45;&gt;n_5b5b2278222c325d5d</title>
<path fill="none" stroke="#6d597a" d="M87.72,-200.37C87.72,-187.46 87.72,-170.71 87.72,-156.15"/>
<polygon fill="#6d597a" stroke="#6d597a" points="91.22,-156.56 87.72,-146.56 84.22,-156.56 91.22,-156.56"/>
<text xml:space="preserve" text-anchor="middle" x="94.09" y="-169.06" font-family="Helvetica,sans-Serif" font-size="10.00">inc</text>
</g>
<!-- n_5b5b2278222c335d5d -->
<g id="node5" class="node">
<title>n_5b5b2278222c335d5d</title>
<g id="a_node5"><a xlink:title="[[&quot;x&quot;,3]]">
<path fill="#f8f9fb" stroke="#355070" d="M133.72,-44.28C133.72,-44.28 103.72,-44.28 103.72,-44.28 97.72,-44.28 91.72,-38.28 91.72,-32.28 91.72,-32.28 91.72,-12 91.72,-12 91.72,-6 97.72,0 103.72,0 103.72,0 133.72,0 133.72,0 139.72,0 145.72,-6 145.72,-12 145.72,-12 145.72,-32.28 145.72,-32.28 145.72,-38.28 139.72,-44.28 133.72,-44.28"/>
<text xml:space="preserve" text-anchor="middle" x="118.72" y="-25.19" font-family="Helvetica,sans-Serif" font-size="11.00">s3</text>
<text xml:space="preserve" text-anchor="middle" x="118.72" y="-11.69" font-family="Helvetica,sans-Serif" font-size="11.00">x = 3</text>
</a>
</g>
</g>
<!-- n_5b5b2278222c325d5d&#45;&gt;n_5b5b2278222c335d5d -->
<g id="edge4" class="edge">
<title>n_5b5b2278222c325d5d&#45;&gt;n_5b5b2278222c335d5d</title>
<path fill="none" stroke="#6d597a" d="M94.45,-100.09C98.56,-87.05 103.91,-70.1 108.53,-55.43"/>
<polygon fill="#6d597a" stroke="#6d597a" points="111.77,-56.8 111.44,-46.21 105.1,-54.69 111.77,-56.8"/>
<text xml:space="preserve" text-anchor="middle" x="111.45" y="-68.78" font-family="Helvetica,sans-Serif" font-size="10.00">inc</text>
</g>
<!-- n_5b5b2278222c335d5d&#45;&gt;n_5b5b2278222c305d5d -->
<g id="edge5" class="edge">
<title>n_5b5b2278222c335d5d&#45;&gt;n_5b5b2278222c305d5d</title>
<path fill="none" stroke="#6d597a" d="M121.22,-44.72C122.87,-60.16 124.89,-81.47 125.72,-100.28 128.54,-164.47 128.39,-180.65 125.72,-244.84 125.12,-259.21 123.95,-274.94 122.73,-288.85"/>
<polygon fill="#6d597a" stroke="#6d597a" points="119.27,-288.25 121.85,-298.53 126.24,-288.89 119.27,-288.25"/>
<text xml:space="preserve" text-anchor="middle" x="138.66" y="-169.06" font-family="Helvetica,sans-Serif" font-size="10.00">reset</text>
</g>
</g>
</svg>
