<?xml version="1.0" encoding="UTF-8" standalone="no"?>
<!DOCTYPE svg PUBLIC "-//W3C//DTD SVG 1.1//EN"
 "http://www.w3.org/Graphics/SVG/1.1/DTD/svg11.dtd">
<!-- Generated by graphviz version 14.1.4 (20260321.0153)
 -->
<!-- Title: light&#45;switch Pages: 1 -->
<svg width="203pt" height="344pt"
 viewBox="0.00 0.00 203.00 344.00" xmlns="http://www.w3.org/2000/svg" xmlns:xlink="http://www.w3.org/1999/xlink">
<g id="graph0" class="graph" transform="scale(1 1) rotate(0) translate(4 339.71)">
<title>light&#45;switch</title>
<polygon fill="white" stroke="none" points="-4,4 -4,-339.71 199.25,-339.71 199.25,4 -4,4"/>
<text xml:space="preserve" text-anchor="middle" x="97.62" y="-318.41" font-family="Helvetica,sans-Serif" font-size="14.00">light&#45;switch</text>
<text xml:space="preserve" text-anchor="middle" x="97.62" y="-302.66" font-family="Helvetica,sans-Serif" font-size="14.00">reachable 2/2 states</text>
<text xml:space="preserve" text-anchor="middle" x="97.62" y="-286.91" font-family="Helvetica,sans-Serif" font-size="14.00">2 visible transitions</text>
<text xml:space="preserve" text-anchor="middle" x="97.62" y="-271.16" font-family="Helvetica,sans-Serif" font-size="14.00">0 deadlocks</text>
<text xml:space="preserve" text-anchor="middle" x="97.62" y="-255.41" font-family="Helvetica,sans-Serif" font-size="14.00">0 invariant&#45;bad states</text>
<text xml:space="preserve" text-anchor="middle" x="97.62" y="-239.66" font-family="Helvetica,sans-Serif" font-size="14.00">actions: turn&#45;on, turn&#45;off</text>
<text xml:space="preserve" text-anchor="middle" x="97.62" y="-223.91" font-family="Helvetica,sans-Serif" font-size="14.00">properties: eventually&#45;on=true</text>
<!-- __start__ -->
<g id="node1" class="node">
<title>__start__</title>
<ellipse fill="#2a9d8f" stroke="#2a9d8f" cx="97.62" cy="-210.26" rx="7.2" ry="7.2"/>
</g>
<!-- n_5b5b226c69676874222c226f6666225d5d -->
<g id="node2" class="node">
<title>n_5b5b226c69676874222c226f6666225d5d</title>
<g id="a_node2"><a xlink:title="[[&quot;light&quot;,&quot;off&quot;]]">
<path fill="#d8f3dc" stroke="#2d6a4f" stroke-width="2" d="M124.46,-158.06C124.46,-158.06 70.79,-158.06 70.79,-158.06 64.79,-158.06 58.79,-152.06 58.79,-146.06 58.79,-146.06 58.79,-112.28 58.79,-112.28 58.79,-106.28 64.79,-100.28 70.79,-100.28 70.79,-100.28 124.46,-100.28 124.46,-100.28 130.46,-100.28 136.46,-106.28 136.46,-112.28 136.46,-112.28 136.46,-146.06 136.46,-146.06 136.46,-152.06 130.46,-158.06 124.46,-158.06"/>
<text xml:space="preserve" text-anchor="middle" x="97.62" y="-138.97" font-family="Helvetica,sans-Serif" font-size="11.00">s0</text>
<text xml:space="preserve" text-anchor="middle" x="97.62" y="-125.47" font-family="Helvetica,sans-Serif" font-size="11.00">light = &quot;off&quot;</text>
<text xml:space="preserve" text-anchor="middle" x="97.62" y="-111.97" font-family="Helvetica,sans-Serif" font-size="11.00">init</text>
</a>
</g>
</g>
<!-- __start__&#45;&gt;n_5b5b226c69676874222c226f6666225d5d -->
<g id="edge1" class="edge">
<title>__start__&#45;&gt;n_5b5b226c69676874222c226f6666225d5d</title>
<path fill="none" stroke="#2a9d8f" stroke-width="2" d="M97.62,-202.79C97.62,-195.8 97.62,-184.04 97.62,-171.99"/>
<polygon fill="#2a9d8f" stroke="#2a9d8f" stroke-width="2" points="101.13,-172.05 97.63,-162.05 94.13,-172.05 101.13,-172.05"/>
</g>
<!-- n_5b5b226c69676874222c226f6e225d5d -->
<g id="node3" class="node">
<title>n_5b5b226c69676874222c226f6e225d5d</title>
<g id="a_node3"><a xlink:title="[[&quot;light&quot;,&quot;on&quot;]]">
<path fill="#f8f9fb" stroke="#355070" d="M124.46,-44.28C124.46,-44.28 70.79,-44.28 70.79,-44.28 64.79,-44.28 58.79,-38.28 58.79,-32.28 58.79,-32.28 58.79,-12 58.79,-12 58.79,-6 64.79,0 70.79,0 70.79,0 124.46,0 124.46,0 130.46,0 136.46,-6 136.46,-12 136.46,-12 136.46,-32.28 136.46,-32.28 136.46,-38.28 130.46,-44.28 124.46,-44.28"/>
<text xml:space="preserve" text-anchor="middle" x="97.62" y="-25.19" font-family="Helvetica,sans-Serif" font-size="11.00">s1</text>
<text xml:space="preserve" text-anchor="middle" x="97.62" y="-11.69" font-family="Helvetica,sans-Serif" font-size="11.00">light = &quot;on&quot;</text>
</a>
</g>
</g>
<!-- n_5b5b226c69676874222c226f6666225d5d&#45;&gt;n_5b5b226c69676874222c226f6e225d5d -->
<g id="edge2" class="edge">
<title>n_5b5b226c69676874222c226f6666225d5d&#45;&gt;n_5b5b226c69676874222c226f6e225d5d</title>
<path fill="none" stroke="#6d597a" d="M75.21,-99.52C69.75,-89.27 66.31,-77.47 69.62,-66.28 70.81,-62.28 72.5,-58.3 74.46,-54.47"/>
<polygon fill="#6d597a" stroke="#6d597a" points="77.35,-56.46 79.39,-46.06 71.31,-52.92 77.35,-56.46"/>
<text xml:space="preserve" text-anchor="middle" x="84.62" y="-68.78" font-family="Helvetica,sans-Serif" font-size="10.00">turn&#45;on</text>
</g>
<!-- n_5b5b226c69676874222c226f6e225d5d&#45;&gt;n_5b5b226c69676874222c226f6666225d5d -->
<g id="edge3" class="edge">
<title>n_5b5b226c69676874222c226f6e225d5d&#45;&gt;n_5b5b226c69676874222c226f6666225d5d</title>
<path fill="none" stroke="#6d597a" d="M99.41,-44.63C99.91,-51.54 100.38,-59.23 100.62,-66.28 100.87,-73.32 100.79,-80.81 100.54,-88.06"/>
<polygon fill="#6d597a" stroke="#6d597a" points="97.05,-87.86 100.08,-98.01 104.04,-88.18 97.05,-87.86"/>
<text xml:space="preserve" text-anchor="middle" x="115.77" y="-68.78" font-family="Helvetica,sans-Serif" font-size="10.00">turn&#45;off</text>
</g>
</g>
</svg>
