<?xml version="1.0" encoding="UTF-8" standalone="no"?>
<!DOCTYPE svg PUBLIC "-//W3C//DTD SVG 1.1//EN"
 "http://www.w3.org/Graphics/SVG/1.1/DTD/svg11.dtd">
<!-- Generated by graphviz version 14.1.4 (20260321.0153)
 -->
<!-- Title: mutex&#45;2proc Pages: 1 -->
<svg width="357pt" height="398pt"
 viewBox="0.00 0.00 357.00 398.00" xmlns="http://www.w3.org/2000/svg" xmlns:xlink="http://www.w3.org/1999/xlink">
<g id="graph0" class="graph" transform="scale(1 1) rotate(0) translate(4 393.71)">
<title>mutex&#45;2proc</title>
<polygon fill="white" stroke="none" points="-4,4 -4,-393.71 353,-393.71 353,4 -4,4"/>
<text xml:space="preserve" text-anchor="middle" x="174.5" y="-372.41" font-family="Helvetica,sans-Serif" font-size="14.00">mutex&#45;2proc</text>
<text xml:space="preserve" text-anchor="middle" x="174.5" y="-356.66" font-family="Helvetica,sans-Serif" font-size="14.00">reachable 3/12 states</text>
<text xml:space="preserve" text-anchor="middle" x="174.5" y="-340.91" font-family="Helvetica,sans-Serif" font-size="14.00">4 visible transitions</text>
<text xml:space="preserve" text-anchor="middle" x="174.5" y="-325.16" font-family="Helvetica,sans-Serif" font-size="14.00">0 deadlocks</text>
<text xml:space="preserve" text-anchor="middle" x="174.5" y="-309.41" font-family="Helvetica,sans-Serif" font-size="14.00">0 invariant&#45;bad states</text>
<text xml:space="preserve" text-anchor="middle" x="174.5" y="-293.66" font-family="Helvetica,sans-Serif" font-size="14.00">actions: p1&#45;enter, p1&#45;exit, p2&#45;enter, p2&#45;exit</text>
<text xml:space="preserve" text-anchor="middle" x="174.5" y="-277.91" font-family="Helvetica,sans-Serif" font-size="14.00">properties: p1&#45;can&#45;reach&#45;cs=true, p2&#45;can&#45;reach&#45;cs=true</text>
<!-- __start__ -->
<g id="node1" class="node">
<title>__start__</title>
<ellipse fill="#2a9d8f" stroke="#2a9d8f" cx="173.1" cy="-264.26" rx="7.2" ry="7.2"/>
</g>
<!-- n_5b5b227031222c2269646c65225d2c5b227032222c2269646c65225d2c5b226c6f636b222c2266726565225d5d -->
<g id="node2" class="node">
<title>n_5b5b227031222c2269646c65225d2c5b227032222c2269646c65225d2c5b226c6f636b222c2266726565225d5d</title>
<g id="a_node2"><a xlink:title="[[&quot;p1&quot;,&quot;idle&quot;],[&quot;p2&quot;,&quot;idle&quot;],[&quot;lock&quot;,&quot;free&quot;]]">
<path fill="#d8f3dc" stroke="#2d6a4f" stroke-width="2" d="M202.94,-212.06C202.94,-212.06 143.27,-212.06 143.27,-212.06 137.27,-212.06 131.27,-206.06 131.27,-200.06 131.27,-200.06 131.27,-139.28 131.27,-139.28 131.27,-133.28 137.27,-127.28 143.27,-127.28 143.27,-127.28 202.94,-127.28 202.94,-127.28 208.94,-127.28 214.94,-133.28 214.94,-139.28 214.94,-139.28 214.94,-200.06 214.94,-200.06 214.94,-206.06 208.94,-212.06 202.94,-212.06"/>
<text xml:space="preserve" text-anchor="middle" x="173.1" y="-192.97" font-family="Helvetica,sans-Serif" font-size="11.00">s0</text>
<text xml:space="preserve" text-anchor="middle" x="173.1" y="-179.47" font-family="Helvetica,sans-Serif" font-size="11.00">p1 = &quot;idle&quot;</text>
<text xml:space="preserve" text-anchor="middle" x="173.1" y="-165.97" font-family="Helvetica,sans-Serif" font-size="11.00">p2 = &quot;idle&quot;</text>
<text xml:space="preserve" text-anchor="middle" x="173.1" y="-152.47" font-family="Helvetica,sans-Serif" font-size="11.00">lock = &quot;free&quot;</text>
<text xml:space="preserve" text-anchor="middle" x="173.1" y="-138.97" font-family="Helvetica,sans-Serif" font-size="11.00">init</text>
</a>
</g>
</g>
<!-- __start__&#45;&gt;n_5b5b227031222c2269646c65225d2c5b227032222c2269646c65225d2c5b226c6f636b222c2266726565225d5d -->
<g id="edge1" class="edge">
<title>__start__&#45;&gt;n_5b5b227031222c2269646c65225d2c5b227032222c2269646c65225d2c5b226c6f636b222c2266726565225d5d</title>
<path fill="none" stroke="#2a9d8f" stroke-width="2" d="M173.1,-256.6C173.1,-249.64 173.1,-237.99 173.1,-225.48"/>
<polygon fill="#2a9d8f" stroke="#2a9d8f" stroke-width="2" points="176.6,-225.86 173.1,-215.86 169.6,-225.86 176.6,-225.86"/>
</g>
<!-- n_5b5b227031222c2269646c65225d2c5b227032222c226373225d2c5b226c6f636b222c227032225d5d -->
<g id="node3" class="node">
<title>n_5b5b227031222c2269646c65225d2c5b227032222c226373225d2c5b226c6f636b222c227032225d5d</title>
<g id="a_node3"><a xlink:title="[[&quot;p1&quot;,&quot;idle&quot;],[&quot;p2&quot;,&quot;cs&quot;],[&quot;lock&quot;,&quot;p2&quot;]]">
<path fill="#f8f9fb" stroke="#355070" d="M145.56,-71.28C145.56,-71.28 92.64,-71.28 92.64,-71.28 86.64,-71.28 80.64,-65.28 80.64,-59.28 80.64,-59.28 80.64,-12 80.64,-12 80.64,-6 86.64,0 92.64,0 92.64,0 145.56,0 145.56,0 151.56,0 157.56,-6 157.56,-12 157.56,-12 157.56,-59.28 157.56,-59.28 157.56,-65.28 151.56,-71.28 145.56,-71.28"/>
<text xml:space="preserve" text-anchor="middle" x="119.1" y="-52.19" font-family="Helvetica,sans-Serif" font-size="11.00">s1</text>
<text xml:space="preserve" text-anchor="middle" x="119.1" y="-38.69" font-family="Helvetica,sans-Serif" font-size="11.00">p1 = &quot;idle&quot;</text>
<text xml:space="preserve" text-anchor="middle" x="119.1" y="-25.19" font-family="Helvetica,sans-Serif" font-size="11.00">p2 = &quot;cs&quot;</text>
<text xml:space="preserve" text-anchor="middle" x="119.1" y="-11.69" font-family="Helvetica,sans-Serif" font-size="11.00">lock = &quot;p2&quot;</text>
</a>
</g>
</g>
<!-- n_5b5b227031222c2269646c65225d2c5b227032222c2269646c65225d2c5b226c6f636b222c2266726565225d5d&#45;&gt;n_5b5b227031222c2269646c65225d2c5b227032222c226373225d2c5b226c6f636b222c227032225d5d -->
<g id="edge2" class="edge">
<title>n_5b5b227031222c2269646c65225d2c5b227032222c2269646c65225d2c5b226c6f636b222c2266726565225d5d&#45;&gt;n_5b5b227031222c2269646c65225d2c5b227032222c226373225d2c5b226c6f636b222c227032225d5d</title>
<path fill="none" stroke="#6d597a" d="M130.37,-149.94C112.25,-139.6 93.01,-124.82 82.85,-105.28 78.92,-97.72 79.15,-89.7 81.72,-81.92"/>
<polygon fill="#6d597a" stroke="#6d597a" points="84.87,-83.44 85.86,-72.89 78.51,-80.51 84.87,-83.44"/>
<text xml:space="preserve" text-anchor="middle" x="100.48" y="-95.78" font-family="Helvetica,sans-Serif" font-size="10.00">p2&#45;enter</text>
</g>
<!-- n_5b5b227031222c226373225d2c5b227032222c2269646c65225d2c5b226c6f636b222c227031225d5d -->
<g id="node4" class="node">
<title>n_5b5b227031222c226373225d2c5b227032222c2269646c65225d2c5b226c6f636b222c227031225d5d</title>
<g id="a_node4"><a xlink:title="[[&quot;p1&quot;,&quot;cs&quot;],[&quot;p2&quot;,&quot;idle&quot;],[&quot;lock&quot;,&quot;p1&quot;]]">
<path fill="#f8f9fb" stroke="#355070" d="M253.56,-71.28C253.56,-71.28 200.64,-71.28 200.64,-71.28 194.64,-71.28 188.64,-65.28 188.64,-59.28 188.64,-59.28 188.64,-12 188.64,-12 188.64,-6 194.64,0 200.64,0 200.64,0 253.56,0 253.56,0 259.56,0 265.56,-6 265.56,-12 265.56,-12 265.56,-59.28 265.56,-59.28 265.56,-65.28 259.56,-71.28 253.56,-71.28"/>
<text xml:space="preserve" text-anchor="middle" x="227.1" y="-52.19" font-family="Helvetica,sans-Serif" font-size="11.00">s2</text>
<text xml:space="preserve" text-anchor="middle" x="227.1" y="-38.69" font-family="Helvetica,sans-Serif" font-size="11.00">p1 = &quot;cs&quot;</text>
<text xml:space="preserve" text-anchor="middle" x="227.1" y="-25.19" font-family="Helvetica,sans-Serif" font-size="11.00">p2 = &quot;idle&quot;</text>
<text xml:space="preserve" text-anchor="middle" x="227.1" y="-11.69" font-family="Helvetica,sans-Serif" font-size="11.00">lock = &quot;p1&quot;</text>
</a>
</g>
</g>
<!-- n_5b5b227031222c2269646c65225d2c5b227032222c2269646c65225d2c5b226c6f636b222c2266726565225d5d&#45;&gt;n_5b5b227031222c226373225d2c5b227032222c2269646c65225d2c5b226c6f636b222c227031225d5d -->
<g id="edge3" class="edge">
<title>n_5b5b227031222c2269646c65225d2c5b227032222c2269646c65225d2c5b226c6f636b222c2266726565225d5d&#45;&gt;n_5b5b227031222c226373225d2c5b227032222c2269646c65225d2c5b226c6f636b222c227031225d5d</title>
<path fill="none" stroke="#6d597a" d="M187.92,-126.56C191.94,-115.66 196.42,-103.97 200.85,-93.28 202.42,-89.5 204.1,-85.61 205.81,-81.72"/>
<polygon fill="#6d597a" stroke="#6d597a" points="208.88,-83.43 209.79,-72.87 202.5,-80.56 208.88,-83.43"/>
<text xml:space="preserve" text-anchor="middle" x="218.48" y="-95.78" font-family="Helvetica,sans-Serif" font-size="10.00">p1&#45;enter</text>
</g>
<!-- n_5b5b227031222c2269646c65225d2c5b227032222c226373225d2c5b226c6f636b222c227032225d5d&#45;&gt;n_5b5b227031222c2269646c65225d2c5b227032222c2269646c65225d2c5b226c6f636b222c2266726565225d5d -->
<g id="edge4" class="edge">
<title>n_5b5b227031222c2269646c65225d2c5b227032222c226373225d2c5b226c6f636b222c227032225d5d&#45;&gt;n_5b5b227031222c2269646c65225d2c5b227032222c2269646c65225d2c5b226c6f636b222c2266726565225d5d</title>
<path fill="none" stroke="#6d597a" d="M133.46,-71.75C139,-85.29 145.46,-101.08 151.53,-115.93"/>
<polygon fill="#6d597a" stroke="#6d597a" points="148.27,-117.2 155.3,-125.13 154.75,-114.55 148.27,-117.2"/>
<text xml:space="preserve" text-anchor="middle" x="160.73" y="-95.78" font-family="Helvetica,sans-Serif" font-size="10.00">p2&#45;exit</text>
</g>
<!-- n_5b5b227031222c226373225d2c5b227032222c2269646c65225d2c5b226c6f636b222c227031225d5d&#45;&gt;n_5b5b227031222c2269646c65225d2c5b227032222c2269646c65225d2c5b226c6f636b222c2266726565225d5d -->
<g id="edge5" class="edge">
<title>n_5b5b227031222c226373225d2c5b227032222c2269646c65225d2c5b226c6f636b222c227031225d5d&#45;&gt;n_5b5b227031222c2269646c65225d2c5b227032222c2269646c65225d2c5b226c6f636b222c2266726565225d5d</title>
<path fill="none" stroke="#6d597a" d="M239.28,-71.76C241.27,-82.8 241.46,-94.83 237.1,-105.28 233.76,-113.3 228.86,-120.82 223.22,-127.69"/>
<polygon fill="#6d597a" stroke="#6d597a" points="220.84,-125.11 216.77,-134.89 226.05,-129.77 220.84,-125.11"/>
<text xml:space="preserve" text-anchor="middle" x="254.64" y="-95.78" font-family="Helvetica,sans-Serif" font-size="10.00">p1&#45;exit</text>
</g>
</g>
</svg>
