<?xml version="1.0" encoding="UTF-8" standalone="no"?>
<!DOCTYPE svg PUBLIC "-//W3C//DTD SVG 1.1//EN"
 "http://www.w3.org/Graphics/SVG/1.1/DTD/svg11.dtd">
<!-- Generated by graphviz version 14.1.4 (20260321.0153)
 -->
<!-- Title: tla&#45;hour&#45;clock Pages: 1 -->
<svg width="556pt" height="1495pt"
 viewBox="0.00 0.00 556.00 1495.00" xmlns="http://www.w3.org/2000/svg" xmlns:xlink="http://www.w3.org/1999/xlink">
<g id="graph0" class="graph" transform="scale(1 1) rotate(0) translate(4 1491.01)">
<title>tla&#45;hour&#45;clock</title>
<polygon fill="white" stroke="none" points="-4,4 -4,-1491.01 552.21,-1491.01 552.21,4 -4,4"/>
<text xml:space="preserve" text-anchor="middle" x="274.11" y="-1469.71" font-family="Helvetica,sans-Serif" font-size="14.00">tla&#45;hour&#45;clock</text>
<text xml:space="preserve" text-anchor="middle" x="274.11" y="-1453.96" font-family="Helvetica,sans-Serif" font-size="14.00">reachable 12/12 states</text>
<text xml:space="preserve" text-anchor="middle" x="274.11" y="-1438.21" font-family="Helvetica,sans-Serif" font-size="14.00">12 visible transitions</text>
<text xml:space="preserve" text-anchor="middle" x="274.11" y="-1422.46" font-family="Helvetica,sans-Serif" font-size="14.00">0 deadlocks</text>
<text xml:space="preserve" text-anchor="middle" x="274.11" y="-1406.71" font-family="Helvetica,sans-Serif" font-size="14.00">0 invariant&#45;bad states</text>
<text xml:space="preserve" text-anchor="middle" x="274.11" y="-1390.96" font-family="Helvetica,sans-Serif" font-size="14.00">actions: tick</text>
<text xml:space="preserve" text-anchor="middle" x="274.11" y="-1375.21" font-family="Helvetica,sans-Serif" font-size="14.00">properties: can&#45;reach&#45;twelve=true</text>
<!-- __start__ -->
<g id="node1" class="node">
<title>__start__</title>
<ellipse fill="#2a9d8f" stroke="#2a9d8f" cx="295.21" cy="-1361.56" rx="7.2" ry="7.2"/>
</g>
<!-- n_5b5b226872222c315d5d -->
<g id="node2" class="node">
<title>n_5b5b226872222c315d5d</title>
<g id="a_node2"><a xlink:title="[[&quot;hr&quot;,1]]">
<path fill="#d8f3dc" stroke="#2d6a4f" stroke-width="2" d="M42.42,-1309.36C42.42,-1309.36 12,-1309.36 12,-1309.36 6,-1309.36 0,-1303.36 0,-1297.36 0,-1297.36 0,-1263.58 0,-1263.58 0,-1257.58 6,-1251.58 12,-1251.58 12,-1251.58 42.42,-1251.58 42.42,-1251.58 48.42,-1251.58 54.42,-1257.58 54.42,-1263.58 54.42,-1263.58 54.42,-1297.36 54.42,-1297.36 54.42,-1303.36 48.42,-1309.36 42.42,-1309.36"/>
<text xml:space="preserve" text-anchor="middle" x="27.21" y="-1290.27" font-family="Helvetica,sans-Serif" font-size="11.00">s0</text>
<text xml:space="preserve" text-anchor="middle" x="27.21" y="-1276.77" font-family="Helvetica,sans-Serif" font-size="11.00">hr = 1</text>
<text xml:space="preserve" text-anchor="middle" x="27.21" y="-1263.27" font-family="Helvetica,sans-Serif" font-size="11.00">init</text>
</a>
</g>
</g>
<!-- __start__&#45;&gt;n_5b5b226872222c315d5d -->
<g id="edge1" class="edge">
<title>__start__&#45;&gt;n_5b5b226872222c315d5d</title>
<path fill="none" stroke="#2a9d8f" stroke-width="2" d="M287.86,-1360.34C253.66,-1359.18 110.08,-1353.17 71.21,-1332.36 65.1,-1329.09 59.45,-1324.59 54.39,-1319.62"/>
<polygon fill="#2a9d8f" stroke="#2a9d8f" stroke-width="2" points="57.28,-1317.6 47.96,-1312.56 52.1,-1322.31 57.28,-1317.6"/>
</g>
<!-- n_5b5b226872222c325d5d -->
<g id="node3" class="node">
<title>n_5b5b226872222c325d5d</title>
<g id="a_node3"><a xlink:title="[[&quot;hr&quot;,2]]">
<path fill="#d8f3dc" stroke="#2d6a4f" stroke-width="2" d="M88.42,-1195.58C88.42,-1195.58 58,-1195.58 58,-1195.58 52,-1195.58 46,-1189.58 46,-1183.58 46,-1183.58 46,-1149.8 46,-1149.8 46,-1143.8 52,-1137.8 58,-1137.8 58,-1137.8 88.42,-1137.8 88.42,-1137.8 94.42,-1137.8 100.42,-1143.8 100.42,-1149.8 100.42,-1149.8 100.42,-1183.58 100.42,-1183.58 100.42,-1189.58 94.42,-1195.58 88.42,-1195.58"/>
<text xml:space="preserve" text-anchor="middle" x="73.21" y="-1176.49" font-family="Helvetica,sans-Serif" font-size="11.00">s1</text>
<text xml:space="preserve" text-anchor="middle" x="73.21" y="-1162.99" font-family="Helvetica,sans-Serif" font-size="11.00">hr = 2</text>
<text xml:space="preserve" text-anchor="middle" x="73.21" y="-1149.49" font-family="Helvetica,sans-Serif" font-size="11.00">init</text>
</a>
</g>
</g>
<!-- __start__&#45;&gt;n_5b5b226872222c325d5d -->
<g id="edge2" class="edge">
<title>__start__&#45;&gt;n_5b5b226872222c325d5d</title>
<path fill="none" stroke="#2a9d8f" stroke-width="2" d="M287.99,-1360.43C257.92,-1359.74 143.01,-1355.61 117.21,-1332.36 82.8,-1301.35 74.02,-1246.69 72.39,-1208.9"/>
<polygon fill="#2a9d8f" stroke="#2a9d8f" stroke-width="2" points="75.9,-1209.24 72.16,-1199.33 68.9,-1209.41 75.9,-1209.24"/>
</g>
<!-- n_5b5b226872222c335d5d -->
<g id="node4" class="node">
<title>n_5b5b226872222c335d5d</title>
<g id="a_node4"><a xlink:title="[[&quot;hr&quot;,3]]">
<path fill="#d8f3dc" stroke="#2d6a4f" stroke-width="2" d="M134.42,-1081.8C134.42,-1081.8 104,-1081.8 104,-1081.8 98,-1081.8 92,-1075.8 92,-1069.8 92,-1069.8 92,-1036.02 92,-1036.02 92,-1030.02 98,-1024.02 104,-1024.02 104,-1024.02 134.42,-1024.02 134.42,-1024.02 140.42,-1024.02 146.42,-1030.02 146.42,-1036.02 146.42,-1036.02 146.42,-1069.8 146.42,-1069.8 146.42,-1075.8 140.42,-1081.8 134.42,-1081.8"/>
<text xml:space="preserve" text-anchor="middle" x="119.21" y="-1062.71" font-family="Helvetica,sans-Serif" font-size="11.00">s2</text>
<text xml:space="preserve" text-anchor="middle" x="119.21" y="-1049.21" font-family="Helvetica,sans-Serif" font-size="11.00">hr = 3</text>
<text xml:space="preserve" text-anchor="middle" x="119.21" y="-1035.71" font-family="Helvetica,sans-Serif" font-size="11.00">init</text>
</a>
</g>
</g>
<!-- __start__&#45;&gt;n_5b5b226872222c335d5d -->
<g id="edge3" class="edge">
<title>__start__&#45;&gt;n_5b5b226872222c335d5d</title>
<path fill="none" stroke="#2a9d8f" stroke-width="2" d="M287.82,-1360.06C262.62,-1358.18 180.62,-1350.73 163.21,-1332.36 131.57,-1298.97 122.67,-1164.49 120.18,-1095.38"/>
<polygon fill="#2a9d8f" stroke="#2a9d8f" stroke-width="2" points="123.68,-1095.38 119.86,-1085.5 116.68,-1095.61 123.68,-1095.38"/>
</g>
<!-- n_5b5b226872222c345d5d -->
<g id="node5" class="node">
<title>n_5b5b226872222c345d5d</title>
<g id="a_node5"><a xlink:title="[[&quot;hr&quot;,4]]">
<path fill="#d8f3dc" stroke="#2d6a4f" stroke-width="2" d="M180.42,-968.02C180.42,-968.02 150,-968.02 150,-968.02 144,-968.02 138,-962.02 138,-956.02 138,-956.02 138,-922.24 138,-922.24 138,-916.24 144,-910.24 150,-910.24 150,-910.24 180.42,-910.24 180.42,-910.24 186.42,-910.24 192.42,-916.24 192.42,-922.24 192.42,-922.24 192.42,-956.02 192.42,-956.02 192.42,-962.02 186.42,-968.02 180.42,-968.02"/>
<text xml:space="preserve" text-anchor="middle" x="165.21" y="-948.93" font-family="Helvetica,sans-Serif" font-size="11.00">s3</text>
<text xml:space="preserve" text-anchor="middle" x="165.21" y="-935.43" font-family="Helvetica,sans-Serif" font-size="11.00">hr = 4</text>
<text xml:space="preserve" text-anchor="middle" x="165.21" y="-921.93" font-family="Helvetica,sans-Serif" font-size="11.00">init</text>
</a>
</g>
</g>
<!-- __start__&#45;&gt;n_5b5b226872222c345d5d -->
<g id="edge4" class="edge">
<title>__start__&#45;&gt;n_5b5b226872222c345d5d</title>
<path fill="none" stroke="#2a9d8f" stroke-width="2" d="M288.16,-1359.96C272.35,-1358.27 233.55,-1352.24 209.21,-1332.36 189.05,-1315.89 180.21,-1307.5 180.21,-1281.47 180.21,-1281.47 180.21,-1281.47 180.21,-1051.91 180.21,-1028.51 176.94,-1002.6 173.45,-981.62"/>
<polygon fill="#2a9d8f" stroke="#2a9d8f" stroke-width="2" points="176.93,-981.16 171.75,-971.92 170.03,-982.37 176.93,-981.16"/>
</g>
<!-- n_5b5b226872222c355d5d -->
<g id="node6" class="node">
<title>n_5b5b226872222c355d5d</title>
<g id="a_node6"><a xlink:title="[[&quot;hr&quot;,5]]">
<path fill="#d8f3dc" stroke="#2d6a4f" stroke-width="2" d="M226.42,-854.24C226.42,-854.24 196,-854.24 196,-854.24 190,-854.24 184,-848.24 184,-842.24 184,-842.24 184,-808.46 184,-808.46 184,-802.46 190,-796.46 196,-796.46 196,-796.46 226.42,-796.46 226.42,-796.46 232.42,-796.46 238.42,-802.46 238.42,-808.46 238.42,-808.46 238.42,-842.24 238.42,-842.24 238.42,-848.24 232.42,-854.24 226.42,-854.24"/>
<text xml:space="preserve" text-anchor="middle" x="211.21" y="-835.15" font-family="Helvetica,sans-Serif" font-size="11.00">s4</text>
<text xml:space="preserve" text-anchor="middle" x="211.21" y="-821.65" font-family="Helvetica,sans-Serif" font-size="11.00">hr = 5</text>
<text xml:space="preserve" text-anchor="middle" x="211.21" y="-808.15" font-family="Helvetica,sans-Serif" font-size="11.00">init</text>
</a>
</g>
</g>
<!-- __start__&#45;&gt;n_5b5b226872222c355d5d -->
<g id="edge5" class="edge">
<title>__start__&#45;&gt;n_5b5b226872222c355d5d</title>
<path fill="none" stroke="#2a9d8f" stroke-width="2" d="M288.84,-1357.26C271.76,-1347.89 226.21,-1319.37 226.21,-1281.47 226.21,-1281.47 226.21,-1281.47 226.21,-938.13 226.21,-914.73 222.94,-888.82 219.45,-867.84"/>
<polygon fill="#2a9d8f" stroke="#2a9d8f" stroke-width="2" points="222.93,-867.38 217.75,-858.14 216.03,-868.59 222.93,-867.38"/>
</g>
<!-- n_5b5b226872222c365d5d -->
<g id="node7" class="node">
<title>n_5b5b226872222c365d5d</title>
<g id="a_node7"><a xlink:title="[[&quot;hr&quot;,6]]">
<path fill="#d8f3dc" stroke="#2d6a4f" stroke-width="2" d="M272.42,-740.46C272.42,-740.46 242,-740.46 242,-740.46 236,-740.46 230,-734.46 230,-728.46 230,-728.46 230,-694.68 230,-694.68 230,-688.68 236,-682.68 242,-682.68 242,-682.68 272.42,-682.68 272.42,-682.68 278.42,-682.68 284.42,-688.68 284.42,-694.68 284.42,-694.68 284.42,-728.46 284.42,-728.46 284.42,-734.46 278.42,-740.46 272.42,-740.46"/>
<text xml:space="preserve" text-anchor="middle" x="257.21" y="-721.37" font-family="Helvetica,sans-Serif" font-size="11.00">s5</text>
<text xml:space="preserve" text-anchor="middle" x="257.21" y="-707.87" font-family="Helvetica,sans-Serif" font-size="11.00">hr = 6</text>
<text xml:space="preserve" text-anchor="middle" x="257.21" y="-694.37" font-family="Helvetica,sans-Serif" font-size="11.00">init</text>
</a>
</g>
</g>
<!-- __start__&#45;&gt;n_5b5b226872222c365d5d -->
<g id="edge6" class="edge">
<title>__start__&#45;&gt;n_5b5b226872222c365d5d</title>
<path fill="none" stroke="#2a9d8f" stroke-width="2" d="M292.2,-1354.58C285.97,-1341.61 272.21,-1309.78 272.21,-1281.47 272.21,-1281.47 272.21,-1281.47 272.21,-824.35 272.21,-800.95 268.94,-775.04 265.45,-754.06"/>
<polygon fill="#2a9d8f" stroke="#2a9d8f" stroke-width="2" points="268.93,-753.6 263.75,-744.36 262.03,-754.81 268.93,-753.6"/>
</g>
<!-- n_5b5b226872222c375d5d -->
<g id="node8" class="node">
<title>n_5b5b226872222c375d5d</title>
<g id="a_node8"><a xlink:title="[[&quot;hr&quot;,7]]">
<path fill="#d8f3dc" stroke="#2d6a4f" stroke-width="2" d="M318.42,-626.68C318.42,-626.68 288,-626.68 288,-626.68 282,-626.68 276,-620.68 276,-614.68 276,-614.68 276,-580.9 276,-580.9 276,-574.9 282,-568.9 288,-568.9 288,-568.9 318.42,-568.9 318.42,-568.9 324.42,-568.9 330.42,-574.9 330.42,-580.9 330.42,-580.9 330.42,-614.68 330.42,-614.68 330.42,-620.68 324.42,-626.68 318.42,-626.68"/>
<text xml:space="preserve" text-anchor="middle" x="303.21" y="-607.59" font-family="Helvetica,sans-Serif" font-size="11.00">s6</text>
<text xml:space="preserve" text-anchor="middle" x="303.21" y="-594.09" font-family="Helvetica,sans-Serif" font-size="11.00">hr = 7</text>
<text xml:space="preserve" text-anchor="middle" x="303.21" y="-580.59" font-family="Helvetica,sans-Serif" font-size="11.00">init</text>
</a>
</g>
</g>
<!-- __start__&#45;&gt;n_5b5b226872222c375d5d -->
<g id="edge7" class="edge">
<title>__start__&#45;&gt;n_5b5b226872222c375d5d</title>
<path fill="none" stroke="#2a9d8f" stroke-width="2" d="M298.22,-1354.58C304.45,-1341.61 318.21,-1309.78 318.21,-1281.47 318.21,-1281.47 318.21,-1281.47 318.21,-710.57 318.21,-687.17 314.94,-661.26 311.45,-640.28"/>
<polygon fill="#2a9d8f" stroke="#2a9d8f" stroke-width="2" points="314.93,-639.82 309.75,-630.58 308.03,-641.03 314.93,-639.82"/>
</g>
<!-- n_5b5b226872222c385d5d -->
<g id="node9" class="node">
<title>n_5b5b226872222c385d5d</title>
<g id="a_node9"><a xlink:title="[[&quot;hr&quot;,8]]">
<path fill="#d8f3dc" stroke="#2d6a4f" stroke-width="2" d="M364.42,-512.9C364.42,-512.9 334,-512.9 334,-512.9 328,-512.9 322,-506.9 322,-500.9 322,-500.9 322,-467.12 322,-467.12 322,-461.12 328,-455.12 334,-455.12 334,-455.12 364.42,-455.12 364.42,-455.12 370.42,-455.12 376.42,-461.12 376.42,-467.12 376.42,-467.12 376.42,-500.9 376.42,-500.9 376.42,-506.9 370.42,-512.9 364.42,-512.9"/>
<text xml:space="preserve" text-anchor="middle" x="349.21" y="-493.81" font-family="Helvetica,sans-Serif" font-size="11.00">s7</text>
<text xml:space="preserve" text-anchor="middle" x="349.21" y="-480.31" font-family="Helvetica,sans-Serif" font-size="11.00">hr = 8</text>
<text xml:space="preserve" text-anchor="middle" x="349.21" y="-466.81" font-family="Helvetica,sans-Serif" font-size="11.00">init</text>
</a>
</g>
</g>
<!-- __start__&#45;&gt;n_5b5b226872222c385d5d -->
<g id="edge8" class="edge">
<title>__start__&#45;&gt;n_5b5b226872222c385d5d</title>
<path fill="none" stroke="#2a9d8f" stroke-width="2" d="M301.58,-1357.26C318.66,-1347.89 364.21,-1319.37 364.21,-1281.47 364.21,-1281.47 364.21,-1281.47 364.21,-596.79 364.21,-573.39 360.94,-547.48 357.45,-526.5"/>
<polygon fill="#2a9d8f" stroke="#2a9d8f" stroke-width="2" points="360.93,-526.04 355.75,-516.8 354.03,-527.25 360.93,-526.04"/>
</g>
<!-- n_5b5b226872222c395d5d -->
<g id="node10" class="node">
<title>n_5b5b226872222c395d5d</title>
<g id="a_node10"><a xlink:title="[[&quot;hr&quot;,9]]">
<path fill="#d8f3dc" stroke="#2d6a4f" stroke-width="2" d="M410.42,-399.12C410.42,-399.12 380,-399.12 380,-399.12 374,-399.12 368,-393.12 368,-387.12 368,-387.12 368,-353.34 368,-353.34 368,-347.34 374,-341.34 380,-341.34 380,-341.34 410.42,-341.34 410.42,-341.34 416.42,-341.34 422.42,-347.34 422.42,-353.34 422.42,-353.34 422.42,-387.12 422.42,-387.12 422.42,-393.12 416.42,-399.12 410.42,-399.12"/>
<text xml:space="preserve" text-anchor="middle" x="395.21" y="-380.03" font-family="Helvetica,sans-Serif" font-size="11.00">s8</text>
<text xml:space="preserve" text-anchor="middle" x="395.21" y="-366.53" font-family="Helvetica,sans-Serif" font-size="11.00">hr = 9</text>
<text xml:space="preserve" text-anchor="middle" x="395.21" y="-353.03" font-family="Helvetica,sans-Serif" font-size="11.00">init</text>
</a>
</g>
</g>
<!-- __start__&#45;&gt;n_5b5b226872222c395d5d -->
<g id="edge9" class="edge">
<title>__start__&#45;&gt;n_5b5b226872222c395d5d</title>
<path fill="none" stroke="#2a9d8f" stroke-width="2" d="M302.4,-1359.27C327.58,-1354.32 410.21,-1334.05 410.21,-1281.47 410.21,-1281.47 410.21,-1281.47 410.21,-483.01 410.21,-459.61 406.94,-433.7 403.45,-412.72"/>
<polygon fill="#2a9d8f" stroke="#2a9d8f" stroke-width="2" points="406.93,-412.26 401.75,-403.02 400.03,-413.47 406.93,-412.26"/>
</g>
<!-- n_5b5b226872222c31305d5d -->
<g id="node11" class="node">
<title>n_5b5b226872222c31305d5d</title>
<g id="a_node11"><a xlink:title="[[&quot;hr&quot;,10]]">
<path fill="#d8f3dc" stroke="#2d6a4f" stroke-width="2" d="M456.42,-285.34C456.42,-285.34 420,-285.34 420,-285.34 414,-285.34 408,-279.34 408,-273.34 408,-273.34 408,-239.56 408,-239.56 408,-233.56 414,-227.56 420,-227.56 420,-227.56 456.42,-227.56 456.42,-227.56 462.42,-227.56 468.42,-233.56 468.42,-239.56 468.42,-239.56 468.42,-273.34 468.42,-273.34 468.42,-279.34 462.42,-285.34 456.42,-285.34"/>
<text xml:space="preserve" text-anchor="middle" x="438.21" y="-266.25" font-family="Helvetica,sans-Serif" font-size="11.00">s9</text>
<text xml:space="preserve" text-anchor="middle" x="438.21" y="-252.75" font-family="Helvetica,sans-Serif" font-size="11.00">hr = 10</text>
<text xml:space="preserve" text-anchor="middle" x="438.21" y="-239.25" font-family="Helvetica,sans-Serif" font-size="11.00">init</text>
</a>
</g>
</g>
<!-- __start__&#45;&gt;n_5b5b226872222c31305d5d -->
<g id="edge10" class="edge">
<title>__start__&#45;&gt;n_5b5b226872222c31305d5d</title>
<path fill="none" stroke="#2a9d8f" stroke-width="2" d="M302.55,-1360.42C334.04,-1359.39 456.21,-1350.92 456.21,-1281.47 456.21,-1281.47 456.21,-1281.47 456.21,-369.23 456.21,-345.74 452.29,-319.82 448.1,-298.86"/>
<polygon fill="#2a9d8f" stroke="#2a9d8f" stroke-width="2" points="451.55,-298.22 446.05,-289.16 444.7,-299.67 451.55,-298.22"/>
</g>
<!-- n_5b5b226872222c31315d5d -->
<g id="node12" class="node">
<title>n_5b5b226872222c31315d5d</title>
<g id="a_node12"><a xlink:title="[[&quot;hr&quot;,11]]">
<path fill="#d8f3dc" stroke="#2d6a4f" stroke-width="2" d="M490.05,-171.56C490.05,-171.56 454.38,-171.56 454.38,-171.56 448.38,-171.56 442.38,-165.56 442.38,-159.56 442.38,-159.56 442.38,-125.78 442.38,-125.78 442.38,-119.78 448.38,-113.78 454.38,-113.78 454.38,-113.78 490.05,-113.78 490.05,-113.78 496.05,-113.78 502.05,-119.78 502.05,-125.78 502.05,-125.78 502.05,-159.56 502.05,-159.56 502.05,-165.56 496.05,-171.56 490.05,-171.56"/>
<text xml:space="preserve" text-anchor="middle" x="472.21" y="-152.47" font-family="Helvetica,sans-Serif" font-size="11.00">s10</text>
<text xml:space="preserve" text-anchor="middle" x="472.21" y="-138.97" font-family="Helvetica,sans-Serif" font-size="11.00">hr = 11</text>
<text xml:space="preserve" text-anchor="middle" x="472.21" y="-125.47" font-family="Helvetica,sans-Serif" font-size="11.00">init</text>
</a>
</g>
</g>
<!-- __start__&#45;&gt;n_5b5b226872222c31315d5d -->
<g id="edge11" class="edge">
<title>__start__&#45;&gt;n_5b5b226872222c31315d5d</title>
<path fill="none" stroke="#2a9d8f" stroke-width="2" d="M302.59,-1360.4C324.69,-1359.66 391.91,-1355.52 441.21,-1332.36 446.17,-1330.03 502.21,-1282.21 502.21,-1281.47 502.21,-1281.47 502.21,-1281.47 502.21,-255.45 502.21,-231.49 495.7,-205.6 488.75,-184.77"/>
<polygon fill="#2a9d8f" stroke="#2a9d8f" stroke-width="2" points="492.06,-183.63 485.42,-175.37 485.46,-185.97 492.06,-183.63"/>
</g>
<!-- n_5b5b226872222c31325d5d -->
<g id="node13" class="node">
<title>n_5b5b226872222c31325d5d</title>
<g id="a_node13"><a xlink:title="[[&quot;hr&quot;,12]]">
<path fill="#d8f3dc" stroke="#2d6a4f" stroke-width="2" d="M490.42,-57.78C490.42,-57.78 454,-57.78 454,-57.78 448,-57.78 442,-51.78 442,-45.78 442,-45.78 442,-12 442,-12 442,-6 448,0 454,0 454,0 490.42,0 490.42,0 496.42,0 502.42,-6 502.42,-12 502.42,-12 502.42,-45.78 502.42,-45.78 502.42,-51.78 496.42,-57.78 490.42,-57.78"/>
<text xml:space="preserve" text-anchor="middle" x="472.21" y="-38.69" font-family="Helvetica,sans-Serif" font-size="11.00">s11</text>
<text xml:space="preserve" text-anchor="middle" x="472.21" y="-25.19" font-family="Helvetica,sans-Serif" font-size="11.00">hr = 12</text>
<text xml:space="preserve" text-anchor="middle" x="472.21" y="-11.69" font-family="Helvetica,sans-Serif" font-size="11.00">init</text>
</a>
</g>
</g>
<!-- __start__&#45;&gt;n_5b5b226872222c31325d5d -->
<g id="edge12" class="edge">
<title>__start__&#45;&gt;n_5b5b226872222c31325d5d</title>
<path fill="none" stroke="#2a9d8f" stroke-width="2" d="M302.51,-1359.92C343.99,-1356.06 548.21,-1334.39 548.21,-1281.47 548.21,-1281.47 548.21,-1281.47 548.21,-141.67 548.21,-112.63 530.45,-85.55 512.1,-65.31"/>
<polygon fill="#2a9d8f" stroke="#2a9d8f" stroke-width="2" points="514.67,-62.93 505.22,-58.14 509.61,-67.77 514.67,-62.93"/>
</g>
<!-- n_5b5b226872222c315d5d&#45;&gt;n_5b5b226872222c325d5d -->
<g id="edge13" class="edge">
<title>n_5b5b226872222c315d5d&#45;&gt;n_5b5b226872222c325d5d</title>
<path fill="none" stroke="#6d597a" d="M39.06,-1250.68C44.53,-1237.38 51.11,-1221.38 57.03,-1207"/>
<polygon fill="#6d597a" stroke="#6d597a" points="60.26,-1208.36 60.83,-1197.78 53.79,-1205.69 60.26,-1208.36"/>
<text xml:space="preserve" text-anchor="middle" x="59.46" y="-1220.08" font-family="Helvetica,sans-Serif" font-size="10.00">tick</text>
</g>
<!-- n_5b5b226872222c325d5d&#45;&gt;n_5b5b226872222c335d5d -->
<g id="edge14" class="edge">
<title>n_5b5b226872222c325d5d&#45;&gt;n_5b5b226872222c335d5d</title>
<path fill="none" stroke="#6d597a" d="M85.06,-1136.9C90.53,-1123.6 97.11,-1107.6 103.03,-1093.22"/>
<polygon fill="#6d597a" stroke="#6d597a" points="106.26,-1094.58 106.83,-1084 99.79,-1091.91 106.26,-1094.58"/>
<text xml:space="preserve" text-anchor="middle" x="105.46" y="-1106.3" font-family="Helvetica,sans-Serif" font-size="10.00">tick</text>
</g>
<!-- n_5b5b226872222c335d5d&#45;&gt;n_5b5b226872222c345d5d -->
<g id="edge15" class="edge">
<title>n_5b5b226872222c335d5d&#45;&gt;n_5b5b226872222c345d5d</title>
<path fill="none" stroke="#6d597a" d="M131.06,-1023.12C136.53,-1009.82 143.11,-993.82 149.03,-979.44"/>
<polygon fill="#6d597a" stroke="#6d597a" points="152.26,-980.8 152.83,-970.22 145.79,-978.13 152.26,-980.8"/>
<text xml:space="preserve" text-anchor="middle" x="151.46" y="-992.52" font-family="Helvetica,sans-Serif" font-size="10.00">tick</text>
</g>
<!-- n_5b5b226872222c345d5d&#45;&gt;n_5b5b226872222c355d5d -->
<g id="edge16" class="edge">
<title>n_5b5b226872222c345d5d&#45;&gt;n_5b5b226872222c355d5d</title>
<path fill="none" stroke="#6d597a" d="M177.06,-909.34C182.53,-896.04 189.11,-880.04 195.03,-865.66"/>
<polygon fill="#6d597a" stroke="#6d597a" points="198.26,-867.02 198.83,-856.44 191.79,-864.35 198.26,-867.02"/>
<text xml:space="preserve" text-anchor="middle" x="197.46" y="-878.74" font-family="Helvetica,sans-Serif" font-size="10.00">tick</text>
</g>
<!-- n_5b5b226872222c355d5d&#45;&gt;n_5b5b226872222c365d5d -->
<g id="edge17" class="edge">
<title>n_5b5b226872222c355d5d&#45;&gt;n_5b5b226872222c365d5d</title>
<path fill="none" stroke="#6d597a" d="M223.06,-795.56C228.53,-782.26 235.11,-766.26 241.03,-751.88"/>
<polygon fill="#6d597a" stroke="#6d597a" points="244.26,-753.24 244.83,-742.66 237.79,-750.57 244.26,-753.24"/>
<text xml:space="preserve" text-anchor="middle" x="243.46" y="-764.96" font-family="Helvetica,sans-Serif" font-size="10.00">tick</text>
</g>
<!-- n_5b5b226872222c365d5d&#45;&gt;n_5b5b226872222c375d5d -->
<g id="edge18" class="edge">
<title>n_5b5b226872222c365d5d&#45;&gt;n_5b5b226872222c375d5d</title>
<path fill="none" stroke="#6d597a" d="M269.06,-681.78C274.53,-668.48 281.11,-652.48 287.03,-638.1"/>
<polygon fill="#6d597a" stroke="#6d597a" points="290.26,-639.46 290.83,-628.88 283.79,-636.79 290.26,-639.46"/>
<text xml:space="preserve" text-anchor="middle" x="289.46" y="-651.18" font-family="Helvetica,sans-Serif" font-size="10.00">tick</text>
</g>
<!-- n_5b5b226872222c375d5d&#45;&gt;n_5b5b226872222c385d5d -->
<g id="edge19" class="edge">
<title>n_5b5b226872222c375d5d&#45;&gt;n_5b5b226872222c385d5d</title>
<path fill="none" stroke="#6d597a" d="M315.06,-568C320.53,-554.7 327.11,-538.7 333.03,-524.32"/>
<polygon fill="#6d597a" stroke="#6d597a" points="336.26,-525.68 336.83,-515.1 329.79,-523.01 336.26,-525.68"/>
<text xml:space="preserve" text-anchor="middle" x="335.46" y="-537.4" font-family="Helvetica,sans-Serif" font-size="10.00">tick</text>
</g>
<!-- n_5b5b226872222c385d5d&#45;&gt;n_5b5b226872222c395d5d -->
<g id="edge20" class="edge">
<title>n_5b5b226872222c385d5d&#45;&gt;n_5b5b226872222c395d5d</title>
<path fill="none" stroke="#6d597a" d="M361.06,-454.22C366.53,-440.92 373.11,-424.92 379.03,-410.54"/>
<polygon fill="#6d597a" stroke="#6d597a" points="382.26,-411.9 382.83,-401.32 375.79,-409.23 382.26,-411.9"/>
<text xml:space="preserve" text-anchor="middle" x="381.46" y="-423.62" font-family="Helvetica,sans-Serif" font-size="10.00">tick</text>
</g>
<!-- n_5b5b226872222c395d5d&#45;&gt;n_5b5b226872222c31305d5d -->
<g id="edge21" class="edge">
<title>n_5b5b226872222c395d5d&#45;&gt;n_5b5b226872222c31305d5d</title>
<path fill="none" stroke="#6d597a" d="M406.28,-340.44C411.4,-327.14 417.55,-311.14 423.09,-296.76"/>
<polygon fill="#6d597a" stroke="#6d597a" points="426.31,-298.14 426.63,-287.55 419.77,-295.63 426.31,-298.14"/>
<text xml:space="preserve" text-anchor="middle" x="425.87" y="-309.84" font-family="Helvetica,sans-Serif" font-size="10.00">tick</text>
</g>
<!-- n_5b5b226872222c31305d5d&#45;&gt;n_5b5b226872222c31315d5d -->
<g id="edge22" class="edge">
<title>n_5b5b226872222c31305d5d&#45;&gt;n_5b5b226872222c31315d5d</title>
<path fill="none" stroke="#6d597a" d="M446.97,-226.66C451.01,-213.36 455.88,-197.36 460.25,-182.98"/>
<polygon fill="#6d597a" stroke="#6d597a" points="463.48,-184.39 463.04,-173.81 456.78,-182.36 463.48,-184.39"/>
<text xml:space="preserve" text-anchor="middle" x="464.1" y="-196.06" font-family="Helvetica,sans-Serif" font-size="10.00">tick</text>
</g>
<!-- n_5b5b226872222c31315d5d&#45;&gt;n_5b5b226872222c31325d5d -->
<g id="edge23" class="edge">
<title>n_5b5b226872222c31315d5d&#45;&gt;n_5b5b226872222c31325d5d</title>
<path fill="none" stroke="#6d597a" d="M472.21,-112.88C472.21,-99.85 472.21,-84.21 472.21,-70.04"/>
<polygon fill="#6d597a" stroke="#6d597a" points="475.71,-70.09 472.21,-60.09 468.71,-70.09 475.71,-70.09"/>
<text xml:space="preserve" text-anchor="middle" x="480.09" y="-82.28" font-family="Helvetica,sans-Serif" font-size="10.00">tick</text>
</g>
<!-- n_5b5b226872222c31325d5d&#45;&gt;n_5b5b226872222c315d5d -->
<g id="edge24" class="edge">
<title>n_5b5b226872222c31325d5d&#45;&gt;n_5b5b226872222c315d5d</title>
<path fill="none" stroke="#6d597a" d="M441.31,-30.75C338.18,-34.44 12.21,-53.12 12.21,-141.67 12.21,-1167.69 12.21,-1167.69 12.21,-1167.69 12.21,-1191.65 15.64,-1218.23 19.21,-1239.47"/>
<polygon fill="#6d597a" stroke="#6d597a" points="15.74,-1239.93 20.93,-1249.17 22.63,-1238.71 15.74,-1239.93"/>
<text xml:space="preserve" text-anchor="middle" x="20.09" y="-651.18" font-family="Helvetica,sans-Serif" font-size="10.00">tick</text>
</g>
</g>
</svg>
